<svg width="214" height="65" viewBox="0 0 214 65" fill="none" xmlns="http://www.w3.org/2000/svg">
<rect width="214" height="65" fill="#D9D9D9"/>
<path d="M94.4456 19.7201L107.5 14.126L120.554 19.7201C120.922 19.8777 121.235 20.1397 121.455 20.4736C121.675 20.8075 121.792 21.1986 121.792 21.5985V35.6002C121.792 37.76 121.221 39.8814 120.137 41.7494C119.053 43.6174 117.495 45.1657 115.62 46.2373L107.5 50.876L99.3803 46.2353C97.5058 45.164 95.9477 43.6164 94.8638 41.7491C93.78 39.8819 93.2089 37.7613 93.2084 35.6023V21.5985C93.2084 21.199 93.3257 20.8083 93.5456 20.4748C93.7655 20.1413 94.0784 19.8796 94.4456 19.7222" fill="#E7E7E7"/>
<path d="M107.5 14.1255L108.304 12.2472C108.05 12.1382 107.777 12.082 107.5 12.082C107.224 12.082 106.95 12.1382 106.696 12.2472L107.5 14.1255ZM107.5 50.8755L106.487 52.6477C106.796 52.8239 107.145 52.9165 107.5 52.9165C107.855 52.9165 108.204 52.8239 108.513 52.6477L107.5 50.8755ZM106.696 12.2492L93.6412 17.8413L95.2501 21.598L108.304 16.0038L106.696 12.2492ZM91.1667 21.596V35.6018H95.2501V21.596H91.1667ZM98.3677 48.009L106.487 52.6477L108.513 49.1033L100.393 44.4626L98.3677 48.009ZM108.513 52.6477L116.632 48.009L114.607 44.4626L106.487 49.1033L108.513 52.6477ZM123.833 35.5998V21.598H119.75V35.6038L123.833 35.5998ZM121.359 17.8434L108.304 12.2492L106.696 16.0018L119.75 21.598L121.359 17.8434ZM123.833 21.598C123.833 20.799 123.599 20.0176 123.159 19.3506C122.719 18.6836 122.093 18.1582 121.359 17.8434L119.75 21.598H123.833ZM116.632 48.009C118.82 46.7588 120.639 44.9543 121.903 42.7746C123.168 40.595 123.834 38.1197 123.833 35.5998H119.75C119.75 37.3995 119.274 39.1671 118.37 40.7236C117.467 42.2801 116.168 43.57 114.605 44.4626L116.632 48.009ZM91.1667 35.5998C91.1666 38.1194 91.8326 40.5942 93.0972 42.7735C94.3618 44.9527 96.1801 46.7589 98.3677 48.009L100.393 44.4626C98.8313 43.5701 97.5331 42.2807 96.63 40.725C95.7269 39.1693 95.2508 37.4027 95.2501 35.6038L91.1667 35.5998ZM93.6412 17.8413C92.9066 18.1563 92.2805 18.682 91.8406 19.3494C91.4007 20.0168 91.1664 20.7987 91.1667 21.598H95.2501L93.6412 17.8413Z" fill="#20376D"/>
<path d="M113.625 28.417L105.458 36.5837L101.375 32.5003" stroke="#20376D" stroke-width="2" stroke-linecap="round" stroke-linejoin="round"/>
</svg>
