<svg width="137" height="31" viewBox="0 0 137 31" fill="none" xmlns="http://www.w3.org/2000/svg">
<g clip-path="url(#clip0_711_107)">
<path d="M14.2523 30.9859C9.79967 30.9859 5.3471 30.9859 0.89452 30.9859C0.190952 30.9859 -0.00671616 30.8452 -1.55189e-05 30.2753C0.036838 27.185 0.0267871 24.0912 -1.55189e-05 21.0008C-0.0123341 20.8019 0.0428258 20.6047 0.156532 20.441C0.270239 20.2774 0.435834 20.1569 0.626495 20.0992C4.95511 18.0389 9.27256 15.9619 13.5788 13.8681C13.761 13.7683 13.9662 13.7183 14.1738 13.723C14.3814 13.7277 14.5841 13.787 14.7615 13.8949C19.1147 15.9731 23.4701 18.0412 27.8278 20.0992C28.3002 20.3204 28.471 20.5617 28.4677 20.9908C28.4442 24.0845 28.4375 27.1783 28.4677 30.2686C28.4677 30.8251 28.3035 30.9893 27.5832 30.9859C23.1574 30.9725 18.7048 30.9859 14.2523 30.9859Z" fill="#21386D"/>
<path d="M0.0234375 14.944C0.0234375 10.1073 0.0234375 5.3041 0.0234375 0.504275C0.0234375 0.0685366 0.227807 0.0283203 0.693502 0.0283203C9.75947 0.0283203 18.8232 0.0283203 27.8847 0.0283203C28.3806 0.0283203 28.5179 0.132224 28.5146 0.52774C28.4978 5.35438 28.5146 10.181 28.5146 15.0948C26.2598 14.5216 24.0653 13.9686 21.8742 13.4189C19.529 12.8189 17.1637 12.2223 14.8151 11.6056C14.3984 11.4917 13.9587 11.4917 13.542 11.6056C9.33398 12.6647 5.12151 13.7161 0.904571 14.7596L0.0234375 14.944Z" fill="#2C95D2"/>
</g>
<path d="M75.9214 23.8163V0.417835C75.9214 0.313752 75.8773 0.213933 75.7988 0.140335C75.7203 0.0667373 75.6138 0.0253906 75.5028 0.0253906H68.3125C68.2015 0.0253906 68.095 0.0667373 68.0165 0.140335C67.938 0.213933 67.8939 0.313752 67.8939 0.417835V30.5489C67.8939 30.6529 67.938 30.7528 68.0165 30.8264C68.095 30.9 68.2015 30.9413 68.3125 30.9413H85.9859C86.0969 30.9413 86.2034 30.9 86.2819 30.8264C86.3604 30.7528 86.4045 30.6529 86.4045 30.5489V24.6186C86.4045 24.5145 86.3604 24.4147 86.2819 24.3411C86.2034 24.2675 86.0969 24.2261 85.9859 24.2261H76.3399C76.2834 24.2262 76.2274 24.2155 76.1753 24.1947C76.1233 24.1739 76.0763 24.1434 76.0372 24.1051C75.9981 24.0668 75.9676 24.0214 75.9477 23.9718C75.9278 23.9222 75.9188 23.8692 75.9214 23.8163Z" fill="#21386D"/>
<path d="M97.9679 6.44009V12.9679C97.9679 13.0718 98.011 13.1714 98.0876 13.2449C98.1642 13.3184 98.2681 13.3596 98.3764 13.3596H108.226C108.292 13.3597 108.357 13.3752 108.416 13.4047C108.474 13.4342 108.524 13.477 108.562 13.5292C108.599 13.5814 108.623 13.6416 108.631 13.7045C108.639 13.7674 108.631 13.8313 108.607 13.8906L106.592 19.2173C106.564 19.293 106.512 19.3587 106.444 19.4055C106.376 19.4522 106.294 19.4776 106.211 19.4784H98.3764C98.2681 19.4784 98.1642 19.5197 98.0876 19.5931C98.011 19.6666 97.9679 19.7662 97.9679 19.8701V30.5496C97.9679 30.6535 97.9249 30.7531 97.8483 30.8266C97.7717 30.9 97.6678 30.9413 97.5594 30.9413H90.5151C90.4068 30.9413 90.3029 30.9 90.2263 30.8266C90.1496 30.7531 90.1066 30.6535 90.1066 30.5496V0.417062C90.1066 0.313184 90.1496 0.213561 90.2263 0.140108C90.3029 0.0666559 90.4068 0.0253906 90.5151 0.0253906H110.677C110.785 0.0253906 110.889 0.0666559 110.966 0.140108C111.042 0.213561 111.085 0.313184 111.085 0.417062V5.63934C111.085 5.74322 111.042 5.84285 110.966 5.9163C110.889 5.98975 110.785 6.03102 110.677 6.03102H98.3492C98.2424 6.03774 98.1427 6.08437 98.0714 6.16086C98.0001 6.23736 97.9629 6.33762 97.9679 6.44009Z" fill="#21386D"/>
<path d="M121.898 11.2011L129.084 30.6802C129.11 30.7567 129.159 30.8231 129.225 30.87C129.291 30.9169 129.37 30.9418 129.451 30.9413H136.611C136.673 30.9407 136.735 30.9252 136.79 30.8962C136.846 30.8671 136.893 30.8253 136.929 30.7743C136.965 30.7232 136.988 30.6643 136.996 30.6025C137.005 30.5407 136.998 30.4778 136.978 30.4191L126.045 0.286505C126.017 0.210044 125.966 0.144069 125.899 0.0974057C125.831 0.0507427 125.752 0.0256172 125.67 0.0253906H117.471C117.39 0.0261534 117.312 0.0516174 117.246 0.0983282C117.18 0.145039 117.131 0.210735 117.104 0.286505L106.172 30.4191C106.151 30.4778 106.144 30.5407 106.153 30.6025C106.161 30.6643 106.184 30.7232 106.22 30.7743C106.256 30.8253 106.304 30.8671 106.359 30.8962C106.414 30.9252 106.476 30.9407 106.538 30.9413H113.602C113.686 30.9417 113.767 30.9158 113.834 30.8673C113.902 30.8189 113.952 30.7503 113.978 30.6715L115.724 25.4492L121.129 11.175C121.157 11.0936 121.21 11.0233 121.281 10.9745C121.352 10.9257 121.437 10.9009 121.523 10.9038C121.609 10.9068 121.692 10.9373 121.76 10.9908C121.827 11.0443 121.876 11.118 121.898 11.2011Z" fill="#21386D"/>
<path d="M49.0894 11.2011L56.2757 30.6802C56.3026 30.7559 56.3522 30.8216 56.4178 30.8683C56.4834 30.915 56.5618 30.9405 56.6424 30.9413H63.8026C63.8651 30.9407 63.9266 30.9252 63.982 30.8962C64.0373 30.8671 64.0849 30.8253 64.1208 30.7742C64.1566 30.7231 64.1797 30.6643 64.1882 30.6025C64.1966 30.5407 64.1902 30.4778 64.1693 30.419L53.237 0.286513C53.2134 0.215415 53.1694 0.152786 53.1104 0.106375C53.0514 0.059965 52.9801 0.0318114 52.9052 0.0253987H44.6711C44.5901 0.0248737 44.5111 0.0498358 44.4453 0.0967245C44.3794 0.143613 44.3301 0.210034 44.3043 0.286513L33.3633 30.419C33.3422 30.4785 33.3358 30.5422 33.3447 30.6047C33.3536 30.6671 33.3775 30.7265 33.4144 30.7778C33.4512 30.8291 33.5 30.8707 33.5565 30.8992C33.6129 30.9276 33.6755 30.9421 33.7388 30.9413H40.8028C40.8849 30.9412 40.9647 30.915 41.0307 30.8664C41.0967 30.8179 41.1454 30.7496 41.1696 30.6715L42.916 25.4492L48.3297 11.175C48.3546 11.092 48.4064 11.0197 48.477 10.9692C48.5475 10.9187 48.6329 10.893 48.7197 10.8959C48.8064 10.8989 48.8898 10.9305 48.9567 10.9857C49.0236 11.0409 49.0702 11.1166 49.0894 11.2011Z" fill="#21386D"/>
<defs>
<clipPath id="clip0_711_107">
<rect width="28.4911" height="30.9743" fill="white" transform="translate(0 0.0253906)"/>
</clipPath>
</defs>
</svg>
