<svg width="21" height="27" viewBox="0 0 21 27" fill="none" xmlns="http://www.w3.org/2000/svg">
<path d="M2.662 21.2062C1.88011 20.3062 1.27443 19.2986 0.844964 18.1834C0.415496 17.0681 0.201144 15.882 0.201906 14.625C0.201906 11.8125 1.20311 9.42188 3.20551 7.45312C5.20792 5.48438 7.63941 4.5 10.5 4.5H10.7288L8.89806 2.7L10.5 1.125L15.0769 5.625L10.5 10.125L8.86945 8.52187L10.6716 6.75H10.5C8.2878 6.75 6.39982 7.51875 4.83604 9.05625C3.27226 10.5938 2.49037 12.45 2.49037 14.625C2.49037 15.5812 2.64751 16.4812 2.96179 17.325C3.27607 18.1687 3.71965 18.9281 4.29253 19.6031L2.662 21.2062ZM9.35575 23.625V21.9375H11.6442V23.625H9.35575ZM18.338 21.2062L16.7074 19.6031C17.2795 18.9281 17.7231 18.1687 18.0382 17.325C18.3532 16.4812 18.5104 15.5812 18.5096 14.625C18.5096 13.3875 18.2476 12.2392 17.7235 11.1802C17.1995 10.1212 16.4794 9.23512 15.5632 8.52187L17.1937 6.91875C18.2998 7.85625 19.1771 8.98612 19.8255 10.3084C20.4739 11.6306 20.7981 13.0695 20.7981 14.625C20.7981 15.8812 20.5837 17.0674 20.155 18.1834C19.7263 19.2994 19.1206 20.307 18.338 21.2062Z" fill="#20376D"/>
<path d="M9.322 20.6797C9.322 20.2484 9.1744 19.8221 8.87918 19.4006C8.58397 18.9791 8.25482 18.5384 7.89171 18.0787C7.52861 17.6189 7.19984 17.1408 6.90539 16.6443C6.61094 16.1478 6.46295 15.6179 6.46143 15.0547C6.46143 13.9672 6.85237 13.0391 7.63426 12.2703C8.41615 11.5016 9.36014 11.1172 10.4662 11.1172C11.5723 11.1172 12.5163 11.5016 13.2982 12.2703C14.0801 13.0391 14.471 13.9672 14.471 15.0547C14.471 15.6172 14.3234 16.1471 14.0282 16.6443C13.733 17.1416 13.4039 17.6193 13.0408 18.0776C12.6776 18.5358 12.3489 18.9764 12.0544 19.3994C11.76 19.8224 11.612 20.2492 11.6105 20.6797H9.322Z" fill="#2C95D2"/>
</svg>
