<svg width="137" height="31" viewBox="0 0 137 31" fill="none" xmlns="http://www.w3.org/2000/svg">
<g clip-path="url(#clip0_508_167)">
<path d="M14.2643 30.9866C9.80805 30.9866 5.35178 30.9866 0.895507 30.9866C0.191356 30.9866 -0.00647617 30.8457 0.000230027 30.2754C0.0371141 27.1824 0.0270548 24.0861 0.000230027 20.9932C-0.0120987 20.7941 0.0431069 20.5967 0.156908 20.4329C0.270709 20.2691 0.436441 20.1486 0.627261 20.0908C4.95947 18.0288 9.2805 15.9501 13.5903 13.8546C13.7726 13.7547 13.978 13.7046 14.1858 13.7093C14.3935 13.714 14.5964 13.7734 14.774 13.8814C19.1308 15.9613 23.4898 18.0311 27.8511 20.0908C28.3239 20.3122 28.4949 20.5537 28.4915 20.9831C28.4681 24.0794 28.4613 27.1757 28.4915 30.2687C28.4915 30.8256 28.3272 30.9899 27.6063 30.9866C23.1769 30.9732 18.7206 30.9866 14.2643 30.9866Z" fill="#20376D"/>
<path d="M0.0234375 14.931C0.0234375 10.0903 0.0234375 5.28309 0.0234375 0.479279C0.0234375 0.0431794 0.227977 0.00292969 0.694058 0.00292969C9.76755 0.00292969 18.8388 0.00292969 27.9078 0.00292969C28.4041 0.00292969 28.5416 0.106919 28.5382 0.502764C28.5214 5.33341 28.5382 10.1641 28.5382 15.0819C26.2816 14.5083 24.0853 13.9548 21.8924 13.4046C19.5452 12.8041 17.1779 12.207 14.8274 11.5898C14.4103 11.4758 13.9703 11.4758 13.5532 11.5898C9.34171 12.6498 5.12574 13.7021 0.905302 14.7465L0.0234375 14.931Z" fill="#2C95D2"/>
</g>
<path d="M75.7205 23.8556V0.393512C75.7205 0.289146 75.6763 0.189055 75.5975 0.115257C75.5188 0.0414592 75.4119 0 75.3006 0H68.0866C67.9752 0 67.8684 0.0414592 67.7897 0.115257C67.7109 0.189055 67.6667 0.289146 67.6667 0.393512V30.6065C67.6667 30.7109 67.7109 30.8109 67.7897 30.8847C67.8684 30.9585 67.9752 31 68.0866 31H85.8181C85.9295 31 86.0363 30.9585 86.1151 30.8847C86.1938 30.8109 86.2381 30.7109 86.2381 30.6065V24.6601C86.2381 24.5557 86.1938 24.4556 86.1151 24.3818C86.0363 24.308 85.9295 24.2666 85.8181 24.2666H76.1405C76.0837 24.2666 76.0275 24.2559 75.9753 24.235C75.9231 24.2142 75.876 24.1836 75.8367 24.1452C75.7975 24.1068 75.7669 24.0613 75.747 24.0115C75.727 23.9618 75.718 23.9087 75.7205 23.8556Z" fill="#20376D"/>
<path d="M97.8395 6.43215V12.9778C97.8395 13.0819 97.8827 13.1818 97.9596 13.2555C98.0365 13.3291 98.1407 13.3705 98.2494 13.3705H108.131C108.197 13.3706 108.263 13.3861 108.321 13.4157C108.38 13.4453 108.431 13.4881 108.468 13.5405C108.506 13.5929 108.53 13.6532 108.537 13.7163C108.545 13.7794 108.537 13.8435 108.514 13.9029L106.492 19.2441C106.464 19.3201 106.412 19.3859 106.344 19.4328C106.275 19.4796 106.193 19.5051 106.109 19.5059H98.2494C98.1407 19.5059 98.0365 19.5473 97.9596 19.6209C97.8827 19.6946 97.8395 19.7945 97.8395 19.8986V30.6073C97.8395 30.7114 97.7964 30.8113 97.7195 30.885C97.6427 30.9586 97.5384 31 97.4297 31H90.3622C90.2535 31 90.1493 30.9586 90.0724 30.885C89.9956 30.8113 89.9524 30.7114 89.9524 30.6073V0.392736C89.9524 0.288576 89.9956 0.188682 90.0724 0.11503C90.1493 0.0413775 90.2535 0 90.3622 0H110.59C110.699 0 110.803 0.0413775 110.88 0.11503C110.957 0.188682 111 0.288576 111 0.392736V5.62922C111 5.73338 110.957 5.83328 110.88 5.90693C110.803 5.98058 110.699 6.02196 110.59 6.02196H98.2221C98.115 6.02871 98.0149 6.07545 97.9434 6.15216C97.8718 6.22886 97.8345 6.32939 97.8395 6.43215Z" fill="#20376D"/>
<path d="M121.848 11.2061L129.058 30.7382C129.084 30.8149 129.133 30.8815 129.199 30.9285C129.265 30.9755 129.345 31.0005 129.426 31H136.61C136.672 30.9994 136.734 30.9839 136.789 30.9548C136.845 30.9256 136.893 30.8837 136.929 30.8325C136.965 30.7813 136.988 30.7222 136.996 30.6603C137.005 30.5983 136.998 30.5353 136.977 30.4763L126.009 0.261824C125.981 0.185156 125.929 0.119001 125.862 0.072211C125.795 0.025421 125.715 0.000227161 125.633 0H117.406C117.325 0.000764862 117.247 0.0262981 117.181 0.073136C117.115 0.119974 117.065 0.185849 117.038 0.261824L106.07 30.4763C106.049 30.5353 106.043 30.5983 106.051 30.6603C106.06 30.7222 106.083 30.7813 106.119 30.8325C106.155 30.8837 106.203 30.9256 106.258 30.9548C106.314 30.9839 106.375 30.9994 106.438 31H113.525C113.609 31.0004 113.69 30.9745 113.758 30.9258C113.826 30.8772 113.876 30.8085 113.902 30.7294L115.654 25.493L121.077 11.1799C121.105 11.0983 121.158 11.0279 121.23 10.9789C121.301 10.93 121.386 10.9051 121.472 10.908C121.559 10.911 121.642 10.9415 121.71 10.9952C121.777 11.0489 121.826 11.1228 121.848 11.2061Z" fill="#20376D"/>
<path d="M48.8003 11.2061L56.0103 30.7381C56.0372 30.8141 56.087 30.88 56.1528 30.9268C56.2186 30.9737 56.2973 30.9992 56.3782 31H63.5619C63.6246 30.9994 63.6863 30.9839 63.7419 30.9547C63.7974 30.9256 63.8451 30.8837 63.8811 30.8325C63.9171 30.7812 63.9403 30.7222 63.9488 30.6603C63.9572 30.5983 63.9508 30.5353 63.9298 30.4763L52.9616 0.261832C52.9379 0.190541 52.8937 0.127741 52.8345 0.0812049C52.7754 0.0346684 52.7038 0.0064382 52.6287 8.13837e-06H44.3675C44.2863 -0.000518345 44.207 0.0245116 44.1409 0.0715279C44.0749 0.118544 44.0254 0.185146 43.9995 0.261832L33.0226 30.4763C33.0014 30.536 32.995 30.5998 33.0039 30.6624C33.0128 30.7251 33.0368 30.7846 33.0738 30.836C33.1108 30.8875 33.1597 30.9292 33.2164 30.9577C33.273 30.9863 33.3358 31.0008 33.3993 31H40.4866C40.5688 30.9999 40.6489 30.9736 40.7152 30.9249C40.7814 30.8762 40.8302 30.8077 40.8545 30.7294L42.6066 25.4929L48.0382 11.1799C48.0632 11.0967 48.1151 11.0242 48.1859 10.9736C48.2567 10.923 48.3423 10.8971 48.4294 10.9001C48.5165 10.9031 48.6001 10.9348 48.6672 10.9901C48.7343 11.0455 48.7811 11.1214 48.8003 11.2061Z" fill="#20376D"/>
<defs>
<clipPath id="clip0_508_167">
<rect width="28.5148" height="31" fill="white"/>
</clipPath>
</defs>
</svg>
