<svg width="50" height="50" viewBox="0 0 50 50" fill="none" xmlns="http://www.w3.org/2000/svg">
<path d="M46.85 2H3.15C2.5152 2 2 2.5612 2 3.2535V14.5465C2 15.2388 2.5152 15.8 3.15 15.8H46.85C47.4848 15.8 48 15.2388 48 14.5465V3.2535C48 2.56235 47.4848 2 46.85 2ZM46.85 34.2H3.15C2.5152 34.2 2 34.7612 2 35.4535V46.7465C2 47.4388 2.5152 48 3.15 48H46.85C47.4848 48 48 47.4388 48 46.7465V35.4535C48 34.7612 47.4848 34.2 46.85 34.2Z" fill="url(#paint0_linear_50_142)"/>
<path d="M13.5 12.5417V25.0125L36.5 25.028V37.4583M46.85 2H3.15C2.5152 2 2 2.5612 2 3.2535V14.5465C2 15.2388 2.5152 15.8 3.15 15.8H46.85C47.4848 15.8 48 15.2388 48 14.5465V3.2535C48 2.56235 47.4848 2 46.85 2ZM46.85 34.2H3.15C2.5152 34.2 2 34.7612 2 35.4535V46.7465C2 47.4388 2.5152 48 3.15 48H46.85C47.4848 48 48 47.4388 48 46.7465V35.4535C48 34.7612 47.4848 34.2 46.85 34.2Z" stroke="#5A8514" stroke-width="4"/>
<defs>
<linearGradient id="paint0_linear_50_142" x1="2" y1="25" x2="48" y2="25" gradientUnits="userSpaceOnUse">
<stop stop-color="#72AA15"/>
<stop offset="1" stop-color="#5A8514"/>
</linearGradient>
</defs>
</svg>
