<svg width="9" height="9" viewBox="0 0 9 9" fill="none" xmlns="http://www.w3.org/2000/svg">
<path d="M0.5 0C0.367392 0 0.240215 0.0526784 0.146447 0.146447C0.0526784 0.240215 0 0.367392 0 0.5C0 2.75434 0.895533 4.91635 2.48959 6.51041C4.08365 8.10447 6.24566 9 8.5 9C8.63261 9 8.75979 8.94732 8.85355 8.85355C8.94732 8.75979 9 8.63261 9 8.5V6.75C9 6.61739 8.94732 6.49021 8.85355 6.39645C8.75979 6.30268 8.63261 6.25 8.5 6.25C7.88 6.25 7.275 6.15 6.715 5.965C6.54 5.91 6.345 5.95 6.205 6.09L5.105 7.19C3.68773 6.46517 2.53483 5.31227 1.81 3.895L2.91 2.79C3.05 2.655 3.09 2.46 3.035 2.285C2.85 1.725 2.75 1.12 2.75 0.5C2.75 0.367392 2.69732 0.240215 2.60355 0.146447C2.50979 0.0526784 2.38261 0 2.25 0M6.5 0V1.5H5V2.5H6.5V4H7.5V2.5H9V1.5H7.5V0" fill="#20376D"/>
</svg>
