<svg width="19" height="18" viewBox="0 0 19 18" fill="none" xmlns="http://www.w3.org/2000/svg">
<path d="M0 18V16.1111C0 16.1111 4.75 14.2222 9.5 14.2222C14.25 14.2222 19 16.1111 19 16.1111V18H0ZM8.835 5.81663C7.695 2.1333 1.9 2.9833 1.9 2.9833C1.9 2.9833 2.09 10.35 7.505 9.21663C7.125 6.47774 5.7 5.72218 5.7 5.72218C8.36 5.72218 8.55 8.9333 8.55 8.9333V13.2777H10.45V9.31107C10.45 9.31107 10.45 5.62774 13.3 4.6833C13.3 4.6833 11.4 7.51663 11.4 9.40552C18.05 10.0666 18.05 0.999962 18.05 0.999962C18.05 0.999962 9.595 0.0555179 8.835 5.81663Z" fill="#2C95D2"/>
<path d="M19 16.1107C10.83 12.7107 2.92917 14.694 0 16.1107V17.9996L19 17.9996V16.1107Z" fill="#20376D"/>
</svg>
