<svg width="29" height="28" viewBox="0 0 29 28" fill="none" xmlns="http://www.w3.org/2000/svg">
<path fill-rule="evenodd" clip-rule="evenodd" d="M3.10716 14.0001C3.10644 12.0902 3.62073 10.2131 4.59945 8.55341C5.57816 6.89372 6.98757 5.50865 8.68898 4.53451C10.3904 3.56037 12.3252 3.03072 14.3029 2.99769C16.2807 2.96465 18.2333 3.42936 19.9686 4.34609C20.1479 4.44834 20.3467 4.51473 20.5532 4.54132C20.7596 4.56791 20.9695 4.55415 21.1703 4.50086C21.3711 4.44757 21.5588 4.35585 21.7221 4.23113C21.8855 4.10641 22.0212 3.95125 22.1213 3.77487C22.2213 3.59849 22.2836 3.4045 22.3044 3.20442C22.3252 3.00434 22.3041 2.80227 22.2424 2.61021C22.1808 2.41814 22.0797 2.24002 21.9453 2.08642C21.8109 1.93282 21.6458 1.80688 21.46 1.71609C18.7095 0.261636 15.5447 -0.292641 12.4404 0.136383C9.33599 0.565408 6.45934 1.95461 4.24184 4.09564C2.02435 6.23667 0.585531 9.01413 0.141184 12.0115C-0.303163 15.0088 0.27091 18.0644 1.77731 20.7201C1.98238 21.0554 2.31445 21.3005 2.70333 21.4037C3.0922 21.5069 3.5074 21.46 3.86114 21.273C4.21488 21.086 4.47944 20.7735 4.59889 20.4016C4.71834 20.0297 4.68332 19.6275 4.50123 19.2801C3.58528 17.6608 3.10588 15.8451 3.10716 14.0001ZM27.2227 7.28009C27.1287 7.10066 26.9983 6.94133 26.8392 6.81155C26.6801 6.68178 26.4956 6.58421 26.2967 6.52465C26.0978 6.46509 25.8885 6.44475 25.6812 6.46485C25.474 6.48495 25.2731 6.54507 25.0904 6.64165C24.9077 6.73822 24.747 6.86927 24.6179 7.027C24.4887 7.18474 24.3937 7.36594 24.3385 7.55984C24.2833 7.75373 24.2691 7.95636 24.2966 8.15568C24.3241 8.355 24.3929 8.54694 24.4988 8.72009C25.6826 10.8067 26.1338 13.2077 25.7847 15.5629C25.4357 17.918 24.3052 20.1005 22.5627 21.7828C20.8203 23.4651 18.56 24.5566 16.1207 24.8937C13.6814 25.2307 11.1947 24.7951 9.03352 23.6521C8.67203 23.4606 8.24656 23.4156 7.85071 23.527C7.45486 23.6384 7.12106 23.8971 6.92273 24.2461C6.72441 24.5951 6.67781 25.0059 6.79318 25.3881C6.90856 25.7703 7.17646 26.0926 7.53795 26.2841C10.2885 27.7385 13.4532 28.2928 16.5576 27.8638C19.662 27.4348 22.5386 26.0456 24.7561 23.9045C26.9736 21.7635 28.4124 18.986 28.8568 15.9887C29.3011 12.9914 28.7271 9.93576 27.2207 7.28009M17.6072 14.0001C17.6072 14.7957 17.2798 15.5588 16.6971 16.1214C16.1144 16.684 15.3241 17.0001 14.5 17.0001C13.676 17.0001 12.8856 16.684 12.3029 16.1214C11.7202 15.5588 11.3929 14.7957 11.3929 14.0001C11.3929 13.2044 11.7202 12.4414 12.3029 11.8788C12.8856 11.3162 13.676 11.0001 14.5 11.0001C15.3241 11.0001 16.1144 11.3162 16.6971 11.8788C17.2798 12.4414 17.6072 13.2044 17.6072 14.0001ZM20.7143 14.0001C20.7143 15.5914 20.0596 17.1175 18.8942 18.2427C17.7288 19.3679 16.1482 20.0001 14.5 20.0001C12.8519 20.0001 11.2713 19.3679 10.1059 18.2427C8.94045 17.1175 8.28573 15.5914 8.28573 14.0001C8.28573 12.4088 8.94045 10.8827 10.1059 9.75745C11.2713 8.63223 12.8519 8.00009 14.5 8.00009C16.1482 8.00009 17.7288 8.63223 18.8942 9.75745C20.0596 10.8827 20.7143 12.4088 20.7143 14.0001Z" fill="#20376D"/>
</svg>
