<svg width="214" height="65" viewBox="0 0 214 65" fill="none" xmlns="http://www.w3.org/2000/svg">
<rect width="214" height="65" fill="#D9D9D9"/>
<path d="M125 13H89C88.4696 13 87.9609 13.2107 87.5858 13.5858C87.2107 13.9609 87 14.4696 87 15V51C87 51.5304 87.2107 52.0391 87.5858 52.4142C87.9609 52.7893 88.4696 53 89 53H101C101.53 53 102.039 52.7893 102.414 52.4142C102.789 52.0391 103 51.5304 103 51V45H97C96.4696 45 95.9609 44.7893 95.5858 44.4142C95.2107 44.0391 95 43.5304 95 43C95 42.4696 95.2107 41.9609 95.5858 41.5858C95.9609 41.2107 96.4696 41 97 41H103V37H97C96.4696 37 95.9609 36.7893 95.5858 36.4142C95.2107 36.0391 95 35.5304 95 35C95 34.4696 95.2107 33.9609 95.5858 33.5858C95.9609 33.2107 96.4696 33 97 33H103V29H97C96.4696 29 95.9609 28.7893 95.5858 28.4142C95.2107 28.0391 95 27.5304 95 27C95 26.4696 95.2107 25.9609 95.5858 25.5858C95.9609 25.2107 96.4696 25 97 25H99V23C99 22.4696 99.2107 21.9609 99.5858 21.5858C99.9609 21.2107 100.47 21 101 21C101.53 21 102.039 21.2107 102.414 21.5858C102.789 21.9609 103 22.4696 103 23V29H107V23C107 22.4696 107.211 21.9609 107.586 21.5858C107.961 21.2107 108.47 21 109 21C109.53 21 110.039 21.2107 110.414 21.5858C110.789 21.9609 111 22.4696 111 23V29H115V23C115 22.4696 115.211 21.9609 115.586 21.5858C115.961 21.2107 116.47 21 117 21C117.53 21 118.039 21.2107 118.414 21.5858C118.789 21.9609 119 22.4696 119 23V29H125C125.53 29 126.039 28.7893 126.414 28.4142C126.789 28.0391 127 27.5304 127 27V15C127 14.4696 126.789 13.9609 126.414 13.5858C126.039 13.2107 125.53 13 125 13Z" fill="#2C95D2"/>
<path d="M103 41V46H95.5C94.837 46 94.2011 45.7366 93.7322 45.2678C93.2634 44.7989 93 44.163 93 43.5C93 42.837 93.2634 42.2011 93.7322 41.7322C94.2011 41.2634 94.837 41 95.5 41H103ZM120 29H115V21.5C115 20.837 115.263 20.2011 115.732 19.7322C116.201 19.2634 116.837 19 117.5 19C118.163 19 118.799 19.2634 119.268 19.7322C119.737 20.2011 120 20.837 120 21.5V29Z" fill="#20376D"/>
<path d="M112 29H106.5V20.75C106.5 20.0207 106.79 19.3212 107.305 18.8055C107.821 18.2897 108.521 18 109.25 18C109.979 18 110.679 18.2897 111.195 18.8055C111.71 19.3212 112 20.0207 112 20.75V29ZM100.25 18C99.5207 18 98.8212 18.2897 98.3055 18.8055C97.7897 19.3212 97.5 20.0207 97.5 20.75V23.5H94.75C94.0207 23.5 93.3212 23.7897 92.8055 24.3055C92.2897 24.8212 92 25.5207 92 26.25C92 26.9793 92.2897 27.6788 92.8055 28.1945C93.3212 28.7103 94.0207 29 94.75 29H103V20.75C103 20.0207 102.71 19.3212 102.195 18.8055C101.679 18.2897 100.979 18 100.25 18ZM103 32.5V38H94.75C94.0207 38 93.3212 37.7103 92.8055 37.1945C92.2897 36.6788 92 35.9793 92 35.25C92 34.5207 92.2897 33.8212 92.8055 33.3055C93.3212 32.7897 94.0207 32.5 94.75 32.5H103Z" fill="#20376D"/>
</svg>
