<svg width="20" height="24" viewBox="0 0 20 24" fill="none" xmlns="http://www.w3.org/2000/svg">
<path fill-rule="evenodd" clip-rule="evenodd" d="M17.9892 4.76883C19.2987 6.19326 19.8172 8.15222 19.545 9.99998H17.5884C17.8821 8.66109 17.5523 7.18772 16.5992 6.15093C15.1885 4.61639 12.9386 4.61639 11.5279 6.15093L9.9999 7.81308L8.47187 6.15089C7.06116 4.61634 4.81129 4.61634 3.40058 6.15089C2.44744 7.18772 2.11769 8.66109 2.41134 9.99998H0.454846C0.18252 8.15222 0.70112 6.19322 2.01056 4.76878C4.02217 2.58065 7.19344 2.42268 9.37241 4.29501C9.54431 4.44288 9.70775 4.60107 9.86189 4.76878L9.9999 4.91892L10.1379 4.76883C10.2944 4.59862 10.4578 4.4407 10.6274 4.29501C12.8064 2.42268 15.9776 2.58061 17.9892 4.76883ZM14.6937 14H17.3543L9.9999 22L2.64549 14H5.30605L9.9999 19.1059L14.6937 14Z" fill="#20376D"/>
<path d="M0 10.7996H4.38099L7 5.59961L10 11.5574L11.5 8.57895L12.618 10.7996H20V12.7858H11.618L10 15.9996L7 10.0409L5.61802 12.7858H0V10.7996Z" fill="#2C95D2"/>
</svg>
