<svg width="37" height="37" viewBox="0 0 37 37" fill="none" xmlns="http://www.w3.org/2000/svg">
<g clip-path="url(#clip0_503_125)">
<g clip-path="url(#clip1_503_125)">
<path d="M25.3001 -0.0461523C25.3849 -0.0476806 25.3849 -0.0476806 25.4714 -0.0492398C25.5324 -0.0485084 25.5934 -0.047777 25.6562 -0.0470234C25.7212 -0.0476566 25.7863 -0.0482898 25.8532 -0.0489421C26.0678 -0.0505299 26.2822 -0.0494804 26.4967 -0.0482584C26.646 -0.0485019 26.7953 -0.0488526 26.9446 -0.049306C27.2573 -0.0498385 27.5701 -0.0490651 27.8828 -0.0473763C28.2835 -0.0453176 28.6842 -0.0465031 29.0849 -0.0486671C29.3932 -0.0499732 29.7014 -0.049557 30.0096 -0.0486209C30.1574 -0.04838 30.3051 -0.0486753 30.4529 -0.0495169C30.6595 -0.0504353 30.8659 -0.0490349 31.0725 -0.0470234C31.1334 -0.0477548 31.1944 -0.0484863 31.2572 -0.0492398C31.5627 -0.0437341 31.6908 -0.0252768 31.9439 0.161351C32.0947 0.373209 32.1295 0.457653 32.1213 0.712507C32.1201 0.776551 32.119 0.840595 32.1178 0.906579C32.1147 0.972486 32.1117 1.03839 32.1086 1.1063C32.107 1.1736 32.1053 1.24091 32.1037 1.31025C32.0994 1.47574 32.0935 1.641 32.086 1.80637C32.1413 1.80589 32.1967 1.80541 32.2537 1.80491C32.7757 1.80056 33.2978 1.79727 33.8198 1.79514C34.0882 1.79401 34.3566 1.79248 34.625 1.79002C34.8841 1.78766 35.1432 1.78636 35.4023 1.7858C35.501 1.7854 35.5998 1.78462 35.6985 1.78345C35.8371 1.78187 35.9756 1.78178 36.1142 1.78176C36.193 1.78128 36.2718 1.7808 36.3529 1.7803C36.5963 1.81001 36.7317 1.87835 36.9278 2.02317C37.0089 2.18539 37.0108 2.27696 37.014 2.45699C37.0152 2.51658 37.0163 2.57617 37.0175 2.63756C37.0207 2.91021 37.0237 3.18285 37.0254 3.45551C37.0266 3.59928 37.0285 3.74304 37.0313 3.88678C37.0353 4.09411 37.0368 4.30134 37.0379 4.50871C37.0395 4.57278 37.0412 4.63685 37.0429 4.70287C37.0426 4.79328 37.0426 4.79328 37.0422 4.88551C37.0428 4.93819 37.0434 4.99087 37.044 5.04515C36.9743 5.29529 36.8395 5.40548 36.6387 5.56418C36.4225 5.60764 36.4225 5.60764 36.1798 5.6052C36.0887 5.60518 35.9976 5.60515 35.9037 5.60512C35.805 5.60328 35.7063 5.60139 35.6075 5.59947C35.506 5.5988 35.4044 5.59828 35.3029 5.59792C35.0364 5.59654 34.7699 5.593 34.5035 5.58899C34.2312 5.58529 33.959 5.58365 33.6867 5.58183C33.1531 5.57796 32.6196 5.5718 32.086 5.56418C32.0902 5.62259 32.0944 5.681 32.0987 5.74118C32.102 5.8184 32.1052 5.89563 32.1086 5.97519C32.1128 6.05149 32.117 6.12778 32.1213 6.20639C32.086 6.43137 32.086 6.43137 31.7247 6.7927C31.2477 6.7927 30.7708 6.7927 30.2794 6.7927C30.2794 16.3318 30.2794 25.8708 30.2794 35.6989C30.5655 35.6751 30.8517 35.6513 31.1466 35.6267C31.075 35.5074 31.0035 35.3882 30.9298 35.2654C30.7354 34.7793 30.7553 34.2994 30.9069 33.8028C31.134 33.2829 31.5936 32.9254 32.086 32.6638C32.0741 32.6146 32.0622 32.5654 32.0499 32.5147C31.9472 31.9117 32.0585 31.3883 32.3886 30.8752C32.6428 30.543 32.9942 30.3376 33.3868 30.2068C33.9805 30.1602 34.5476 30.139 35.0489 30.4958C35.3834 30.8035 35.7353 31.1885 35.7886 31.6573C35.7928 31.8217 35.7905 31.9845 35.7851 32.1489C35.7841 32.2055 35.7832 32.2622 35.7821 32.3205C35.7796 32.4591 35.7757 32.5976 35.7716 32.7361C35.858 32.7733 35.9445 32.8106 36.0335 32.849C36.4622 33.0645 36.7942 33.4226 36.9659 33.8771C37.1011 34.5092 37.0595 35.0822 36.711 35.6267C36.8064 35.6505 36.9018 35.6744 37.0001 35.6989C37.0001 36.1282 37.0001 36.5575 37.0001 36.9997C24.7901 36.9997 12.5801 36.9997 7.53759e-05 36.9997C7.53759e-05 36.5705 7.53759e-05 36.1412 7.53759e-05 35.6989C0.167009 35.6513 0.333943 35.6036 0.505935 35.5544C0.676819 35.4311 0.676819 35.4311 0.819539 35.2727C0.875507 35.2148 0.931476 35.1569 0.989141 35.0973C1.04794 35.0348 1.10675 34.9724 1.16733 34.908C1.29476 34.7767 1.42221 34.6454 1.54969 34.5142C1.74889 34.3069 1.94759 34.0992 2.14573 33.8909C2.33776 33.6897 2.53153 33.4903 2.72556 33.291C2.78422 33.2283 2.84288 33.1655 2.90332 33.1008C3.36831 32.6258 3.3683 32.6258 3.70718 32.6089C3.99083 32.6671 4.09799 32.7135 4.30073 32.9145C4.36169 32.9739 4.42264 33.0333 4.48545 33.0946C4.55635 33.1675 4.62695 33.2407 4.69734 33.3142C4.73859 33.357 4.77983 33.3998 4.82233 33.444C4.96206 33.5894 5.10141 33.7352 5.24074 33.881C5.38987 34.0365 5.53902 34.1919 5.68826 34.3473C5.78978 34.4538 5.89058 34.5611 5.99066 34.669C6.13762 34.8269 6.28727 34.9819 6.43764 35.1366C6.48111 35.1848 6.52458 35.233 6.56936 35.2826C7.02848 35.7448 7.19589 35.641 7.94929 35.6989C7.94929 26.5414 7.94929 17.3839 7.94929 7.94895C8.37855 7.94895 8.80781 7.94895 9.25008 7.94895C9.25008 8.78362 9.25008 9.61828 9.25008 10.4782C11.8972 10.4782 14.5443 10.4782 17.2716 10.4782C17.2716 10.9075 17.2716 11.3368 17.2716 11.779C14.6245 11.779 11.9774 11.779 9.25008 11.779C9.25008 12.3514 9.25008 12.9237 9.25008 13.5134C10.4663 13.5134 11.6825 13.5134 12.9356 13.5134C12.9356 13.3226 12.9356 13.1318 12.9356 12.9353C13.3649 12.9353 13.7941 12.9353 14.2364 12.9353C14.2364 13.1261 14.2364 13.3168 14.2364 13.5134C15.4288 13.5134 16.6212 13.5134 17.8497 13.5134C17.8497 13.108 17.8497 12.7026 17.8497 12.2849C18.2789 12.2849 18.7082 12.2849 19.1505 12.2849C19.1505 12.6903 19.1505 13.0957 19.1505 13.5134C20.3428 13.5134 21.5352 13.5134 22.7637 13.5134C22.7637 12.7026 22.7637 11.8918 22.7637 11.0564C23.193 11.0564 23.6223 11.0564 24.0645 11.0564C24.0645 19.1884 24.0645 27.3205 24.0645 35.6989C24.8515 35.6989 25.6385 35.6989 26.4493 35.6989C26.4493 26.1599 26.4493 16.6208 26.4493 6.7927C25.9723 6.7927 25.4954 6.7927 25.004 6.7927C24.8847 6.67346 24.7655 6.55422 24.6427 6.43137C24.6427 6.1452 24.6427 5.85903 24.6427 5.56418C17.7507 5.56418 10.8587 5.56418 3.75789 5.56418C3.75789 9.26057 3.75789 12.957 3.75789 16.7654C3.97252 16.8369 3.97252 16.8369 4.19148 16.9099C4.6377 17.2725 4.9129 17.712 4.9864 18.2829C5.00091 18.755 4.93287 19.1255 4.67165 19.5222C4.6014 19.724 4.68026 19.8272 4.76961 20.0173C4.85128 20.1366 4.93728 20.253 5.02649 20.3668C5.10208 20.4643 5.10208 20.4643 5.17921 20.5638C5.23184 20.6309 5.28447 20.698 5.3387 20.7671C5.44269 20.8999 5.54639 21.0329 5.64978 21.1662C5.69579 21.2248 5.74179 21.2835 5.78919 21.3439C6.12534 21.8137 6.25907 22.102 6.25077 22.6756C6.25088 22.7348 6.25098 22.794 6.25109 22.855C6.25097 22.9795 6.25014 23.1039 6.24864 23.2283C6.24654 23.418 6.24715 23.6076 6.24809 23.7973C6.24764 23.9187 6.24703 24.0401 6.24625 24.1616C6.24647 24.2178 6.24668 24.2741 6.2469 24.332C6.23837 24.8276 6.08827 25.1592 5.73164 25.5106C5.68115 25.5607 5.63066 25.6109 5.57864 25.6625C5.52629 25.7134 5.47394 25.7642 5.42 25.8166C5.36764 25.8686 5.31529 25.9206 5.26135 25.9741C4.68977 26.5373 4.68977 26.5373 4.33102 26.5457C4.27214 26.5473 4.21325 26.5489 4.15258 26.5506C4.08913 26.5514 4.02567 26.5522 3.96029 26.5531C3.8946 26.5541 3.82891 26.5551 3.76122 26.5561C3.62206 26.5578 3.48289 26.5591 3.34372 26.5599C3.13205 26.5618 2.92065 26.5673 2.70905 26.5727C2.5736 26.5739 2.43815 26.5749 2.3027 26.5757C2.23997 26.5779 2.17724 26.58 2.11262 26.5822C1.59169 26.5785 1.36859 26.3736 1.01179 26.0154C0.921462 25.9421 0.830369 25.8698 0.738469 25.7985C0.27835 25.4144 -0.0427167 25.0772 -0.121591 24.4659C-0.143527 24.1334 -0.139047 23.8052 -0.126389 23.4725C-0.125325 23.4035 -0.12426 23.3344 -0.123163 23.2633C-0.105129 22.2705 0.00863507 21.5049 0.74108 20.7778C0.807331 20.7166 0.807331 20.7166 0.87492 20.6541C1.02929 20.5064 1.16668 20.3518 1.30283 20.1872C1.34577 20.1359 1.38871 20.0845 1.43295 20.0316C1.53475 19.8754 1.53475 19.8754 1.502 19.6877C1.44465 19.4968 1.44465 19.4968 1.33247 19.2676C1.22859 19.0056 1.22859 19.0056 1.22859 18.4997C1.65785 18.4997 2.08711 18.4997 2.52937 18.4997C2.60092 18.6428 2.67246 18.7859 2.74617 18.9333C3.01402 19.0161 3.1672 19.0458 3.42366 18.9243C3.57286 18.7521 3.60793 18.6555 3.61336 18.4275C3.50712 18.1933 3.44122 18.0875 3.20658 17.9752C3.13662 17.9546 3.06666 17.9339 2.99458 17.9126C2.61627 17.799 2.61627 17.799 2.45711 17.5603C2.43932 17.3463 2.43932 17.3463 2.43973 17.0788C2.4396 17.0296 2.43948 16.9804 2.43935 16.9298C2.43911 16.7647 2.43991 16.5996 2.4407 16.4345C2.44074 16.3162 2.44072 16.198 2.44063 16.0798C2.44059 15.7585 2.44144 15.4372 2.44245 15.1159C2.44335 14.7803 2.44344 14.4447 2.44361 14.109C2.44406 13.4733 2.44525 12.8375 2.4467 12.2018C2.44831 11.4781 2.44911 10.7544 2.44983 10.0307C2.45134 8.54188 2.45389 7.05303 2.45711 5.56418C2.39551 5.56608 2.33392 5.56797 2.27046 5.56992C2.04084 5.57609 1.81125 5.58061 1.58157 5.58403C1.48238 5.58584 1.3832 5.58831 1.28404 5.59144C1.14111 5.59585 0.998111 5.59769 0.855125 5.59947C0.726265 5.60231 0.726265 5.60231 0.594802 5.6052C0.294123 5.55236 0.189477 5.43644 7.53759e-05 5.20286C-0.0453211 5.04612 -0.0453211 5.04612 -0.0455317 4.88781C-0.0468903 4.7981 -0.0468892 4.7981 -0.0482752 4.70658C-0.0473171 4.64296 -0.0463601 4.57934 -0.0453729 4.51379C-0.0455472 4.44762 -0.0457204 4.38145 -0.0459 4.31327C-0.0458294 4.17375 -0.0448647 4.03423 -0.0430617 3.89472C-0.0405791 3.6812 -0.04157 3.46789 -0.0429735 3.25437C-0.042475 3.11863 -0.0417761 2.9829 -0.0408563 2.84717C-0.0412148 2.7834 -0.0415743 2.71964 -0.0419436 2.65394C-0.0334548 2.21202 -0.0334537 2.21202 0.138132 1.98522C0.386457 1.80995 0.527058 1.79737 0.829533 1.79748C0.914151 1.79733 0.998768 1.79719 1.08595 1.79704C1.17972 1.79725 1.2735 1.79746 1.37012 1.79768C1.4701 1.79765 1.57008 1.79759 1.67006 1.79749C1.94576 1.79733 2.22145 1.79762 2.49715 1.79798C2.79409 1.79829 3.09103 1.79819 3.38798 1.79814C3.90277 1.7981 4.41756 1.79832 4.93236 1.79873C5.67667 1.79932 6.42098 1.79951 7.16529 1.7996C8.37278 1.79976 9.58027 1.80024 10.7878 1.80092C11.961 1.80158 13.1342 1.80209 14.3074 1.8024C14.3797 1.80242 14.4519 1.80244 14.5264 1.80246C14.889 1.80255 15.2515 1.80264 15.6141 1.80273C18.6236 1.80348 21.6331 1.80476 24.6427 1.80637C24.6408 1.76448 24.6389 1.72259 24.6369 1.67943C24.6294 1.48841 24.6247 1.29741 24.6201 1.1063C24.617 1.04039 24.614 0.974484 24.6109 0.906579C24.6048 0.573091 24.6047 0.413066 24.8062 0.136685C24.9964 0.00497694 25.0748 -0.0455226 25.3001 -0.0461523ZM25.9434 1.30051C25.9434 2.08748 25.9434 2.87446 25.9434 3.68528C26.7304 3.68528 27.5174 3.68528 28.3282 3.68528C28.3282 2.8983 28.3282 2.11133 28.3282 1.30051C27.5412 1.30051 26.7543 1.30051 25.9434 1.30051ZM29.629 1.30051C29.6279 1.39751 29.6269 1.49451 29.6258 1.59444C29.6216 1.95432 29.616 2.31417 29.61 2.67402C29.6076 2.82976 29.6056 2.98552 29.6039 3.14127C29.6015 3.36517 29.5977 3.589 29.5937 3.81287C29.593 3.91733 29.593 3.91733 29.5923 4.0239C29.5909 4.08899 29.5894 4.15407 29.588 4.22113C29.5872 4.27826 29.5864 4.33539 29.5855 4.39425C29.5491 4.59412 29.4779 4.69398 29.3399 4.84153C29.1403 4.90805 29.0131 4.92449 28.8066 4.92863C28.743 4.93007 28.6793 4.93151 28.6138 4.933C28.5453 4.93421 28.4769 4.93541 28.4064 4.93666C28.3361 4.93816 28.2659 4.93966 28.1935 4.94121C27.9689 4.94594 27.7443 4.95019 27.5197 4.95444C27.3675 4.95756 27.2153 4.96072 27.0631 4.9639C26.6899 4.97164 26.3167 4.97896 25.9434 4.98606C25.9434 5.15299 25.9434 5.31993 25.9434 5.49192C27.5412 5.49192 29.139 5.49192 30.7852 5.49192C30.7852 4.10875 30.7852 2.72559 30.7852 1.30051C30.4037 1.30051 30.0221 1.30051 29.629 1.30051ZM1.30086 3.10715C1.30086 3.48871 1.30086 3.87028 1.30086 4.2634C1.96859 4.2634 2.63633 4.2634 3.32429 4.2634C2.9948 3.99981 2.66118 3.75923 2.31258 3.52268C2.25519 3.48262 2.19781 3.44257 2.13869 3.4013C2.08279 3.36348 2.0269 3.32565 1.96931 3.28669C1.91901 3.2522 1.86871 3.21771 1.81688 3.18217C1.63665 3.08088 1.63665 3.08088 1.30086 3.10715ZM4.04695 3.10715C4.34321 3.34416 4.63926 3.56847 4.95027 3.78464C4.99731 3.81902 5.04436 3.85339 5.09283 3.88881C5.35737 4.08004 5.35737 4.08004 5.66926 4.09262C5.73009 4.05359 5.79092 4.01455 5.85359 3.97434C5.8985 3.94576 5.94342 3.91719 5.98969 3.88775C6.14682 3.78562 6.30063 3.67962 6.4543 3.57236C6.50782 3.53571 6.56133 3.49905 6.61647 3.46128C6.81606 3.32429 6.81606 3.32429 7.00984 3.17942C7.00984 3.15557 7.00984 3.13172 7.00984 3.10715C6.03209 3.10715 5.05433 3.10715 4.04695 3.10715ZM11.4903 3.10715C11.7556 3.37244 12.0104 3.57435 12.3168 3.78464C12.3642 3.81902 12.4116 3.85339 12.4604 3.88881C12.7261 4.07957 12.7261 4.07957 13.0384 4.09262C13.1306 4.03407 13.1306 4.03407 13.2247 3.97434C13.2718 3.94576 13.319 3.91719 13.3675 3.88775C13.5342 3.7855 13.6979 3.67946 13.8615 3.57236C13.9185 3.53571 13.9755 3.49905 14.0341 3.46128C14.2465 3.32441 14.2465 3.32441 14.4532 3.17942C14.4532 3.15557 14.4532 3.13172 14.4532 3.10715C13.4754 3.10715 12.4977 3.10715 11.4903 3.10715ZM18.8614 3.10715C19.1281 3.37386 19.383 3.57132 19.6925 3.78013C19.7404 3.81389 19.7884 3.84766 19.8378 3.88246C19.8845 3.91399 19.9312 3.94552 19.9793 3.97801C20.0213 4.00682 20.0634 4.03564 20.1067 4.06532C20.2781 4.13719 20.3514 4.11292 20.5235 4.04661C20.6795 3.96026 20.6795 3.96026 20.8363 3.85239C20.894 3.81383 20.9518 3.77526 21.0113 3.73552C21.0709 3.6951 21.1305 3.65467 21.192 3.61301C21.2527 3.57258 21.3134 3.53215 21.376 3.4905C21.6031 3.33903 21.6031 3.33903 21.8243 3.17942C21.8243 3.15557 21.8243 3.13172 21.8243 3.10715C20.8465 3.10715 19.8688 3.10715 18.8614 3.10715ZM23.8189 3.34173C23.7486 3.39031 23.6783 3.43889 23.6058 3.48895C23.4975 3.56601 23.4975 3.56601 23.387 3.64463C23.3132 3.69572 23.2393 3.74682 23.1632 3.79946C22.8879 3.9908 22.8879 3.9908 22.6192 4.19114C22.6192 4.21498 22.6192 4.23883 22.6192 4.2634C23.2869 4.2634 23.9547 4.2634 24.6427 4.2634C24.6427 3.88184 24.6427 3.50028 24.6427 3.10715C24.2099 3.10715 24.146 3.11322 23.8189 3.34173ZM32.086 3.10715C32.086 3.44102 32.086 3.77489 32.086 4.11887C32.4774 3.87116 32.8685 3.62319 33.2558 3.36912C33.309 3.33428 33.3622 3.29944 33.417 3.26354C33.4547 3.23578 33.4925 3.20802 33.5313 3.17942C33.5313 3.15557 33.5313 3.13172 33.5313 3.10715C33.0544 3.10715 32.5774 3.10715 32.086 3.10715ZM8.86334 3.45465C8.80186 3.49671 8.74038 3.53877 8.67703 3.5821C8.61275 3.62658 8.54848 3.67106 8.48225 3.71689C8.41742 3.7611 8.35258 3.8053 8.28578 3.85084C8.04242 4.01705 8.04242 4.01705 7.80476 4.19114C7.80476 4.21498 7.80476 4.23883 7.80476 4.2634C8.75867 4.2634 9.71258 4.2634 10.6954 4.2634C10.5031 4.07109 10.3628 3.93306 10.1461 3.78803C10.0987 3.75636 10.0514 3.72468 10.0027 3.69205C9.95403 3.66001 9.9054 3.62796 9.8553 3.59495C9.78152 3.5452 9.78152 3.5452 9.70625 3.49445C9.32165 3.23906 9.23927 3.19705 8.86334 3.45465ZM15.894 3.71689C15.7911 3.7832 15.7911 3.7832 15.6861 3.85084C15.6212 3.89299 15.5563 3.93514 15.4895 3.97857C15.3993 4.03704 15.3993 4.03704 15.3074 4.09669C15.264 4.12786 15.2206 4.15903 15.1759 4.19114C15.1759 4.21498 15.1759 4.23883 15.1759 4.2634C16.1298 4.2634 17.0837 4.2634 18.0665 4.2634C17.8727 4.06966 17.7334 3.93287 17.5146 3.78803C17.467 3.75636 17.4193 3.72468 17.3702 3.69205C17.3213 3.66001 17.2723 3.62796 17.2219 3.59495C17.1721 3.56178 17.1223 3.52862 17.071 3.49445C16.5329 3.1389 16.4084 3.38202 15.894 3.71689ZM34.9721 3.75303C34.8795 3.81416 34.8795 3.81416 34.7851 3.87653C34.7267 3.91542 34.6684 3.95431 34.6083 3.99438C34.5542 4.03033 34.5002 4.06629 34.4445 4.10333C34.4055 4.1323 34.3665 4.16128 34.3262 4.19114C34.3262 4.21498 34.3262 4.23883 34.3262 4.2634C34.7794 4.2634 35.2325 4.2634 35.6993 4.2634C35.6993 3.95338 35.6993 3.64336 35.6993 3.32395C35.4681 3.32395 35.1594 3.62793 34.9721 3.75303ZM27.7501 6.7927C27.7501 7.07887 27.7501 7.36504 27.7501 7.65989C27.9874 7.42253 28.1558 7.22051 28.3282 6.93723C28.3282 6.88954 28.3282 6.84184 28.3282 6.7927C28.1374 6.7927 27.9466 6.7927 27.7501 6.7927ZM28.9063 8.31028C28.7362 8.53622 28.5836 8.77453 28.4276 9.01035C28.3599 9.10921 28.3599 9.10921 28.2909 9.21007C28.2486 9.27411 28.2064 9.33816 28.1628 9.40414C28.1039 9.49213 28.1039 9.49213 28.0438 9.58189C27.9473 9.79981 27.9634 9.89323 28.0391 10.1169C28.124 10.2804 28.124 10.2804 28.2334 10.4367C28.2719 10.4943 28.3105 10.5518 28.3502 10.6111C28.4109 10.6996 28.4109 10.6996 28.4727 10.7899C28.5132 10.8503 28.5536 10.9107 28.5952 10.973C28.7466 11.1983 28.7466 11.1983 28.9063 11.4177C28.9302 11.4177 28.954 11.4177 28.9786 11.4177C28.9786 10.3922 28.9786 9.3668 28.9786 8.31028C28.9547 8.31028 28.9309 8.31028 28.9063 8.31028ZM27.7501 12.0681C27.7501 13.0697 27.7501 14.0713 27.7501 15.1032C27.9879 14.806 28.2088 14.509 28.423 14.1954C28.4568 14.1478 28.4906 14.1001 28.5254 14.051C28.5569 14.0047 28.5884 13.9583 28.6209 13.9106C28.6497 13.869 28.6786 13.8274 28.7082 13.7845C28.7804 13.6138 28.7556 13.5405 28.6895 13.3689C28.6032 13.2129 28.6032 13.2129 28.4953 13.0561C28.4567 12.9983 28.4182 12.9406 28.3784 12.8811C28.3178 12.7916 28.3178 12.7916 28.2559 12.7004C28.1953 12.6093 28.1953 12.6093 28.1334 12.5164C27.9819 12.2893 27.9819 12.2893 27.8223 12.0681C27.7985 12.0681 27.7746 12.0681 27.7501 12.0681ZM9.25008 14.8142C9.25008 15.1481 9.25008 15.4819 9.25008 15.8259C10.4663 15.8259 11.6825 15.8259 12.9356 15.8259C12.9356 15.492 12.9356 15.1582 12.9356 14.8142C11.7194 14.8142 10.5032 14.8142 9.25008 14.8142ZM14.2364 14.8142C14.2364 16.0304 14.2364 17.2466 14.2364 18.4997C14.5598 18.4908 14.8833 18.4818 15.2165 18.4726C15.8452 18.4765 16.3607 18.4904 16.846 18.9213C17.0076 19.0908 17.1607 19.263 17.3006 19.451C17.4622 19.6367 17.6605 19.7874 17.8497 19.945C17.8497 18.2519 17.8497 16.5587 17.8497 14.8142C16.6573 14.8142 15.4649 14.8142 14.2364 14.8142ZM19.1505 14.8142C19.1505 16.8412 19.1505 18.8683 19.1505 20.9568C20.3428 20.9568 21.5352 20.9568 22.7637 20.9568C22.7637 18.9297 22.7637 16.9027 22.7637 14.8142C21.5714 14.8142 20.379 14.8142 19.1505 14.8142ZM28.9063 15.7536C28.7365 15.9674 28.5837 16.1937 28.4276 16.4176C28.3825 16.48 28.3374 16.5425 28.2909 16.6069C28.2275 16.698 28.2275 16.698 28.1628 16.791C28.1235 16.8467 28.0842 16.9023 28.0438 16.9596C27.9453 17.1736 27.9647 17.2669 28.0391 17.488C28.124 17.6514 28.124 17.6514 28.2334 17.8078C28.2719 17.8654 28.3105 17.9229 28.3502 17.9822C28.4109 18.0707 28.4109 18.0707 28.4727 18.161C28.5132 18.2214 28.5536 18.2818 28.5952 18.344C28.7466 18.5694 28.7466 18.5694 28.9063 18.7888C28.9302 18.7888 28.954 18.7888 28.9786 18.7888C28.9786 17.7872 28.9786 16.7856 28.9786 15.7536C28.9547 15.7536 28.9309 15.7536 28.9063 15.7536ZM9.25008 17.1267C9.25008 23.2555 9.25008 29.3844 9.25008 35.6989C13.7096 35.6989 18.1691 35.6989 22.7637 35.6989C22.7637 31.2633 22.7637 26.8276 22.7637 22.2575C20.6175 22.2218 20.6175 22.2218 18.4278 22.1853C17.9411 21.9419 17.9411 21.9419 17.785 21.746C17.7494 21.7029 17.7139 21.6597 17.6773 21.6153C17.6399 21.5692 17.6025 21.5231 17.564 21.4756C16.5625 20.2326 16.5625 20.2326 15.1471 19.6438C14.628 19.6061 14.1086 19.6431 13.5932 19.7087C13.2625 19.7376 13.2625 19.7376 13.0802 19.656C12.9964 19.4049 12.9914 19.1738 12.985 18.9122C12.9809 18.7721 12.9809 18.7721 12.9767 18.6292C12.9736 18.5105 12.9704 18.3917 12.9672 18.2694C12.9568 17.8923 12.9464 17.5152 12.9356 17.1267C11.7194 17.1267 10.5032 17.1267 9.25008 17.1267ZM27.7501 19.4392C27.7501 20.4408 27.7501 21.4424 27.7501 22.4743C28.0155 22.2089 28.2142 21.9552 28.423 21.6478C28.4568 21.6004 28.4906 21.5531 28.5254 21.5043C28.5569 21.4578 28.5884 21.4114 28.6209 21.3635C28.6497 21.3219 28.6786 21.2802 28.7082 21.2372C28.7839 21.0452 28.75 20.9352 28.6895 20.74C28.6046 20.5765 28.6046 20.5765 28.4953 20.4201C28.4375 20.3338 28.4375 20.3338 28.3784 20.2458C28.3178 20.1573 28.3178 20.1573 28.2559 20.067C28.1953 19.9764 28.1953 19.9764 28.1334 19.8839C27.9821 19.6585 27.9821 19.6585 27.8223 19.4392C27.7985 19.4392 27.7746 19.4392 27.7501 19.4392ZM1.95125 21.5349C2.69052 21.5349 3.4298 21.5349 4.19148 21.5349C3.83368 20.8295 3.83368 20.8295 3.25824 20.3095C2.61567 20.2135 2.22628 21.0765 1.95125 21.5349ZM1.30086 22.8357C1.17397 24.2872 1.17397 24.2872 1.57185 24.9223C2.15058 25.389 2.93399 25.345 3.64384 25.295C4.05264 25.2446 4.32118 25.1819 4.64314 24.9223C5.04102 24.2872 5.04102 24.2872 4.91414 22.8357C3.72176 22.8357 2.52937 22.8357 1.30086 22.8357ZM28.9063 23.1247C28.7364 23.3524 28.5837 23.5921 28.4276 23.8293C28.3825 23.8958 28.3374 23.9623 28.2909 24.0309C28.2486 24.0952 28.2064 24.1594 28.1628 24.2257C28.1039 24.3142 28.1039 24.3142 28.0438 24.4046C27.9541 24.5619 27.9541 24.5619 27.9786 24.7165C28.0488 24.882 28.1333 25.0225 28.2334 25.1719C28.2719 25.2296 28.3105 25.2874 28.3502 25.3469C28.3906 25.4065 28.4311 25.4661 28.4727 25.5276C28.5132 25.5883 28.5536 25.649 28.5952 25.7116C28.7467 25.9386 28.7467 25.9386 28.9063 26.1599C28.9302 26.1599 28.954 26.1599 28.9786 26.1599C28.9786 25.1583 28.9786 24.1567 28.9786 23.1247C28.9547 23.1247 28.9309 23.1247 28.9063 23.1247ZM27.7501 26.8103C27.7501 27.8357 27.7501 28.8612 27.7501 29.9177C27.9233 29.7012 28.0862 29.4952 28.2413 29.2682C28.2762 29.2172 28.3111 29.1662 28.3471 29.1136C28.3826 29.0615 28.4181 29.0094 28.4547 28.9557C28.4913 28.9021 28.5279 28.8486 28.5656 28.7935C28.6552 28.6625 28.7447 28.5313 28.8341 28.4001C28.8034 28.352 28.7728 28.3038 28.7412 28.2542C28.6988 28.1876 28.6564 28.121 28.6127 28.0523C28.5441 27.9447 28.5441 27.9447 28.4741 27.835C28.3771 27.6821 28.2805 27.5289 28.1845 27.3754C28.1395 27.3037 28.0945 27.232 28.0482 27.1581C28.0066 27.0914 27.9651 27.0248 27.9223 26.9562C27.8893 26.9081 27.8563 26.8599 27.8223 26.8103C27.7985 26.8103 27.7746 26.8103 27.7501 26.8103ZM28.9063 30.5681C28.7365 30.7818 28.5837 31.0082 28.4276 31.232C28.3825 31.2945 28.3374 31.357 28.2909 31.4213C28.2275 31.5125 28.2275 31.5125 28.1628 31.6055C28.1235 31.6611 28.0842 31.7168 28.0438 31.7741C27.9453 31.988 27.9647 32.0813 28.0391 32.3025C28.124 32.4659 28.124 32.4659 28.2334 32.6223C28.2719 32.6798 28.3105 32.7373 28.3502 32.7966C28.4109 32.8851 28.4109 32.8851 28.4727 32.9754C28.5132 33.0358 28.5536 33.0963 28.5952 33.1585C28.7466 33.3839 28.7466 33.3839 28.9063 33.6032C28.9302 33.6032 28.954 33.6032 28.9786 33.6032C28.9786 32.6016 28.9786 31.6 28.9786 30.5681C28.9547 30.5681 28.9309 30.5681 28.9063 30.5681ZM33.3868 31.7966C33.3083 31.9298 33.3083 31.9298 33.3145 32.0857C33.4104 32.3677 33.4721 32.4883 33.7391 32.6277C33.9953 32.6686 34.1039 32.649 34.3262 32.5193C34.4957 32.265 34.5127 32.1682 34.4708 31.8689C34.2911 31.6258 34.1879 31.522 33.8881 31.4669C33.6282 31.5167 33.5443 31.5866 33.3868 31.7966ZM32.1583 34.2536C32.0677 34.4891 32.0692 34.5769 32.1718 34.8092C32.3089 34.984 32.38 35.0585 32.5919 35.1208C32.8225 35.1093 32.9333 35.0631 33.1203 34.9266C33.257 34.7643 33.257 34.7643 33.2829 34.5472C33.2279 34.2474 33.124 34.1442 32.8809 33.9646C32.5297 33.9001 32.368 33.9663 32.1583 34.2536ZM34.7327 34.0775C34.5713 34.3196 34.5796 34.4739 34.6153 34.7595C34.6855 34.9374 34.6855 34.9374 34.8321 35.0486C35.0965 35.1348 35.2151 35.1444 35.4689 35.026C35.6697 34.8711 35.693 34.807 35.7264 34.5562C35.7172 34.3142 35.7172 34.3142 35.5457 34.1181C35.3502 33.9501 35.3502 33.9501 35.1167 33.9239C34.9008 33.9512 34.9008 33.9512 34.7327 34.0775ZM3.47091 34.3785C3.41414 34.4356 3.35737 34.4927 3.29889 34.5514C3.23741 34.6131 3.17592 34.6747 3.11258 34.7382C3.0483 34.8033 2.98402 34.8685 2.9178 34.9356C2.85296 35.0005 2.78813 35.0654 2.72133 35.1323C2.41663 35.3833 2.41663 35.3833 2.24031 35.6989C3.19422 35.6989 4.14812 35.6989 5.13093 35.6989C4.83024 35.3481 4.53436 35.0169 4.20955 34.6917C4.16791 34.6492 4.12627 34.6067 4.08337 34.5629C3.97773 34.4569 3.86811 34.3549 3.75789 34.2536C3.59989 34.2378 3.59989 34.2378 3.47091 34.3785ZM27.7501 34.2536C27.7501 34.7306 27.7501 35.2075 27.7501 35.6989C28.0839 35.6989 28.4178 35.6989 28.7618 35.6989C28.5141 35.3076 28.2661 34.9164 28.012 34.5291C27.9772 34.476 27.9424 34.4228 27.9065 34.368C27.8787 34.3302 27.8509 34.2925 27.8223 34.2536C27.7985 34.2536 27.7746 34.2536 27.7501 34.2536Z" fill="#20376D"/>
<path d="M20.3066 33.2422C20.7359 33.2422 21.1652 33.2422 21.6074 33.2422C21.6074 33.6714 21.6074 34.1007 21.6074 34.543C21.1782 34.543 20.7489 34.543 20.3066 34.543C20.3066 34.1137 20.3066 33.6845 20.3066 33.2422Z" fill="#20376D"/>
<path d="M17.8496 33.2422C18.2789 33.2422 18.7081 33.2422 19.1504 33.2422C19.1504 33.6714 19.1504 34.1007 19.1504 34.543C18.7211 34.543 18.2919 34.543 17.8496 34.543C17.8496 34.1137 17.8496 33.6845 17.8496 33.2422Z" fill="#20376D"/>
<path d="M15.3926 33.2422C15.8218 33.2422 16.2511 33.2422 16.6934 33.2422C16.6934 33.6714 16.6934 34.1007 16.6934 34.543C16.2641 34.543 15.8348 34.543 15.3926 34.543C15.3926 34.1137 15.3926 33.6845 15.3926 33.2422Z" fill="#20376D"/>
<path d="M12.9355 33.2422C13.3648 33.2422 13.7941 33.2422 14.2363 33.2422C14.2363 33.6714 14.2363 34.1007 14.2363 34.543C13.8071 34.543 13.3778 34.543 12.9355 34.543C12.9355 34.1137 12.9355 33.6845 12.9355 33.2422Z" fill="#20376D"/>
<path d="M10.4785 33.2422C10.9078 33.2422 11.337 33.2422 11.7793 33.2422C11.7793 33.6714 11.7793 34.1007 11.7793 34.543C11.35 34.543 10.9208 34.543 10.4785 34.543C10.4785 34.1137 10.4785 33.6845 10.4785 33.2422Z" fill="#20376D"/>
<path d="M20.3066 30.7852C20.7359 30.7852 21.1652 30.7852 21.6074 30.7852C21.6074 31.2144 21.6074 31.6437 21.6074 32.0859C21.1782 32.0859 20.7489 32.0859 20.3066 32.0859C20.3066 31.6567 20.3066 31.2274 20.3066 30.7852Z" fill="#20376D"/>
<path d="M17.8496 30.7852C18.2789 30.7852 18.7081 30.7852 19.1504 30.7852C19.1504 31.2144 19.1504 31.6437 19.1504 32.0859C18.7211 32.0859 18.2919 32.0859 17.8496 32.0859C17.8496 31.6567 17.8496 31.2274 17.8496 30.7852Z" fill="#20376D"/>
<path d="M15.3926 30.7852C15.8218 30.7852 16.2511 30.7852 16.6934 30.7852C16.6934 31.2144 16.6934 31.6437 16.6934 32.0859C16.2641 32.0859 15.8348 32.0859 15.3926 32.0859C15.3926 31.6567 15.3926 31.2274 15.3926 30.7852Z" fill="#20376D"/>
<path d="M12.9355 30.7852C13.3648 30.7852 13.7941 30.7852 14.2363 30.7852C14.2363 31.2144 14.2363 31.6437 14.2363 32.0859C13.8071 32.0859 13.3778 32.0859 12.9355 32.0859C12.9355 31.6567 12.9355 31.2274 12.9355 30.7852Z" fill="#20376D"/>
<path d="M10.4785 30.7852C10.9078 30.7852 11.337 30.7852 11.7793 30.7852C11.7793 31.2144 11.7793 31.6437 11.7793 32.0859C11.35 32.0859 10.9208 32.0859 10.4785 32.0859C10.4785 31.6567 10.4785 31.2274 10.4785 30.7852Z" fill="#20376D"/>
<path d="M20.3066 28.3281C20.7359 28.3281 21.1652 28.3281 21.6074 28.3281C21.6074 28.7574 21.6074 29.1866 21.6074 29.6289C21.1782 29.6289 20.7489 29.6289 20.3066 29.6289C20.3066 29.1996 20.3066 28.7704 20.3066 28.3281Z" fill="#20376D"/>
<path d="M17.8496 28.3281C18.2789 28.3281 18.7081 28.3281 19.1504 28.3281C19.1504 28.7574 19.1504 29.1866 19.1504 29.6289C18.7211 29.6289 18.2919 29.6289 17.8496 29.6289C17.8496 29.1996 17.8496 28.7704 17.8496 28.3281Z" fill="#20376D"/>
<path d="M15.3926 28.3281C15.8218 28.3281 16.2511 28.3281 16.6934 28.3281C16.6934 28.7574 16.6934 29.1866 16.6934 29.6289C16.2641 29.6289 15.8348 29.6289 15.3926 29.6289C15.3926 29.1996 15.3926 28.7704 15.3926 28.3281Z" fill="#20376D"/>
<path d="M12.9355 28.3281C13.3648 28.3281 13.7941 28.3281 14.2363 28.3281C14.2363 28.7574 14.2363 29.1866 14.2363 29.6289C13.8071 29.6289 13.3778 29.6289 12.9355 29.6289C12.9355 29.1996 12.9355 28.7704 12.9355 28.3281Z" fill="#20376D"/>
<path d="M10.4785 28.3281C10.9078 28.3281 11.337 28.3281 11.7793 28.3281C11.7793 28.7574 11.7793 29.1866 11.7793 29.6289C11.35 29.6289 10.9208 29.6289 10.4785 29.6289C10.4785 29.1996 10.4785 28.7704 10.4785 28.3281Z" fill="#20376D"/>
<path d="M20.3066 25.8711C20.7359 25.8711 21.1652 25.8711 21.6074 25.8711C21.6074 26.3004 21.6074 26.7296 21.6074 27.1719C21.1782 27.1719 20.7489 27.1719 20.3066 27.1719C20.3066 26.7426 20.3066 26.3134 20.3066 25.8711Z" fill="#20376D"/>
<path d="M17.8496 25.8711C18.2789 25.8711 18.7081 25.8711 19.1504 25.8711C19.1504 26.3004 19.1504 26.7296 19.1504 27.1719C18.7211 27.1719 18.2919 27.1719 17.8496 27.1719C17.8496 26.7426 17.8496 26.3134 17.8496 25.8711Z" fill="#20376D"/>
<path d="M15.3926 25.8711C15.8218 25.8711 16.2511 25.8711 16.6934 25.8711C16.6934 26.3004 16.6934 26.7296 16.6934 27.1719C16.2641 27.1719 15.8348 27.1719 15.3926 27.1719C15.3926 26.7426 15.3926 26.3134 15.3926 25.8711Z" fill="#20376D"/>
<path d="M12.9355 25.8711C13.3648 25.8711 13.7941 25.8711 14.2363 25.8711C14.2363 26.3004 14.2363 26.7296 14.2363 27.1719C13.8071 27.1719 13.3778 27.1719 12.9355 27.1719C12.9355 26.7426 12.9355 26.3134 12.9355 25.8711Z" fill="#20376D"/>
<path d="M10.4785 25.8711C10.9078 25.8711 11.337 25.8711 11.7793 25.8711C11.7793 26.3004 11.7793 26.7296 11.7793 27.1719C11.35 27.1719 10.9208 27.1719 10.4785 27.1719C10.4785 26.7426 10.4785 26.3134 10.4785 25.8711Z" fill="#20376D"/>
<path d="M20.3066 23.4141C20.7359 23.4141 21.1652 23.4141 21.6074 23.4141C21.6074 23.8433 21.6074 24.2726 21.6074 24.7148C21.1782 24.7148 20.7489 24.7148 20.3066 24.7148C20.3066 24.2856 20.3066 23.8563 20.3066 23.4141Z" fill="#20376D"/>
<path d="M17.8496 23.4141C18.2789 23.4141 18.7081 23.4141 19.1504 23.4141C19.1504 23.8433 19.1504 24.2726 19.1504 24.7148C18.7211 24.7148 18.2919 24.7148 17.8496 24.7148C17.8496 24.2856 17.8496 23.8563 17.8496 23.4141Z" fill="#20376D"/>
<path d="M15.3926 23.4141C15.8218 23.4141 16.2511 23.4141 16.6934 23.4141C16.6934 23.8433 16.6934 24.2726 16.6934 24.7148C16.2641 24.7148 15.8348 24.7148 15.3926 24.7148C15.3926 24.2856 15.3926 23.8563 15.3926 23.4141Z" fill="#20376D"/>
<path d="M12.9355 23.4141C13.3648 23.4141 13.7941 23.4141 14.2363 23.4141C14.2363 23.8433 14.2363 24.2726 14.2363 24.7148C13.8071 24.7148 13.3778 24.7148 12.9355 24.7148C12.9355 24.2856 12.9355 23.8563 12.9355 23.4141Z" fill="#20376D"/>
<path d="M10.4785 23.4141C10.9078 23.4141 11.337 23.4141 11.7793 23.4141C11.7793 23.8433 11.7793 24.2726 11.7793 24.7148C11.35 24.7148 10.9208 24.7148 10.4785 24.7148C10.4785 24.2856 10.4785 23.8563 10.4785 23.4141Z" fill="#20376D"/>
<path d="M15.3926 20.957C15.8218 20.957 16.2511 20.957 16.6934 20.957C16.6934 21.3863 16.6934 21.8155 16.6934 22.2578C16.2641 22.2578 15.8348 22.2578 15.3926 22.2578C15.3926 21.8286 15.3926 21.3993 15.3926 20.957Z" fill="#20376D"/>
<path d="M12.9355 20.957C13.3648 20.957 13.7941 20.957 14.2363 20.957C14.2363 21.3863 14.2363 21.8155 14.2363 22.2578C13.8071 22.2578 13.3778 22.2578 12.9355 22.2578C12.9355 21.8286 12.9355 21.3993 12.9355 20.957Z" fill="#20376D"/>
<path d="M10.4785 20.957C10.9078 20.957 11.337 20.957 11.7793 20.957C11.7793 21.3863 11.7793 21.8155 11.7793 22.2578C11.35 22.2578 10.9208 22.2578 10.4785 22.2578C10.4785 21.8286 10.4785 21.3993 10.4785 20.957Z" fill="#20376D"/>
</g>
</g>
<defs>
<clipPath id="clip0_503_125">
<rect width="37" height="37" fill="white"/>
</clipPath>
<clipPath id="clip1_503_125">
<rect width="37" height="37" fill="white"/>
</clipPath>
</defs>
</svg>
