<svg width="51" height="51" viewBox="0 0 51 51" fill="none" xmlns="http://www.w3.org/2000/svg">
<rect width="51" height="51" rx="10" fill="white"/>
<path d="M35.6 16H16.4C15.08 16 14.012 17.0687 14.012 18.375L14 32.625C14 33.9313 15.08 35 16.4 35H35.6C36.92 35 38 33.9313 38 32.625V18.375C38 17.0687 36.92 16 35.6 16ZM35.12 21.0469L26.636 26.2956C26.252 26.5331 25.748 26.5331 25.364 26.2956L16.88 21.0469C16.7597 20.98 16.6543 20.8897 16.5703 20.7814C16.4862 20.6731 16.4253 20.549 16.3911 20.4168C16.3569 20.2845 16.3502 20.1467 16.3714 20.0117C16.3926 19.8768 16.4412 19.7475 16.5143 19.6317C16.5875 19.5159 16.6836 19.416 16.7969 19.3381C16.9102 19.2601 17.0382 19.2057 17.1734 19.1781C17.3085 19.1505 17.4479 19.1504 17.5831 19.1777C17.7184 19.205 17.8466 19.2591 17.96 19.3369L26 24.3125L34.04 19.3369C34.1534 19.2591 34.2816 19.205 34.4169 19.1777C34.5521 19.1504 34.6915 19.1505 34.8266 19.1781C34.9618 19.2057 35.0898 19.2601 35.2031 19.3381C35.3164 19.416 35.4125 19.5159 35.4857 19.6317C35.5588 19.7475 35.6074 19.8768 35.6286 20.0117C35.6498 20.1467 35.6431 20.2845 35.6089 20.4168C35.5747 20.549 35.5138 20.6731 35.4297 20.7814C35.3457 20.8897 35.2403 20.98 35.12 21.0469Z" fill="url(#paint0_linear_172_85)"/>
<defs>
<linearGradient id="paint0_linear_172_85" x1="14" y1="25.5" x2="38" y2="25.5" gradientUnits="userSpaceOnUse">
<stop stop-color="#72AA15"/>
<stop offset="1" stop-color="#5A8514"/>
</linearGradient>
</defs>
</svg>
