<svg width="51" height="51" viewBox="0 0 51 51" fill="none" xmlns="http://www.w3.org/2000/svg">
<rect width="51" height="51" rx="10" fill="white"/>
<path d="M29.6677 30.7673L31.8205 28.6137C32.1104 28.3273 32.4773 28.1312 32.8765 28.0492C33.2757 27.9673 33.6901 28.0031 34.0693 28.1522L36.693 29.2002C37.0762 29.3558 37.4049 29.6215 37.6375 29.9637C37.8701 30.3059 37.9962 30.7093 38 31.1231V35.9302C37.9978 36.2117 37.9386 36.4898 37.8261 36.7479C37.7136 37.0059 37.5501 37.2384 37.3454 37.4316C37.1406 37.6247 36.899 37.7744 36.6349 37.8716C36.3708 37.9688 36.0898 38.0116 35.8088 37.9973C17.424 36.8532 13.7144 21.278 13.0128 15.3171C12.9802 15.0244 13.01 14.7281 13.1001 14.4477C13.1902 14.1673 13.3387 13.9092 13.5357 13.6903C13.7327 13.4714 13.9738 13.2967 14.2431 13.1778C14.5124 13.0588 14.8039 12.9982 15.0983 13H19.7401C20.1543 13.0013 20.5587 13.1264 20.9013 13.3595C21.2438 13.5925 21.5088 13.9227 21.6622 14.3076L22.7098 16.9323C22.8638 17.3102 22.9031 17.7251 22.8227 18.1253C22.7424 18.5254 22.546 18.893 22.2581 19.1821L20.1053 21.3357C20.1053 21.3357 21.3451 29.729 29.6677 30.7673Z" fill="url(#paint0_linear_172_82)"/>
<defs>
<linearGradient id="paint0_linear_172_82" x1="13" y1="25.5" x2="38" y2="25.5" gradientUnits="userSpaceOnUse">
<stop stop-color="#72AA15"/>
<stop offset="1" stop-color="#5A8514"/>
</linearGradient>
</defs>
</svg>
