<svg width="50" height="50" viewBox="0 0 50 50" fill="none" xmlns="http://www.w3.org/2000/svg">
<path d="M25 11.3636C28.6166 11.3636 32.0851 12.8003 34.6424 15.3576C37.1997 17.9149 38.6364 21.3834 38.6364 25C38.6364 30.0455 35.8864 34.4545 31.8182 36.8182V40.9091C31.8182 41.5119 31.5787 42.0899 31.1525 42.5162C30.7263 42.9424 30.1482 43.1818 29.5455 43.1818H20.4545C19.8518 43.1818 19.2737 42.9424 18.8475 42.5162C18.4213 42.0899 18.1818 41.5119 18.1818 40.9091V36.8182C14.1136 34.4545 11.3636 30.0455 11.3636 25C11.3636 21.3834 12.8003 17.9149 15.3576 15.3576C17.9149 12.8003 21.3834 11.3636 25 11.3636ZM29.5455 45.4545V47.7273C29.5455 48.33 29.306 48.9081 28.8798 49.3343C28.4536 49.7606 27.8755 50 27.2727 50H22.7273C22.1245 50 21.5464 49.7606 21.1202 49.3343C20.694 48.9081 20.4545 48.33 20.4545 47.7273V45.4545H29.5455ZM43.1818 22.7273H50V27.2727H43.1818V22.7273ZM0 22.7273H6.81818V27.2727H0V22.7273ZM27.2727 0V6.81818H22.7273V0H27.2727ZM8.90909 5.68182L13.75 10.5455L10.5227 13.75L5.68182 8.93182L8.90909 5.68182ZM36.25 10.5227L41.0682 5.68182L44.3182 8.93182L39.4773 13.75L36.25 10.5227Z" fill="url(#paint0_linear_50_103)"/>
<defs>
<linearGradient id="paint0_linear_50_103" x1="0" y1="25" x2="50" y2="25" gradientUnits="userSpaceOnUse">
<stop stop-color="#72AA15"/>
<stop offset="1" stop-color="#5A8514"/>
</linearGradient>
</defs>
</svg>
