<svg width="10" height="9" viewBox="0 0 10 9" fill="none" xmlns="http://www.w3.org/2000/svg">
<path d="M9.12365 4.065C9.05162 4.07 8.98439 4.095 8.93637 4.15L8.45618 4.65L9.44058 5.65L9.92077 5.15C10.0264 5.045 10.0264 4.87 9.92077 4.765L9.32533 4.15C9.27726 4.0983 9.21191 4.06787 9.14286 4.065M8.18247 4.94L5.28211 7.97V9H6.27131L9.18127 5.965M8.64346 0H0.960384C0.705674 0 0.461397 0.105357 0.28129 0.292893C0.101183 0.48043 0 0.734784 0 1V7C0 7.26522 0.101183 7.51957 0.28129 7.70711C0.461397 7.89464 0.705674 8 0.960384 8H4.32173V7.555L8.27851 3.445C8.5042 3.2 8.81633 3.065 9.14286 3.065C9.30612 3.065 9.46939 3.095 9.62305 3.16V1C9.62305 0.44 9.18127 0 8.64346 0ZM8.64346 2L4.80192 4.5L0.960384 2V1L4.80192 3.5L8.64346 1" fill="#20376D"/>
</svg>
