<svg width="25" height="26" viewBox="0 0 25 26" fill="none" xmlns="http://www.w3.org/2000/svg">
<path d="M12.5001 6.5L14.0516 9.50869L17.369 9.99131L14.9345 12.1875L15.746 15.4375L12.5001 13.6094L9.25409 15.4375L10.0656 12.1875L7.6311 9.99131L11.0394 9.50869L12.5001 6.5Z" fill="#2C95D2"/>
<path d="M13.9088 24.375L12.5 23.5625L15.746 17.875H20.615C20.8282 17.8753 21.0394 17.8335 21.2364 17.752C21.4335 17.6704 21.6125 17.5507 21.7633 17.3998C21.9141 17.2488 22.0336 17.0695 22.1151 16.8722C22.1965 16.6749 22.2383 16.4635 22.2379 16.25V6.5C22.2383 6.28651 22.1965 6.07506 22.1151 5.87776C22.0336 5.68046 21.9141 5.50119 21.7633 5.35024C21.6125 5.19928 21.4335 5.07959 21.2364 4.99804C21.0394 4.91649 20.8282 4.87468 20.615 4.875H4.38513C4.1719 4.87468 3.96071 4.91649 3.76366 4.99804C3.56661 5.07959 3.38756 5.19928 3.23679 5.35024C3.08602 5.50119 2.96648 5.68046 2.88503 5.87776C2.80358 6.07506 2.76182 6.28651 2.76214 6.5V16.25C2.76182 16.4635 2.80358 16.6749 2.88503 16.8722C2.96648 17.0695 3.08602 17.2488 3.23679 17.3998C3.38756 17.5507 3.56661 17.6704 3.76366 17.752C3.96071 17.8335 4.1719 17.8753 4.38513 17.875H11.6886V19.5H4.38513C3.52424 19.5 2.69862 19.1576 2.08988 18.5481C1.48115 17.9386 1.13916 17.112 1.13916 16.25V6.5C1.13916 5.63805 1.48115 4.8114 2.08988 4.2019C2.69862 3.59241 3.52424 3.25 4.38513 3.25H20.615C21.4758 3.25 22.3015 3.59241 22.9102 4.2019C23.5189 4.8114 23.8609 5.63805 23.8609 6.5V16.25C23.8609 17.112 23.5189 17.9386 22.9102 18.5481C22.3015 19.1576 21.4758 19.5 20.615 19.5H16.6914L13.9088 24.375Z" fill="#20376D" stroke="#20376D" stroke-width="0.3"/>
</svg>
