<svg width="29" height="29" viewBox="0 0 29 29" fill="none" xmlns="http://www.w3.org/2000/svg">
<path fill-rule="evenodd" clip-rule="evenodd" d="M12.313 7.01566C12.4239 6.81041 12.5888 6.63935 12.7898 6.52095C12.9909 6.40255 13.2204 6.3413 13.4537 6.34382L15.9912 6.38249C16.2238 6.38759 16.4507 6.45598 16.6474 6.58031C16.8441 6.70464 17.0032 6.88021 17.1077 7.08816L18.1227 9.12782L19.9159 8.97557C20.1455 8.95734 20.3758 9.00137 20.5825 9.10302C20.7891 9.20467 20.9646 9.36017 21.0904 9.55316L22.3712 11.5397C22.5088 11.7536 22.5789 12.0039 22.5724 12.2582C22.5659 12.5124 22.4832 12.7588 22.3349 12.9655L21.3924 14.285L22.3954 15.6093C22.7071 16.0202 22.7385 16.5808 22.4727 17.0255L21.2644 19.0507C21.1443 19.2493 20.9724 19.4115 20.7673 19.5201C20.5621 19.6286 20.3313 19.6794 20.0995 19.6669L18.2024 19.5509L17.0352 21.941C16.9295 22.1535 16.7669 22.3324 16.5655 22.4579C16.3641 22.5833 16.1318 22.6503 15.8945 22.6515H13.2797C13.0428 22.6499 12.811 22.5826 12.6101 22.4572C12.4091 22.3318 12.2469 22.1531 12.1414 21.941L11.0443 19.6959L9.01427 19.8796C8.78027 19.8992 8.54536 19.8542 8.33524 19.7493C8.12512 19.6445 7.94786 19.4839 7.82285 19.2851L6.53961 17.2188C6.4035 16.9995 6.33752 16.7439 6.35048 16.4861C6.36343 16.2283 6.4547 15.9806 6.61211 15.7761L7.77211 14.2657L6.83927 12.9631C6.69138 12.7562 6.60908 12.5096 6.60304 12.2554C6.59701 12.0011 6.66752 11.7509 6.80544 11.5372L8.08627 9.55074C8.21182 9.35813 8.38689 9.20287 8.59312 9.10124C8.79935 8.99962 9.02913 8.95537 9.25836 8.97316L11.1844 9.13749L12.313 7.01566ZM13.7582 8.16116L12.6175 10.3072C12.4998 10.5257 12.3211 10.7053 12.1031 10.8242C11.8851 10.943 11.6373 10.996 11.3899 10.9766L9.43236 10.8098L8.52852 12.2115L9.48069 13.5407C9.63909 13.7618 9.72224 14.0279 9.71789 14.2999C9.71354 14.5718 9.62191 14.8352 9.45652 15.0511L8.27719 16.5832L9.18586 18.0477L11.2545 17.8592C11.5108 17.8355 11.7683 17.8903 11.9928 18.0163C12.2172 18.1424 12.398 18.3337 12.5112 18.5649L13.6204 20.839H15.5538L16.7331 18.4296C16.8445 18.2058 17.019 18.0195 17.235 17.8937C17.451 17.7679 17.6991 17.708 17.9487 17.7215L19.8772 17.8375L20.7279 16.4117L19.7032 15.0583C19.5402 14.8425 19.4504 14.5803 19.4469 14.3099C19.4434 14.0395 19.5265 13.7751 19.6839 13.5552L20.6481 12.2115L19.7443 10.8098L17.9076 10.9645C17.6538 10.9861 17.3993 10.9308 17.1773 10.8059C16.9553 10.6809 16.7761 10.4919 16.663 10.2637L15.6311 8.19016L13.7582 8.16116Z" fill="#20376D"/>
<path d="M24.8481 17.8834C24.115 20.1465 22.6601 22.1068 20.7063 23.4638C18.7525 24.8209 16.4076 25.4999 14.031 25.3968C11.6544 25.2937 9.37714 24.4141 7.54823 22.8929C5.71931 21.3717 4.43964 19.2928 3.90531 16.9747L5.96189 16.5687L2.04689 12.5184L-0.00244141 17.7553L2.16531 17.33C2.77029 20.0512 4.25461 22.4973 6.38889 24.2905C8.52318 26.0837 11.1886 27.1241 13.9733 27.2509C16.7581 27.3777 19.507 26.5838 21.7954 24.992C24.0838 23.4002 25.7843 21.099 26.6341 18.4441L24.8481 17.8834ZM26.8685 11.7451C26.2632 9.02402 24.7786 6.57805 22.6442 4.78511C20.5097 2.99218 17.8442 1.95209 15.0595 1.82558C12.2748 1.69907 9.52597 2.49316 7.23774 4.08517C4.9495 5.67717 3.24925 7.97845 2.39973 10.6334L4.12281 11.1941C4.85568 8.93095 6.31038 6.97056 8.26401 5.61329C10.2176 4.25603 12.5624 3.57677 14.939 3.67961C17.3156 3.78245 19.5929 4.66172 21.422 6.18267C23.2511 7.70362 24.531 9.78236 25.0656 12.1003L23.0091 12.5087L26.9241 16.5494L28.9976 11.3197L26.8685 11.7451Z" fill="#20376D"/>
<path fill-rule="evenodd" clip-rule="evenodd" d="M14.5 13.5938C14.2596 13.5938 14.0291 13.6892 13.8592 13.8592C13.6892 14.0291 13.5938 14.2596 13.5938 14.5C13.5938 14.7404 13.6892 14.9709 13.8592 15.1408C14.0291 15.3108 14.2596 15.4063 14.5 15.4063C14.7404 15.4063 14.9709 15.3108 15.1408 15.1408C15.3108 14.9709 15.4063 14.7404 15.4063 14.5C15.4063 14.2596 15.3108 14.0291 15.1408 13.8592C14.9709 13.6892 14.7404 13.5938 14.5 13.5938ZM11.7812 14.5C11.7812 13.7789 12.0677 13.0874 12.5776 12.5776C13.0874 12.0677 13.7789 11.7812 14.5 11.7812C15.2211 11.7812 15.9126 12.0677 16.4224 12.5776C16.9323 13.0874 17.2188 13.7789 17.2188 14.5C17.2188 15.2211 16.9323 15.9126 16.4224 16.4224C15.9126 16.9323 15.2211 17.2188 14.5 17.2188C13.7789 17.2188 13.0874 16.9323 12.5776 16.4224C12.0677 15.9126 11.7812 15.2211 11.7812 14.5Z" fill="#20376D"/>
</svg>
