<svg width="214" height="65" viewBox="0 0 214 65" fill="none" xmlns="http://www.w3.org/2000/svg">
<rect width="214" height="65" fill="#D9D9D9"/>
<path d="M106.5 17.5C100.294 17.5 95.25 22.5438 95.25 28.75C95.25 34.9562 100.294 40 106.5 40C112.706 40 117.75 34.9562 117.75 28.75C117.75 22.5438 112.706 17.5 106.5 17.5ZM110.831 35.6687L106.5 32.3688L102.15 35.6687L103.8 30.325L99.4688 26.875H104.794L106.5 21.6063L108.206 26.875H113.531L109.181 30.325L110.831 35.6687ZM106.5 45.625L99 47.5375V41.725C101.212 43 103.762 43.75 106.5 43.75C109.238 43.75 111.788 43 114 41.725V47.5375L106.5 45.625Z" fill="#E7E7E7"/>
<path d="M102.15 35.6687L106.5 32.3688L110.831 35.6687L109.181 30.325L113.531 26.875H108.206L106.5 21.6063L104.794 26.875H99.4687L103.8 30.325L102.15 35.6687ZM121.5 28.75C121.5 20.4625 114.787 13.75 106.5 13.75C98.2125 13.75 91.5 20.4625 91.5 28.75C91.5 32.5562 92.925 36.0062 95.25 38.65V53.125L106.5 49.375L117.75 53.125V38.65C120.168 35.9191 121.502 32.3974 121.5 28.75ZM106.5 17.5C112.706 17.5 117.75 22.5438 117.75 28.75C117.75 34.9562 112.706 40 106.5 40C100.294 40 95.25 34.9562 95.25 28.75C95.25 22.5438 100.294 17.5 106.5 17.5ZM106.5 45.625L99 47.5375V41.725C101.212 43 103.762 43.75 106.5 43.75C109.237 43.75 111.787 43 114 41.725V47.5375L106.5 45.625Z" fill="#20376D"/>
<path d="M106.5 21L108.408 26.8734L114.584 26.8734L109.588 30.5033L111.496 36.3766L106.5 32.7467L101.504 36.3766L103.412 30.5033L98.416 26.8734L104.592 26.8734L106.5 21Z" fill="#2C95D2"/>
</svg>
