<svg width="26" height="26" viewBox="0 0 26 26" fill="none" xmlns="http://www.w3.org/2000/svg">
<path d="M13 0.8125C10.5625 0.8125 8.9375 2.4375 8.9375 4.0625C8.9375 6.5 9.75 8.125 10.5625 8.9375V9.75H15.4375V8.9375C16.25 8.125 17.0625 6.5 17.0625 4.0625C17.0625 2.4375 15.4375 0.8125 13 0.8125ZM9.77031 4.13004L13 5.20508L16.2297 4.13004L14.2391 9.10508L13.3859 8.76992L14.6453 5.62148L13 6.16992L11.3547 5.62148L12.6141 8.76992L11.7609 9.10508L9.77031 4.13004ZM5.54023 8.14531C4.35195 8.29766 3.27539 9.69414 3.27539 11.4918C3.27539 12.4871 3.6207 13.3656 4.12344 13.975L4.72773 14.6961L3.79844 14.8687C3.14336 14.9957 2.66602 15.341 2.25469 15.9047C1.84336 16.4684 1.52852 17.2504 1.31016 18.1594C0.914062 19.7945 0.822656 21.7953 0.8125 23.5625H2.98594L3.09969 25.0859H8.6125L8.71406 23.5625H10.7859C10.7859 21.775 10.7656 19.7488 10.4051 18.0934C10.202 17.1844 9.90234 16.4023 9.48594 15.8438C9.06953 15.2852 8.5668 14.9398 7.83047 14.8281L6.89102 14.6809L7.48516 13.9344C7.96758 13.3301 8.29258 12.4617 8.29258 11.4918C8.29258 9.57227 7.09414 8.15039 5.78398 8.15039L5.54023 8.14531ZM19.9418 8.14531C18.7535 8.29766 17.677 9.69414 17.677 11.4918C17.677 12.4871 18.0223 13.3656 18.525 13.975L19.1293 14.6961L18.2 14.8687C17.5449 14.9957 17.0676 15.341 16.6562 15.9047C16.2449 16.4684 15.9301 17.2504 15.7117 18.1594C15.3156 19.7945 15.2242 21.7953 15.2141 23.5625H17.3875L17.4992 25.0859H23.0141L23.1156 23.5625H25.1875C25.1875 21.775 25.1672 19.7488 24.8066 18.0934C24.6035 17.1844 24.3039 16.4023 23.8875 15.8438C23.4711 15.2852 22.9684 14.9398 22.232 14.8281L21.2926 14.6809L21.8867 13.9344C22.3691 13.3301 22.6941 12.4617 22.6941 11.4918C22.6941 9.57227 21.4957 8.15039 20.1855 8.15039L19.9418 8.14531ZM10.5625 10.6133V11.5273H15.4375V10.6133H10.5625ZM11.375 12.3398V13.2539H14.625V12.3398H11.375Z" fill="#20376D"/>
</svg>
