<svg width="39" height="37" viewBox="0 0 39 37" fill="none" xmlns="http://www.w3.org/2000/svg">
<g clip-path="url(#clip0_503_74)">
<path d="M6.39927 4.67435C6.95387 5.02271 7.32343 5.39056 7.54096 5.998C7.58747 6.2394 7.61108 6.47545 7.61713 6.72065C7.68782 6.72513 7.75852 6.7296 7.83136 6.7342C8.07416 6.79292 8.07416 6.79292 8.2022 6.95035C8.31611 7.18151 8.32911 7.33079 8.32499 7.58474C8.32425 7.66508 8.32352 7.74543 8.32276 7.82821C8.32084 7.91135 8.31893 7.99449 8.31696 8.08015C8.31541 8.20696 8.31541 8.20696 8.31383 8.33633C8.31114 8.54455 8.30739 8.7527 8.30267 8.96089C8.37166 8.96025 8.44065 8.95961 8.51172 8.95894C9.16178 8.95315 9.81183 8.94875 10.4619 8.94591C10.7961 8.9444 11.1303 8.94236 11.4645 8.93908C11.787 8.93594 12.1095 8.93421 12.432 8.93346C12.5551 8.93293 12.6782 8.93189 12.8012 8.93033C12.9736 8.92823 13.1458 8.92794 13.3182 8.92807C13.4163 8.92743 13.5144 8.92679 13.6155 8.92613C13.9172 8.96847 13.9865 9.02086 14.1679 9.24995C14.1972 9.43831 14.2079 9.59594 14.2045 9.78403C14.2048 9.83798 14.2051 9.89194 14.2053 9.94753C14.2058 10.1284 14.2042 10.3092 14.2025 10.4901C14.2024 10.6197 14.2025 10.7494 14.2026 10.879C14.2027 11.231 14.2009 11.5831 14.1988 11.9351C14.1969 12.303 14.1967 12.6708 14.1964 13.0387C14.1954 13.7353 14.1929 14.4319 14.1899 15.1286C14.1864 15.9217 14.1848 16.7147 14.1832 17.5078C14.1801 19.1393 14.1746 20.7708 14.1679 22.4023C14.9471 22.4023 15.7264 22.4023 16.5292 22.4023C16.5272 22.2115 16.5252 22.0208 16.5232 21.8243C16.5169 21.194 16.5127 20.5638 16.5095 19.9335C16.5075 19.5514 16.5048 19.1693 16.5005 18.7872C16.4964 18.4184 16.4941 18.0497 16.4931 17.6809C16.4924 17.5402 16.491 17.3995 16.489 17.2589C16.4862 17.0618 16.4858 16.8648 16.486 16.6677C16.4839 16.5805 16.4839 16.5805 16.4819 16.4915C16.4845 16.2179 16.5194 16.0574 16.6768 15.8261C17.0022 15.6245 17.2583 15.6308 17.6395 15.6348C17.7125 15.6342 17.7855 15.6336 17.8607 15.6329C18.1017 15.6313 18.3425 15.6324 18.5835 15.6336C18.7511 15.6334 18.9187 15.633 19.0863 15.6326C19.4375 15.632 19.7886 15.6328 20.1398 15.6345C20.5898 15.6365 21.0398 15.6354 21.4899 15.6332C21.836 15.6319 22.182 15.6323 22.5281 15.6332C22.694 15.6335 22.86 15.6332 23.0259 15.6323C23.2579 15.6314 23.4897 15.6328 23.7217 15.6348C23.7902 15.6341 23.8588 15.6334 23.9294 15.6326C24.2489 15.6378 24.4115 15.6571 24.6844 15.8261C24.8765 16.1083 24.8829 16.3426 24.8752 16.6677C24.8753 16.7298 24.8753 16.7919 24.8754 16.8558C24.8751 17.0604 24.8722 17.2648 24.8692 17.4693C24.8685 17.6114 24.8679 17.7534 24.8675 17.8955C24.8661 18.2689 24.8623 18.6423 24.8581 19.0157C24.8542 19.3969 24.8525 19.7781 24.8506 20.1594C24.8465 20.907 24.84 21.6547 24.832 22.4023C24.8846 22.4015 24.9372 22.4007 24.9913 22.3999C25.5387 22.3919 26.0861 22.3864 26.6335 22.3824C26.8378 22.3808 27.0421 22.3783 27.2464 22.375C27.54 22.3707 27.8336 22.3686 28.1273 22.367C28.2643 22.3642 28.2643 22.3642 28.4041 22.3614C29.0363 22.3612 29.0363 22.3612 29.346 22.5691C29.5201 22.8247 29.53 22.9707 29.4785 23.2695C29.3613 23.4274 29.3613 23.4274 29.1738 23.5585C28.9615 23.5863 28.7795 23.5964 28.5674 23.5933C28.4751 23.5937 28.4751 23.5937 28.381 23.5941C28.1745 23.5945 27.9681 23.5929 27.7617 23.5914C27.6138 23.5913 27.4659 23.5913 27.318 23.5915C26.9163 23.5916 26.5145 23.5899 26.1128 23.5879C25.693 23.5861 25.2732 23.5859 24.8535 23.5855C24.0585 23.5846 23.2635 23.5823 22.4685 23.5794C21.5635 23.5761 20.6584 23.5745 19.7534 23.5731C17.8916 23.5701 16.0297 23.5649 14.1679 23.5585C14.1679 23.9163 14.1679 24.274 14.1679 24.6425C14.2756 24.6423 14.3832 24.642 14.4941 24.6417C17.0507 24.6355 19.6072 24.6307 22.1638 24.6278C22.4786 24.6274 22.7934 24.627 23.1082 24.6267C23.2023 24.6265 23.2023 24.6265 23.2982 24.6264C24.3123 24.6252 25.3265 24.6229 26.3407 24.6202C27.3817 24.6175 28.4227 24.6159 29.4637 24.6153C30.1058 24.6149 30.7479 24.6137 31.39 24.6113C31.8306 24.6098 32.2712 24.6093 32.7118 24.6097C32.9658 24.6099 33.2198 24.6095 33.4738 24.6081C33.7498 24.6066 34.0257 24.607 34.3016 24.6078C34.3812 24.6069 34.4608 24.6061 34.5428 24.6052C35.1337 24.6098 35.6695 24.7148 36.1387 25.0736C36.178 25.1206 36.2173 25.1677 36.2578 25.2161C36.2986 25.263 36.3394 25.3099 36.3815 25.3581C36.6976 25.8156 36.6999 26.2784 36.6386 26.8105C36.485 27.3282 36.2112 27.6159 35.7311 27.8903C35.4726 28.0147 35.2705 28.048 34.9849 28.0479C34.9106 28.0481 34.8364 28.0482 34.76 28.0483C34.6782 28.0481 34.5965 28.0479 34.5123 28.0477C34.4256 28.0478 34.339 28.0478 34.2497 28.0479C33.9577 28.048 33.6658 28.0476 33.3739 28.0472C33.1652 28.0472 32.9566 28.0472 32.7479 28.0473C32.2979 28.0473 31.8479 28.0471 31.3979 28.0467C30.7472 28.0461 30.0966 28.0459 29.4459 28.0458C28.3903 28.0456 27.3348 28.0452 26.2792 28.0445C25.2537 28.0438 24.2281 28.0433 23.2026 28.043C23.1078 28.043 23.1078 28.043 23.0111 28.0429C22.6941 28.0428 22.3771 28.0427 22.0601 28.0427C19.4294 28.0419 16.7986 28.0406 14.1679 28.039C14.1679 28.3967 14.1679 28.7544 14.1679 29.123C16.861 29.1204 19.5541 29.1163 22.2472 29.1101C22.5654 29.1094 22.8835 29.1087 23.2017 29.108C23.265 29.1079 23.3284 29.1077 23.3936 29.1076C24.4183 29.1053 25.443 29.1041 26.4678 29.1033C27.5197 29.1024 28.5716 29.1004 29.6236 29.0974C30.2723 29.0956 30.9211 29.0946 31.5699 29.0947C32.0151 29.0947 32.4604 29.0937 32.9056 29.0918C33.1623 29.0907 33.4189 29.0903 33.6756 29.0908C33.9545 29.0913 34.2334 29.09 34.5123 29.0882C34.5925 29.0888 34.6728 29.0894 34.7555 29.0899C35.6452 29.0802 36.3627 28.7999 36.9954 28.2081C37.6188 27.5605 37.7489 26.8994 37.7306 26.0449C37.6946 25.3876 37.3811 24.8284 36.9064 24.3566C36.313 23.8994 35.6107 23.6232 34.8445 23.6206C34.7617 23.6201 34.6788 23.6195 34.5934 23.619C34.5047 23.6187 34.416 23.6184 34.3246 23.6181C34.1363 23.6164 33.948 23.6147 33.7597 23.6129C33.4631 23.6103 33.1666 23.6082 32.8701 23.6073C32.5836 23.6061 32.2973 23.6032 32.0109 23.6C31.922 23.6002 31.8331 23.6003 31.7416 23.6005C31.6589 23.5993 31.5763 23.5981 31.4912 23.5968C31.4186 23.5964 31.346 23.596 31.2712 23.5956C31.02 23.5474 30.929 23.4594 30.7734 23.2695C30.7215 22.9689 30.7305 22.8247 30.9096 22.5697C31.2794 22.3166 31.6197 22.3519 32.065 22.3568C32.1546 22.3567 32.2441 22.3565 32.3364 22.3563C32.5263 22.3564 32.7161 22.3574 32.9059 22.3592C33.1927 22.3616 33.4792 22.3607 33.7659 22.3592C35.4025 22.3602 36.6789 22.5055 37.9142 23.606C38.8093 24.489 39.0387 25.5346 39.0208 26.7125C38.9845 27.6853 38.518 28.4698 37.8574 29.1953C36.7378 30.0809 35.7054 30.3221 34.2773 30.2793C34.2797 30.3656 34.2797 30.3656 34.2821 30.4538C34.2885 30.7148 34.2924 30.9757 34.2963 31.2368C34.2989 31.3274 34.3014 31.418 34.3041 31.5114C34.305 31.5985 34.306 31.6856 34.307 31.7754C34.3086 31.8556 34.3102 31.9358 34.3119 32.0185C34.2773 32.2304 34.2773 32.2304 34.1754 32.4034C33.8492 32.5901 33.5062 32.5414 33.1347 32.5195C33.1354 32.5703 33.1361 32.6211 33.1368 32.6734C33.1429 33.1529 33.1475 33.6324 33.1505 34.112C33.1521 34.3585 33.1542 34.605 33.1577 34.8515C33.1616 35.1351 33.1631 35.4187 33.1645 35.7023C33.166 35.7905 33.1676 35.8788 33.1692 35.9697C33.1692 36.0521 33.1693 36.1345 33.1693 36.2195C33.17 36.2919 33.1706 36.3642 33.1713 36.4388C33.1239 36.6974 33.0261 36.8175 32.83 37C32.6826 37.0454 32.6826 37.0454 32.5276 37.0456C32.4691 37.0465 32.4106 37.0474 32.3504 37.0483C32.2879 37.0473 32.2255 37.0464 32.1611 37.0454C32.0963 37.0456 32.0316 37.0458 31.9648 37.0459C31.8281 37.0459 31.6913 37.0449 31.5545 37.0431C31.3454 37.0406 31.1364 37.0416 30.9272 37.043C30.7942 37.0425 30.6612 37.0418 30.5282 37.0409C30.4657 37.0412 30.4033 37.0416 30.3389 37.042C30.2805 37.0408 30.222 37.0397 30.1618 37.0385C30.085 37.0378 30.085 37.0378 30.0067 37.0371C29.7842 36.981 29.6932 36.8828 29.5546 36.7109C29.518 36.517 29.518 36.517 29.52 36.2933C29.5201 36.1675 29.5201 36.1675 29.5201 36.0391C29.5217 35.9489 29.5233 35.8587 29.5249 35.7658C29.5253 35.6732 29.5257 35.5805 29.5262 35.4851C29.5273 35.2394 29.5303 34.9938 29.5337 34.7481C29.5368 34.4971 29.5382 34.2462 29.5397 33.9953C29.543 33.5033 29.5482 33.0114 29.5546 32.5195C29.4922 32.5237 29.4297 32.5279 29.3654 32.5322C29.2833 32.5354 29.2012 32.5387 29.1166 32.5421C29.0353 32.5463 28.954 32.5505 28.8703 32.5548C28.6406 32.5195 28.6406 32.5195 28.3359 32.1582C28.3359 31.5381 28.3359 30.9181 28.3359 30.2793C26.0233 30.2793 23.7107 30.2793 21.3281 30.2793C21.3281 30.8516 21.3281 31.4239 21.3281 32.0136C21.0995 32.4472 21.0995 32.4472 20.9472 32.5195C20.8045 32.5246 20.6616 32.5256 20.5187 32.524C20.4423 32.5233 20.366 32.5227 20.2872 32.522C20.1992 32.5208 20.1992 32.5208 20.1093 32.5195C20.11 32.5703 20.1107 32.6211 20.1114 32.6734C20.1175 33.1529 20.1221 33.6324 20.1251 34.112C20.1267 34.3585 20.1288 34.605 20.1323 34.8515C20.1363 35.1351 20.1377 35.4187 20.1391 35.7023C20.1406 35.7905 20.1422 35.8788 20.1438 35.9697C20.1439 36.0521 20.1439 36.1345 20.1439 36.2195C20.1446 36.2919 20.1453 36.3642 20.146 36.4388C20.0985 36.6974 20.0008 36.8175 19.8046 37C19.6573 37.0454 19.6573 37.0454 19.5022 37.0456C19.4437 37.0465 19.3852 37.0474 19.325 37.0483C19.2313 37.0469 19.2313 37.0469 19.1357 37.0454C19.071 37.0456 19.0062 37.0458 18.9394 37.0459C18.8027 37.0459 18.6659 37.0449 18.5292 37.0431C18.32 37.0406 18.111 37.0416 17.9018 37.043C17.7688 37.0425 17.6358 37.0418 17.5028 37.0409C17.4404 37.0412 17.3779 37.0416 17.3136 37.042C17.2551 37.0408 17.1966 37.0397 17.1364 37.0385C17.0596 37.0378 17.0596 37.0378 16.9813 37.0371C16.7588 36.981 16.6678 36.8828 16.5292 36.7109C16.4926 36.517 16.4926 36.517 16.4946 36.2933C16.4947 36.2094 16.4947 36.1255 16.4947 36.0391C16.4963 35.9489 16.4979 35.8587 16.4995 35.7658C16.4999 35.6732 16.5003 35.5805 16.5008 35.4851C16.5019 35.2394 16.5049 34.9938 16.5083 34.7481C16.5114 34.4971 16.5128 34.2462 16.5144 33.9953C16.5176 33.5033 16.5228 33.0114 16.5292 32.5195C16.4723 32.522 16.4153 32.5245 16.3567 32.5271C16.2816 32.5291 16.2066 32.531 16.1293 32.533C16.018 32.5368 16.018 32.5368 15.9044 32.5407C15.6588 32.5162 15.5613 32.4657 15.3867 32.3027C15.306 32.073 15.3018 31.9106 15.303 31.6695C15.3032 31.5967 15.3034 31.5239 15.3036 31.4489C15.3043 31.3565 15.305 31.2642 15.3057 31.169C15.3073 30.8754 15.3089 30.5818 15.3105 30.2793C14.6318 30.2793 13.9531 30.2793 13.2538 30.2793C13.2556 30.5621 13.2556 30.5621 13.2575 30.8507C13.2613 31.4737 13.2638 32.0967 13.2657 32.7197C13.2669 33.0975 13.2685 33.4752 13.2711 33.853C13.2736 34.2175 13.2749 34.582 13.2755 34.9466C13.2759 35.0857 13.2768 35.2247 13.278 35.3638C13.2797 35.5586 13.2799 35.7534 13.2798 35.9482C13.2806 36.0057 13.2814 36.0632 13.2823 36.1224C13.2801 36.4847 13.2245 36.7387 12.9492 37C12.7985 37.0077 12.6476 37.0104 12.4967 37.0111C12.3983 37.0117 12.3 37.0123 12.1986 37.013C12.0886 37.0133 11.9786 37.0136 11.8685 37.0139C11.7534 37.0145 11.6384 37.0151 11.5233 37.0157C11.1443 37.0176 10.7654 37.0187 10.3864 37.0197C10.2561 37.0201 10.1259 37.0205 9.99558 37.0209C9.45382 37.0224 8.91206 37.0238 8.3703 37.0246C7.59295 37.0258 6.81562 37.0282 6.03828 37.0323C5.49223 37.0351 4.9462 37.0365 4.40014 37.0369C4.07375 37.0372 3.74739 37.038 3.42101 37.0404C3.11396 37.0425 2.80696 37.043 2.4999 37.0421C2.38714 37.0421 2.27438 37.0427 2.16164 37.044C2.00782 37.0456 1.85398 37.0448 1.70015 37.0439C1.61403 37.0441 1.5279 37.0444 1.43917 37.0446C1.21869 37 1.21869 37 1.03854 36.8343C0.866715 36.5643 0.87365 36.3198 0.879413 36.0138C0.879368 35.9518 0.879324 35.8897 0.879278 35.8257C0.87949 35.6212 0.881857 35.4167 0.884248 35.2122C0.884816 35.0702 0.88525 34.9281 0.885554 34.786C0.886716 34.4126 0.889708 34.0392 0.893081 33.6659C0.896201 33.2846 0.89759 32.9034 0.899125 32.5222C0.90239 31.7745 0.907589 31.0269 0.914002 30.2793C0.81974 30.2852 0.725477 30.2912 0.628358 30.2973C0.39269 30.2965 0.319878 30.2888 0.116737 30.1618C-0.0302806 29.9458 -0.0391171 29.8137 -0.0406938 29.5573C-0.0419001 29.47 -0.0431064 29.3827 -0.0443492 29.2928C-0.0439714 29.1987 -0.0435936 29.1047 -0.0432043 29.0078C-0.0436032 28.9101 -0.0440813 28.8124 -0.0446351 28.7146C-0.0454272 28.51 -0.0450808 28.3055 -0.0439668 28.1009C-0.042657 27.8389 -0.0444478 27.577 -0.0471271 27.315C-0.0488011 27.1133 -0.0486913 26.9116 -0.0480592 26.7098C-0.0479665 26.5664 -0.0494845 26.4229 -0.0510254 26.2794C-0.0500707 26.1921 -0.049116 26.1048 -0.0481324 26.0149C-0.0480592 25.9381 -0.0479859 25.8613 -0.0479105 25.7822C-6.01113e-05 25.582 -6.01113e-05 25.582 0.176116 25.4101C0.380799 25.2929 0.380799 25.2929 0.656922 25.2974C0.914002 25.3652 0.914002 25.3652 1.14252 25.582C1.14252 26.7505 1.14252 27.9191 1.14252 29.123C5.03871 29.123 8.9349 29.123 12.9492 29.123C12.9492 23.5903 12.9492 18.0577 12.9492 12.3574C9.05297 12.3574 5.15678 12.3574 1.14252 12.3574C1.14517 13.1843 1.14782 14.0112 1.15055 14.8632C1.15172 15.3859 1.15283 15.9086 1.15368 16.4312C1.15503 17.2615 1.15663 18.0918 1.15976 18.9221C1.16203 19.5267 1.16351 20.1313 1.16402 20.736C1.16432 21.0562 1.16502 21.3765 1.16668 21.6967C1.16823 21.998 1.16871 22.2992 1.16837 22.6005C1.16843 22.7112 1.16888 22.822 1.16976 22.9327C1.17089 23.0836 1.17062 23.2344 1.17 23.3853C1.17021 23.4699 1.17042 23.5544 1.17064 23.6415C1.14252 23.8476 1.14252 23.8476 1.03681 23.9831C0.87479 24.0904 0.767545 24.0934 0.571229 24.0915C0.512315 24.0921 0.453401 24.0926 0.392701 24.0932C0.177421 24.0555 0.126497 24.0183 -6.01113e-05 23.8476C-0.0226785 23.6494 -0.0312122 23.4676 -0.0295904 23.2693C-0.0300007 23.2097 -0.0304108 23.1501 -0.0308335 23.0887C-0.0319264 22.8883 -0.0313789 22.688 -0.0308376 22.4876C-0.0312717 22.3442 -0.0318021 22.2008 -0.0324218 22.0574C-0.0337919 21.6674 -0.0336976 21.2774 -0.0332638 20.8875C-0.0330289 20.5622 -0.0334919 20.237 -0.0339525 19.9117C-0.0350236 19.1446 -0.0349024 18.3775 -0.0340362 17.6103C-0.0331615 16.8182 -0.0342337 16.0261 -0.0362753 15.2339C-0.0379612 14.5545 -0.0384693 13.875 -0.0380217 13.1956C-0.0377645 12.7895 -0.0379526 12.3834 -0.0392595 11.9773C-0.0404346 11.5955 -0.0401399 11.2137 -0.0387028 10.8319C-0.0384211 10.6916 -0.0386616 10.5513 -0.039456 10.411C-0.0404561 10.2198 -0.039588 10.0286 -0.0382379 9.83744C-0.0389695 9.78163 -0.0397011 9.72582 -0.0404549 9.66832C-0.0367815 9.41629 -0.020113 9.27548 0.140708 9.07075C0.363889 8.92117 0.512772 8.9278 0.784272 8.93266C0.921984 8.93406 0.921984 8.93406 1.06248 8.93548C1.15802 8.93791 1.25356 8.94033 1.35199 8.94282C1.44871 8.94413 1.54543 8.94543 1.64507 8.94677C1.88386 8.95018 2.12254 8.95494 2.36127 8.96089C2.35967 8.9033 2.35808 8.8457 2.35643 8.78636C2.3501 8.52538 2.34614 8.2644 2.34223 8.00337C2.33967 7.91273 2.33712 7.82209 2.33449 7.7287C2.33351 7.6416 2.33253 7.5545 2.33151 7.46476C2.32992 7.38454 2.32832 7.30431 2.32668 7.22164C2.36914 6.96147 2.44703 6.87754 2.66596 6.72065C2.87543 6.70259 2.87543 6.70259 3.04681 6.72065C3.03739 6.63123 3.02796 6.5418 3.01825 6.44966C3.01912 5.92828 3.2801 5.45629 3.62882 5.06165C3.75858 4.94803 3.88741 4.85825 4.03705 4.76948C4.08526 4.73986 4.13347 4.71024 4.18314 4.67972C4.8359 4.34277 5.74472 4.33872 6.39927 4.67435ZM4.35126 6.09736C4.23556 6.31909 4.23556 6.31909 4.26556 6.72065C4.96939 6.72065 5.67322 6.72065 6.39838 6.72065C6.31794 6.2628 6.22141 6.01927 5.85089 5.71797C5.25617 5.49228 4.75233 5.61539 4.35126 6.09736ZM3.58002 7.8769C3.58002 8.23462 3.58002 8.59233 3.58002 8.96089C4.73631 8.96089 5.8926 8.96089 7.08392 8.96089C7.08392 8.60317 7.08392 8.24546 7.08392 7.8769C5.92764 7.8769 4.77135 7.8769 3.58002 7.8769ZM1.14252 10.1171C1.14252 10.4749 1.14252 10.8326 1.14252 11.2011C5.03871 11.2011 8.9349 11.2011 12.9492 11.2011C12.9492 10.8434 12.9492 10.4857 12.9492 10.1171C9.05297 10.1171 5.15678 10.1171 1.14252 10.1171ZM17.748 16.8378C17.748 18.6741 17.748 20.5104 17.748 22.4023C19.6835 22.4023 21.619 22.4023 23.6132 22.4023C23.6132 20.566 23.6132 18.7298 23.6132 16.8378C23.2362 16.8378 22.8591 16.8378 22.4706 16.8378C22.4677 17.0363 22.4677 17.0363 22.4647 17.2387C22.4604 17.4122 22.456 17.5857 22.4516 17.7592C22.4505 17.8464 22.4494 17.9336 22.4483 18.0235C22.4459 18.1073 22.4434 18.1911 22.4409 18.2775C22.4393 18.3547 22.4377 18.4319 22.4361 18.5115C22.3945 18.7167 22.3945 18.7167 22.2789 18.8863C22.012 19.0549 21.7643 19.0473 21.4542 19.0442C21.3928 19.0445 21.3314 19.0448 21.2682 19.045C21.1386 19.0452 21.009 19.0447 20.8794 19.0435C20.6812 19.0419 20.4833 19.0435 20.2852 19.0453C20.1591 19.0451 20.033 19.0448 19.907 19.0442C19.8479 19.0448 19.7887 19.0454 19.7278 19.046C19.4681 19.0417 19.3007 19.0243 19.0823 18.8863C18.936 18.6716 18.9256 18.5323 18.9203 18.2775C18.9179 18.1937 18.9154 18.1098 18.9129 18.0235C18.9118 17.9363 18.9107 17.8491 18.9096 17.7592C18.9073 17.6709 18.9051 17.5826 18.9028 17.4916C18.8974 17.2737 18.8938 17.0558 18.8906 16.8378C18.5135 16.8378 18.1365 16.8378 17.748 16.8378ZM20.1093 16.8378C20.1093 17.1956 20.1093 17.5533 20.1093 17.9218C20.4864 17.9218 20.8634 17.9218 21.2519 17.9218C21.2519 17.5641 21.2519 17.2064 21.2519 16.8378C20.8748 16.8378 20.4978 16.8378 20.1093 16.8378ZM14.1679 25.7988C14.1679 26.1565 14.1679 26.5142 14.1679 26.8828C14.5701 26.8828 14.9723 26.8828 15.3867 26.8828C15.3867 26.5251 15.3867 26.1673 15.3867 25.7988C14.9845 25.7988 14.5823 25.7988 14.1679 25.7988ZM16.6054 26.0878C16.5165 26.2203 16.5165 26.2203 16.5292 26.3769C16.6507 26.6866 16.6507 26.6866 16.9101 26.8828C17.1799 26.9106 17.3186 26.9131 17.548 26.7699C17.7205 26.5244 17.7208 26.3768 17.6718 26.0878C17.5098 25.9034 17.5098 25.9034 17.291 25.7988C16.9324 25.7988 16.8561 25.8565 16.6054 26.0878ZM18.8144 25.7988C18.8395 26.1565 18.8647 26.5142 18.8906 26.8828C19.6949 26.8828 20.4993 26.8828 21.3281 26.8828C21.3281 26.5251 21.3281 26.1673 21.3281 25.7988C20.4986 25.7988 19.669 25.7988 18.8144 25.7988ZM22.623 25.9433C22.4777 26.1271 22.4702 26.222 22.4802 26.4537C22.531 26.6669 22.531 26.6669 22.6706 26.806C22.9363 26.9188 23.1078 26.8822 23.3847 26.8105C23.5497 26.7021 23.5497 26.7021 23.6132 26.5214C23.6259 26.2621 23.6259 26.2621 23.537 26.0156C23.221 25.771 22.9696 25.7312 22.623 25.9433ZM24.7558 25.7988C24.7558 26.1565 24.7558 26.5142 24.7558 26.8828C25.5853 26.8828 26.4148 26.8828 27.2695 26.8828C27.2695 26.5251 27.2695 26.1673 27.2695 25.7988C26.44 25.7988 25.6104 25.7988 24.7558 25.7988ZM28.5739 25.9478C28.3972 26.1475 28.3972 26.1475 28.3692 26.3814C28.4224 26.6448 28.4839 26.7317 28.7167 26.8828C28.9721 26.9181 29.1177 26.9086 29.3499 26.8015C29.5304 26.6112 29.5546 26.487 29.5546 26.2324C29.4087 25.9832 29.3071 25.8918 29.0262 25.7897C28.7796 25.779 28.7796 25.779 28.5739 25.9478ZM30.6972 25.7988C30.6972 26.1565 30.6972 26.5142 30.6972 26.8828C31.5016 26.8828 32.306 26.8828 33.1347 26.8828C33.1347 26.5251 33.1347 26.1673 33.1347 25.7988C32.3303 25.7988 31.526 25.7988 30.6972 25.7988ZM34.5296 25.9207C34.332 26.1082 34.2773 26.1857 34.2773 26.4492C34.4107 26.7175 34.4107 26.7175 34.6581 26.8828C34.928 26.9106 35.0666 26.9131 35.2961 26.7699C35.4685 26.5244 35.4688 26.3768 35.4199 26.0878C35.2579 25.9034 35.2579 25.9034 35.039 25.7988C34.737 25.7732 34.737 25.7732 34.5296 25.9207ZM2.13275 30.2793C2.13275 32.1394 2.13275 33.9995 2.13275 35.916C2.43439 35.916 2.73603 35.916 3.04681 35.916C3.04832 35.7901 3.04983 35.6643 3.05139 35.5347C3.05655 35.119 3.0624 34.7034 3.06872 34.2877C3.07252 34.0357 3.07605 33.7837 3.07895 33.5317C3.08229 33.242 3.08684 32.9523 3.09145 32.6626C3.09277 32.5268 3.09277 32.5268 3.09411 32.3882C3.09563 32.3043 3.09714 32.2204 3.0987 32.1339C3.10022 32.023 3.10022 32.023 3.10177 31.9098C3.12299 31.7246 3.12299 31.7246 3.27533 31.5078C3.56297 31.4168 3.83238 31.4243 4.13208 31.4239C4.22817 31.4233 4.22817 31.4233 4.32619 31.4228C4.53827 31.4217 4.75034 31.4212 4.96242 31.4208C5.10976 31.4204 5.2571 31.42 5.40444 31.4196C5.71346 31.4188 6.02248 31.4184 6.3315 31.4181C6.72742 31.4177 7.12331 31.416 7.51922 31.4139C7.8236 31.4126 8.12798 31.4122 8.43236 31.4121C8.57832 31.4119 8.72428 31.4113 8.87023 31.4104C9.07445 31.4091 9.27863 31.4093 9.48285 31.4097C9.54309 31.4091 9.60333 31.4084 9.6654 31.4077C10.0113 31.4102 10.2374 31.447 10.5117 31.6523C10.6107 31.8401 10.6001 31.981 10.6035 32.1914C10.6057 32.315 10.6057 32.315 10.6081 32.4412C10.6093 32.5306 10.6106 32.6199 10.6119 32.712C10.6135 32.8032 10.6151 32.8945 10.6167 32.9884C10.6209 33.231 10.6247 33.4736 10.6284 33.7162C10.6322 33.9638 10.6364 34.2113 10.6406 34.4588C10.6488 34.9445 10.6565 35.4302 10.664 35.916C11.1165 35.916 11.5689 35.916 12.0351 35.916C12.0351 34.0559 12.0351 32.1957 12.0351 30.2793C8.76732 30.2793 5.49955 30.2793 2.13275 30.2793ZM16.5292 30.2793C16.5292 30.637 16.5292 30.9947 16.5292 31.3632C17.7107 31.3632 18.8921 31.3632 20.1093 31.3632C20.1093 31.0055 20.1093 30.6478 20.1093 30.2793C18.9279 30.2793 17.7465 30.2793 16.5292 30.2793ZM29.5546 30.2793C29.5546 30.637 29.5546 30.9947 29.5546 31.3632C30.7109 31.3632 31.8672 31.3632 33.0585 31.3632C33.0585 31.0055 33.0585 30.6478 33.0585 30.2793C31.9022 30.2793 30.746 30.2793 29.5546 30.2793ZM4.26556 32.5195C4.26556 33.6403 4.26556 34.7612 4.26556 35.916C5.97486 35.916 7.68416 35.916 9.44525 35.916C9.44525 34.7951 9.44525 33.6743 9.44525 32.5195C7.73596 32.5195 6.02666 32.5195 4.26556 32.5195ZM17.748 32.5195C17.748 33.6403 17.748 34.7612 17.748 35.916C18.125 35.916 18.5021 35.916 18.8906 35.916C18.8906 34.7951 18.8906 33.6743 18.8906 32.5195C18.5135 32.5195 18.1365 32.5195 17.748 32.5195ZM30.7734 32.5195C30.7734 33.6403 30.7734 34.7612 30.7734 35.916C31.1504 35.916 31.5275 35.916 31.916 35.916C31.916 34.7951 31.916 33.6743 31.916 32.5195C31.5389 32.5195 31.1619 32.5195 30.7734 32.5195Z" fill="#20376D"/>
<path d="M0.857948 -0.0271189C0.955853 -0.0275916 0.955853 -0.0275916 1.05574 -0.0280738C1.27641 -0.0288706 1.49704 -0.0281099 1.71771 -0.0273666C1.87673 -0.0276162 2.03574 -0.0279604 2.19476 -0.0283915C2.63326 -0.0293006 3.07174 -0.0288473 3.51024 -0.0281777C3.98254 -0.027689 4.45484 -0.0284433 4.92714 -0.0290405C5.79942 -0.0299508 6.67169 -0.0298691 7.54396 -0.0292765C8.34969 -0.0287318 9.15542 -0.0285885 9.96115 -0.0288478C10.0145 -0.0288644 10.0679 -0.0288809 10.1229 -0.028898C10.3396 -0.0289655 10.5563 -0.0290345 10.773 -0.0291061C12.807 -0.0297697 14.8409 -0.0291673 16.8749 -0.0280011C18.6831 -0.0269722 20.4913 -0.0270642 22.2995 -0.028101C24.3296 -0.0292611 26.3598 -0.0297226 28.39 -0.0290523C28.6063 -0.0289827 28.8226 -0.0289149 29.0389 -0.0288478C29.0921 -0.0288307 29.1454 -0.0288135 29.2003 -0.0287958C30.0056 -0.0285489 30.811 -0.0288382 31.6163 -0.0293854C32.5318 -0.0300042 33.4472 -0.0298316 34.3627 -0.0286741C34.8301 -0.0281026 35.2976 -0.0278841 35.7651 -0.028598C36.1924 -0.0292409 36.6198 -0.0288943 37.0471 -0.0277357C37.2023 -0.0274922 37.3575 -0.0276198 37.5126 -0.0281424C37.7225 -0.0287953 37.9322 -0.0281319 38.1421 -0.0271189C38.2032 -0.0276265 38.2644 -0.028134 38.3274 -0.028657C38.7305 -0.0247295 38.7305 -0.0247295 38.9232 0.092359C39.0667 0.325244 39.0323 0.600255 39.0304 0.862834C39.0306 0.926173 39.0308 0.989513 39.031 1.05477C39.0312 1.18865 39.0308 1.32254 39.0298 1.45641C39.0286 1.66151 39.0298 1.8665 39.0313 2.07159C39.0311 2.20163 39.0308 2.33167 39.0304 2.46171C39.0308 2.52314 39.0313 2.58457 39.0318 2.64786C39.0264 3.07449 39.0264 3.07449 38.903 3.22937C38.6348 3.4232 38.3537 3.40553 38.0267 3.40485C37.9382 3.40485 37.8498 3.40484 37.7587 3.40483C37.6161 3.40427 37.6161 3.40427 37.4706 3.4037C37.373 3.4036 37.2754 3.4035 37.1748 3.40339C36.9158 3.40312 36.6568 3.40241 36.3979 3.40161C36.1334 3.40087 35.8689 3.40054 35.6044 3.40018C35.0859 3.3994 34.5674 3.39817 34.0488 3.39665C34.0265 3.46247 34.0042 3.52829 33.9813 3.5961C33.9161 3.77608 33.8488 3.93859 33.759 4.10773C33.7334 4.15622 33.7078 4.2047 33.6814 4.25466C33.655 4.30389 33.6285 4.35312 33.6013 4.40385C33.5755 4.4528 33.5497 4.50176 33.5231 4.55219C33.0436 5.45423 33.0436 5.45423 32.8158 5.59623C32.6163 5.6341 32.4479 5.64098 32.2454 5.63942C32.1837 5.63906 32.122 5.63869 32.0585 5.63831C32.0115 5.63784 31.9645 5.63737 31.916 5.63688C31.9176 5.7098 31.9192 5.78272 31.9209 5.85784C31.9264 6.1288 31.9299 6.39976 31.9328 6.67076C31.9343 6.78796 31.9364 6.90516 31.939 7.02235C31.9427 7.19098 31.9444 7.35955 31.9458 7.52821C31.9474 7.58046 31.9489 7.63271 31.9505 7.68655C31.9507 7.93477 31.9361 8.06877 31.7761 8.26928C31.4278 8.50965 31.2441 8.45524 30.7734 8.45524C30.7986 8.86065 30.8237 9.26606 30.8496 9.68376C31.0279 9.75614 31.2062 9.82852 31.39 9.90309C31.5672 9.97508 31.7445 10.0471 31.9217 10.1191C32.0427 10.1682 32.1637 10.2173 32.2846 10.2665C32.5786 10.3858 32.8724 10.5053 33.166 10.6255C33.3992 10.7208 33.6331 10.8142 33.8676 10.9063C33.978 10.9504 34.0884 10.9944 34.1988 11.0385C34.2496 11.0579 34.3003 11.0774 34.3526 11.0975C34.8437 11.2954 34.8437 11.2954 34.9629 11.5627C34.9772 11.9141 34.8864 12.2332 34.7645 12.5621C34.1843 14.1405 34.2864 15.77 34.2994 17.4201C34.3041 18.0553 34.3056 18.6905 34.3047 19.3257C34.305 19.5462 34.3073 19.7667 34.3098 19.9872C34.3101 20.1213 34.3103 20.2555 34.3105 20.3896C34.3117 20.4505 34.3129 20.5114 34.3142 20.5741C34.3129 20.8189 34.2968 20.9969 34.1685 21.2117C33.8668 21.3763 33.586 21.3582 33.2437 21.3548C33.1329 21.3554 33.1329 21.3554 33.0199 21.356C32.7757 21.3569 32.5316 21.3557 32.2874 21.3544C32.1178 21.3544 31.9481 21.3545 31.7785 21.3547C31.423 21.3548 31.0675 21.3539 30.712 21.3522C30.2561 21.3502 29.8001 21.3504 29.3442 21.3513C28.9939 21.3518 28.6437 21.3512 28.2934 21.3503C28.1253 21.35 27.9572 21.35 27.7891 21.3503C27.5542 21.3505 27.3193 21.3493 27.0845 21.3477C26.98 21.3482 26.98 21.3482 26.8734 21.3487C26.4053 21.3435 26.4053 21.3435 26.1623 21.2218C25.9059 20.9457 25.9652 20.5989 25.9674 20.2533C25.9677 20.1191 25.9679 19.985 25.9681 19.8508C25.9684 19.7438 25.9684 19.7438 25.9688 19.6346C25.9696 19.2536 25.9681 18.8726 25.9669 18.4916C25.9655 18.0081 25.9648 17.5247 25.967 17.0413C26.0056 14.6902 26.0056 14.6902 25.4795 12.4104C25.3608 12.0834 25.3182 11.8356 25.3652 11.4904C25.5883 11.1532 26.023 11.0401 26.3974 10.8962C26.4684 10.8682 26.5394 10.8403 26.6126 10.8115C26.8392 10.7225 27.0663 10.6344 27.2933 10.5464C27.4453 10.487 27.5972 10.4275 27.749 10.3679C28.0854 10.236 28.422 10.1047 28.7589 9.97406C28.9996 9.87915 29.2389 9.78117 29.4785 9.68376C29.5037 9.27835 29.5288 8.87294 29.5547 8.45524C29.3536 8.45524 29.1525 8.45524 28.9453 8.45524C28.7226 8.39889 28.6042 8.34806 28.4412 8.1949C28.2963 7.95645 28.3074 7.73902 28.3136 7.47175C28.314 7.41923 28.3143 7.3667 28.3146 7.31259C28.3159 7.14543 28.3188 6.97834 28.3217 6.8112C28.3228 6.69763 28.3239 6.58405 28.3248 6.47048C28.3273 6.19259 28.3312 5.91475 28.3359 5.63688C28.1915 5.63784 28.1915 5.63784 28.044 5.63882C27.5783 5.64192 27.5783 5.64192 27.3457 5.49235C27.1937 5.28334 27.0775 5.06079 26.9601 4.83293C26.928 4.77293 26.896 4.71294 26.8629 4.65113C26.7995 4.532 26.7366 4.41257 26.6744 4.29284C26.6148 4.17839 26.5542 4.06438 26.4927 3.95085C26.2793 3.55666 26.2793 3.55666 26.2793 3.39665C26.199 3.39697 26.1188 3.39729 26.0361 3.39762C25.2795 3.40055 24.523 3.40272 23.7665 3.40414C23.3776 3.40489 22.9886 3.40591 22.5997 3.40755C22.2243 3.40912 21.849 3.40999 21.4736 3.41036C21.3304 3.41063 21.1872 3.41115 21.044 3.41193C20.8434 3.41298 20.6429 3.41312 20.4423 3.41305C20.3831 3.41357 20.3239 3.41409 20.263 3.41463C19.9504 3.4135 19.7014 3.39375 19.4238 3.25212C19.2395 3.04229 19.1933 2.93946 19.2048 2.66496C19.2745 2.44777 19.3163 2.37784 19.5 2.2404C19.6461 2.21347 19.6461 2.21347 19.8148 2.21372C19.8792 2.21329 19.9436 2.21286 20.01 2.21241C20.0807 2.21304 20.1515 2.21368 20.2244 2.21433C20.3371 2.21405 20.3371 2.21405 20.4522 2.21377C20.7052 2.21341 20.9581 2.2146 21.2111 2.21579C21.392 2.21585 21.5729 2.21581 21.7538 2.21569C22.1947 2.21563 22.6357 2.21658 23.0766 2.21795C23.5896 2.2195 24.1027 2.21983 24.6157 2.22007C25.5306 2.22055 26.4455 2.22199 27.3604 2.22404C28.2492 2.22603 29.138 2.22757 30.0268 2.22849C30.0816 2.22855 30.1364 2.2286 30.1928 2.22866C30.4676 2.22894 30.7424 2.22922 31.0172 2.22949C33.2973 2.23174 35.5773 2.23557 37.8574 2.2404C37.8574 1.85883 37.8574 1.47727 37.8574 1.08415C25.7415 1.08415 13.6256 1.08415 1.14259 1.08415C1.14259 1.46571 1.14259 1.84727 1.14259 2.2404C1.27006 2.2401 1.27006 2.2401 1.4001 2.23979C3.46547 2.23498 5.53083 2.23142 7.59621 2.22916C8.595 2.22805 9.59378 2.22652 10.5926 2.22404C11.4629 2.22188 12.3332 2.22048 13.2035 2.22C13.6645 2.21972 14.1255 2.21905 14.5866 2.21748C15.0201 2.21601 15.4537 2.21555 15.8873 2.21588C16.0468 2.21582 16.2062 2.21538 16.3657 2.21455C16.5828 2.21348 16.7998 2.21373 17.0169 2.21433C17.1124 2.21338 17.1124 2.21338 17.2098 2.21241C17.6385 2.2156 17.6385 2.2156 17.7996 2.33522C17.9662 2.53678 17.972 2.7116 17.9766 2.96305C17.8177 3.21074 17.7348 3.30449 17.4434 3.39665C17.2205 3.40376 16.9994 3.40669 16.7765 3.40631C16.673 3.40656 16.673 3.40656 16.5674 3.40681C16.3354 3.40726 16.1033 3.4072 15.8712 3.40714C15.7052 3.40736 15.5391 3.40761 15.3731 3.40788C14.9214 3.40852 14.4698 3.40869 14.0181 3.40873C13.6414 3.4088 13.2647 3.40907 12.888 3.40932C11.9485 3.40995 11.0091 3.41008 10.0697 3.41003C9.30453 3.41 8.53936 3.41057 7.77419 3.41152C6.88584 3.41263 5.9975 3.41324 5.10915 3.41318C4.63883 3.41317 4.16851 3.41337 3.69819 3.41414C3.25592 3.41484 2.81365 3.41484 2.37138 3.41432C2.20891 3.41424 2.04644 3.41441 1.88397 3.41485C1.66246 3.4154 1.44097 3.41507 1.21945 3.41451C1.12266 3.41507 1.12266 3.41507 1.0239 3.41564C0.616834 3.41337 0.301671 3.39377 1.24872e-05 3.10758C-0.0161641 2.89239 -0.0231404 2.68408 -0.0228986 2.46877C-0.023225 2.40533 -0.0235514 2.34188 -0.0238877 2.27652C-0.0243256 2.14221 -0.024363 2.00789 -0.024033 1.87358C-0.0237925 1.66785 -0.025578 1.4622 -0.0275106 1.25648C-0.0276837 1.12611 -0.0277373 0.995744 -0.0276593 0.865374C-0.0283608 0.803718 -0.0290624 0.742061 -0.0297852 0.678536C-0.0263231 0.259772 -0.0263231 0.259772 0.0767041 0.0922873C0.319867 -0.0552597 0.578358 -0.0294388 0.857948 -0.0271189ZM27.6504 3.39665C27.8051 3.88129 27.8051 3.88129 28.1836 4.48063C29.4907 4.48063 30.7978 4.48063 32.1445 4.48063C32.4085 3.94406 32.4085 3.94406 32.6777 3.39665C31.0187 3.39665 29.3597 3.39665 27.6504 3.39665ZM29.5547 5.63688C29.5547 6.18538 29.5547 6.73387 29.5547 7.29899C29.9317 7.29899 30.3088 7.29899 30.6973 7.29899C30.6973 6.75049 30.6973 6.202 30.6973 5.63688C30.3202 5.63688 29.9432 5.63688 29.5547 5.63688ZM29.1762 11.0452C29.071 11.0887 29.071 11.0887 28.9637 11.133C28.7411 11.2253 28.5195 11.3194 28.2979 11.4136C28.1466 11.4767 27.9952 11.5397 27.8438 11.6026C27.474 11.7565 27.1049 11.9119 26.7363 12.0685C26.7851 12.5589 26.8998 12.9502 27.041 13.4416C29.0771 13.4416 31.1132 13.4416 33.2109 13.4416C33.3996 12.9162 33.3996 12.9162 33.5299 12.3892C33.542 12.328 33.5541 12.2668 33.5665 12.2037C33.579 12.1368 33.579 12.1368 33.5918 12.0685C33.1695 11.8939 32.7467 11.7203 32.3235 11.5476C32.1798 11.4888 32.0362 11.4297 31.8927 11.3703C31.6857 11.2848 31.4784 11.2002 31.2709 11.1158C31.2074 11.0893 31.1439 11.0628 31.0785 11.0355C30.3355 10.7357 29.9159 10.7262 29.1762 11.0452ZM27.1934 14.5978C27.1934 16.4341 27.1934 18.2704 27.1934 20.1623C29.1289 20.1623 31.0644 20.1623 33.0586 20.1623C33.0586 18.326 33.0586 16.4897 33.0586 14.5978C32.6816 14.5978 32.3045 14.5978 31.916 14.5978C31.9131 14.8053 31.9131 14.8053 31.9101 15.017C31.9058 15.198 31.9014 15.3789 31.897 15.5599C31.8959 15.6511 31.8948 15.7423 31.8937 15.8364C31.8913 15.9237 31.8888 16.011 31.8863 16.101C31.8847 16.1816 31.8831 16.2622 31.8814 16.3453C31.8399 16.549 31.8399 16.549 31.7245 16.6836C31.4521 16.8018 31.1908 16.7968 30.8969 16.7946C30.8046 16.7949 30.8046 16.7949 30.7103 16.7952C30.5804 16.7954 30.4505 16.795 30.3206 16.7941C30.1216 16.7929 29.9228 16.794 29.7239 16.7954C29.5975 16.7953 29.4712 16.795 29.3449 16.7946C29.2854 16.795 29.2259 16.7955 29.1646 16.7959C28.7537 16.7908 28.7537 16.7908 28.5681 16.6646C28.4084 16.4332 28.3983 16.2708 28.388 15.9951C28.3832 15.8736 28.3832 15.8736 28.3783 15.7496C28.3754 15.6646 28.3724 15.5796 28.3693 15.4921C28.3643 15.3638 28.3643 15.3638 28.3593 15.233C28.3512 15.0213 28.3435 14.8095 28.3359 14.5978C27.9589 14.5978 27.5818 14.5978 27.1934 14.5978ZM29.5547 14.5978C29.5547 14.9555 29.5547 15.3132 29.5547 15.6818C29.9317 15.6818 30.3088 15.6818 30.6973 15.6818C30.6973 15.3241 30.6973 14.9664 30.6973 14.5978C30.3202 14.5978 29.9432 14.5978 29.5547 14.5978Z" fill="#20376D"/>
<path d="M3.5069 13.4035C3.59264 13.403 3.67838 13.4025 3.76671 13.402C4.05047 13.4007 4.33418 13.4016 4.61794 13.4025C4.81488 13.4023 5.01182 13.4021 5.20876 13.4017C5.62165 13.4013 6.03452 13.4019 6.44741 13.4032C6.92458 13.4048 7.40172 13.4043 7.8789 13.4027C8.33816 13.4012 8.7974 13.4014 9.25667 13.4022C9.45201 13.4024 9.64735 13.4022 9.84269 13.4015C10.1155 13.4008 10.3883 13.4019 10.6611 13.4035C10.7422 13.4029 10.8232 13.4023 10.9067 13.4017C11.4366 13.4076 11.4366 13.4076 11.7043 13.5441C11.8638 13.8337 11.8497 14.106 11.8473 14.4282C11.8483 14.5344 11.8483 14.5344 11.8493 14.6427C11.851 14.8767 11.8505 15.1106 11.8498 15.3447C11.8502 15.5072 11.8507 15.6697 11.8512 15.8323C11.852 16.173 11.8517 16.5136 11.8506 16.8543C11.8493 17.2913 11.8511 17.7282 11.8537 18.1651C11.8554 18.5007 11.8553 18.8364 11.8547 19.172C11.8546 19.3331 11.8551 19.4943 11.8562 19.6554C11.8576 19.8805 11.8565 20.1055 11.8547 20.3306C11.8561 20.4307 11.8561 20.4307 11.8574 20.5329C11.8529 20.8193 11.8449 20.9784 11.6659 21.2146C11.3061 21.3693 10.9741 21.3581 10.5833 21.3553C10.4983 21.3558 10.4133 21.3563 10.3257 21.3568C10.0448 21.3581 9.764 21.3572 9.48312 21.3563C9.288 21.3565 9.09288 21.3567 8.89776 21.3571C8.48891 21.3575 8.08008 21.3569 7.67123 21.3556C7.19877 21.354 6.72635 21.3545 6.25388 21.3561C5.79898 21.3576 5.34408 21.3574 4.88917 21.3566C4.69574 21.3564 4.50231 21.3566 4.30888 21.3573C4.0388 21.358 3.76878 21.3569 3.4987 21.3553C3.41849 21.3559 3.33827 21.3564 3.25562 21.357C2.73131 21.3512 2.73131 21.3512 2.46412 21.2146C2.30399 20.9251 2.31895 20.653 2.32192 20.3306C2.32139 20.2598 2.32086 20.189 2.32031 20.1161C2.31897 19.8821 2.31985 19.6481 2.32088 19.4141C2.32068 19.2516 2.32038 19.0891 2.32 18.9265C2.31955 18.5858 2.3202 18.2452 2.32163 17.9045C2.32336 17.4675 2.32236 17.0306 2.32054 16.5937C2.31944 16.2581 2.31979 15.9224 2.32058 15.5868C2.32078 15.4257 2.32053 15.2645 2.31982 15.1034C2.31905 14.8783 2.32023 14.6533 2.32192 14.4282C2.32131 14.3615 2.32069 14.2947 2.32006 14.2259C2.32374 13.9628 2.33419 13.7793 2.4636 13.5441C2.79748 13.3739 3.13397 13.4008 3.5069 13.4035ZM3.5801 14.5972C3.5801 16.4334 3.5801 18.2697 3.5801 20.1616C5.89268 20.1616 8.20526 20.1616 10.5879 20.1616C10.5879 18.3254 10.5879 16.4891 10.5879 14.5972C8.27533 14.5972 5.96276 14.5972 3.5801 14.5972Z" fill="#20376D"/>
<path d="M5.90337 17.8812C5.97475 17.8795 6.04613 17.8778 6.11968 17.876C6.47637 17.8767 6.6489 17.8831 6.94061 18.0915C7.08403 18.2832 7.08403 18.2832 7.13164 18.5C7.06525 18.8023 6.96339 18.8922 6.70317 19.0781C6.43533 19.1295 6.17573 19.1253 5.90337 19.1187C5.79629 19.1199 5.79629 19.1199 5.68705 19.1211C5.35911 19.1178 5.15457 19.1058 4.86612 18.9491C4.71581 18.7813 4.67063 18.7166 4.67509 18.5C4.67411 18.4523 4.67313 18.4046 4.67212 18.3554C4.85668 17.8281 5.41998 17.8758 5.90337 17.8812Z" fill="#20376D"/>
<path d="M3.88468 22.475C4.03226 22.5518 4.03226 22.5518 4.1132 22.6918C4.17069 23.1827 4.17069 23.1827 3.99418 23.4506C3.73814 23.6001 3.57088 23.5941 3.27531 23.559C3.0944 23.4822 3.0944 23.4822 2.97062 23.3422C2.90414 23.0944 2.86937 22.9164 2.94682 22.6692C3.21094 22.3471 3.48729 22.3859 3.88468 22.475Z" fill="#20376D"/>
<path d="M10.9687 22.4743C11.148 22.5877 11.1878 22.6675 11.2639 22.8583C11.2767 23.1195 11.1873 23.2658 11.0449 23.4861C10.8094 23.5978 10.6188 23.5795 10.3594 23.5583C10.1737 23.4499 10.1737 23.4499 10.0547 23.2693C10.0082 23.0663 10.0049 22.8937 10.0547 22.6911C10.3315 22.3648 10.557 22.3658 10.9687 22.4743Z" fill="#20376D"/>
<path d="M8.34082 22.4157C8.60742 22.4745 8.60742 22.4745 8.755 22.5512C8.88878 22.7827 8.88318 23.0162 8.83594 23.2694C8.71692 23.45 8.71692 23.45 8.53125 23.5584C8.22774 23.5996 8.07003 23.607 7.81714 23.4365C7.67666 23.2468 7.62315 23.1401 7.61719 22.9081C7.78267 22.5705 7.92771 22.3948 8.34082 22.4157Z" fill="#20376D"/>
<path d="M5.97949 22.4157C6.24609 22.4745 6.24609 22.4745 6.39368 22.5512C6.52745 22.7827 6.52186 23.0162 6.47461 23.2694C6.35559 23.45 6.35559 23.45 6.16992 23.5584C5.86641 23.5996 5.70871 23.607 5.45581 23.4365C5.31533 23.2468 5.26182 23.1401 5.25586 22.9081C5.42134 22.5705 5.56638 22.3948 5.97949 22.4157Z" fill="#20376D"/>
</g>
<defs>
<clipPath id="clip0_503_74">
<rect width="39" height="37" fill="white"/>
</clipPath>
</defs>
</svg>
