<svg width="37" height="38" viewBox="0 0 37 38" fill="none" xmlns="http://www.w3.org/2000/svg">
<g clip-path="url(#clip0_503_108)">
<path d="M23.9198 0.55502C23.9701 0.554499 24.0205 0.553979 24.0723 0.553443C24.2383 0.552139 24.4042 0.553001 24.5702 0.554005C24.6857 0.553805 24.8013 0.553517 24.9168 0.553144C25.1589 0.552707 25.4009 0.553342 25.6429 0.55473C25.953 0.556421 26.263 0.555447 26.5731 0.553669C26.8117 0.552596 27.0502 0.552938 27.2888 0.553707C27.4031 0.553905 27.5174 0.553662 27.6317 0.552971C27.7916 0.552216 27.9514 0.553367 28.1112 0.55502C28.2476 0.555374 28.2476 0.555374 28.3867 0.555735C28.6572 0.600002 28.7428 0.668899 28.9061 0.890309C28.9389 1.04665 28.9389 1.04665 28.9344 1.21154C28.933 1.30051 28.933 1.30051 28.9315 1.39129C28.9279 1.48313 28.9279 1.48313 28.9242 1.57683C28.9229 1.63921 28.9216 1.70159 28.9202 1.76586C28.9168 1.91936 28.9117 2.07281 28.9061 2.22625C28.9533 2.23974 29.0004 2.25323 29.049 2.26712C29.3414 2.35351 29.6034 2.43492 29.8727 2.58342C30.0509 2.69256 30.0509 2.69256 30.1973 2.62662C30.3975 2.49221 30.5354 2.32562 30.6947 2.14275C31.0974 1.72495 31.0974 1.72495 31.3722 1.70208C31.9869 1.81768 32.5114 2.57824 32.9324 3.01163C32.9972 3.07809 33.0619 3.14454 33.1287 3.21301C33.2645 3.35245 33.4003 3.49196 33.5359 3.6316C33.7098 3.81062 33.884 3.98931 34.0583 4.1679C34.2252 4.33894 34.3918 4.51026 34.5584 4.68155C34.621 4.74572 34.6836 4.80988 34.7481 4.87599C34.8343 4.96484 34.8343 4.96484 34.9222 5.05549C34.9983 5.13373 34.9983 5.13373 35.076 5.21356C35.2758 5.43487 35.2989 5.62714 35.2951 5.9282C35.2403 6.2194 35.0412 6.3783 34.8319 6.56804C34.7906 6.60784 34.7492 6.64764 34.7066 6.68865C34.6051 6.78593 34.5019 6.88129 34.3983 6.97625C34.5088 7.32574 34.6367 7.66339 34.7738 8.00255C34.8319 8.16375 34.8319 8.16375 34.8319 8.31218C34.9225 8.30874 35.013 8.3053 35.1063 8.30175C35.2256 8.29896 35.3449 8.29626 35.4642 8.29363C35.5239 8.29114 35.5835 8.28865 35.6449 8.28609C35.7315 8.28466 35.7315 8.28466 35.8199 8.28319C35.8729 8.28164 35.9259 8.28008 35.9805 8.27848C36.2041 8.328 36.2809 8.42566 36.4218 8.60906C36.4585 8.84563 36.4585 8.84563 36.4592 9.12859C36.4599 9.20612 36.4599 9.20612 36.4607 9.28522C36.462 9.45569 36.4611 9.62608 36.4601 9.79656C36.4603 9.91523 36.4606 10.0339 36.461 10.1526C36.4614 10.4011 36.4608 10.6497 36.4594 10.8982C36.4578 11.2167 36.4587 11.5351 36.4605 11.8536C36.4615 12.0986 36.4612 12.3436 36.4604 12.5886C36.4602 12.706 36.4605 12.8234 36.4612 12.9409C36.4619 13.105 36.4608 13.2691 36.4592 13.4333C36.4589 13.5267 36.4587 13.62 36.4585 13.7162C36.4154 13.994 36.3483 14.0819 36.1327 14.2497C35.9805 14.2834 35.9805 14.2834 35.8199 14.2787C35.7622 14.2777 35.7044 14.2768 35.6449 14.2758C35.5555 14.272 35.5555 14.272 35.4642 14.2682C35.4035 14.2669 35.3428 14.2656 35.2802 14.2642C35.1307 14.2607 34.9813 14.2554 34.8319 14.2497C34.8188 14.2981 34.8056 14.3465 34.7921 14.3964C34.708 14.6967 34.6287 14.9658 34.4841 15.2424C34.3779 15.4254 34.3779 15.4254 34.4421 15.5758C34.5729 15.7813 34.7352 15.923 34.9132 16.0866C35.32 16.5002 35.32 16.5002 35.3423 16.7824C35.2297 17.4138 34.4892 17.9524 34.0672 18.3848C34.0025 18.4513 33.9378 18.5178 33.8711 18.5864C33.7353 18.7259 33.5995 18.8653 33.4635 19.0046C33.2892 19.1832 33.1152 19.3621 32.9414 19.5411C32.7748 19.7125 32.608 19.8836 32.4412 20.0547C32.3475 20.1512 32.3475 20.1512 32.2519 20.2496C32.1942 20.3086 32.1365 20.3676 32.0771 20.4284C32.0009 20.5065 32.0009 20.5065 31.9232 20.5863C31.7077 20.7915 31.5205 20.8152 31.2274 20.8114C30.9438 20.7551 30.7891 20.5505 30.6044 20.3356C30.5656 20.2931 30.5269 20.2507 30.4869 20.2069C30.3922 20.1027 30.2994 19.9967 30.2069 19.8903C29.8666 20.0037 29.5379 20.1351 29.2076 20.2759C29.0507 20.3356 29.0507 20.3356 28.9061 20.3356C28.9095 20.4286 28.9128 20.5216 28.9163 20.6174C28.919 20.74 28.9216 20.8625 28.9242 20.985C28.9266 21.0463 28.929 21.1075 28.9315 21.1706C28.9329 21.2596 28.9329 21.2596 28.9344 21.3503C28.9359 21.4047 28.9374 21.4592 28.9389 21.5152C28.9061 21.6716 28.9061 21.6716 28.6171 21.9684C27.7586 21.9684 26.9 21.9684 26.0155 21.9684C26.0155 25.8872 26.0155 29.8059 26.0155 33.8434C26.6832 33.8434 27.351 33.8434 28.0389 33.8434C28.3642 34.1775 28.3642 34.1775 28.3654 34.4418C28.3668 34.5295 28.3668 34.5295 28.3682 34.619C28.3673 34.7127 28.3673 34.7127 28.3664 34.8083C28.3667 34.873 28.367 34.9378 28.3672 35.0046C28.3674 35.1413 28.3669 35.278 28.3657 35.4148C28.3641 35.624 28.3657 35.833 28.3675 36.0422C28.3673 36.1751 28.367 36.3081 28.3664 36.4411C28.367 36.5036 28.3676 36.566 28.3682 36.6304C28.3668 36.7181 28.3668 36.7181 28.3654 36.8075C28.3652 36.8587 28.3649 36.9099 28.3647 36.9627C28.31 37.1809 28.2085 37.2654 28.0389 37.4059C27.8291 37.4431 27.8291 37.4431 27.5798 37.4433C27.4848 37.4441 27.3897 37.4448 27.2918 37.4456C27.1861 37.445 27.0803 37.4443 26.9746 37.4436C26.8625 37.444 26.7503 37.4444 26.6382 37.445C26.3296 37.4463 26.021 37.4457 25.7124 37.4447C25.3798 37.4441 25.0472 37.4451 24.7146 37.4459C24.0628 37.4472 23.411 37.447 22.7593 37.4461C22.2297 37.4454 21.7001 37.4453 21.1705 37.4457C21.0952 37.4457 21.0199 37.4458 20.9424 37.4458C20.7894 37.4459 20.6365 37.446 20.4836 37.4461C19.0485 37.4469 17.6135 37.446 16.1784 37.4444C14.9463 37.443 13.7142 37.4433 12.4821 37.4446C11.0523 37.4462 9.62245 37.4469 8.19264 37.4459C8.04026 37.4458 7.88788 37.4458 7.7355 37.4457C7.62303 37.4456 7.62303 37.4456 7.50828 37.4455C6.97916 37.4453 6.45004 37.4457 5.92092 37.4464C5.27635 37.4472 4.63179 37.447 3.98722 37.4454C3.65816 37.4446 3.32913 37.4443 3.00007 37.4453C2.69909 37.4462 2.39815 37.4457 2.09717 37.4441C1.98805 37.4438 1.87892 37.444 1.7698 37.4447C1.62193 37.4456 1.47405 37.4445 1.32618 37.4433C1.20277 37.4432 1.20277 37.4432 1.07686 37.4431C0.82088 37.3977 0.735929 37.3166 0.578006 37.1091C0.5413 36.9627 0.5413 36.9627 0.540603 36.8075C0.539236 36.7199 0.539236 36.7199 0.537842 36.6304C0.538427 36.5679 0.539012 36.5055 0.539615 36.4411C0.539338 36.3763 0.539062 36.3115 0.538777 36.2448C0.53858 36.1081 0.539112 35.9713 0.540321 35.8346C0.541868 35.6254 0.540335 35.4164 0.538486 35.2072C0.538677 35.0742 0.539047 34.9413 0.539615 34.8083C0.538737 34.7146 0.538737 34.7146 0.537842 34.619C0.538753 34.5605 0.539664 34.502 0.540603 34.4418C0.540833 34.3906 0.541063 34.3395 0.5413 34.2867C0.578006 34.1403 0.578006 34.1403 0.867069 33.8434C1.5348 33.8434 2.20254 33.8434 2.89051 33.8434C2.89051 25.6141 2.89051 17.3847 2.89051 8.90593C2.60433 8.90593 2.31816 8.90593 2.02332 8.90593C1.69804 8.57186 1.69804 8.57186 1.69685 8.30755C1.69594 8.24909 1.69503 8.19063 1.69409 8.13041C1.69468 8.06793 1.69526 8.00546 1.69586 7.94109C1.69559 7.87632 1.69531 7.81155 1.69503 7.74482C1.69483 7.60807 1.69536 7.47132 1.69657 7.33458C1.69812 7.12539 1.69658 6.91639 1.69474 6.7072C1.69493 6.57423 1.6953 6.44125 1.69586 6.30828C1.69528 6.2458 1.69469 6.18333 1.69409 6.11896C1.695 6.06051 1.69591 6.00205 1.69685 5.94182C1.69708 5.89064 1.69731 5.83945 1.69755 5.78672C1.75354 5.56339 1.84538 5.48338 2.02332 5.34343C2.2266 5.32132 2.39889 5.31719 2.60087 5.32789C2.65956 5.32974 2.71825 5.33159 2.77872 5.3335C2.90747 5.33775 3.0362 5.34269 3.16491 5.34825C3.37454 5.35729 3.58417 5.36457 3.79388 5.37139C4.02015 5.37876 4.24642 5.38626 4.47267 5.3943C5.03749 5.41425 5.60225 5.42838 6.16731 5.43905C6.24963 5.44061 6.33195 5.44217 6.41677 5.44378C6.75685 5.4501 7.09694 5.45622 7.43702 5.46224C8.39679 5.47943 9.3557 5.50211 10.3148 5.54217C11.3229 5.58339 12.3302 5.60842 13.3391 5.60842C13.4202 5.60844 13.5014 5.60845 13.585 5.60847C15.5336 5.6008 17.171 5.49644 18.6127 4.03509C19.1957 3.41332 19.7027 2.72774 20.142 1.99213C20.2343 1.85515 20.2343 1.85515 20.3788 1.78093C20.8666 1.722 20.8666 1.722 21.0854 1.86472C21.2071 1.97956 21.3172 2.099 21.4266 2.22625C21.4654 2.26872 21.5041 2.3112 21.5441 2.35497C21.6388 2.4592 21.7316 2.56521 21.8241 2.67156C22.1644 2.55813 22.4932 2.42677 22.8234 2.28597C22.9803 2.22625 22.9803 2.22625 23.1249 2.22625C23.1215 2.13325 23.1182 2.04026 23.1147 1.94445C23.112 1.82191 23.1094 1.69937 23.1068 1.57683C23.1044 1.5156 23.102 1.45437 23.0995 1.39129C23.0985 1.33197 23.0976 1.27265 23.0967 1.21154C23.0951 1.15712 23.0936 1.10271 23.0921 1.04665C23.1873 0.593059 23.5253 0.556044 23.9198 0.55502ZM24.2811 1.78093C24.2573 2.1973 24.2334 2.61367 24.2089 3.04265C23.9819 3.21751 23.8638 3.30008 23.6115 3.39026C23.5531 3.41165 23.4947 3.43303 23.4346 3.45506C23.3741 3.47663 23.3136 3.49821 23.2513 3.52044C22.8502 3.66434 22.4668 3.81514 22.0915 4.02109C21.8813 4.12481 21.763 4.13538 21.535 4.08171C21.3798 3.96588 21.242 3.84103 21.1034 3.70482C20.9428 3.54841 20.7684 3.40733 20.5956 3.26531C19.8086 4.07355 19.0216 4.88179 18.2108 5.71453C18.5261 6.09295 18.5261 6.09295 18.8522 6.46135C19.0361 6.72243 19.0371 6.80915 19.0057 7.12468C18.9349 7.30576 18.8619 7.47171 18.7754 7.64421C18.5508 8.11148 18.3733 8.57995 18.2139 9.07438C18.1386 9.27703 18.1386 9.27703 17.994 9.42546C17.3859 9.4622 17.3859 9.4622 16.7655 9.49968C16.7655 10.6753 16.7655 11.8509 16.7655 13.0622C17.3736 13.0989 17.3736 13.0989 17.994 13.1364C18.2375 13.4698 18.2375 13.4698 18.3141 13.7122C18.3312 13.7644 18.3482 13.8166 18.3658 13.8704C18.3832 13.9251 18.4006 13.9799 18.4186 14.0363C18.5416 14.4117 18.669 14.7671 18.8522 15.1171C19.0833 15.5771 19.0833 15.5771 19.0057 15.8825C18.8925 16.0414 18.7713 16.1836 18.6388 16.3258C18.4865 16.4908 18.3491 16.6698 18.2108 16.8473C18.9978 17.6556 19.7848 18.4638 20.5956 19.2966C20.964 18.9728 20.964 18.9728 21.3228 18.6379C21.577 18.449 21.6614 18.448 21.9686 18.4802C22.1449 18.5529 22.3065 18.6279 22.4745 18.7167C22.9295 18.9474 23.3856 19.1297 23.867 19.2934C24.0643 19.3708 24.0643 19.3708 24.2089 19.5192C24.2327 19.9356 24.2566 20.3519 24.2811 20.7809C25.402 20.7809 26.5228 20.7809 27.6776 20.7809C27.7015 20.4625 27.7253 20.1441 27.7499 19.8161C27.8944 19.445 27.8944 19.445 28.0127 19.3595C28.0616 19.3402 28.1105 19.321 28.1609 19.3012C28.2183 19.2777 28.2757 19.2541 28.3348 19.2299C28.4041 19.2029 28.4734 19.1759 28.5448 19.1481C28.6823 19.0924 28.8195 19.0361 28.9567 18.9797C29.0504 18.9413 29.1442 18.9033 29.2382 18.8656C29.4527 18.779 29.6595 18.687 29.8656 18.5808C30.1113 18.4552 30.225 18.4245 30.496 18.4802C30.6517 18.5956 30.7889 18.7207 30.9276 18.857C31.0882 19.0135 31.2626 19.1545 31.4354 19.2966C32.2224 18.4883 33.0094 17.6801 33.8202 16.8473C33.505 16.4689 33.505 16.4689 33.1788 16.1005C32.9949 15.8394 32.9939 15.7527 33.0253 15.4372C33.0961 15.2561 33.1691 15.0902 33.2556 14.9177C33.4802 14.4504 33.6577 13.9819 33.8171 13.4875C33.8925 13.2848 33.8925 13.2848 34.037 13.1364C34.4424 13.1119 34.8478 13.0874 35.2655 13.0622C35.2655 11.8866 35.2655 10.7109 35.2655 9.49968C34.8601 9.47519 34.4547 9.4507 34.037 9.42546C33.8667 9.19232 33.7863 9.07106 33.6985 8.812C33.6777 8.75201 33.6569 8.69203 33.6354 8.63022C33.6144 8.56813 33.5934 8.50604 33.5718 8.44207C33.4317 8.03007 33.2848 7.63631 33.0843 7.25087C32.9833 7.03499 32.973 6.91354 33.0253 6.67937C33.1381 6.51997 33.2596 6.37841 33.3922 6.23609C33.5445 6.07109 33.6819 5.89206 33.8202 5.71453C33.0332 4.90629 32.2462 4.09804 31.4354 3.26531C31.067 3.58907 31.067 3.58907 30.7083 3.924C30.4541 4.11286 30.3696 4.11391 30.0624 4.08171C29.8861 4.00899 29.7245 3.93398 29.5565 3.84514C29.1016 3.61447 28.6454 3.43219 28.164 3.2685C27.9667 3.19109 27.9667 3.19109 27.8221 3.04265C27.7983 2.62629 27.7745 2.20992 27.7499 1.78093C26.6052 1.78093 25.4605 1.78093 24.2811 1.78093ZM2.89051 6.53093C2.89051 6.92281 2.89051 7.31468 2.89051 7.71843C6.89691 7.71843 10.9033 7.71843 15.0311 7.71843C15.0311 8.11031 15.0311 8.50218 15.0311 8.90593C11.4063 8.90593 7.78144 8.90593 4.04676 8.90593C4.04676 17.1353 4.04676 25.3647 4.04676 33.8434C4.42832 33.8434 4.80988 33.8434 5.20301 33.8434C5.20368 33.7574 5.20436 33.6713 5.20505 33.5827C5.20796 33.2604 5.21271 32.9381 5.218 32.6158C5.22003 32.4769 5.22157 32.338 5.22259 32.1991C5.23527 30.5706 5.23527 30.5706 5.72693 29.8866C6.28835 29.3232 6.87605 29.1377 7.65139 29.1403C8.28726 29.1562 8.80357 29.3666 9.24988 29.8356C9.6486 30.3866 9.77662 30.8892 9.78566 31.5676C9.78706 31.6328 9.78846 31.6981 9.7899 31.7654C9.7942 31.9725 9.79757 32.1797 9.80091 32.3869C9.80367 32.5279 9.80649 32.6689 9.80938 32.8099C9.81629 33.1544 9.82237 33.4989 9.82801 33.8434C10.2096 33.8434 10.5911 33.8434 10.9843 33.8434C10.9849 33.7574 10.9856 33.6713 10.9863 33.5827C10.9892 33.2604 10.994 32.9381 10.9993 32.6158C11.0013 32.4769 11.0028 32.338 11.0038 32.1991C11.0165 30.5706 11.0165 30.5706 11.5082 29.8866C12.0405 29.3524 12.5611 29.1879 13.2968 29.0934C13.2968 28.3097 13.2968 27.5259 13.2968 26.7184C12.6406 26.7029 12.6406 26.7029 11.9845 26.6896C11.9028 26.6872 11.8212 26.6847 11.7371 26.6822C11.6535 26.6803 11.5698 26.6783 11.4837 26.6763C11.2733 26.6442 11.2733 26.6442 11.1535 26.5561C11.0204 26.3714 11.029 26.2469 11.0285 26.0183C11.0278 25.9358 11.0271 25.8533 11.0264 25.7684C11.0268 25.6793 11.0273 25.5902 11.0277 25.4985C11.0275 25.4071 11.0273 25.3156 11.0271 25.2215C11.0269 24.9785 11.0278 24.7355 11.029 24.4926C11.0294 24.3436 11.029 24.1946 11.0283 24.0456C11.0269 23.7599 11.0271 23.4742 11.0277 23.1884C11.0273 23.0993 11.0269 23.0103 11.0264 22.9185C11.0274 22.7948 11.0274 22.7948 11.0285 22.6686C11.0286 22.5959 11.0288 22.5232 11.029 22.4484C11.0565 22.2653 11.0565 22.2653 11.1535 22.1308C11.3405 21.9932 11.51 22.01 11.7371 22.0047C11.8277 22.002 11.9183 21.9994 12.0116 21.9967C12.1063 21.995 12.201 21.9934 12.2986 21.9916C12.3951 21.9892 12.4916 21.9866 12.5881 21.9839C12.8243 21.9778 13.0605 21.973 13.2968 21.9684C13.2968 21.5766 13.2968 21.1847 13.2968 20.7809C13.1532 20.7782 13.0097 20.7754 12.8618 20.7725C12.7226 20.7689 12.5834 20.7653 12.4442 20.7615C12.3 20.7578 12.1558 20.7552 12.0116 20.7527C11.921 20.75 11.8305 20.7474 11.7371 20.7447C11.6535 20.7428 11.5698 20.7408 11.4837 20.7388C11.2733 20.7067 11.2733 20.7067 11.1535 20.6186C11.0204 20.4339 11.029 20.3094 11.0285 20.0808C11.0278 19.9983 11.0271 19.9158 11.0264 19.8309C11.0268 19.7418 11.0273 19.6527 11.0277 19.561C11.0275 19.4696 11.0273 19.3781 11.0271 19.284C11.0269 19.041 11.0278 18.798 11.029 18.5551C11.0294 18.4061 11.029 18.2571 11.0283 18.1081C11.0269 17.8224 11.0271 17.5367 11.0277 17.2509C11.0273 17.1618 11.0269 17.0728 11.0264 16.981C11.0274 16.8573 11.0274 16.8573 11.0285 16.7311C11.0286 16.6584 11.0288 16.5857 11.029 16.5109C11.0565 16.3278 11.0565 16.3278 11.1421 16.1931C11.3228 16.072 11.4509 16.0769 11.666 16.0763C11.7463 16.0756 11.8266 16.0749 11.9093 16.0742C12.0394 16.0749 12.0394 16.0749 12.1721 16.0756C12.2611 16.0754 12.3501 16.0752 12.4418 16.0749C12.6784 16.0747 12.915 16.0756 13.1515 16.0769C13.2966 16.0773 13.4417 16.0769 13.5867 16.0761C13.865 16.0748 14.1432 16.0749 14.4214 16.0756C14.5081 16.0751 14.5948 16.0747 14.6842 16.0742C14.8046 16.0753 14.8046 16.0753 14.9275 16.0763C15.0337 16.0766 15.0337 16.0766 15.1419 16.0769C15.3202 16.1052 15.3202 16.1052 15.4512 16.2048C15.5851 16.3968 15.5688 16.5709 15.574 16.8041C15.5764 16.888 15.5788 16.9718 15.5812 17.0582C15.5839 17.2179 15.5839 17.2179 15.5867 17.3808C15.5941 17.7191 15.6016 18.0574 15.6093 18.4059C16.3962 18.4059 17.1832 18.4059 17.994 18.4059C17.7352 18.0958 17.4943 17.8106 17.2126 17.5292C16.8487 17.1655 16.8487 17.1655 16.8062 16.794C16.8093 16.5363 16.8579 16.413 17.0275 16.2234C17.1073 16.1453 17.1887 16.0688 17.2714 15.9938C17.3127 15.954 17.3541 15.9142 17.3967 15.8732C17.4982 15.7759 17.6014 15.6806 17.705 15.5856C17.607 15.2726 17.4952 14.97 17.3707 14.6672C17.3385 14.5885 17.3063 14.5099 17.2731 14.4289C17.2364 14.3402 17.2364 14.3402 17.1991 14.2497C17.1077 14.2469 17.0163 14.2441 16.9222 14.2413C16.8022 14.2364 16.6822 14.2315 16.5623 14.2265C16.502 14.2248 16.4418 14.2231 16.3798 14.2214C16.2928 14.2175 16.2928 14.2175 16.204 14.2134C16.1507 14.2115 16.0973 14.2096 16.0423 14.2076C15.851 14.1649 15.7979 14.1154 15.6815 13.9528C15.654 13.7247 15.654 13.7247 15.6535 13.4405C15.6529 13.3628 15.6529 13.3628 15.6523 13.2836C15.6514 13.1123 15.652 12.9412 15.6527 12.7699C15.6526 12.651 15.6524 12.532 15.6521 12.4131C15.6518 12.1638 15.6522 11.9145 15.6533 11.6651C15.6545 11.3454 15.6538 11.0257 15.6525 10.706C15.6517 10.4604 15.6519 10.2148 15.6525 9.96911C15.6527 9.85122 15.6525 9.73333 15.652 9.61544C15.6514 9.45071 15.6523 9.28606 15.6535 9.12134C15.6536 9.02758 15.6538 8.93381 15.654 8.83721C15.6815 8.60906 15.6815 8.60906 15.7827 8.46772C15.9297 8.36436 16.0266 8.35488 16.204 8.34842C16.262 8.34579 16.32 8.34316 16.3798 8.34045C16.44 8.33878 16.5002 8.3371 16.5623 8.33538C16.6233 8.33284 16.6844 8.33031 16.7473 8.32769C16.8979 8.32158 17.0485 8.31676 17.1991 8.31218C17.2878 8.12103 17.3749 7.92935 17.4611 7.73699C17.4864 7.68284 17.5117 7.62869 17.5378 7.5729C17.6794 7.27485 17.6794 7.27485 17.666 6.95653C17.6137 6.89281 17.6137 6.89281 17.5604 6.82781C17.5225 6.77691 17.4846 6.726 17.4456 6.67356C17.2036 6.4755 16.987 6.49058 16.6907 6.49523C16.6317 6.49498 16.5727 6.49473 16.5119 6.49446C16.3141 6.49398 16.1163 6.49561 15.9184 6.49723C15.7767 6.49731 15.635 6.49727 15.4933 6.4971C15.1082 6.49701 14.7232 6.49876 14.3381 6.50083C13.9359 6.50269 13.5336 6.50286 13.1313 6.50321C12.3694 6.50414 11.6075 6.50658 10.8456 6.50955C9.97821 6.51287 9.11086 6.5145 8.24351 6.51599C6.45917 6.5191 4.67484 6.52438 2.89051 6.53093ZM12.1405 17.2184C12.1405 18.0022 12.1405 18.7859 12.1405 19.5934C12.5221 19.5934 12.9036 19.5934 13.2968 19.5934C13.3042 19.4511 13.3117 19.3087 13.3193 19.162C13.341 18.7487 13.341 18.7487 13.4526 18.566C13.644 18.4427 13.809 18.4415 14.033 18.4291C14.1716 18.4215 14.3102 18.4138 14.453 18.4059C14.453 18.0141 14.453 17.6222 14.453 17.2184C13.6899 17.2184 12.9268 17.2184 12.1405 17.2184ZM14.453 19.5934C14.453 24.2959 14.453 28.9984 14.453 33.8434C15.5977 33.8434 16.7424 33.8434 17.9218 33.8434C17.934 33.113 17.934 33.113 17.9433 32.3825C17.9583 31.7572 17.9947 31.2921 18.4093 30.7987C18.4496 30.7656 18.4899 30.7325 18.5315 30.6984C18.5917 30.647 18.5917 30.647 18.6532 30.5946C19.1215 30.2806 19.6205 30.3054 20.162 30.3552C20.6105 30.4763 20.9234 30.7778 21.1737 31.1716C21.3193 31.4794 21.34 31.7417 21.3482 32.0822C21.352 32.2209 21.352 32.2209 21.356 32.3625C21.3584 32.4792 21.3609 32.596 21.3634 32.7162C21.3723 33.0882 21.3813 33.4602 21.3905 33.8434C22.5352 33.8434 23.6799 33.8434 24.8593 33.8434C24.8593 29.9247 24.8593 26.0059 24.8593 21.9684C24.3823 21.9439 23.9053 21.9194 23.4139 21.8942C23.17 21.6437 23.17 21.6437 23.1602 21.3576C23.1576 21.298 23.155 21.2385 23.1524 21.1771C23.1508 21.1153 23.1491 21.0534 23.1475 20.9897C23.145 20.927 23.1425 20.8642 23.14 20.7996C23.134 20.645 23.1293 20.4903 23.1249 20.3356C22.9388 20.2445 22.7521 20.1551 22.5648 20.0666C22.5121 20.0406 22.4594 20.0145 22.405 19.9877C22.1168 19.8442 22.1168 19.8442 21.8083 19.8509C21.6359 20.0031 21.4879 20.1709 21.3363 20.3449C20.9336 20.7627 20.9336 20.7627 20.6588 20.7856C20.073 20.6998 19.5923 19.9732 19.2225 19.5934C17.6486 19.5934 16.0746 19.5934 14.453 19.5934ZM12.1405 23.1559C12.1405 23.9397 12.1405 24.7234 12.1405 25.5309C12.5221 25.5309 12.9036 25.5309 13.2968 25.5309C13.2968 24.7472 13.2968 23.9634 13.2968 23.1559C12.9152 23.1559 12.5336 23.1559 12.1405 23.1559ZM6.72058 30.652C6.37426 31.1038 6.35002 31.4612 6.3522 32.0242C6.35238 32.1197 6.35256 32.2152 6.35275 32.3136C6.3534 32.4342 6.35406 32.5549 6.35474 32.6791C6.35623 33.0633 6.35772 33.4476 6.35926 33.8434C7.12238 33.8434 7.88551 33.8434 8.67176 33.8434C8.67623 33.4653 8.6807 33.0872 8.68531 32.6977C8.68728 32.5798 8.68925 32.4619 8.69129 32.3404C8.71896 31.4522 8.71896 31.4522 8.34998 30.6815C8.00907 30.3777 7.7754 30.3287 7.33766 30.3346C7.06568 30.3651 6.92163 30.4652 6.72058 30.652ZM12.5018 30.652C12.1555 31.1038 12.1313 31.4612 12.1334 32.0242C12.1336 32.0764 12.1337 32.1286 12.1338 32.1824C12.1342 32.348 12.1351 32.5135 12.136 32.6791C12.1364 32.7919 12.1367 32.9046 12.137 33.0173C12.1377 33.2927 12.1391 33.5681 12.1405 33.8434C12.5221 33.8434 12.9036 33.8434 13.2968 33.8434C13.2968 32.6923 13.2968 31.5412 13.2968 30.3552C12.8954 30.3552 12.8048 30.4004 12.5018 30.652ZM19.2722 31.6772C19.0747 31.9401 19.0693 32.1521 19.0709 32.4736C19.0712 32.5532 19.0714 32.6329 19.0717 32.7149C19.0723 32.798 19.0729 32.8811 19.0735 32.9667C19.0738 33.0507 19.0741 33.1346 19.0745 33.2211C19.0753 33.4286 19.0766 33.636 19.078 33.8434C19.4596 33.8434 19.8411 33.8434 20.2343 33.8434C20.2401 33.5558 20.2444 33.2683 20.2478 32.9806C20.2496 32.8994 20.2514 32.8182 20.2533 32.7345C20.261 32.1438 20.261 32.1438 20.0175 31.6169C19.7432 31.476 19.5135 31.4829 19.2722 31.6772ZM1.73426 35.0309C1.73426 35.4228 1.73426 35.8147 1.73426 36.2184C10.1286 36.2184 18.523 36.2184 27.1718 36.2184C27.1718 35.8266 27.1718 35.4347 27.1718 35.0309C18.7774 35.0309 10.383 35.0309 1.73426 35.0309Z" fill="#20376D"/>
<path d="M30.2792 5.56688C31.6822 6.74179 32.7401 8.36344 32.953 10.2427C33.0975 12.3411 32.7529 14.2632 31.3869 15.8952C30.2008 17.2723 28.6164 18.2913 26.7947 18.4236C24.6941 18.5195 22.897 18.0759 21.3047 16.6023C20.3611 15.6971 19.6887 14.624 19.2948 13.3599C19.2717 13.2878 19.2486 13.2158 19.2248 13.1415C18.7564 11.362 19.0438 9.40542 19.8729 7.79345C20.8333 6.08441 22.3434 4.8822 24.181 4.31727C26.2753 3.74168 28.5681 4.22319 30.2792 5.56688ZM21.8241 7.1997C20.8057 8.28813 20.2704 9.78448 20.2343 11.2817C20.2766 13.0371 20.9932 14.5524 22.2142 15.7575C22.8098 16.2798 23.5379 16.6764 24.2811 16.9224C24.3009 16.5831 24.3153 16.2442 24.3248 15.9045C24.3288 15.7892 24.3342 15.6739 24.3411 15.5587C24.3631 15.1827 24.3686 14.8409 24.2811 14.4731C24.047 14.217 23.7972 14.091 23.4862 13.9536C22.7104 13.3866 22.2532 12.4395 22.0409 11.5044C22.0094 11.2391 22.0029 10.9783 22.0048 10.7112C22.0052 10.6402 22.0056 10.5691 22.006 10.496C22.0295 9.53038 22.3157 8.7737 22.9081 8.0161C22.9513 7.95028 22.9945 7.88446 23.0391 7.81664C23.4823 7.33546 24.2127 6.79874 24.8722 6.74047C25.0083 6.75438 25.0083 6.75438 25.2206 6.8286C25.3718 7.06152 25.3827 7.11062 25.3801 7.37488C25.3799 7.44005 25.3797 7.50522 25.3795 7.57237C25.3788 7.64265 25.378 7.71292 25.3773 7.78533C25.3777 7.93444 25.3782 8.08356 25.3788 8.23267C25.3791 8.46755 25.3787 8.70234 25.3763 8.93721C25.3743 9.16407 25.3756 9.39074 25.3773 9.6176C25.375 9.72212 25.375 9.72212 25.3728 9.82874C25.3783 10.2169 25.4225 10.4187 25.6941 10.6992C25.7755 10.7716 25.8581 10.8428 25.9432 10.9106C26.2221 10.7736 26.4031 10.6486 26.5936 10.3911C26.6456 10.138 26.6424 9.88997 26.6397 9.6321C26.6404 9.55902 26.6412 9.48594 26.6419 9.41065C26.6441 9.17771 26.6438 8.94485 26.6433 8.7119C26.644 8.47845 26.6451 8.24501 26.647 8.01157C26.6481 7.86644 26.6484 7.72131 26.6478 7.57618C26.648 7.51053 26.6483 7.44488 26.6486 7.37723C26.6484 7.29066 26.6484 7.29066 26.6482 7.20233C26.6659 7.05126 26.6659 7.05126 26.8104 6.8286C27.2531 6.69619 27.51 6.80472 27.8944 7.01879C27.9711 7.06021 27.9711 7.06021 28.0492 7.10247C28.977 7.61621 29.5638 8.44044 29.8874 9.46946C30.0018 9.87125 30.0291 10.2477 30.0263 10.6648C30.0258 10.7358 30.0254 10.8068 30.025 10.88C30.0016 11.8456 29.7154 12.6023 29.1229 13.3599C29.0797 13.4257 29.0365 13.4915 28.992 13.5593C28.6969 13.8797 28.3161 14.1597 27.9213 14.3346C27.7236 14.4625 27.7236 14.4625 27.7089 14.7232C27.7089 14.8257 27.711 14.9282 27.7146 15.0306C27.7151 15.0847 27.7156 15.1387 27.7162 15.1944C27.7182 15.3669 27.7227 15.5392 27.7273 15.7117C27.7291 15.8286 27.7308 15.9456 27.7322 16.0626C27.7362 16.3493 27.7425 16.6358 27.7499 16.9224C29.4523 16.2107 30.6507 15.1963 31.3874 13.4439C31.8954 12.1735 31.9312 10.5622 31.4354 9.27782C31.1683 8.63838 30.8672 8.02689 30.4237 7.49657C30.3879 7.44921 30.352 7.40186 30.315 7.35306C29.4852 6.29958 28.177 5.61649 26.8827 5.41845C26.8089 5.40716 26.7351 5.39587 26.6591 5.38424C24.8258 5.17451 23.1299 5.90244 21.8241 7.1997ZM23.9785 8.5913C23.3758 9.21543 23.1753 9.96599 23.1744 10.8156C23.1889 11.5963 23.4665 12.204 23.9921 12.7661C24.3388 13.0896 24.8716 13.5825 25.3651 13.5825C25.389 14.7581 25.4128 15.9338 25.4374 17.145C26.0645 17.2447 26.0645 17.2447 26.5936 17.145C26.6175 15.9694 26.6413 14.7938 26.6659 13.5825C26.8805 13.509 26.8805 13.509 27.0995 13.4341C27.837 13.0776 28.4104 12.5105 28.7142 11.7276C28.9439 11.0057 28.9265 10.156 28.6366 9.45612C28.4054 9.00688 28.1368 8.70069 27.7499 8.3872C27.7503 8.46278 27.7508 8.53836 27.7513 8.61623C27.7523 8.899 27.75 9.18167 27.7468 9.46442C27.7459 9.58635 27.7458 9.70829 27.7467 9.83022C27.7538 10.9739 27.7538 10.9739 27.4445 11.34C27.3557 11.4221 27.2649 11.5019 27.1718 11.5786C27.1034 11.6503 27.0359 11.7228 26.9694 11.7963C26.9095 11.8577 26.8496 11.919 26.7879 11.9822C26.727 12.0448 26.6662 12.1075 26.6035 12.1721C26.3756 12.3916 26.2013 12.435 25.8857 12.4292C25.5653 12.3604 25.3697 12.1086 25.1483 11.8755C25.052 11.7792 25.052 11.7792 24.9538 11.6809C24.5055 11.2297 24.3444 11.0477 24.3305 10.4021C24.329 10.3447 24.3275 10.2872 24.326 10.228C24.3213 10.0443 24.317 9.86052 24.3128 9.67675C24.3096 9.55228 24.3065 9.4278 24.3033 9.30333C24.2956 8.99796 24.2882 8.69258 24.2811 8.3872C24.149 8.3872 24.0712 8.50305 23.9785 8.5913Z" fill="#20376D"/>
<path d="M5.89179 21.9306C5.97185 21.9296 6.05192 21.9287 6.13441 21.9277C6.22054 21.9283 6.30666 21.9289 6.39539 21.9296C6.48412 21.9293 6.57285 21.929 6.66427 21.9287C6.85185 21.9285 7.03943 21.929 7.22701 21.9303C7.51442 21.9319 7.8017 21.9303 8.08911 21.9284C8.27128 21.9286 8.45345 21.929 8.63562 21.9296C8.72174 21.929 8.80787 21.9284 8.8966 21.9277C9.0167 21.9291 9.0167 21.9291 9.13922 21.9306C9.2096 21.9308 9.27998 21.931 9.35249 21.9313C9.59756 21.9808 9.68171 22.0598 9.82801 22.2659C9.86471 22.4573 9.86471 22.4573 9.86541 22.6764C9.86632 22.7586 9.86723 22.8408 9.86817 22.9256C9.86758 23.014 9.867 23.1025 9.8664 23.1936C9.86681 23.3303 9.86681 23.3303 9.86723 23.4697C9.86743 23.6624 9.8669 23.855 9.86569 24.0477C9.86414 24.3429 9.86568 24.6379 9.86753 24.9331C9.86733 25.1202 9.86696 25.3073 9.8664 25.4944C9.86698 25.5828 9.86757 25.6713 9.86817 25.7624C9.86726 25.8446 9.86635 25.9269 9.86541 26.0116C9.86518 26.0839 9.86495 26.1561 9.86471 26.2306C9.81647 26.4823 9.7396 26.5687 9.53894 26.719C9.35249 26.7567 9.35249 26.7567 9.13922 26.7574C9.05916 26.7583 8.97909 26.7593 8.8966 26.7602C8.81048 26.7596 8.72435 26.759 8.63562 26.7584C8.50253 26.7588 8.50253 26.7588 8.36674 26.7593C8.17916 26.7595 7.99158 26.7589 7.804 26.7577C7.51659 26.7561 7.22931 26.7577 6.9419 26.7596C6.75973 26.7594 6.57756 26.759 6.39539 26.7584C6.26621 26.7593 6.26621 26.7593 6.13441 26.7602C6.05435 26.7593 5.97428 26.7584 5.89179 26.7574C5.82141 26.7572 5.75103 26.7569 5.67852 26.7567C5.43346 26.7071 5.3493 26.6282 5.20301 26.4221C5.1663 26.2306 5.1663 26.2306 5.1656 26.0116C5.16469 25.9294 5.16378 25.8471 5.16284 25.7624C5.16343 25.674 5.16401 25.5855 5.16461 25.4944C5.16434 25.4032 5.16406 25.3121 5.16378 25.2182C5.16358 25.0256 5.16411 24.8329 5.16532 24.6403C5.16687 24.3451 5.16534 24.05 5.16349 23.7549C5.16368 23.5678 5.16405 23.3807 5.16461 23.1936C5.16403 23.1051 5.16344 23.0167 5.16284 22.9256C5.16375 22.8433 5.16466 22.7611 5.1656 22.6764C5.16583 22.6041 5.16606 22.5318 5.1663 22.4573C5.24739 22.0343 5.50179 21.9319 5.89179 21.9306ZM6.35926 23.1565C6.35926 23.9402 6.35926 24.724 6.35926 25.5315C7.12238 25.5315 7.88551 25.5315 8.67176 25.5315C8.67176 24.7477 8.67176 23.964 8.67176 23.1565C7.90863 23.1565 7.14551 23.1565 6.35926 23.1565Z" fill="#20376D"/>
<path d="M5.89179 15.9931C5.97185 15.9921 6.05192 15.9912 6.13441 15.9902C6.22054 15.9908 6.30666 15.9914 6.39539 15.9921C6.48412 15.9918 6.57285 15.9915 6.66427 15.9912C6.85185 15.991 7.03943 15.9915 7.22701 15.9928C7.51442 15.9944 7.8017 15.9928 8.08911 15.9909C8.27128 15.9911 8.45345 15.9915 8.63562 15.9921C8.72174 15.9915 8.80787 15.9909 8.8966 15.9902C9.0167 15.9916 9.0167 15.9916 9.13922 15.9931C9.2096 15.9933 9.27998 15.9935 9.35249 15.9938C9.59756 16.0433 9.68171 16.1223 9.82801 16.3284C9.86471 16.5198 9.86471 16.5198 9.86541 16.7389C9.86632 16.8211 9.86723 16.9033 9.86817 16.9881C9.86758 17.0765 9.867 17.165 9.8664 17.2561C9.86681 17.3928 9.86681 17.3928 9.86723 17.5322C9.86743 17.7249 9.8669 17.9175 9.86569 18.1102C9.86414 18.4054 9.86568 18.7004 9.86753 18.9956C9.86733 19.1827 9.86696 19.3698 9.8664 19.5569C9.86698 19.6453 9.86757 19.7338 9.86817 19.8249C9.86726 19.9071 9.86635 19.9894 9.86541 20.0741C9.86518 20.1464 9.86495 20.2186 9.86471 20.2931C9.81647 20.5448 9.7396 20.6312 9.53894 20.7815C9.35249 20.8192 9.35249 20.8192 9.13922 20.8199C9.05916 20.8208 8.97909 20.8218 8.8966 20.8227C8.81048 20.8221 8.72435 20.8215 8.63562 20.8209C8.50253 20.8213 8.50253 20.8213 8.36674 20.8218C8.17916 20.822 7.99158 20.8214 7.804 20.8202C7.51659 20.8186 7.22931 20.8202 6.9419 20.8221C6.75973 20.8219 6.57756 20.8215 6.39539 20.8209C6.26621 20.8218 6.26621 20.8218 6.13441 20.8227C6.05435 20.8218 5.97428 20.8209 5.89179 20.8199C5.82141 20.8197 5.75103 20.8194 5.67852 20.8192C5.43346 20.7696 5.3493 20.6907 5.20301 20.4846C5.1663 20.2931 5.1663 20.2931 5.1656 20.0741C5.16469 19.9919 5.16378 19.9096 5.16284 19.8249C5.16343 19.7365 5.16401 19.648 5.16461 19.5569C5.16434 19.4657 5.16406 19.3746 5.16378 19.2807C5.16358 19.0881 5.16411 18.8954 5.16532 18.7028C5.16687 18.4076 5.16534 18.1125 5.16349 17.8174C5.16368 17.6303 5.16405 17.4432 5.16461 17.2561C5.16403 17.1676 5.16344 17.0792 5.16284 16.9881C5.16375 16.9058 5.16466 16.8236 5.1656 16.7389C5.16583 16.6666 5.16606 16.5943 5.1663 16.5198C5.24739 16.0968 5.50179 15.9944 5.89179 15.9931ZM6.35926 17.219C6.35926 18.0027 6.35926 18.7865 6.35926 19.594C7.12238 19.594 7.88551 19.594 8.67176 19.594C8.67176 18.8102 8.67176 18.0265 8.67176 17.219C7.90863 17.219 7.14551 17.219 6.35926 17.219Z" fill="#20376D"/>
<path d="M5.89179 10.0556C5.97185 10.0546 6.05192 10.0537 6.13441 10.0527C6.22054 10.0533 6.30666 10.0539 6.39539 10.0546C6.48412 10.0543 6.57285 10.054 6.66427 10.0537C6.85185 10.0535 7.03943 10.054 7.22701 10.0553C7.51442 10.0569 7.8017 10.0553 8.08911 10.0534C8.27128 10.0536 8.45345 10.054 8.63562 10.0546C8.72174 10.054 8.80787 10.0534 8.8966 10.0527C9.0167 10.0541 9.0167 10.0541 9.13922 10.0556C9.2096 10.0558 9.27998 10.056 9.35249 10.0563C9.59756 10.1058 9.68171 10.1848 9.82801 10.3909C9.86471 10.5823 9.86471 10.5823 9.86541 10.8014C9.86632 10.8836 9.86723 10.9658 9.86817 11.0506C9.86758 11.139 9.867 11.2275 9.8664 11.3186C9.86681 11.4553 9.86681 11.4553 9.86723 11.5947C9.86743 11.7874 9.8669 11.98 9.86569 12.1727C9.86414 12.4679 9.86568 12.7629 9.86753 13.0581C9.86733 13.2452 9.86696 13.4323 9.8664 13.6194C9.86698 13.7078 9.86757 13.7963 9.86817 13.8874C9.86726 13.9696 9.86635 14.0519 9.86541 14.1366C9.86518 14.2089 9.86495 14.2811 9.86471 14.3556C9.81647 14.6073 9.7396 14.6937 9.53894 14.844C9.35249 14.8817 9.35249 14.8817 9.13922 14.8824C9.05916 14.8833 8.97909 14.8843 8.8966 14.8852C8.81048 14.8846 8.72435 14.884 8.63562 14.8834C8.50253 14.8838 8.50253 14.8838 8.36674 14.8843C8.17916 14.8845 7.99158 14.8839 7.804 14.8827C7.51659 14.8811 7.22931 14.8827 6.9419 14.8846C6.75973 14.8844 6.57756 14.884 6.39539 14.8834C6.26621 14.8843 6.26621 14.8843 6.13441 14.8852C6.05435 14.8843 5.97428 14.8834 5.89179 14.8824C5.82141 14.8822 5.75103 14.8819 5.67852 14.8817C5.43346 14.8321 5.3493 14.7532 5.20301 14.5471C5.1663 14.3556 5.1663 14.3556 5.1656 14.1366C5.16469 14.0544 5.16378 13.9721 5.16284 13.8874C5.16343 13.799 5.16401 13.7105 5.16461 13.6194C5.16434 13.5282 5.16406 13.4371 5.16378 13.3432C5.16358 13.1506 5.16411 12.9579 5.16532 12.7653C5.16687 12.4701 5.16534 12.175 5.16349 11.8799C5.16368 11.6928 5.16405 11.5057 5.16461 11.3186C5.16403 11.2301 5.16344 11.1417 5.16284 11.0506C5.16375 10.9683 5.16466 10.8861 5.1656 10.8014C5.16583 10.7291 5.16606 10.6568 5.1663 10.5823C5.24739 10.1593 5.50179 10.0569 5.89179 10.0556ZM6.35926 11.2815C6.35926 12.0652 6.35926 12.849 6.35926 13.6565C7.12238 13.6565 7.88551 13.6565 8.67176 13.6565C8.67176 12.8727 8.67176 12.089 8.67176 11.2815C7.90863 11.2815 7.14551 11.2815 6.35926 11.2815Z" fill="#20376D"/>
<path d="M11.6511 10.0597C11.7639 10.0597 11.7639 10.0597 11.879 10.0597C12.0001 10.062 12.0001 10.062 12.1236 10.0644C12.2481 10.065 12.2481 10.065 12.3751 10.0656C12.6402 10.0673 12.9052 10.071 13.1703 10.0748C13.35 10.0763 13.5297 10.0777 13.7095 10.0789C14.15 10.0821 14.5906 10.0873 15.0311 10.0934C15.0311 10.4852 15.0311 10.8771 15.0311 11.2809C14.0772 11.2809 13.1233 11.2809 12.1405 11.2809C12.1405 12.0646 12.1405 12.8484 12.1405 13.6559C13.0944 13.6559 14.0483 13.6559 15.0311 13.6559C15.0311 14.0477 15.0311 14.4396 15.0311 14.8434C14.5013 14.8507 13.9714 14.8561 13.4415 14.8597C13.2612 14.8612 13.0809 14.8632 12.9006 14.8658C12.6416 14.8694 12.3826 14.871 12.1236 14.8724C12.0429 14.8739 11.9622 14.8754 11.879 14.877C11.7662 14.877 11.7662 14.877 11.6511 14.8771C11.585 14.8777 11.5189 14.8784 11.4507 14.8791C11.2111 14.8308 11.128 14.7471 10.9843 14.5465C10.9475 14.355 10.9475 14.355 10.9469 14.136C10.9459 14.0537 10.945 13.9715 10.9441 13.8868C10.9447 13.7983 10.9453 13.7099 10.9459 13.6188C10.9456 13.5276 10.9453 13.4365 10.945 13.3426C10.9448 13.15 10.9454 12.9573 10.9466 12.7647C10.9481 12.4695 10.9466 12.1744 10.9447 11.8793C10.9449 11.6922 10.9453 11.5051 10.9459 11.318C10.9453 11.2295 10.9447 11.1411 10.9441 11.0499C10.945 10.9677 10.9459 10.8855 10.9469 10.8008C10.9471 10.7285 10.9473 10.6562 10.9475 10.5817C11.0261 10.1718 11.2691 10.0559 11.6511 10.0597Z" fill="#20376D"/>
<path d="M21.1737 25.4921C21.2368 25.4918 21.2998 25.4915 21.3648 25.4912C21.498 25.491 21.6311 25.4915 21.7643 25.4928C21.9679 25.4944 22.1714 25.4928 22.3751 25.4909C22.5046 25.4911 22.6341 25.4915 22.7636 25.4921C22.8244 25.4915 22.8852 25.4909 22.9479 25.4902C23.2066 25.4945 23.3704 25.5055 23.5967 25.6406C23.756 25.922 23.7444 26.1761 23.7414 26.4963C23.7417 26.5611 23.7419 26.6259 23.7422 26.6926C23.7424 26.8293 23.7419 26.9661 23.7407 27.1028C23.7391 27.312 23.7407 27.521 23.7425 27.7302C23.7423 27.8632 23.742 27.9962 23.7414 28.1291C23.742 28.1916 23.7426 28.2541 23.7432 28.3185C23.739 28.5842 23.7283 28.7524 23.5967 28.9848C23.3228 29.1484 23.0754 29.1365 22.7636 29.1334C22.7005 29.1337 22.6374 29.134 22.5724 29.1343C22.4393 29.1345 22.3061 29.1339 22.173 29.1327C21.9693 29.1311 21.7658 29.1327 21.5621 29.1346C21.4327 29.1344 21.3032 29.134 21.1737 29.1334C21.1129 29.134 21.052 29.1346 20.9894 29.1352C20.7306 29.131 20.5669 29.12 20.3405 28.9848C20.1812 28.7035 20.1929 28.4494 20.1959 28.1291C20.1956 28.0644 20.1953 27.9996 20.195 27.9329C20.1948 27.7961 20.1954 27.6594 20.1966 27.5226C20.1981 27.3134 20.1966 27.1044 20.1947 26.8953C20.1949 26.7623 20.1953 26.6293 20.1959 26.4963C20.1953 26.4339 20.1947 26.3714 20.1941 26.307C20.1982 26.0413 20.2089 25.8731 20.3405 25.6406C20.6145 25.477 20.8619 25.489 21.1737 25.4921ZM21.3905 26.719C21.3905 27.1109 21.3905 27.5027 21.3905 27.9065C21.7721 27.9065 22.1536 27.9065 22.5468 27.9065C22.5468 27.5146 22.5468 27.1227 22.5468 26.719C22.1652 26.719 21.7836 26.719 21.3905 26.719Z" fill="#20376D"/>
<path d="M16.5487 25.4921C16.6118 25.4918 16.6748 25.4915 16.7398 25.4912C16.873 25.491 17.0061 25.4915 17.1393 25.4928C17.3429 25.4944 17.5464 25.4928 17.7501 25.4909C17.8796 25.4911 18.0091 25.4915 18.1386 25.4921C18.1994 25.4915 18.2602 25.4909 18.3229 25.4902C18.5816 25.4945 18.7454 25.5055 18.9717 25.6406C19.131 25.922 19.1194 26.1761 19.1164 26.4963C19.1167 26.5611 19.1169 26.6259 19.1172 26.6926C19.1174 26.8293 19.1169 26.9661 19.1157 27.1028C19.1141 27.312 19.1157 27.521 19.1175 27.7302C19.1173 27.8632 19.117 27.9962 19.1164 28.1291C19.117 28.1916 19.1176 28.2541 19.1182 28.3185C19.114 28.5842 19.1033 28.7524 18.9717 28.9848C18.6978 29.1484 18.4504 29.1365 18.1386 29.1334C18.0755 29.1337 18.0124 29.134 17.9474 29.1343C17.8143 29.1345 17.6811 29.1339 17.548 29.1327C17.3443 29.1311 17.1408 29.1327 16.9371 29.1346C16.8077 29.1344 16.6782 29.134 16.5487 29.1334C16.4879 29.134 16.427 29.1346 16.3644 29.1352C16.1056 29.131 15.9419 29.12 15.7155 28.9848C15.5562 28.7035 15.5679 28.4494 15.5709 28.1291C15.5706 28.0644 15.5703 27.9996 15.57 27.9329C15.5698 27.7961 15.5704 27.6594 15.5716 27.5226C15.5731 27.3134 15.5716 27.1044 15.5697 26.8953C15.5699 26.7623 15.5703 26.6293 15.5709 26.4963C15.5703 26.4339 15.5697 26.3714 15.5691 26.307C15.5732 26.0413 15.5839 25.8731 15.7155 25.6406C15.9895 25.477 16.2369 25.489 16.5487 25.4921ZM16.7655 26.719C16.7655 27.1109 16.7655 27.5027 16.7655 27.9065C17.1471 27.9065 17.5286 27.9065 17.9218 27.9065C17.9218 27.5146 17.9218 27.1227 17.9218 26.719C17.5402 26.719 17.1586 26.719 16.7655 26.719Z" fill="#20376D"/>
<path d="M16.5487 20.7421C16.6118 20.7418 16.6748 20.7415 16.7398 20.7412C16.873 20.741 17.0061 20.7415 17.1393 20.7428C17.3429 20.7444 17.5464 20.7428 17.7501 20.7409C17.8796 20.7411 18.0091 20.7415 18.1386 20.7421C18.1994 20.7415 18.2602 20.7409 18.3229 20.7402C18.5816 20.7445 18.7454 20.7555 18.9717 20.8906C19.131 21.172 19.1194 21.4261 19.1164 21.7463C19.1167 21.8111 19.1169 21.8759 19.1172 21.9426C19.1174 22.0793 19.1169 22.2161 19.1157 22.3528C19.1141 22.562 19.1157 22.771 19.1175 22.9802C19.1173 23.1132 19.117 23.2462 19.1164 23.3791C19.117 23.4416 19.1176 23.5041 19.1182 23.5685C19.114 23.8342 19.1033 24.0024 18.9717 24.2348C18.6978 24.3984 18.4504 24.3865 18.1386 24.3834C18.0755 24.3837 18.0124 24.384 17.9474 24.3843C17.8143 24.3845 17.6811 24.3839 17.548 24.3827C17.3443 24.3811 17.1408 24.3827 16.9371 24.3846C16.8077 24.3844 16.6782 24.384 16.5487 24.3834C16.4879 24.384 16.427 24.3846 16.3644 24.3852C16.1056 24.381 15.9419 24.37 15.7155 24.2348C15.5562 23.9535 15.5679 23.6994 15.5709 23.3791C15.5706 23.3144 15.5703 23.2496 15.57 23.1829C15.5698 23.0461 15.5704 22.9094 15.5716 22.7726C15.5731 22.5634 15.5716 22.3544 15.5697 22.1453C15.5699 22.0123 15.5703 21.8793 15.5709 21.7463C15.5703 21.6839 15.5697 21.6214 15.5691 21.557C15.5732 21.2913 15.5839 21.1231 15.7155 20.8906C15.9895 20.727 16.2369 20.739 16.5487 20.7421ZM16.7655 21.969C16.7655 22.3609 16.7655 22.7527 16.7655 23.1565C17.1471 23.1565 17.5286 23.1565 17.9218 23.1565C17.9218 22.7646 17.9218 22.3727 17.9218 21.969C17.5402 21.969 17.1586 21.969 16.7655 21.969Z" fill="#20376D"/>
<path d="M20.2345 21.375C20.616 21.375 20.9976 21.375 21.3907 21.375C21.3907 21.9628 21.3907 22.5506 21.3907 23.1562C21.963 23.1562 22.5354 23.1562 23.1251 23.1562C23.1251 23.5481 23.1251 23.94 23.1251 24.3438C22.7598 24.3506 22.3947 24.3565 22.0295 24.3601C21.9052 24.3615 21.781 24.3636 21.6568 24.3661C21.4782 24.3698 21.2995 24.3714 21.1208 24.3727C21.0377 24.375 21.0377 24.375 20.9529 24.3774C20.7127 24.3775 20.5506 24.3606 20.3434 24.2318C20.1892 23.9701 20.1985 23.7299 20.2062 23.4334C20.2066 23.3745 20.207 23.3156 20.2075 23.255C20.2091 23.0674 20.2127 22.8799 20.2164 22.6924C20.2178 22.565 20.2192 22.4376 20.2203 22.3103C20.2233 21.9984 20.2289 21.6868 20.2345 21.375Z" fill="#20376D"/>
</g>
<defs>
<clipPath id="clip0_503_108">
<rect width="37" height="38" fill="white"/>
</clipPath>
</defs>
</svg>
