<svg width="16" height="14" viewBox="0 0 16 14" fill="none" xmlns="http://www.w3.org/2000/svg">
<path d="M15.88 2.85998L15.27 1.54998C15.1945 1.3888 15.0844 1.24626 14.9475 1.13253C14.8106 1.01879 14.6503 0.936656 14.478 0.891976C12.54 0.363976 10.317 0.0409766 8.02502 0.000976562C5.76612 0.0364526 3.5202 0.35015 1.33802 0.934976C1.17302 0.982976 0.885023 1.22498 0.733023 1.54398L0.120023 2.86098C0.0414993 3.02311 0.000485208 3.20083 2.34375e-05 3.38098V4.25098L-0.000976562 4.29198C-0.000976562 4.68398 0.317023 5.00198 0.709023 5.00198L0.742023 5.00098H3.26002C3.45845 4.99628 3.64717 4.91413 3.78583 4.77211C3.92448 4.63009 4.00208 4.43946 4.00202 4.24098L4.00002 4.18798V3.33798C4.0001 3.22931 4.02741 3.1224 4.07947 3.02702C4.13153 2.93163 4.20667 2.85082 4.29802 2.79198C5.44062 2.1843 6.73107 1.9102 8.02202 2.00098C9.31009 1.91434 10.5969 2.18715 11.739 2.78898C11.882 2.88798 12.001 3.08898 12.001 3.31798V4.18998C11.9943 4.29216 12.0082 4.39466 12.042 4.49132C12.0759 4.58798 12.1289 4.6768 12.1979 4.75245C12.2669 4.82811 12.3505 4.88903 12.4437 4.93157C12.5369 4.9741 12.6376 4.99737 12.74 4.99998H15.261L15.292 5.00098C15.4803 5.00098 15.6609 4.92617 15.7941 4.79302C15.9272 4.65987 16.002 4.47928 16.002 4.29098L16.001 4.24798V3.37998C16.0007 3.19724 15.9586 3.01699 15.878 2.85298L15.88 2.85998Z" fill="#2C95D2"/>
<path d="M12 7.3C11.3492 6.46599 10.9967 5.43789 10.999 4.38L11 4.296V4H10V5H6V4H5V4.33L5.001 4.41C5.00244 5.47213 4.64711 6.50397 3.992 7.34L1 11V14H15V11L12 7.3ZM8 12C7.20435 12 6.44129 11.6839 5.87868 11.1213C5.31607 10.5587 5 9.79565 5 9C5 8.20435 5.31607 7.44129 5.87868 6.87868C6.44129 6.31607 7.20435 6 8 6C8.79565 6 9.55871 6.31607 10.1213 6.87868C10.6839 7.44129 11 8.20435 11 9C11 9.79565 10.6839 10.5587 10.1213 11.1213C9.55871 11.6839 8.79565 12 8 12Z" fill="#2C95D2"/>
<path d="M9.99998 8.99971C10.006 9.26605 9.95875 9.5309 9.86101 9.77873C9.76326 10.0266 9.61699 10.2524 9.43077 10.4429C9.24456 10.6334 9.02216 10.7848 8.77663 10.8882C8.5311 10.9916 8.2674 11.0449 8.00099 11.0449C7.73458 11.045 7.47085 10.9918 7.22527 10.8886C6.97969 10.7853 6.75721 10.634 6.5709 10.4436C6.38459 10.2532 6.23821 10.0274 6.14034 9.77966C6.04247 9.53188 5.99509 9.26705 6.00098 9.00071C6.01253 8.47815 6.2282 7.98087 6.60182 7.61534C6.97543 7.2498 7.4773 7.04505 7.99999 7.04492C8.52268 7.04479 9.02465 7.24929 9.39845 7.61464C9.77224 7.97998 9.98816 8.47715 9.99998 8.99971Z" fill="#2C95D2"/>
</svg>
