<svg width="77" height="77" viewBox="0 0 77 77" fill="none" xmlns="http://www.w3.org/2000/svg">
<g clip-path="url(#clip0_363_735)">
<path d="M67.1922 27.449C67.3125 27.559 67.4328 27.669 67.5568 27.7824C67.7865 27.9902 68.0172 28.197 68.2525 28.3985C69.1835 29.197 70.0603 30.0462 70.9288 30.9114C71.1758 31.1568 71.4244 31.4004 71.6732 31.644C73.4641 33.4151 74.8618 35.2366 75.0137 37.8382C74.9715 41.2291 73.0449 43.2646 70.7708 45.5125C70.5013 45.779 70.2331 46.0469 69.9651 46.3149C69.0584 47.2185 68.1385 48.0967 67.1615 48.9247C66.9964 49.0698 66.8314 49.2152 66.6667 49.3608C64.5464 51.1964 62.2519 52.7856 59.8055 54.1556C59.68 54.2262 59.5545 54.2968 59.4252 54.3695C49.449 59.9234 37.4038 61.355 26.3885 58.3333C19.7102 56.407 13.7116 53.1848 8.57488 48.4943C8.18268 48.1374 7.78712 47.7848 7.39097 47.4324C6.49157 46.6228 5.62586 45.783 4.76782 44.9299C4.62105 44.7865 4.47428 44.6431 4.32307 44.4954C2.58421 42.7667 1.25594 40.966 1.11597 38.4429C1.14348 35.5458 2.42619 33.7298 4.3898 31.7605C4.67141 31.4747 4.95301 31.1888 5.2346 30.9029C7.81225 28.2995 7.81225 28.2995 9.13037 27.1834C9.22649 27.1008 9.3226 27.0182 9.42163 26.9331C12.0868 24.6573 15.0079 22.7407 18.1211 21.1351C18.2304 21.0783 18.3397 21.0216 18.4523 20.9631C33.2532 13.376 51.9963 15.424 67.1922 27.449ZM26.928 28.0314C23.9011 31.5928 22.9212 35.6581 23.1886 40.2608C23.6347 43.9014 25.7116 47.3464 28.4707 49.7113C30.6077 51.364 33.233 52.6804 35.9391 53.0114C36.1056 53.0331 36.2721 53.0548 36.4436 53.0771C40.1949 53.4591 43.9974 52.4454 47.0141 50.1609C47.2472 49.9686 47.4788 49.7745 47.7088 49.5785C47.8294 49.4816 47.9499 49.3847 48.0741 49.2848C50.7336 47.0655 52.4419 43.6682 52.9398 40.2608C53.2313 35.6269 52.2503 31.5832 49.1505 28.0145C46.804 25.4214 43.2824 23.4629 39.7479 23.2312C34.7857 23.1268 30.4473 24.2825 26.928 28.0314Z" fill="#20376D"/>
<path d="M42.3144 27.8011C42.4552 27.8565 42.5959 27.9119 42.741 27.969C45.4215 29.1684 47.2972 31.293 48.4847 33.9375C49.0046 35.3726 49.2715 36.6827 49.2618 38.2119C49.261 38.3827 49.2602 38.5534 49.2593 38.7293C49.1928 41.7079 48.0059 44.1672 45.9107 46.273C45.7476 46.4446 45.7476 46.4446 45.5812 46.6197C43.4058 48.7494 40.5419 49.4633 37.5852 49.4357C34.7285 49.3615 32.17 48.2723 30.1546 46.2353C30.0136 46.0859 29.8726 45.9365 29.7274 45.7826C29.6049 45.6551 29.4825 45.5276 29.3564 45.3962C27.5933 43.3904 26.884 40.8421 26.9178 38.2222C26.9179 38.0641 26.918 37.9061 26.9181 37.7432C26.9226 37.0189 26.9532 36.3568 27.1119 35.6475C27.7376 35.942 28.279 36.3221 28.8424 36.7203C30.1898 37.5227 31.8933 37.505 33.3882 37.1507C34.9423 36.5721 36.041 35.5763 36.7667 34.0844C37.2979 32.6402 37.3427 30.9624 36.8178 29.5073C36.5193 28.8706 36.1289 28.3655 35.6403 27.8624C35.4488 27.6376 35.4488 27.6376 35.4488 27.3107C37.6678 26.8182 40.2093 26.9483 42.3144 27.8011Z" fill="#2C95D2"/>
<path d="M53.7163 62.3954C53.8537 62.3874 53.9911 62.3793 54.1327 62.3711C54.8419 62.5084 55.3426 62.9696 55.7492 63.5512C55.9308 63.8667 56.0971 64.1861 56.259 64.5121C56.3193 64.6305 56.3796 64.7488 56.4417 64.8707C56.5679 65.1201 56.6928 65.37 56.8166 65.6205C57.0052 66 57.1995 66.3762 57.3944 66.7525C58.6608 69.2513 58.6608 69.2513 58.3343 70.4666C58.0488 70.9728 57.7187 71.3465 57.19 71.6109C56.835 71.6556 56.835 71.6556 56.4136 71.6722C56.2762 71.6802 56.1388 71.6882 55.9972 71.6964C55.288 71.5591 54.7873 71.0979 54.3807 70.5163C54.1991 70.2008 54.0327 69.8814 53.8709 69.5554C53.7804 69.3779 53.7804 69.3779 53.6881 69.1968C53.562 68.9475 53.4371 68.6975 53.3132 68.4471C53.1247 68.0675 52.9304 67.6914 52.7355 67.315C51.4691 64.8162 51.4691 64.8162 51.7956 63.6009C52.2656 62.7674 52.7759 62.4324 53.7163 62.3954Z" fill="#20376D"/>
<path d="M22.7946 62.3758C23.4382 62.5093 23.7258 62.7971 24.1694 63.2748C24.4918 63.9196 24.4497 64.5355 24.3329 65.2365C24.0365 66.0889 23.6137 66.8896 23.1994 67.6895C23.0047 68.0665 22.816 68.4462 22.6279 68.8267C22.5048 69.07 22.3814 69.3132 22.2576 69.5562C22.2019 69.6685 22.1461 69.7807 22.0887 69.8963C21.6912 70.6543 21.2715 71.1121 20.5731 71.6117C19.9075 71.7842 19.2327 71.7727 18.6211 71.438C18.1725 71.0749 17.8546 70.7472 17.7315 70.1774C17.6137 68.7482 18.2899 67.6111 18.9276 66.3797C19.1223 66.0027 19.311 65.623 19.4991 65.2425C19.6222 64.9992 19.7456 64.756 19.8694 64.513C19.9251 64.4008 19.9809 64.2885 20.0383 64.1729C20.6652 62.9776 21.3943 62.3082 22.7946 62.3758Z" fill="#20376D"/>
<path d="M56.796 4.83475C57.4396 4.96827 57.7271 5.2561 58.1707 5.73382C58.4931 6.37859 58.451 6.99444 58.3342 7.69544C58.0379 8.54786 57.615 9.34862 57.2008 10.1485C57.006 10.5255 56.8174 10.9052 56.6293 11.2857C56.5062 11.529 56.3828 11.7722 56.2589 12.0152C56.2032 12.1274 56.1475 12.2397 56.0901 12.3553C55.6925 13.1133 55.2728 13.5711 54.5744 14.0707C53.9089 14.2432 53.234 14.2317 52.6224 13.897C52.1738 13.5338 51.8559 13.2061 51.7328 12.6364C51.615 11.2071 52.2912 10.0701 52.9289 8.83872C53.1237 8.46165 53.3123 8.08195 53.5004 7.7015C53.6235 7.45815 53.747 7.21496 53.8708 6.97196C53.9265 6.85974 53.9822 6.74751 54.0396 6.63189C54.6666 5.43654 55.3956 4.76716 56.796 4.83475Z" fill="#2C95D2"/>
<path d="M19.715 4.85434C19.8524 4.84634 19.9898 4.83833 20.1313 4.83008C20.8405 4.96741 21.3412 5.42861 21.7478 6.01023C21.9295 6.3257 22.0958 6.64508 22.2577 6.97113C22.318 7.08946 22.3783 7.20779 22.4404 7.3297C22.5665 7.57904 22.6915 7.82896 22.8153 8.07944C23.0038 8.45898 23.1981 8.83516 23.393 9.21147C24.6594 11.7103 24.6594 11.7103 24.333 12.9256C24.0475 13.4318 23.7173 13.8055 23.1887 14.0699C22.8336 14.1146 22.8336 14.1146 22.4122 14.1312C22.2748 14.1392 22.1374 14.1472 21.9959 14.1554C21.2867 14.0181 20.786 13.5569 20.3794 12.9753C20.1977 12.6598 20.0314 12.3404 19.8695 12.0144C19.7791 11.8369 19.7791 11.8369 19.6868 11.6558C19.5607 11.4065 19.4357 11.1565 19.3119 10.9061C19.1233 10.5265 18.9291 10.1503 18.7342 9.77403C17.4678 7.27519 17.4678 7.27519 17.7942 6.05992C18.2643 5.22637 18.7745 4.89139 19.715 4.85434Z" fill="#2C95D2"/>
<path d="M38.8816 65.0722C39.3925 65.3455 39.7631 65.691 40.0258 66.2165C40.0727 67.1841 40.0772 68.1519 40.0831 69.1206C40.0858 69.4447 40.0902 69.7687 40.0965 70.0928C40.1055 70.5606 40.109 71.0281 40.1114 71.496C40.1151 71.6401 40.1188 71.7842 40.1226 71.9326C40.1202 72.6382 40.0852 73.1014 39.6323 73.6615C38.9793 74.2801 38.5383 74.2902 37.6639 74.2852C36.9921 74.1905 36.7216 73.8996 36.2661 73.4091C35.8327 72.5423 36.0513 71.1436 36.0454 70.178C36.0427 69.8539 36.0382 69.5299 36.032 69.2058C36.023 68.738 36.0194 68.2705 36.017 67.8026C36.0133 67.6585 36.0096 67.5144 36.0058 67.366C36.0082 66.6604 36.0433 66.1972 36.4962 65.6372C37.2221 64.9494 37.9104 64.9354 38.8816 65.0722Z" fill="#2C95D2"/>
<path d="M38.8816 2.29974C39.3925 2.57307 39.7631 2.91856 40.0258 3.44401C40.0727 4.41164 40.0772 5.37947 40.0831 6.34812C40.0858 6.67221 40.0902 6.99628 40.0965 7.32031C40.1055 7.7881 40.109 8.25566 40.1114 8.72352C40.1151 8.86761 40.1188 9.0117 40.1226 9.16016C40.1202 9.86577 40.0852 10.3289 39.6323 10.889C38.9793 11.5076 38.5383 11.5178 37.6639 11.5127C36.9921 11.418 36.7216 11.1272 36.2661 10.6366C35.8327 9.76981 36.0513 8.37115 36.0454 7.40556C36.0427 7.08148 36.0382 6.7574 36.032 6.43337C36.023 5.96558 36.0194 5.49802 36.017 5.03016C36.0133 4.88607 36.0096 4.74198 36.0058 4.59353C36.0082 3.88791 36.0433 3.42479 36.4962 2.86469C37.2221 2.17696 37.9104 2.16292 38.8816 2.29974Z" fill="#20376D"/>
<path d="M4.46377 73.6522H12.2754V77H0V64.7246H4.46377V73.6522Z" fill="#20376D"/>
<path d="M77 77H63.6087V73.6522H73.6522V64.7246H77V77Z" fill="#20376D"/>
<path d="M12.2754 4.46377H4.46377V13.3913H0V0H12.2754V4.46377Z" fill="#20376D"/>
<path d="M77 13.3913H73.6522V4.46377H63.6087V0H77V13.3913Z" fill="#20376D"/>
</g>
<defs>
<clipPath id="clip0_363_735">
<rect width="77" height="77" fill="white"/>
</clipPath>
</defs>
</svg>
