<svg width="218" height="63" viewBox="0 0 218 63" fill="none" xmlns="http://www.w3.org/2000/svg">
<path d="M60.925 16.275C60.925 14.575 61.3167 13.05 62.1 11.7C62.9 10.35 63.975 9.29995 65.325 8.54995C66.6917 7.78329 68.1834 7.39995 69.8 7.39995C71.65 7.39995 73.2917 7.85829 74.725 8.77495C76.175 9.67495 77.225 10.9583 77.875 12.625H74.45C74 11.7083 73.375 11.025 72.575 10.575C71.775 10.125 70.85 9.89995 69.8 9.89995C68.65 9.89995 67.625 10.1583 66.725 10.675C65.825 11.1916 65.1167 11.9333 64.6 12.9C64.1 13.8666 63.85 14.9916 63.85 16.275C63.85 17.5583 64.1 18.6833 64.6 19.65C65.1167 20.6166 65.825 21.3666 66.725 21.9C67.625 22.4166 68.65 22.675 69.8 22.675C70.85 22.675 71.775 22.45 72.575 22C73.375 21.55 74 20.8666 74.45 19.95H77.875C77.225 21.6166 76.175 22.9 74.725 23.8C73.2917 24.7 71.65 25.15 69.8 25.15C68.1667 25.15 66.675 24.775 65.325 24.025C63.975 23.2583 62.9 22.2 62.1 20.85C61.3167 19.5 60.925 17.975 60.925 16.275Z" fill="#679814"/>
<path d="M87.186 25.225C85.886 25.225 84.7109 24.9333 83.6609 24.35C82.6109 23.75 81.786 22.9166 81.186 21.85C80.586 20.7666 80.2859 19.5166 80.2859 18.1C80.2859 16.7 80.5943 15.4583 81.211 14.375C81.8276 13.2916 82.6693 12.4583 83.736 11.875C84.8026 11.2916 85.9943 11 87.311 11C88.6276 11 89.8193 11.2916 90.886 11.875C91.9526 12.4583 92.7943 13.2916 93.4109 14.375C94.0276 15.4583 94.336 16.7 94.336 18.1C94.336 19.5 94.0193 20.7416 93.386 21.825C92.7526 22.9083 91.8859 23.75 90.7859 24.35C89.7026 24.9333 88.5026 25.225 87.186 25.225ZM87.186 22.75C87.9193 22.75 88.6026 22.575 89.236 22.225C89.886 21.875 90.411 21.35 90.811 20.65C91.211 19.95 91.4109 19.1 91.4109 18.1C91.4109 17.1 91.2193 16.2583 90.836 15.575C90.4526 14.875 89.9443 14.35 89.311 14C88.6776 13.65 87.9943 13.475 87.261 13.475C86.5276 13.475 85.8443 13.65 85.211 14C84.5943 14.35 84.1026 14.875 83.736 15.575C83.3693 16.2583 83.186 17.1 83.186 18.1C83.186 19.5833 83.561 20.7333 84.311 21.55C85.0776 22.35 86.036 22.75 87.186 22.75Z" fill="#679814"/>
<path d="M113.828 11C114.912 11 115.878 11.225 116.728 11.675C117.595 12.125 118.27 12.7916 118.753 13.675C119.253 14.5583 119.503 15.625 119.503 16.875V25H116.678V17.3C116.678 16.0666 116.37 15.125 115.753 14.475C115.137 13.8083 114.295 13.475 113.228 13.475C112.162 13.475 111.312 13.8083 110.678 14.475C110.062 15.125 109.753 16.0666 109.753 17.3V25H106.928V17.3C106.928 16.0666 106.62 15.125 106.003 14.475C105.387 13.8083 104.545 13.475 103.478 13.475C102.412 13.475 101.562 13.8083 100.928 14.475C100.312 15.125 100.003 16.0666 100.003 17.3V25H97.1533V11.225H100.003V12.8C100.47 12.2333 101.062 11.7916 101.778 11.475C102.495 11.1583 103.262 11 104.078 11C105.178 11 106.162 11.2333 107.028 11.7C107.895 12.1666 108.562 12.8416 109.028 13.725C109.445 12.8916 110.095 12.2333 110.978 11.75C111.862 11.25 112.812 11 113.828 11Z" fill="#679814"/>
<path d="M125.98 13.25C126.463 12.6166 127.122 12.0833 127.955 11.65C128.788 11.2166 129.73 11 130.78 11C131.98 11 133.072 11.3 134.055 11.9C135.055 12.4833 135.838 13.3083 136.405 14.375C136.972 15.4416 137.255 16.6666 137.255 18.05C137.255 19.4333 136.972 20.675 136.405 21.775C135.838 22.8583 135.055 23.7083 134.055 24.325C133.072 24.925 131.98 25.225 130.78 25.225C129.73 25.225 128.797 25.0166 127.98 24.6C127.163 24.1666 126.497 23.6333 125.98 23V31.55H123.13V11.225H125.98V13.25ZM134.355 18.05C134.355 17.1 134.155 16.2833 133.755 15.6C133.372 14.9 132.855 14.375 132.205 14.025C131.572 13.6583 130.888 13.475 130.155 13.475C129.438 13.475 128.755 13.6583 128.105 14.025C127.472 14.3916 126.955 14.925 126.555 15.625C126.172 16.325 125.98 17.15 125.98 18.1C125.98 19.05 126.172 19.8833 126.555 20.6C126.955 21.3 127.472 21.8333 128.105 22.2C128.755 22.5666 129.438 22.75 130.155 22.75C130.888 22.75 131.572 22.5666 132.205 22.2C132.855 21.8166 133.372 21.2666 133.755 20.55C134.155 19.8333 134.355 19 134.355 18.05Z" fill="#679814"/>
<path d="M139.123 18.05C139.123 16.6666 139.407 15.4416 139.973 14.375C140.557 13.3083 141.34 12.4833 142.323 11.9C143.323 11.3 144.423 11 145.623 11C146.707 11 147.648 11.2166 148.448 11.65C149.265 12.0666 149.915 12.5916 150.398 13.225V11.225H153.273V25H150.398V22.95C149.915 23.6 149.257 24.1416 148.423 24.575C147.59 25.0083 146.64 25.225 145.573 25.225C144.39 25.225 143.307 24.925 142.323 24.325C141.34 23.7083 140.557 22.8583 139.973 21.775C139.407 20.675 139.123 19.4333 139.123 18.05ZM150.398 18.1C150.398 17.15 150.198 16.325 149.798 15.625C149.415 14.925 148.907 14.3916 148.273 14.025C147.64 13.6583 146.957 13.475 146.223 13.475C145.49 13.475 144.807 13.6583 144.173 14.025C143.54 14.375 143.023 14.9 142.623 15.6C142.24 16.2833 142.048 17.1 142.048 18.05C142.048 19 142.24 19.8333 142.623 20.55C143.023 21.2666 143.54 21.8166 144.173 22.2C144.823 22.5666 145.507 22.75 146.223 22.75C146.957 22.75 147.64 22.5666 148.273 22.2C148.907 21.8333 149.415 21.3 149.798 20.6C150.198 19.8833 150.398 19.05 150.398 18.1Z" fill="#679814"/>
<path d="M159.867 13.225C160.283 12.525 160.833 11.9833 161.517 11.6C162.217 11.2 163.042 11 163.992 11V13.95H163.267C162.15 13.95 161.3 14.2333 160.717 14.8C160.15 15.3666 159.867 16.35 159.867 17.75V25H157.017V11.225H159.867V13.225Z" fill="#679814"/>
<path d="M179.236 17.775C179.236 18.2916 179.203 18.7583 179.136 19.175H168.611C168.695 20.275 169.103 21.1583 169.836 21.825C170.57 22.4916 171.47 22.825 172.536 22.825C174.07 22.825 175.153 22.1833 175.786 20.9H178.861C178.445 22.1666 177.686 23.2083 176.586 24.025C175.503 24.825 174.153 25.225 172.536 25.225C171.22 25.225 170.036 24.9333 168.986 24.35C167.953 23.75 167.136 22.9166 166.536 21.85C165.953 20.7666 165.661 19.5166 165.661 18.1C165.661 16.6833 165.945 15.4416 166.511 14.375C167.095 13.2916 167.903 12.4583 168.936 11.875C169.986 11.2916 171.186 11 172.536 11C173.836 11 174.995 11.2833 176.011 11.85C177.028 12.4166 177.82 13.2166 178.386 14.25C178.953 15.2666 179.236 16.4416 179.236 17.775ZM176.261 16.875C176.245 15.825 175.87 14.9833 175.136 14.35C174.403 13.7166 173.495 13.4 172.411 13.4C171.428 13.4 170.586 13.7166 169.886 14.35C169.186 14.9666 168.77 15.8083 168.636 16.875H176.261Z" fill="#679814"/>
<path d="M73.1 37.625V39.95H68.475V55H65.625V39.95H60.975V37.625H73.1Z" fill="#679814"/>
<path d="M83.1113 41C84.1613 41 85.0947 41.225 85.9113 41.675C86.7447 42.125 87.3947 42.7916 87.8613 43.675C88.3447 44.5583 88.5863 45.625 88.5863 46.875V55H85.7613V47.3C85.7613 46.0666 85.453 45.125 84.8363 44.475C84.2197 43.8083 83.378 43.475 82.3113 43.475C81.2447 43.475 80.3947 43.8083 79.7613 44.475C79.1447 45.125 78.8363 46.0666 78.8363 47.3V55H75.9863V36.5H78.8363V42.825C79.3197 42.2416 79.928 41.7916 80.6613 41.475C81.4113 41.1583 82.228 41 83.1113 41Z" fill="#679814"/>
<path d="M104.847 47.775C104.847 48.2916 104.813 48.7583 104.747 49.175H94.2217C94.305 50.275 94.7134 51.1583 95.4467 51.825C96.18 52.4916 97.08 52.825 98.1467 52.825C99.68 52.825 100.763 52.1833 101.397 50.9H104.472C104.055 52.1666 103.297 53.2083 102.197 54.025C101.113 54.825 99.7634 55.225 98.1467 55.225C96.83 55.225 95.6467 54.9333 94.5967 54.35C93.5634 53.75 92.7467 52.9166 92.1467 51.85C91.5634 50.7666 91.2717 49.5166 91.2717 48.1C91.2717 46.6833 91.555 45.4416 92.1217 44.375C92.705 43.2916 93.5134 42.4583 94.5467 41.875C95.5967 41.2916 96.7967 41 98.1467 41C99.4467 41 100.605 41.2833 101.622 41.85C102.638 42.4166 103.43 43.2166 103.997 44.25C104.563 45.2666 104.847 46.4416 104.847 47.775ZM101.872 46.875C101.855 45.825 101.48 44.9833 100.747 44.35C100.013 43.7166 99.105 43.4 98.0217 43.4C97.0384 43.4 96.1967 43.7166 95.4967 44.35C94.7967 44.9666 94.38 45.8083 94.2467 46.875H101.872Z" fill="#679814"/>
<path d="M116.996 39.925V45.025H122.996V47.35H116.996V52.675H123.746V55H114.146V37.6H123.746V39.925H116.996Z" fill="#679814"/>
<path d="M134.206 41C135.289 41 136.256 41.225 137.106 41.675C137.973 42.125 138.648 42.7916 139.131 43.675C139.614 44.5583 139.856 45.625 139.856 46.875V55H137.031V47.3C137.031 46.0666 136.723 45.125 136.106 44.475C135.489 43.8083 134.648 43.475 133.581 43.475C132.514 43.475 131.664 43.8083 131.031 44.475C130.414 45.125 130.106 46.0666 130.106 47.3V55H127.256V41.225H130.106V42.8C130.573 42.2333 131.164 41.7916 131.881 41.475C132.614 41.1583 133.389 41 134.206 41Z" fill="#679814"/>
<path d="M156.116 47.775C156.116 48.2916 156.083 48.7583 156.016 49.175H145.491C145.575 50.275 145.983 51.1583 146.716 51.825C147.45 52.4916 148.35 52.825 149.416 52.825C150.95 52.825 152.033 52.1833 152.666 50.9H155.741C155.325 52.1666 154.566 53.2083 153.466 54.025C152.383 54.825 151.033 55.225 149.416 55.225C148.1 55.225 146.916 54.9333 145.866 54.35C144.833 53.75 144.016 52.9166 143.416 51.85C142.833 50.7666 142.541 49.5166 142.541 48.1C142.541 46.6833 142.825 45.4416 143.391 44.375C143.975 43.2916 144.783 42.4583 145.816 41.875C146.866 41.2916 148.066 41 149.416 41C150.716 41 151.875 41.2833 152.891 41.85C153.908 42.4166 154.7 43.2166 155.266 44.25C155.833 45.2666 156.116 46.4416 156.116 47.775ZM153.141 46.875C153.125 45.825 152.75 44.9833 152.016 44.35C151.283 43.7166 150.375 43.4 149.291 43.4C148.308 43.4 147.466 43.7166 146.766 44.35C146.066 44.9666 145.65 45.8083 145.516 46.875H153.141Z" fill="#679814"/>
<path d="M161.771 43.225C162.188 42.525 162.738 41.9833 163.421 41.6C164.121 41.2 164.946 41 165.896 41V43.95H165.171C164.054 43.95 163.204 44.2333 162.621 44.8C162.054 45.3666 161.771 46.35 161.771 47.75V55H158.921V41.225H161.771V43.225Z" fill="#679814"/>
<path d="M174.066 41C175.132 41 176.074 41.2166 176.891 41.65C177.724 42.0666 178.374 42.5916 178.841 43.225V41.225H181.716V55.225C181.716 56.4916 181.449 57.6166 180.916 58.6C180.382 59.6 179.607 60.3833 178.591 60.95C177.591 61.5166 176.391 61.8 174.991 61.8C173.124 61.8 171.574 61.3583 170.341 60.475C169.107 59.6083 168.407 58.425 168.241 56.925H171.066C171.282 57.6416 171.741 58.2166 172.441 58.65C173.157 59.1 174.007 59.325 174.991 59.325C176.141 59.325 177.066 58.975 177.766 58.275C178.482 57.575 178.841 56.5583 178.841 55.225V52.925C178.357 53.575 177.699 54.125 176.866 54.575C176.049 55.0083 175.116 55.225 174.066 55.225C172.866 55.225 171.766 54.925 170.766 54.325C169.782 53.7083 168.999 52.8583 168.416 51.775C167.849 50.675 167.566 49.4333 167.566 48.05C167.566 46.6666 167.849 45.4416 168.416 44.375C168.999 43.3083 169.782 42.4833 170.766 41.9C171.766 41.3 172.866 41 174.066 41ZM178.841 48.1C178.841 47.15 178.641 46.325 178.241 45.625C177.857 44.925 177.349 44.3916 176.716 44.025C176.082 43.6583 175.399 43.475 174.666 43.475C173.932 43.475 173.249 43.6583 172.616 44.025C171.982 44.375 171.466 44.9 171.066 45.6C170.682 46.2833 170.491 47.1 170.491 48.05C170.491 49 170.682 49.8333 171.066 50.55C171.466 51.2666 171.982 51.8166 172.616 52.2C173.266 52.5666 173.949 52.75 174.666 52.75C175.399 52.75 176.082 52.5666 176.716 52.2C177.349 51.8333 177.857 51.3 178.241 50.6C178.641 49.8833 178.841 49.05 178.841 48.1Z" fill="#679814"/>
<path d="M186.909 39.4C186.392 39.4 185.959 39.225 185.609 38.875C185.259 38.525 185.084 38.0916 185.084 37.575C185.084 37.0583 185.259 36.625 185.609 36.275C185.959 35.925 186.392 35.75 186.909 35.75C187.409 35.75 187.834 35.925 188.184 36.275C188.534 36.625 188.709 37.0583 188.709 37.575C188.709 38.0916 188.534 38.525 188.184 38.875C187.834 39.225 187.409 39.4 186.909 39.4ZM188.309 41.225V55H185.459V41.225H188.309Z" fill="#679814"/>
<path d="M204.676 47.775C204.676 48.2916 204.642 48.7583 204.576 49.175H194.051C194.134 50.275 194.542 51.1583 195.276 51.825C196.009 52.4916 196.909 52.825 197.976 52.825C199.509 52.825 200.592 52.1833 201.226 50.9H204.301C203.884 52.1666 203.126 53.2083 202.026 54.025C200.942 54.825 199.592 55.225 197.976 55.225C196.659 55.225 195.476 54.9333 194.426 54.35C193.392 53.75 192.576 52.9166 191.976 51.85C191.392 50.7666 191.101 49.5166 191.101 48.1C191.101 46.6833 191.384 45.4416 191.951 44.375C192.534 43.2916 193.342 42.4583 194.376 41.875C195.426 41.2916 196.626 41 197.976 41C199.276 41 200.434 41.2833 201.451 41.85C202.467 42.4166 203.259 43.2166 203.826 44.25C204.392 45.2666 204.676 46.4416 204.676 47.775ZM201.701 46.875C201.684 45.825 201.309 44.9833 200.576 44.35C199.842 43.7166 198.934 43.4 197.851 43.4C196.867 43.4 196.026 43.7166 195.326 44.35C194.626 44.9666 194.209 45.8083 194.076 46.875H201.701Z" fill="#679814"/>
<path d="M212.48 55.225C211.397 55.225 210.422 55.0333 209.555 54.65C208.705 54.25 208.03 53.7166 207.53 53.05C207.03 52.3666 206.764 51.6083 206.73 50.775H209.68C209.73 51.3583 210.005 51.85 210.505 52.25C211.022 52.6333 211.664 52.825 212.43 52.825C213.23 52.825 213.847 52.675 214.28 52.375C214.73 52.0583 214.955 51.6583 214.955 51.175C214.955 50.6583 214.705 50.275 214.205 50.025C213.722 49.775 212.947 49.5 211.88 49.2C210.847 48.9166 210.005 48.6416 209.355 48.375C208.705 48.1083 208.139 47.7 207.655 47.15C207.189 46.6 206.955 45.875 206.955 44.975C206.955 44.2416 207.172 43.575 207.605 42.975C208.039 42.3583 208.655 41.875 209.455 41.525C210.272 41.175 211.205 41 212.255 41C213.822 41 215.08 41.4 216.03 42.2C216.997 42.9833 217.514 44.0583 217.58 45.425H214.73C214.68 44.8083 214.43 44.3166 213.98 43.95C213.53 43.5833 212.922 43.4 212.155 43.4C211.405 43.4 210.83 43.5416 210.43 43.825C210.03 44.1083 209.83 44.4833 209.83 44.95C209.83 45.3166 209.964 45.625 210.23 45.875C210.497 46.125 210.822 46.325 211.205 46.475C211.589 46.6083 212.155 46.7833 212.905 47C213.905 47.2666 214.722 47.5416 215.355 47.825C216.005 48.0916 216.564 48.4916 217.03 49.025C217.497 49.5583 217.739 50.2666 217.755 51.15C217.755 51.9333 217.539 52.6333 217.105 53.25C216.672 53.8666 216.055 54.35 215.255 54.7C214.472 55.05 213.547 55.225 212.48 55.225Z" fill="#679814"/>
<path d="M35.6212 14.485C35.0279 13.7799 34.1735 13.3335 33.1571 13.3649C32.1889 13.3803 31.4908 13.8499 31.1174 14.1722L29.564 9.47692C29.3466 8.8198 29.4136 8.09506 29.7481 7.49401L32.6018 2.295C33.2145 1.16443 34.5171 0.587613 35.7683 0.862966C37.3312 1.23403 38.2973 2.74361 37.943 4.29239L35.6212 14.485Z" fill="url(#paint0_linear_127_35)"/>
<path d="M30.6311 14.7176C30.2608 15.2509 30.0502 15.9039 30.0634 16.5888C30.0762 17.2155 30.2774 17.8234 30.6412 18.3339C31.0051 18.8444 31.5147 19.2341 32.1043 19.4527L29.5076 22.4459C29.0453 22.9832 28.3879 23.2935 27.6916 23.325L21.7612 23.5771C20.4726 23.6322 19.3156 22.8354 18.9124 21.6167C18.4065 20.0874 19.2131 18.495 20.7515 17.9861L30.6311 14.7176Z" fill="url(#paint1_linear_127_35)"/>
<path d="M42.1465 15.5472L46.5113 19.551C47.4641 20.4155 47.7105 21.8054 47.1297 22.9518C46.4119 24.3691 44.6811 24.9417 43.2596 24.2322L36.1862 20.7019L34.091 19.5351C34.1309 19.5236 34.1715 19.5111 34.2126 19.4975C34.8582 19.2878 35.4189 18.8759 35.8107 18.3233C36.2024 17.7707 36.4041 17.1073 36.3855 16.4325C36.3873 15.9945 36.2529 15.5882 36.1264 15.2059L40.2526 14.9012C40.9459 14.8578 41.6271 15.0901 42.1465 15.5472Z" fill="url(#paint2_linear_127_35)"/>
<path d="M35.1131 16.4557C35.1409 17.507 34.3052 18.3667 33.2609 18.3941C32.2165 18.4214 31.3436 17.5968 31.3198 16.5575C31.292 15.5063 32.1278 14.6466 33.1721 14.6192C34.2285 14.5878 35.0893 15.4164 35.1131 16.4557Z" fill="url(#paint3_linear_127_35)"/>
<path d="M9.17221 35.8457L16.3044 36.4013L10.0487 54.0991H26.9735L26.9735 46.8938H17.1374L17.1374 23.5826H9.91393L9.17221 31.3813V35.8457Z" fill="url(#paint4_linear_127_35)"/>
<path d="M15.7931 36.7647L8.8424 36.2347L10.2019 18.405L1.2642 43.9338L8.21493 44.4637L6.8554 62.2934L15.7931 36.7647Z" fill="url(#paint5_linear_127_35)"/>
<path fill-rule="evenodd" clip-rule="evenodd" d="M16.4103 36.2321L7.22936 62.4555L6.13192 62.2257L7.44846 44.9598L0.327637 44.4168L9.50857 18.1934L10.606 18.4232L9.28947 35.6891L16.4103 36.2321ZM10.0422 18.3802L8.6827 36.2099L15.6334 36.7399L6.6957 62.2687L8.05523 44.439L1.1045 43.909L10.0422 18.3802Z" fill="white"/>
<path d="M29.0927 30.2934C29.0927 26.5871 32.0972 23.5826 35.8035 23.5826C36.5448 23.5826 37.1457 24.1835 37.1457 24.9247V54.0991H29.0927V30.2934Z" fill="url(#paint6_linear_127_35)"/>
<defs>
<linearGradient id="paint0_linear_127_35" x1="29.0926" y1="38.8408" x2="37.1456" y2="38.8408" gradientUnits="userSpaceOnUse">
<stop stop-color="#72AA15"/>
<stop offset="1" stop-color="#5A8514"/>
</linearGradient>
<linearGradient id="paint1_linear_127_35" x1="29.0926" y1="38.8408" x2="37.1456" y2="38.8408" gradientUnits="userSpaceOnUse">
<stop stop-color="#72AA15"/>
<stop offset="1" stop-color="#5A8514"/>
</linearGradient>
<linearGradient id="paint2_linear_127_35" x1="29.0926" y1="38.8408" x2="37.1456" y2="38.8408" gradientUnits="userSpaceOnUse">
<stop stop-color="#72AA15"/>
<stop offset="1" stop-color="#5A8514"/>
</linearGradient>
<linearGradient id="paint3_linear_127_35" x1="29.0926" y1="38.8408" x2="37.1456" y2="38.8408" gradientUnits="userSpaceOnUse">
<stop stop-color="#72AA15"/>
<stop offset="1" stop-color="#5A8514"/>
</linearGradient>
<linearGradient id="paint4_linear_127_35" x1="29.0926" y1="38.8408" x2="37.1456" y2="38.8408" gradientUnits="userSpaceOnUse">
<stop stop-color="#72AA15"/>
<stop offset="1" stop-color="#5A8514"/>
</linearGradient>
<linearGradient id="paint5_linear_127_35" x1="29.0926" y1="38.8408" x2="37.1456" y2="38.8408" gradientUnits="userSpaceOnUse">
<stop stop-color="#72AA15"/>
<stop offset="1" stop-color="#5A8514"/>
</linearGradient>
<linearGradient id="paint6_linear_127_35" x1="29.0926" y1="38.8408" x2="37.1456" y2="38.8408" gradientUnits="userSpaceOnUse">
<stop stop-color="#72AA15"/>
<stop offset="1" stop-color="#5A8514"/>
</linearGradient>
</defs>
</svg>
