<svg width="44" height="38" viewBox="0 0 44 38" fill="none" xmlns="http://www.w3.org/2000/svg">
<path d="M6.92233 0.300626C6.99516 0.300236 7.06798 0.299846 7.14302 0.299444C7.38644 0.298357 7.62984 0.298496 7.87327 0.298638C8.04806 0.298123 8.22284 0.297538 8.39763 0.296887C8.87208 0.295368 9.34652 0.294964 9.82096 0.294854C10.1175 0.294732 10.4141 0.294364 10.7107 0.293908C11.7459 0.292317 12.781 0.291614 13.8162 0.291749C14.7803 0.291853 15.7444 0.290038 16.7085 0.28732C17.5369 0.285068 18.3653 0.284148 19.1936 0.284257C19.6881 0.284301 20.1826 0.283814 20.677 0.28199C21.1423 0.280321 21.6075 0.280313 22.0728 0.281563C22.2432 0.281742 22.4135 0.281339 22.5839 0.280296C23.6424 0.274242 24.5728 0.27163 25.3918 1.03738C25.9715 1.68273 26.1522 2.33985 26.1418 3.1914C26.1414 3.30487 26.1414 3.30487 26.141 3.42063C26.1401 3.66078 26.1379 3.90091 26.1357 4.14105C26.1349 4.30447 26.1341 4.4679 26.1334 4.63133C26.1315 5.03067 26.1285 5.42999 26.125 5.82931C26.2142 5.82884 26.2142 5.82884 26.3051 5.82835C27.7541 5.82074 29.2031 5.81505 30.6521 5.81148C31.3528 5.80971 32.0535 5.8073 32.7542 5.80335C33.3653 5.79991 33.9763 5.7977 34.5873 5.79694C34.9106 5.79649 35.2339 5.79544 35.5572 5.79293C35.862 5.79058 36.1669 5.78988 36.4717 5.79039C36.6358 5.79025 36.7998 5.78841 36.9639 5.7865C37.805 5.7905 38.514 5.9561 39.1418 6.54306C39.797 7.27249 39.9007 7.99696 39.9 8.9497C39.9005 9.05579 39.9011 9.16188 39.9017 9.27119C39.9031 9.56129 39.9036 9.85136 39.9037 10.1415C39.9039 10.3231 39.9042 10.5047 39.9047 10.6863C39.9063 11.3209 39.907 11.9556 39.9068 12.5902C39.9067 13.18 39.9086 13.7698 39.9113 14.3596C39.9135 14.8674 39.9144 15.3752 39.9143 15.8829C39.9143 16.1856 39.9148 16.4882 39.9166 16.7909C39.9186 17.1289 39.9178 17.467 39.9167 17.805C39.9177 17.9041 39.9187 18.0031 39.9197 18.1052C39.9133 18.925 39.7317 19.6254 39.162 20.236C38.6028 20.7393 38.0037 20.9958 37.2472 20.9783C37.0868 20.9781 37.0868 20.9781 36.9232 20.9778C36.701 20.9762 36.4787 20.9722 36.2566 20.9657C35.6554 20.9692 35.2952 21.0128 34.8399 21.4246C34.7119 21.5582 34.5853 21.6932 34.4609 21.8302C34.3101 21.9572 34.1582 22.0831 34.0044 22.2066C33.7021 22.4513 33.4033 22.699 33.1081 22.9522C32.9206 23.1125 32.7319 23.2713 32.5427 23.4296C32.4452 23.5115 32.348 23.5938 32.2511 23.6766C32.1064 23.7995 31.96 23.9199 31.813 24.04C31.7274 24.1113 31.6417 24.1826 31.5535 24.2561C31.1882 24.4639 31.0094 24.4669 30.5937 24.411C30.4032 24.2806 30.4032 24.2806 30.25 24.0669C30.22 23.8183 30.2098 23.6036 30.2164 23.3558C30.2169 23.2876 30.2174 23.2193 30.2179 23.149C30.2198 22.9316 30.2241 22.7143 30.2285 22.4969C30.2302 22.3493 30.2318 22.2016 30.2332 22.054C30.237 21.6926 30.2429 21.3313 30.25 20.9699C30.1976 20.9703 30.1453 20.9706 30.0913 20.9709C28.8145 20.9785 27.5376 20.9842 26.2608 20.9878C25.6433 20.9895 25.0258 20.9919 24.4083 20.9959C23.8698 20.9993 23.3313 21.0015 22.7928 21.0023C22.5079 21.0028 22.2231 21.004 21.9382 21.0063C21.6193 21.0088 21.3006 21.0092 20.9817 21.009C20.8884 21.0102 20.795 21.0115 20.6989 21.0128C19.8962 21.0084 19.2047 20.8139 18.6082 20.2562C18.0285 19.6108 17.8478 18.9538 17.8582 18.1022C17.8584 18.035 17.8586 17.9679 17.8587 17.8988C17.8596 17.65 17.862 17.4013 17.8643 17.1525C17.8678 16.5954 17.8713 16.0383 17.875 15.4643C16.5137 15.4643 15.1525 15.4643 13.75 15.4643C13.7636 16.468 13.7636 16.468 13.781 17.4717C13.782 17.5978 13.7828 17.724 13.7836 17.8501C13.7853 17.9152 13.7871 17.9804 13.7889 18.0474C13.7891 18.3499 13.7757 18.5258 13.5955 18.7737C13.3697 18.9307 13.1875 18.9751 12.9124 18.9594C12.4871 18.8406 12.1813 18.5057 11.8594 18.2171C11.7231 18.1006 11.5861 17.985 11.4489 17.8696C11.3052 17.7485 11.1622 17.6268 11.0191 17.505C10.6951 17.23 10.3672 16.9602 10.0325 16.6982C9.79688 16.4966 9.79688 16.4966 9.57733 16.2412C9.128 15.7397 8.76969 15.5324 8.0845 15.4834C7.75293 15.4714 7.42427 15.4695 7.09257 15.4769C6.21588 15.4951 5.51518 15.3648 4.85816 14.7505C4.20302 14.0211 4.09929 13.2966 4.10003 12.3439C4.09946 12.2378 4.09888 12.1317 4.09828 12.0224C4.09693 11.7323 4.09636 11.4422 4.09625 11.1521C4.09613 10.9705 4.09576 10.7889 4.09531 10.6073C4.09372 9.97265 4.09302 9.33802 4.09315 8.70338C4.09326 8.11356 4.09144 7.52377 4.08873 6.93396C4.08647 6.42618 4.08556 5.91841 4.08567 5.41063C4.08571 5.10798 4.08523 4.80535 4.0834 4.5027C4.08142 4.16464 4.08222 3.82661 4.08325 3.48854C4.08228 3.38948 4.08132 3.29042 4.08032 3.18836C4.08667 2.36859 4.26834 1.66813 4.83801 1.05754C5.45619 0.501178 6.09589 0.297362 6.92233 0.300626ZM5.84912 2.1947C5.4763 2.78278 5.47473 3.33906 5.4764 4.01701C5.47596 4.10983 5.47552 4.20265 5.47507 4.29828C5.47388 4.60409 5.47395 4.90989 5.47415 5.2157C5.47382 5.42901 5.47345 5.64231 5.47304 5.85561C5.4724 6.30236 5.47242 6.74911 5.47287 7.19586C5.47337 7.76735 5.47192 8.33882 5.46992 8.9103C5.46865 9.35075 5.46858 9.7912 5.46885 10.2316C5.4688 10.4423 5.46836 10.653 5.46749 10.8636C5.46642 11.1586 5.46701 11.4536 5.46801 11.7486C5.46735 11.835 5.46669 11.9213 5.46601 12.0103C5.47015 12.5672 5.50494 13.1702 5.86738 13.6223C6.55625 14.2528 7.51565 14.1113 8.37975 14.0912C9.18417 14.0981 9.5727 14.3042 10.1406 14.8621C10.2382 14.9453 10.3365 15.0278 10.4357 15.1091C10.5209 15.1819 10.6061 15.2548 10.6938 15.3298C11.4895 16.069 11.4895 16.069 12.375 16.6686C12.3763 16.6022 12.3775 16.5358 12.3788 16.4674C12.3852 16.167 12.3935 15.8667 12.4019 15.5664C12.4038 15.4619 12.4057 15.3574 12.4077 15.2497C12.4123 15.0996 12.4123 15.0996 12.417 14.9464C12.4192 14.8541 12.4215 14.7617 12.4238 14.6666C12.4668 14.3948 12.501 14.3347 12.7188 14.1739C12.9455 14.1396 12.9455 14.1396 13.2213 14.1367C13.3762 14.1341 13.3762 14.1341 13.5341 14.1315C13.6456 14.131 13.757 14.1304 13.8719 14.1298C13.9871 14.1284 14.1023 14.1268 14.2176 14.1252C14.5206 14.1211 14.8236 14.1185 15.1267 14.1163C15.436 14.1137 15.7454 14.1097 16.0547 14.1058C16.6615 14.0984 17.2682 14.0926 17.875 14.0878C17.8753 14.0121 17.8756 13.9365 17.8759 13.8585C17.8792 13.1422 17.8841 12.4259 17.8908 11.7097C17.8942 11.3415 17.897 10.9733 17.8983 10.6052C17.8996 10.2493 17.9026 9.89342 17.9067 9.53755C17.9079 9.40237 17.9086 9.26717 17.9087 9.13198C17.9096 8.25819 17.9569 7.47577 18.498 6.74872C19.0465 6.21217 19.6608 5.89847 20.4378 5.88791C20.5341 5.8862 20.6304 5.88449 20.7297 5.88273C20.8323 5.88174 20.9349 5.88074 21.0406 5.87972C21.1467 5.87805 21.2528 5.87639 21.3621 5.87467C21.7 5.86954 22.038 5.86554 22.376 5.86157C22.6055 5.85838 22.835 5.85493 23.0645 5.85149C23.6263 5.84324 24.1881 5.83592 24.75 5.82931C24.7564 5.45145 24.7611 5.07361 24.7642 4.6957C24.7654 4.56747 24.7672 4.43924 24.7694 4.31102C24.8232 3.17587 24.8232 3.17587 24.3826 2.16736C23.9022 1.72067 23.3073 1.67434 22.6815 1.67762C22.6141 1.6773 22.5468 1.67697 22.4774 1.67663C22.253 1.67574 22.0287 1.67608 21.8043 1.67642C21.6429 1.67605 21.4815 1.6756 21.3202 1.67509C20.8826 1.67394 20.4452 1.67389 20.0076 1.67411C19.642 1.6742 19.2764 1.67378 18.9108 1.67337C18.0481 1.67241 17.1853 1.67237 16.3225 1.6729C15.4334 1.67341 14.5442 1.67236 13.655 1.67052C12.8908 1.66901 12.1266 1.66849 11.3623 1.66877C10.9063 1.66893 10.4502 1.6687 9.99412 1.66751C9.56511 1.66642 9.13611 1.66659 8.7071 1.66771C8.55 1.66792 8.3929 1.66768 8.2358 1.66697C6.93954 1.6071 6.93954 1.6071 5.84912 2.1947ZM19.5991 7.70038C19.2263 8.28846 19.2247 8.84475 19.2264 9.52269C19.226 9.61551 19.2255 9.70833 19.2251 9.80396C19.2239 10.1098 19.224 10.4156 19.2242 10.7214C19.2238 10.9347 19.2234 11.148 19.223 11.3613C19.2224 11.808 19.2224 12.2548 19.2229 12.7015C19.2234 13.273 19.2219 13.8445 19.2199 14.416C19.2187 14.8564 19.2186 15.2969 19.2188 15.7373C19.2188 15.948 19.2184 16.1586 19.2175 16.3693C19.2164 16.6643 19.217 16.9593 19.218 17.2543C19.2173 17.3407 19.2167 17.427 19.216 17.516C19.2201 18.0729 19.2549 18.6759 19.6174 19.128C20.2033 19.6643 20.9241 19.6185 21.6674 19.6169C21.771 19.6173 21.8746 19.6178 21.9814 19.6182C22.264 19.6193 22.5467 19.6197 22.8293 19.6198C23.1256 19.6202 23.4218 19.6218 23.7181 19.6233C24.5983 19.6275 25.4785 19.6301 26.3588 19.632C27.0441 19.6334 27.7293 19.6354 28.4146 19.6391C28.7672 19.641 29.1197 19.6417 29.4723 19.6415C29.7427 19.6417 30.013 19.6435 30.2833 19.6451C30.3811 19.6447 30.4789 19.6443 30.5796 19.6439C30.6687 19.6447 30.7579 19.6455 30.8497 19.6464C30.9661 19.6467 30.9661 19.6467 31.0848 19.6469C31.3216 19.6862 31.398 19.746 31.5391 19.9376C31.5762 20.1722 31.5762 20.1722 31.583 20.4521C31.5861 20.5522 31.5891 20.6523 31.5923 20.7554C31.5942 20.8599 31.5961 20.9644 31.5981 21.0721C31.6011 21.1776 31.604 21.2831 31.607 21.3918C31.6141 21.6527 31.6201 21.9134 31.625 22.1743C32.0223 21.884 32.406 21.5853 32.7741 21.2587C32.9389 21.1127 33.1063 20.9702 33.2739 20.8275C33.4771 20.653 33.6663 20.4751 33.8486 20.279C34.6474 19.5061 35.5021 19.5918 36.5624 19.6073C37.0866 19.6087 37.612 19.5672 38.0341 19.2257C38.5476 18.668 38.5253 17.9875 38.5236 17.2766C38.524 17.1837 38.5245 17.0909 38.5249 16.9953C38.5261 16.6895 38.526 16.3837 38.5258 16.0779C38.5262 15.8646 38.5266 15.6513 38.527 15.438C38.5276 14.9912 38.5276 14.5445 38.5271 14.0977C38.5266 13.5262 38.5281 12.9548 38.5301 12.3833C38.5313 11.9428 38.5314 11.5024 38.5312 11.0619C38.5312 10.8513 38.5316 10.6406 38.5325 10.43C38.5336 10.1349 38.533 9.83997 38.532 9.54495C38.5327 9.45859 38.5333 9.37222 38.534 9.28324C38.5299 8.72634 38.4951 8.12338 38.1326 7.67123C37.6486 7.22825 37.0586 7.18001 36.4315 7.18331C36.3641 7.18298 36.2968 7.18265 36.2274 7.18231C36.003 7.18143 35.7787 7.18176 35.5543 7.18211C35.3929 7.18173 35.2315 7.18129 35.0702 7.18077C34.6326 7.17962 34.1952 7.17957 33.7576 7.17979C33.392 7.17988 33.0264 7.17946 32.6608 7.17905C31.7981 7.17809 30.9353 7.17806 30.0725 7.17858C29.1834 7.1791 28.2942 7.17804 27.405 7.1762C26.6408 7.17469 25.8766 7.17417 25.1123 7.17445C24.6563 7.17461 24.2002 7.17438 23.7441 7.17319C23.3151 7.1721 22.8861 7.17227 22.4571 7.1734C22.3 7.1736 22.1429 7.17336 21.9858 7.17265C20.6895 7.11278 20.6895 7.11278 19.5991 7.70038Z" fill="#20376D"/>
<path d="M6.43556 24.3859C6.49539 24.3853 6.55523 24.3848 6.61688 24.3842C6.81471 24.3825 7.01252 24.3822 7.21036 24.382C7.34789 24.3815 7.48542 24.3809 7.62296 24.3803C7.91127 24.3792 8.19958 24.3789 8.4879 24.379C8.85733 24.379 9.22671 24.3767 9.59613 24.3737C9.88019 24.3718 10.1642 24.3715 10.4483 24.3716C10.5845 24.3714 10.7207 24.3706 10.8569 24.3693C11.0474 24.3676 11.2378 24.3681 11.4283 24.3691C11.5367 24.3689 11.6451 24.3686 11.7567 24.3684C12.0312 24.4109 12.0312 24.4109 12.2408 24.5641C12.375 24.755 12.375 24.755 12.375 25.0991C12.4675 25.0978 12.5601 25.0964 12.6554 25.095C16.1157 25.0489 16.1157 25.0489 17.4453 25.3572C17.5432 25.3787 17.5432 25.3787 17.6432 25.4005C18.9406 25.6901 20.2084 26.1409 21.4038 26.7229C22.2384 27.1122 23.1518 27.1016 24.0562 27.0987C24.2508 27.0982 24.4453 27.099 24.6398 27.1002C25.1921 27.1033 25.7444 27.105 26.2967 27.104C26.6367 27.1035 26.9766 27.1051 27.3166 27.1079C27.4449 27.1086 27.5733 27.1085 27.7016 27.1076C28.5519 27.1017 29.2683 27.1614 29.9175 27.7638C30.3601 28.2297 30.6085 28.6816 30.5995 29.3339C30.5982 29.4494 30.5982 29.4494 30.597 29.5673C30.5959 29.6258 30.5948 29.6843 30.5937 29.7445C30.6519 29.7182 30.71 29.6919 30.7699 29.6648C31.9056 29.152 33.0441 28.6507 34.1978 28.1799C34.2964 28.1396 34.395 28.0992 34.4966 28.0577C35.3602 27.708 36.117 27.5016 37.0253 27.8496C37.7115 28.1763 38.0786 28.6393 38.4141 29.3144C38.6154 29.9191 38.6078 30.7914 38.3603 31.3844C38.2623 31.5615 38.2623 31.5615 38.1562 31.7231C38.1091 31.8018 38.1091 31.8018 38.0609 31.8821C37.3278 32.9127 35.5025 33.2965 34.3804 33.7125C34.0783 33.8254 33.7763 33.9385 33.4743 34.0516C33.2649 34.13 33.0556 34.2083 32.8462 34.2866C31.5746 34.7623 30.3072 35.249 29.0396 35.7353C28.4122 35.976 27.7845 36.216 27.1562 36.4546C27.0772 36.4846 26.9982 36.5146 26.9167 36.5456C26.6957 36.6292 26.4745 36.7123 26.2532 36.795C26.1904 36.8188 26.1275 36.8426 26.0628 36.8672C22.5469 38.1717 19.1141 37.3956 15.791 35.9976C15.641 35.9349 15.4909 35.8722 15.3408 35.8096C14.3512 35.3961 13.3631 34.979 12.375 34.562C12.3821 34.6401 12.3892 34.7181 12.3965 34.7986C12.375 35.0782 12.375 35.0782 12.2394 35.2649C11.9589 35.477 11.7794 35.4659 11.4297 35.4668C11.3399 35.4677 11.3399 35.4677 11.2483 35.4686C11.0509 35.4701 10.8536 35.4691 10.6562 35.468C10.5188 35.4682 10.3814 35.4685 10.244 35.469C9.9562 35.4695 9.66843 35.4687 9.38061 35.4671C9.01185 35.4652 8.64318 35.4663 8.27442 35.4684C7.99073 35.4696 7.70705 35.4692 7.42335 35.4683C7.2874 35.4681 7.15144 35.4684 7.01549 35.4692C6.82538 35.47 6.63541 35.4687 6.44531 35.4668C6.33719 35.4665 6.22907 35.4662 6.11768 35.466C5.84375 35.4223 5.84375 35.4223 5.63428 35.2689C5.5 35.0782 5.5 35.0782 5.5 34.7341C4.5925 34.7341 3.685 34.7341 2.75 34.7341C2.75 34.2798 2.75 33.8256 2.75 33.3576C3.6575 33.3576 4.565 33.3576 5.5 33.3576C5.5 31.0865 5.5 28.8155 5.5 26.4755C4.5925 26.4755 3.685 26.4755 2.75 26.4755C2.75 26.0213 2.75 25.5671 2.75 25.0991C3.6575 25.0991 4.565 25.0991 5.5 25.0991C5.52836 24.9288 5.55672 24.7585 5.58594 24.583C5.90181 24.3722 6.05866 24.3882 6.43556 24.3859ZM6.875 25.7873C6.875 28.5126 6.875 31.238 6.875 34.0459C8.23625 34.0459 9.5975 34.0459 11 34.0459C11 31.3205 11 28.5952 11 25.7873C9.63875 25.7873 8.2775 25.7873 6.875 25.7873ZM12.375 26.4755C12.375 28.6047 12.375 30.7338 12.375 32.9275C13.0508 33.2397 13.7216 33.5468 14.4086 33.8304C14.4909 33.8646 14.5732 33.8987 14.658 33.9338C14.8305 34.0053 15.0031 34.0766 15.1757 34.1479C15.4344 34.2546 15.6928 34.362 15.9511 34.4694C19.2569 35.8389 22.2024 36.6585 25.694 35.4182C25.7674 35.3923 25.8409 35.3664 25.9166 35.3396C26.8893 34.9933 27.8522 34.6209 28.8159 34.2502C29.0204 34.1717 29.2249 34.0932 29.4294 34.0148C29.7479 33.8926 30.0664 33.7705 30.3849 33.6482C31.1036 33.3723 31.8228 33.0978 32.5423 32.8241C32.9215 32.6798 33.3006 32.5354 33.6798 32.391C33.888 32.3118 34.0963 32.2326 34.3046 32.1535C34.5951 32.0432 34.8854 31.9326 35.1756 31.8219C35.3042 31.7733 35.3042 31.7733 35.4354 31.7236C36.3851 31.4016 36.3851 31.4016 37.0391 30.6908C37.1111 30.3334 37.1231 29.9981 36.9568 29.6666C36.7419 29.3879 36.5222 29.2141 36.1797 29.1424C35.5677 29.1638 35.0784 29.3839 34.5249 29.6343C34.3028 29.7347 34.0797 29.8329 33.8567 29.9313C33.7362 29.9844 33.6158 30.0376 33.4954 30.0909C32.7933 30.4014 32.0873 30.7028 31.3803 31.002C31.1665 31.0926 30.9529 31.1839 30.7394 31.2752C30.606 31.3317 30.4727 31.3882 30.3393 31.4446C30.2796 31.4702 30.2199 31.4959 30.1584 31.5224C30.1013 31.5463 30.0442 31.5703 29.9853 31.595C29.9366 31.6157 29.8879 31.6364 29.8377 31.6577C29.2317 31.8672 28.6916 31.9212 28.0546 31.9226C27.9224 31.9239 27.9224 31.9239 27.7876 31.9252C27.4983 31.9279 27.2091 31.9294 26.9199 31.9308C26.7186 31.9324 26.5173 31.9341 26.3159 31.9359C25.7876 31.9403 25.2592 31.9437 24.7308 31.9469C24.191 31.9503 23.6513 31.9547 23.1115 31.959C22.0535 31.9674 20.9955 31.9746 19.9375 31.9812C19.9375 31.527 19.9375 31.0728 19.9375 30.6048C20.0384 30.6052 20.1394 30.6056 20.2434 30.606C21.1955 30.6094 22.1476 30.612 23.0997 30.6137C23.5892 30.6146 24.0786 30.6158 24.5681 30.6178C25.0406 30.6197 25.5131 30.6207 25.9857 30.6211C26.1658 30.6214 26.3459 30.6221 26.526 30.623C26.7786 30.6242 27.0312 30.6244 27.2838 30.6243C27.3951 30.6253 27.3951 30.6253 27.5086 30.6262C28.0681 30.6243 28.5222 30.5946 28.9556 30.2069C29.1409 29.9034 29.1984 29.7444 29.1744 29.3971C29.0982 29.088 28.9333 28.9226 28.7031 28.7122C28.3181 28.5502 27.989 28.519 27.5735 28.5196C27.4847 28.5193 27.4847 28.5193 27.3942 28.519C27.2663 28.5187 27.1384 28.5188 27.0106 28.5192C26.8069 28.5197 26.6033 28.5189 26.3997 28.5177C25.8209 28.5145 25.2421 28.5129 24.6633 28.5139C24.3083 28.5144 23.9533 28.5128 23.5983 28.5099C23.4644 28.5093 23.3304 28.5094 23.1964 28.5103C22.0015 28.5182 21.0431 28.2402 19.959 27.7283C18.467 27.0508 16.9143 26.6854 15.2861 26.5454C15.2038 26.5382 15.1215 26.531 15.0367 26.5235C14.1446 26.4559 13.2777 26.4755 12.375 26.4755Z" fill="#20376D"/>
<path d="M32.3125 3.07706C33.1306 3.06729 33.9487 3.05942 34.7668 3.05478C35.1468 3.05255 35.5268 3.04953 35.9068 3.04462C36.2746 3.03989 36.6423 3.03736 37.0101 3.03625C37.1494 3.03547 37.2886 3.03394 37.4279 3.03159C38.756 3.0101 39.8467 3.24737 40.9063 4.10938C40.9778 4.16327 41.0494 4.21717 41.1231 4.27269C41.8884 4.92282 42.4265 5.96807 42.625 6.94825C42.6471 7.23788 42.6451 7.5259 42.6418 7.81624C42.6415 7.89749 42.6413 7.97875 42.641 8.06246C42.6401 8.32014 42.6379 8.57778 42.6357 8.83545C42.6349 9.01092 42.6341 9.18639 42.6334 9.36185C42.6315 9.79037 42.6285 10.2189 42.625 10.6474C42.1713 10.6474 41.7175 10.6474 41.25 10.6474C41.2458 10.4606 41.2416 10.2739 41.2372 10.0815C41.2326 9.89697 41.2277 9.71245 41.2227 9.52794C41.2195 9.40149 41.2165 9.27502 41.2137 9.14855C41.1838 7.77451 41.1135 6.52511 40.1345 5.47034C39.0969 4.53413 37.8636 4.52847 36.5422 4.51229C36.4199 4.51052 36.2976 4.50871 36.1753 4.50687C35.8554 4.50216 35.5356 4.49789 35.2157 4.49373C34.8885 4.48938 34.5612 4.4846 34.234 4.47986C33.5935 4.47065 32.953 4.46195 32.3125 4.45348C32.3125 3.99927 32.3125 3.54505 32.3125 3.07706Z" fill="#20376D"/>
<path d="M35.7409 8.81899C36.3845 9.20146 36.8424 9.74453 37.0945 10.4602C37.2442 11.3759 37.1889 12.2704 36.6678 13.0544C36.232 13.6123 35.7561 13.8864 35.0625 14.0021C35.0625 14.4847 35.0625 14.9673 35.0625 15.4645C34.6088 15.4645 34.155 15.4645 33.6875 15.4645C33.6782 15.0702 33.6714 14.6761 33.666 14.2817C33.6617 14.1137 33.6617 14.1137 33.6573 13.9423C33.6562 13.8347 33.6551 13.7271 33.6539 13.6163C33.6521 13.5172 33.6503 13.4181 33.6485 13.316C33.6958 13.0002 33.782 12.9041 34.0313 12.7117C34.2565 12.6337 34.2565 12.6337 34.4985 12.5826C34.8768 12.4892 35.1326 12.4012 35.4063 12.1095C35.6384 11.7233 35.6342 11.3441 35.5781 10.9051C35.3922 10.5261 35.2003 10.2858 34.8047 10.1309C34.3713 10.072 34.0458 10.0815 33.6499 10.2761C33.2802 10.61 33.1842 10.8437 33.0859 11.3353C32.6038 11.3353 32.1217 11.3353 31.625 11.3353C31.625 10.5161 31.7729 9.92199 32.338 9.31633C33.2479 8.49743 34.629 8.28202 35.7409 8.81899Z" fill="#20376D"/>
<path d="M11 3.07715C15.0838 3.07715 19.1675 3.07715 23.375 3.07715C23.375 3.53137 23.375 3.98559 23.375 4.45357C19.2912 4.45357 15.2075 4.45357 11 4.45357C11 3.99935 11 3.54513 11 3.07715Z" fill="#20376D"/>
<path d="M1.375 3.07715C1.82875 3.07715 2.2825 3.07715 2.75 3.07715C2.75 6.48379 2.75 9.89043 2.75 13.4003C2.29625 13.4003 1.8425 13.4003 1.375 13.4003C1.375 9.99366 1.375 6.58702 1.375 3.07715Z" fill="#20376D"/>
<path d="M20.625 14.0879C23.8012 14.0879 26.9775 14.0879 30.25 14.0879C30.25 14.5421 30.25 14.9963 30.25 15.4643C27.0738 15.4643 23.8975 15.4643 20.625 15.4643C20.625 15.0101 20.625 14.5559 20.625 14.0879Z" fill="#20376D"/>
<path d="M20.625 11.335C23.8012 11.335 26.9775 11.335 30.25 11.335C30.25 11.7892 30.25 12.2434 30.25 12.7114C27.0738 12.7114 23.8975 12.7114 20.625 12.7114C20.625 12.2572 20.625 11.8029 20.625 11.335Z" fill="#20376D"/>
<path d="M6.875 11.335C10.0512 11.335 13.2275 11.335 16.5 11.335C16.5 11.7892 16.5 12.2434 16.5 12.7114C13.3238 12.7114 10.1475 12.7114 6.875 12.7114C6.875 12.2572 6.875 11.8029 6.875 11.335Z" fill="#20376D"/>
<path d="M6.875 8.58203C10.0512 8.58203 13.2275 8.58203 16.5 8.58203C16.5 9.03625 16.5 9.49047 16.5 9.95845C13.3238 9.95845 10.1475 9.95845 6.875 9.95845C6.875 9.50423 6.875 9.05001 6.875 8.58203Z" fill="#20376D"/>
<path d="M6.875 5.8291C10.0512 5.8291 13.2275 5.8291 16.5 5.8291C16.5 6.28332 16.5 6.73754 16.5 7.20552C13.3238 7.20552 10.1475 7.20552 6.875 7.20552C6.875 6.7513 6.875 6.29708 6.875 5.8291Z" fill="#20376D"/>
<path d="M20.625 16.8408C23.1206 16.8408 25.6162 16.8408 28.1875 16.8408C28.1875 17.295 28.1875 17.7493 28.1875 18.2172C25.6919 18.2172 23.1963 18.2172 20.625 18.2172C20.625 17.763 20.625 17.3088 20.625 16.8408Z" fill="#20376D"/>
<path d="M24.75 8.58203C26.565 8.58203 28.38 8.58203 30.25 8.58203C30.25 9.03625 30.25 9.49047 30.25 9.95845C28.435 9.95845 26.62 9.95845 24.75 9.95845C24.75 9.50423 24.75 9.05001 24.75 8.58203Z" fill="#20376D"/>
<path d="M8.25 31.293C8.70375 31.293 9.1575 31.293 9.625 31.293C9.625 31.7472 9.625 32.2014 9.625 32.6694C9.17125 32.6694 8.7175 32.6694 8.25 32.6694C8.25 32.2152 8.25 31.761 8.25 31.293Z" fill="#20376D"/>
<path d="M33.6875 16.8408C34.1413 16.8408 34.595 16.8408 35.0625 16.8408C35.0625 17.295 35.0625 17.7493 35.0625 18.2172C34.6087 18.2172 34.155 18.2172 33.6875 18.2172C33.6875 17.763 33.6875 17.3088 33.6875 16.8408Z" fill="#20376D"/>
<path d="M22 8.58203C22.4538 8.58203 22.9075 8.58203 23.375 8.58203C23.375 9.03625 23.375 9.49047 23.375 9.95845C22.9212 9.95845 22.4675 9.95845 22 9.95845C22 9.50423 22 9.05001 22 8.58203Z" fill="#20376D"/>
<path d="M29.5625 3.07715C30.0163 3.07715 30.47 3.07715 30.9375 3.07715C30.9375 3.53137 30.9375 3.98559 30.9375 4.45357C30.4837 4.45357 30.03 4.45357 29.5625 4.45357C29.5625 3.99935 29.5625 3.54513 29.5625 3.07715Z" fill="#20376D"/>
<path d="M8.25 3.07715C8.70375 3.07715 9.1575 3.07715 9.625 3.07715C9.625 3.53137 9.625 3.98559 9.625 4.45357C9.17125 4.45357 8.7175 4.45357 8.25 4.45357C8.25 3.99935 8.25 3.54513 8.25 3.07715Z" fill="#20376D"/>
</svg>
