<svg width="23" height="26" viewBox="0 0 23 26" fill="none" xmlns="http://www.w3.org/2000/svg">
<path d="M16.2268 21.6044L14.0505 19.5L12.8657 20.6456L16.2268 23.8956L22.9491 17.3956L21.7643 16.25L16.2268 21.6044Z" fill="#2C95D2"/>
<path d="M11.1852 14.625C12.1133 14.625 12.8657 13.8975 12.8657 13C12.8657 12.1025 12.1133 11.375 11.1852 11.375C10.257 11.375 9.50464 12.1025 9.50464 13C9.50464 13.8975 10.257 14.625 11.1852 14.625Z" fill="#2C95D2"/>
<path d="M11.1852 17.875C10.1881 17.875 9.21332 17.5891 8.38422 17.0534C7.55513 16.5177 6.90892 15.7564 6.52733 14.8656C6.14574 13.9748 6.0459 12.9946 6.24043 12.0489C6.43496 11.1033 6.91514 10.2346 7.62023 9.55286C8.32532 8.87108 9.22366 8.40678 10.2016 8.21867C11.1796 8.03057 12.1933 8.12711 13.1146 8.49609C14.0358 8.86507 14.8232 9.48991 15.3772 10.2916C15.9312 11.0933 16.2269 12.0358 16.2269 13C16.2253 14.2925 15.6937 15.5316 14.7485 16.4455C13.8033 17.3594 12.5219 17.8735 11.1852 17.875ZM11.1852 9.75C10.5205 9.75 9.87062 9.94061 9.31789 10.2977C8.76516 10.6548 8.33436 11.1624 8.07996 11.7563C7.82557 12.3501 7.75901 13.0036 7.88869 13.634C8.01838 14.2645 8.3385 14.8436 8.80856 15.2981C9.27862 15.7526 9.87751 16.0622 10.5295 16.1876C11.1815 16.313 11.8573 16.2486 12.4715 16.0026C13.0856 15.7566 13.6106 15.3401 13.9799 14.8056C14.3492 14.2711 14.5463 13.6428 14.5463 13C14.5452 12.1384 14.1907 11.3124 13.5607 10.7031C12.9306 10.0938 12.0763 9.75108 11.1852 9.75Z" fill="#20376D" stroke="#20376D" stroke-width="0.7"/>
<path d="M21.2685 13C21.2685 11.0716 20.6771 9.18657 19.5691 7.58319C18.4612 5.97982 16.8864 4.73013 15.0439 3.99218C13.2014 3.25422 11.174 3.06114 9.21798 3.43735C7.26201 3.81355 5.46533 4.74215 4.05515 6.10571C2.64497 7.46927 1.68463 9.20656 1.29556 11.0979C0.906492 12.9892 1.10618 14.9496 1.86936 16.7312C2.63254 18.5127 3.92495 20.0355 5.58315 21.1068C7.24134 22.1782 9.19085 22.75 11.1851 22.75V21.125C9.52323 21.125 7.89864 20.6485 6.51681 19.7557C5.13498 18.8629 4.05798 17.594 3.42199 16.1093C2.786 14.6247 2.6196 12.991 2.94382 11.4149C3.26805 9.8388 4.06833 8.39106 5.24348 7.25476C6.41863 6.11846 7.91586 5.34463 9.54584 5.03112C11.1758 4.71762 12.8653 4.87852 14.4007 5.49348C15.9362 6.10845 17.2485 7.14985 18.1718 8.486C19.0951 9.82215 19.5879 11.393 19.5879 13H21.2685Z" fill="#20376D" stroke="#20376D" stroke-width="0.7"/>
</svg>
