<svg width="29" height="29" viewBox="0 0 29 29" fill="none" xmlns="http://www.w3.org/2000/svg">
<path d="M22.1135 11.4842C22.2222 11.5205 22.2645 11.6401 22.2971 11.7585C22.8614 13.658 22.8614 15.282 22.2971 17.196C22.2512 17.3603 22.1848 17.451 22.0978 17.486C21.9709 17.5247 21.8343 17.4341 21.7183 17.3495L18.0196 14.8398C17.877 14.7455 17.7937 14.615 17.7937 14.4773C17.7937 14.3419 17.8746 14.2126 18.0196 14.1148L21.7171 11.6075C21.8863 11.4866 22.0156 11.4492 22.1135 11.4842ZM20.7577 19.8556C19.3875 21.2995 17.9834 22.1115 16.0537 22.5743C15.8901 22.6138 15.7745 22.6037 15.7069 22.5441C15.6054 22.4595 15.6187 22.2903 15.6283 22.1441L15.9485 17.6866C15.9691 17.5126 16.0368 17.3821 16.16 17.3084C16.2772 17.2444 16.4295 17.2504 16.5793 17.3229L20.603 19.2695C20.7891 19.3613 20.8894 19.4532 20.9088 19.5547C20.9293 19.6659 20.8483 19.7637 20.7577 19.8568V19.8556ZM14.5022 17.0438C13.8098 17.0434 13.1459 16.7684 12.6561 16.2791C12.1663 15.7898 11.8907 15.1261 11.8898 14.4338C11.8898 13.5541 12.3284 12.7385 13.0643 12.2527C13.122 12.2146 13.1867 12.1883 13.2546 12.1752C13.3226 12.1621 13.3924 12.1626 13.4602 12.1765C13.528 12.1904 13.5923 12.2175 13.6496 12.2563C13.7069 12.2951 13.756 12.3448 13.7941 12.4026C13.8322 12.4603 13.8585 12.525 13.8716 12.593C13.8847 12.6609 13.8842 12.7307 13.8703 12.7985C13.8564 12.8663 13.8293 12.9306 13.7905 12.9879C13.7517 13.0452 13.702 13.0943 13.6443 13.1324C13.3656 13.3172 13.1538 13.5867 13.0401 13.9011C12.9264 14.2155 12.9167 14.5581 13.0126 14.8784C13.1085 15.1987 13.3048 15.4797 13.5726 15.6798C13.8404 15.88 14.1654 15.9888 14.4998 15.9901C14.8345 15.9894 15.1602 15.881 15.4286 15.6809C15.6969 15.4807 15.8937 15.1995 15.9898 14.8788C16.0859 14.5581 16.0762 14.215 15.9621 13.9003C15.8481 13.5855 15.6357 13.3158 15.3565 13.1312C15.2467 13.0511 15.172 12.9318 15.1479 12.798C15.1239 12.6642 15.1523 12.5264 15.2273 12.413C15.3024 12.2997 15.4182 12.2197 15.5507 12.1896C15.6833 12.1595 15.8223 12.1817 15.9389 12.2515C16.4075 12.561 16.7639 13.0133 16.9552 13.5413C17.1465 14.0693 17.1626 14.6449 17.0011 15.1827C16.8396 15.7206 16.509 16.1921 16.0585 16.5273C15.6079 16.8625 15.0613 17.0436 14.4998 17.0438H14.5022ZM13.3543 22.6093C13.266 22.6818 13.144 22.6577 13.022 22.6287C11.1007 22.1695 9.69059 21.3575 8.3155 19.9099C8.21723 19.8052 8.16809 19.7126 8.16809 19.632C8.16809 19.6163 8.16809 19.6078 8.1705 19.5909C8.18863 19.4653 8.3445 19.3903 8.47259 19.3275L12.4963 17.3761C12.6534 17.3036 12.8045 17.2987 12.9229 17.3688C13.0389 17.4377 13.1126 17.5694 13.1247 17.7373L13.4509 22.2033C13.463 22.4148 13.4328 22.5441 13.3543 22.6093ZM7.29084 17.3773C7.11563 17.4981 6.98875 17.5404 6.88846 17.5054C6.77971 17.4667 6.74346 17.3483 6.70721 17.2274C6.1393 15.3316 6.1393 13.7051 6.70117 11.7899C6.7495 11.6268 6.81838 11.5362 6.90659 11.5036C7.03346 11.4589 7.1688 11.5519 7.28963 11.6365L10.9859 14.1498C11.1249 14.2416 11.207 14.3697 11.207 14.5099C11.207 14.6452 11.1249 14.7733 10.9895 14.8724L7.29084 17.3773ZM8.24542 9.12193C9.6205 7.67677 11.0294 6.86235 12.9507 6.40318C13.0703 6.37539 13.196 6.35243 13.2805 6.42735C13.3615 6.49139 13.3917 6.6231 13.376 6.83698L13.0498 11.2897C13.0401 11.4613 12.97 11.5966 12.8492 11.6631C12.732 11.7331 12.5785 11.7295 12.4263 11.6546L8.40855 9.70677C8.27805 9.64152 8.12459 9.57385 8.098 9.44093C8.08592 9.35031 8.12942 9.24277 8.24542 9.12193ZM15.7093 6.3911C15.8023 6.31739 15.9232 6.34035 16.044 6.36573C17.9653 6.83093 19.3742 7.64293 20.7505 9.0881C20.8495 9.19202 20.8999 9.28707 20.9015 9.37327L20.8991 9.4071C20.8689 9.53881 20.7227 9.60768 20.591 9.67172L16.5696 11.6171C16.4113 11.6933 16.2627 11.7005 16.1467 11.6292C16.0295 11.5603 15.9558 11.4286 15.9413 11.2546L15.6187 6.80193C15.6042 6.58927 15.6332 6.45756 15.7093 6.3911ZM14.5058 4.8541C9.23746 4.8541 4.9503 9.14368 4.9503 14.4132C4.9503 19.684 9.23746 23.9711 14.5058 23.9711C19.7765 23.9711 24.0661 19.684 24.0661 14.4132C24.0661 9.14368 19.7765 4.8541 14.5058 4.8541ZM14.5058 25.2798C8.51851 25.2798 3.64288 20.4053 3.64288 14.412C3.64288 8.4211 8.51851 3.5491 14.5058 3.5491C20.4991 3.5491 25.3723 8.4211 25.3723 14.412C25.3723 20.4053 20.4991 25.2798 14.5058 25.2798ZM28.9732 14.0483L28.9708 14.0084L28.9393 13.9903C28.3255 13.6181 27.5183 13.4067 26.7281 13.3898C26.6844 13.0739 26.643 12.7577 26.6036 12.4412C27.3564 12.2286 28.0802 11.8189 28.5853 11.2933L28.6131 11.2691L28.6058 11.2305C28.5584 10.9193 28.4774 10.6143 28.3642 10.3206L28.3485 10.2843L28.3098 10.2747C27.6162 10.0765 26.7861 10.0814 26.0224 10.2747C25.9049 9.98276 25.7857 9.69155 25.6648 9.40106C26.3354 8.99023 26.925 8.41023 27.2791 7.78189L27.2984 7.75168L27.2839 7.71181C27.1537 7.42566 26.9959 7.15289 26.8127 6.89739L26.7933 6.86839H26.751C26.0381 6.85268 25.2406 7.07018 24.5362 7.44839C24.4733 7.36381 24.0166 6.7681 23.9538 6.68593C24.5023 6.12043 24.9204 5.40268 25.0993 4.70427L25.1089 4.66318L25.0823 4.63418C24.8874 4.38703 24.6662 4.16176 24.4226 3.96235L24.3924 3.93939L24.3537 3.94664C23.6505 4.12427 22.94 4.54477 22.372 5.08852L21.606 4.48798C21.9842 3.81977 22.2065 3.04764 22.2065 2.33714L22.2017 2.24048L22.1715 2.21631C21.9192 2.02755 21.6454 1.86937 21.3558 1.74506L21.3196 1.73298L21.2894 1.74748C20.6586 2.09789 20.081 2.68393 19.6763 3.35456C19.3694 3.22873 19.0633 3.10105 18.7579 2.97152C18.8522 2.59331 18.9114 2.20423 18.9114 1.81393C18.9156 1.43298 18.8635 1.05349 18.7567 0.687768L18.7483 0.651518L18.7084 0.63581C18.4187 0.519301 18.1167 0.436195 17.8082 0.388101L17.7671 0.384476L17.7417 0.41106C17.2221 0.916143 16.8125 1.63631 16.5962 2.39031C16.2744 2.34606 15.9522 2.30497 15.6295 2.26706C15.6199 1.48527 15.4084 0.684143 15.0363 0.0618514L15.0169 0.0256014H14.9783C14.665 -0.00853379 14.349 -0.00853379 14.0358 0.0256014H13.9947L13.9765 0.0618514C13.6068 0.678101 13.399 1.47923 13.3845 2.26585C13.2757 2.28035 12.5181 2.37218 12.4081 2.39031C12.1906 1.63148 11.7798 0.908893 11.2626 0.406226L11.2336 0.376018L11.1913 0.383268C10.9134 0.424351 10.5268 0.528268 10.2851 0.624935L10.2488 0.640643L10.2368 0.676893C10.1365 1.0488 10.0861 1.43238 10.0869 1.81756C10.0869 2.19939 10.1473 2.59089 10.2368 2.96548C10.1425 3.00656 9.41146 3.31952 9.31359 3.35939C8.90638 2.68877 8.32638 2.09789 7.69805 1.74385L7.66421 1.72331L7.62555 1.7366C7.38388 1.84293 7.03346 2.04473 6.81355 2.21148L6.77971 2.23202V2.33593C6.77971 3.04039 6.99721 3.81493 7.3718 4.48798C7.29084 4.55564 6.74346 4.98339 6.66009 5.04985C6.0958 4.5061 5.38167 4.08439 4.676 3.90314L4.64096 3.89468L4.61438 3.92127C4.39688 4.08318 4.10688 4.36835 3.94134 4.58223L3.91717 4.61364L3.92563 4.65231C4.10205 5.35314 4.52255 6.06606 5.0663 6.63881C5.00588 6.72218 4.5298 7.34327 4.46213 7.42906C3.78063 7.04843 2.98434 6.82127 2.25692 6.83214L2.22067 6.83456L2.1965 6.86718C2.01072 7.12165 1.85235 7.39505 1.72405 7.68281L1.70834 7.71664L1.72888 7.75168C2.07688 8.3776 2.66896 8.96364 3.342 9.37327C3.30575 9.46993 3.02905 10.143 2.98675 10.2409C2.211 10.0475 1.38571 10.0475 0.695754 10.2481L0.658296 10.2578L0.645004 10.2904C0.543504 10.5321 0.438379 10.9139 0.397296 11.2015L0.392462 11.2401L0.419046 11.2703C0.922921 11.7887 1.6455 12.1984 2.40071 12.4062L2.27384 13.362C1.48963 13.3777 0.681254 13.5843 0.065004 13.9553L0.0311707 13.9734L0.0263374 14.0145C-0.00877912 14.3277 -0.00877912 14.6438 0.0263374 14.957L0.0311707 14.9944L0.065004 15.0126C0.681254 15.3823 1.48238 15.5926 2.27263 15.6046C2.28713 15.7134 2.39346 16.4795 2.40555 16.5846C1.65034 16.8069 0.931379 17.2202 0.428712 17.7373L0.400921 17.77L0.405754 17.8062C0.449254 18.089 0.553171 18.4781 0.651046 18.7125L0.666754 18.7487L0.701796 18.7608C1.40142 18.959 2.22792 18.9505 2.99521 18.7608C3.03388 18.8575 3.33113 19.5353 3.37221 19.6332C2.70159 20.0356 2.11192 20.618 1.75667 21.2463L1.73975 21.2826L1.75184 21.3188C1.85575 21.5666 2.06117 21.9158 2.2255 22.1321L2.25088 22.1647L2.28471 22.1671C3.0073 22.1768 3.8048 21.9617 4.49596 21.5798C4.56 21.662 5.02763 22.2686 5.08805 22.3532C4.54671 22.909 4.1238 23.6219 3.94496 24.3312L3.9353 24.3675L3.95946 24.4001C4.125 24.6116 4.41017 24.8955 4.62405 25.0683L4.65425 25.0949L4.6905 25.0828C5.39134 24.9076 6.10425 24.4907 6.67338 23.9433L7.45517 24.5427C7.083 25.2266 6.8643 26.0048 6.8643 26.7153V26.795L6.90055 26.8192C7.1108 26.9811 7.45638 27.1781 7.71134 27.2904L7.74759 27.3049L7.78384 27.2868C8.4158 26.9364 8.997 26.3443 9.40542 25.6652L10.2633 26.012C10.1661 26.3849 10.1161 26.7685 10.1147 27.1539C10.1147 27.5526 10.1667 27.9429 10.267 28.2934L10.2766 28.3296L10.3153 28.3465C10.5545 28.448 10.9376 28.5519 11.2215 28.5978L11.2626 28.6039L11.2892 28.5725C11.8112 28.065 12.2196 27.3424 12.4238 26.5944C12.5326 26.6126 13.2987 26.7201 13.405 26.7322C13.4207 27.52 13.6322 28.3236 14.0019 28.935L14.0176 28.9688L14.0599 28.9748C14.3318 29.0087 14.7366 29.0087 15.0024 28.9748L15.0387 28.9688L15.0604 28.935C15.4265 28.3236 15.638 27.5188 15.6573 26.7273C15.7637 26.7116 16.479 26.6126 16.5878 26.5944C16.798 27.3557 17.2088 28.0686 17.7308 28.5785L17.7586 28.6027L17.7949 28.6015C18.0788 28.5556 18.4655 28.4553 18.706 28.3574L18.7398 28.3405L18.7531 28.3042C18.8534 27.9514 18.9005 27.5635 18.9005 27.1648C18.9005 26.7805 18.8461 26.3866 18.7531 26.0084C18.851 25.9721 19.5445 25.6701 19.6424 25.6278C20.0533 26.3008 20.6333 26.8917 21.2592 27.2469L21.2906 27.2614L21.3268 27.2493C21.577 27.1454 21.931 26.9424 22.1461 26.7733L22.1775 26.7539V26.6488C22.1775 25.9528 21.96 25.1783 21.5939 24.498L22.331 23.9228C22.9037 24.4666 23.6166 24.8834 24.3163 25.0647L24.3549 25.0756L24.3827 25.0502C24.5966 24.881 24.8866 24.5934 25.0533 24.3856L25.0799 24.3493L25.0654 24.3179C24.8926 23.6195 24.4758 22.9042 23.9296 22.3338C23.9936 22.2493 24.4552 21.6427 24.518 21.5569C25.2116 21.9375 26.0103 22.155 26.7269 22.1417H26.7655L26.7897 22.1115C26.9821 21.8594 27.1405 21.5832 27.261 21.2898L27.2779 21.2584L27.2585 21.2246C26.9166 20.6084 26.3305 20.0211 25.6587 19.5982L26.0128 18.7366C26.774 18.9324 27.6005 18.9384 28.2965 18.7366L28.3291 18.7246L28.3448 18.6907C28.4475 18.4454 28.5503 18.066 28.5938 17.7845L28.5986 17.7446L28.5696 17.7144C28.0657 17.1924 27.3468 16.7876 26.5988 16.5725C26.6157 16.4674 26.716 15.7508 26.7269 15.6421C27.5195 15.63 28.3267 15.4186 28.9418 15.05L28.9732 15.0283L28.9756 14.986C28.9937 14.8555 28.9998 14.6839 28.9998 14.5159C28.9998 14.3468 28.9937 14.18 28.9756 14.0483" fill="#20376D"/>
</svg>
