<svg width="28" height="26" viewBox="0 0 28 26" fill="none" xmlns="http://www.w3.org/2000/svg">
<path d="M12.7273 13.0001V8.954L9.12544 10.977L7.85271 8.83266L11.4545 6.80962L7.85271 4.78657L9.12544 2.64219L12.7273 4.66524V0.619141H15.2727V4.66524L18.8745 2.64219L20.1473 4.78657L16.5454 6.80962L20.1473 8.83266L18.8745 10.977L15.2727 8.954V13.0001H12.7273ZM26.04 14.7136L22.4382 16.7367V12.6906H19.8927V16.7367L16.2909 14.7136L15.0182 16.858L18.62 18.881L15.0182 20.9041L16.2909 23.0485L19.8927 21.0254V25.0715H22.4382V21.0254L26.04 23.0485L27.3127 20.9041L23.7109 18.881L27.3127 16.858L26.04 14.7136ZM8.10726 21.0254V25.0715H5.5618V21.0254L1.95998 23.0485L0.687256 20.9041L4.28907 18.881L0.687256 16.858L1.95998 14.7136L5.5618 16.7354V12.6906H8.10726V16.7367L11.7091 14.7124L12.9818 16.858L9.37998 18.881L12.9818 20.9041L11.7091 23.0485L8.10726 21.0254Z" fill="#20376D"/>
</svg>
