<svg width="23" height="23" viewBox="0 0 23 23" fill="none" xmlns="http://www.w3.org/2000/svg">
<path d="M0.71875 0.71875C2.875 5.03125 1.79688 6.10938 3.95312 8.26562C3.95312 8.26562 6.10938 8.26562 7.1875 7.1875C8.26562 6.10938 8.26562 3.95312 8.26562 3.95312C6.10938 1.79688 5.03125 2.875 0.71875 0.71875ZM7.1875 7.1875C6.08377 8.29123 5.40186 9.81588 5.40186 11.5C5.40186 13.1841 6.08377 14.7088 7.1875 15.8125C8.29123 16.9162 9.81588 17.5981 11.5 17.5981C13.1841 17.5981 14.7088 16.9162 15.8125 15.8125C16.9162 14.7088 17.5995 13.1841 17.5995 11.5C17.5995 9.81588 16.9162 8.29123 15.8125 7.1875C14.7088 6.08377 13.1841 5.40186 11.5 5.40186C9.81588 5.40186 8.29123 6.08377 7.1875 7.1875ZM15.8125 7.1875C16.8906 8.26562 19.0469 8.26562 19.0469 8.26562C21.2031 6.10938 20.125 5.03125 22.2812 0.71875C17.9688 2.875 16.8906 1.79688 14.7344 3.95312C14.7344 3.95312 14.7344 6.10938 15.8125 7.1875ZM15.8125 15.8125C14.7344 16.8906 14.7344 19.0469 14.7344 19.0469C16.8906 21.2031 17.9688 20.125 22.2812 22.2812C20.125 17.9688 21.2031 16.8906 19.0469 14.7344C19.0469 14.7344 16.8906 14.7344 15.8125 15.8125ZM7.1875 15.8125C6.10938 14.7344 3.95312 14.7344 3.95312 14.7344C1.79688 16.8906 2.875 17.9688 0.71875 22.2812C5.03125 20.125 6.10938 21.2031 8.26562 19.0469C8.26562 19.0469 8.26562 16.8906 7.1875 15.8125ZM9.97549 6.92637H13.0246V9.97544H16.0736V13.0245H13.0246V16.0736H9.97549V13.0245H6.92641V9.97544H9.97549V6.92637Z" fill="#20376D"/>
</svg>
