<svg width="46" height="48" viewBox="0 0 46 48" fill="none" xmlns="http://www.w3.org/2000/svg">
<path fill-rule="evenodd" clip-rule="evenodd" d="M29.2415 1.85057C29.2415 1.35977 29.4363 0.889067 29.7831 0.542018C30.1299 0.19497 30.6003 0 31.0908 0H37.1011C37.5915 0 38.0619 0.19497 38.4087 0.542018C38.7556 0.889067 38.9504 1.35977 38.9504 1.85057V7.05806H44.1507C44.6412 7.05806 45.1115 7.25303 45.4583 7.60008C45.8052 7.94713 46 8.41783 46 8.90863V14.923C46 15.4138 45.8052 15.8845 45.4583 16.2315C45.1115 16.5786 44.6412 16.7735 44.1507 16.7735H38.9504V21.9773C38.9504 22.4681 38.7556 22.9388 38.4087 23.2859C38.0619 23.6329 37.5915 23.8279 37.1011 23.8279H31.0908C30.6003 23.8279 30.1299 23.6329 29.7831 23.2859C29.4363 22.9388 29.2415 22.4681 29.2415 21.9773V16.7735H24.0412C23.5507 16.7735 23.0803 16.5786 22.7335 16.2315C22.3867 15.8845 22.1918 15.4138 22.1918 14.923V8.90863C22.1918 8.41783 22.3867 7.94713 22.7335 7.60008C23.0803 7.25303 23.5507 7.05806 24.0412 7.05806H29.2415V1.85057ZM6.8166 22.0921H0V36.8966L6.76112 43.6623C8.13504 45.0375 9.76627 46.1285 11.5616 46.8727C13.357 47.617 15.2813 48.0001 17.2246 48H38.8357C40.3071 48 41.7183 47.4151 42.7587 46.3739C43.7992 45.3328 44.3837 43.9207 44.3837 42.4483C44.3837 40.9759 43.7992 39.5638 42.7587 38.5227C41.7183 37.4815 40.3071 36.8966 38.8357 36.8966H28.5646C28.1801 38.1941 27.4652 39.3693 26.4901 40.307C25.5149 41.2448 24.313 41.9128 23.0022 42.2457C21.6913 42.5786 20.3165 42.5649 19.0125 42.2059C17.7085 41.8469 16.5201 41.155 15.5639 40.198L10.2009 34.8314C9.98617 34.6165 9.81587 34.3615 9.69968 34.0808C9.5835 33.8001 9.5237 33.4993 9.5237 33.1955C9.5237 32.8917 9.5835 32.5908 9.69968 32.3101C9.81587 32.0294 9.98617 31.7744 10.2009 31.5596C10.4155 31.3447 10.6704 31.1743 10.9509 31.0581C11.2314 30.9418 11.532 30.882 11.8357 30.882C12.1393 30.882 12.4399 30.9418 12.7204 31.0581C13.0009 31.1743 13.2558 31.3447 13.4705 31.5596L18.8335 36.9262C19.3984 37.4903 20.1545 37.8212 20.9519 37.8534C21.7493 37.8856 22.5297 37.6167 23.1382 37.1001C23.7467 36.5834 24.1388 35.8567 24.2369 35.0642C24.335 34.2717 24.1318 33.4712 23.6676 32.8217L17.2801 26.4298C15.9061 25.0545 14.2749 23.9636 12.4796 23.2193C10.6842 22.475 8.75991 22.092 6.8166 22.0921Z" fill="url(#paint0_linear_50_135)"/>
<defs>
<linearGradient id="paint0_linear_50_135" x1="0" y1="24" x2="46" y2="24" gradientUnits="userSpaceOnUse">
<stop stop-color="#72AA15"/>
<stop offset="1" stop-color="#5A8514"/>
</linearGradient>
</defs>
</svg>
