<svg width="29" height="29" viewBox="0 0 29 29" fill="none" xmlns="http://www.w3.org/2000/svg">
<path d="M20.8093 8.19727H8.19556V20.8097H20.808L20.8093 8.19727Z" fill="#20376D"/>
<path d="M25.8541 5.67434V3.1526H23.3323V0.630859H20.8093V3.1526H18.2876V0.630859H15.7646V3.1526H13.2429V0.630859H10.7186V3.1526H8.19685V0.630859H5.67385V3.1526H3.15211V5.67434H0.630371V8.19734H3.15211V10.7191H0.630371V13.2421H3.15211V15.7638H0.630371V18.2868H3.15211V20.8086H0.630371V23.3316H3.15211V25.8533H5.67385V28.3763H8.19685V25.8546H10.7186V28.3763H13.2416V25.8546H15.7633V28.3763H18.2863V25.8546H20.8081V28.3763H23.3311V25.8546H25.8528V23.3328H28.3758V20.8098H25.8541V18.2881H28.3758V15.7651H25.8541V13.2433H28.3758V10.7191H25.8541V8.19734H28.3758V5.67434H25.8541ZM23.3323 23.3316H5.67385V5.6756H23.3298L23.3323 23.3316Z" fill="#20376D"/>
</svg>
