<svg width="36" height="36" viewBox="0 0 36 36" fill="none" xmlns="http://www.w3.org/2000/svg">
<path d="M5.77509 0.00974372C5.88967 0.00930032 5.88967 0.00930032 6.00656 0.00884796C6.26087 0.00805472 6.51516 0.00835728 6.76947 0.00866488C6.95248 0.00832875 7.13549 0.00792817 7.3185 0.00746814C7.8145 0.00643502 8.31049 0.00638861 8.80649 0.00658442C9.27358 0.00667767 9.74067 0.00619706 10.2078 0.00577822C11.1895 0.00493891 12.1713 0.00510446 13.1531 0.00557615C14.0496 0.00597538 14.9462 0.00510619 15.8427 0.0036368C16.765 0.00213693 17.6873 0.00150192 18.6096 0.00179183C19.1267 0.0019317 19.6438 0.00173025 20.1609 0.000654828C20.6473 -0.000319064 21.1338 -0.000165018 21.6203 0.000841119C21.7983 0.00102347 21.9764 0.000814258 22.1545 0.000174805C23.7592 -0.00517036 25.1572 0.163511 26.3662 1.31421C27.4369 2.46224 27.6642 3.65338 27.6551 5.16079C27.655 5.28754 27.6549 5.41429 27.6549 5.54103C27.6547 5.81251 27.6541 6.08399 27.6532 6.35547C27.6518 6.78472 27.6521 7.21396 27.6527 7.64321C27.6542 8.8633 27.6547 10.0834 27.651 11.3035C27.6489 11.9784 27.6488 12.6533 27.6509 13.3283C27.6519 13.6851 27.6519 14.0419 27.6495 14.3987C27.6472 14.7338 27.6475 15.0687 27.6497 15.4037C27.65 15.5267 27.6495 15.6497 27.6479 15.7727C27.6077 16.3939 27.6077 16.3939 27.8378 16.9369C28.0004 17.0379 28.0004 17.0379 28.2681 17.1067C28.3313 17.1386 28.3946 17.1704 28.4598 17.2033C28.5206 17.232 28.5206 17.232 28.5827 17.2612C28.6314 17.2166 28.68 17.172 28.7302 17.126C29.3398 16.6948 29.9603 16.5465 30.7064 16.6431C31.1606 16.7647 31.5393 16.943 31.8863 17.2612C32.0819 17.1725 32.2455 17.0755 32.4221 16.9521C32.9674 16.616 33.5383 16.5793 34.1673 16.6431C34.8846 16.8259 35.3476 17.173 35.7343 17.7897C35.9373 18.1893 35.9962 18.5375 35.9968 18.9826C35.9972 19.0641 35.9972 19.0641 35.9976 19.1473C35.9983 19.3265 35.9979 19.5057 35.9973 19.685C35.9974 19.8115 35.9976 19.9381 35.9978 20.0647C35.998 20.3306 35.9977 20.5965 35.9969 20.8624C35.9961 21.1975 35.9966 21.5326 35.9975 21.8677C36.0124 28.2791 36.0124 28.2791 34.4373 29.9064C34.2462 30.0947 34.0538 30.281 33.8547 30.4612C33.3268 30.9496 33.0835 31.4483 33.0537 32.1631C33.052 32.2785 33.0507 32.394 33.0495 32.5095C33.0473 32.636 33.0451 32.7626 33.0428 32.8892C33.0395 33.0872 33.0366 33.2852 33.0346 33.4833C33.0324 33.6755 33.0288 33.8676 33.025 34.0597C33.0247 34.1182 33.0244 34.1768 33.0242 34.2371C33.0111 34.8 32.8376 35.2347 32.4369 35.6516C32.0857 35.8931 31.7937 35.9698 31.3699 35.9721C31.2982 35.9726 31.2265 35.9732 31.1527 35.9737C31.0747 35.9739 30.9966 35.9741 30.9162 35.9744C30.8335 35.9749 30.7509 35.9754 30.6657 35.9759C30.3921 35.9774 30.1185 35.9783 29.8449 35.9791C29.7514 35.9794 29.6579 35.9797 29.5615 35.9801C29.0666 35.9817 28.5717 35.9828 28.0768 35.9835C27.5659 35.9844 27.0551 35.987 26.5443 35.9901C26.1512 35.9921 25.7581 35.9927 25.3649 35.993C25.1766 35.9934 24.9883 35.9943 24.8001 35.9957C24.5363 35.9976 24.2726 35.9975 24.0088 35.997C23.9314 35.998 23.854 35.999 23.7742 36C23.2115 35.9958 22.8061 35.8708 22.3642 35.5248C22.3105 35.4633 22.3105 35.4633 22.2557 35.4005C22.2185 35.3602 22.1813 35.32 22.143 35.2785C22.0093 35.026 22.0074 34.7748 21.9755 34.4925C21.8884 34.4928 21.8013 34.493 21.7116 34.4932C19.5904 34.4983 17.4692 34.5022 15.348 34.5046C14.3222 34.5058 13.2964 34.5074 12.2706 34.51C11.3763 34.5123 10.4821 34.5138 9.58777 34.5144C9.11444 34.5147 8.64111 34.5154 8.16778 34.5171C7.7218 34.5186 7.27583 34.5191 6.82984 34.5188C6.66661 34.5188 6.50339 34.5193 6.34016 34.5202C4.82165 34.5281 3.54676 34.352 2.40407 33.2725C2.3475 33.2161 2.29092 33.1598 2.23263 33.1017C2.1874 33.058 2.14218 33.0144 2.09559 32.9695C1.03831 31.8662 1.01761 30.4376 1.03802 29.0208C1.03921 28.8765 1.04029 28.7322 1.04125 28.5878C1.04382 28.2379 1.04788 27.8881 1.05277 27.5382C0.977925 27.5278 0.903078 27.5173 0.825962 27.5066C0.557131 27.4565 0.487933 27.414 0.320281 27.2098C0.262334 27.1423 0.262334 27.1423 0.203217 27.0734C-0.0310098 26.6926 0.018107 26.2289 0.0175591 25.7986C0.0171685 25.7251 0.016778 25.6515 0.0163757 25.5757C0.0152285 25.3328 0.014691 25.0899 0.0142561 24.847C0.0138034 24.6777 0.0133505 24.5084 0.0128974 24.3391C0.0120716 23.9842 0.0116115 23.6293 0.0113372 23.2744C0.0109061 22.8207 0.00901614 22.3669 0.00677698 21.9132C0.00530867 21.5635 0.00490256 21.2137 0.00478223 20.864C0.00454484 20.6968 0.00391559 20.5295 0.0028799 20.3623C0.00153134 20.1279 0.0016875 19.8934 0.00219638 19.6589C0.00110917 19.5563 0.00110917 19.5563 0 19.4516C0.00360741 18.9183 0.0673964 18.394 0.453014 17.9953C0.660619 17.8787 0.819775 17.8419 1.05277 17.8021C1.05256 17.7314 1.05234 17.6606 1.05211 17.5877C1.04689 15.8631 1.04299 14.1384 1.04055 12.4138C1.03933 11.5797 1.03768 10.7457 1.03497 9.91163C1.03261 9.18436 1.0311 8.4571 1.03057 7.72983C1.03026 7.34503 1.02955 6.96025 1.02782 6.57546C1.02621 6.21261 1.02573 5.84978 1.02608 5.48694C1.02602 5.35441 1.02556 5.22188 1.02464 5.08935C1.01497 3.60976 1.28248 2.3865 2.36044 1.28282C3.32047 0.403307 4.47759 0.00434106 5.77509 0.00974372ZM3.0109 2.31058C2.66295 2.75881 2.31128 3.32541 2.31128 3.89341C2.39432 3.88893 2.47737 3.88445 2.56292 3.87983C3.48873 3.84622 4.29679 3.99885 5.18856 4.23121C6.40369 4.5412 7.65581 4.76199 8.8693 4.34255C9.38646 3.99176 9.65704 3.49021 9.92625 2.94685C10.2043 2.40475 10.4959 1.94821 10.9073 1.4929C11.0465 1.35171 11.0465 1.35171 11.1209 1.18895C10.3564 1.18355 9.5919 1.17944 8.82741 1.17694C8.47235 1.17573 8.1173 1.1741 7.76225 1.17146C7.41901 1.16892 7.07579 1.16755 6.73255 1.16695C6.60219 1.16653 6.47184 1.1657 6.3415 1.16444C5.03872 1.15235 3.94606 1.34512 3.0109 2.31058ZM12.3007 1.72984C12.2262 1.78422 12.1517 1.83861 12.0749 1.89464C11.4042 2.47253 11.0022 3.28928 10.6106 4.06105C10.3126 4.6279 9.97489 5.03583 9.38672 5.32473C9.31655 5.34644 9.24639 5.36816 9.1741 5.39053C9.06763 5.4249 9.06763 5.4249 8.95902 5.45995C8.89372 5.47848 8.82842 5.49701 8.76115 5.5161C8.7137 5.52957 8.66626 5.54304 8.61737 5.55692C7.19438 5.86048 5.67151 5.4927 4.30044 5.12974C3.57504 4.93922 2.97686 4.94803 2.23263 5.05247C2.23263 8.08689 2.23263 11.1213 2.23263 14.2477C6.06147 14.53 6.06147 14.53 9.5428 13.1804C10.4076 12.3846 10.4576 11.1945 10.5309 10.1089C10.7468 6.96529 10.7468 6.96529 11.6942 6.00447C12.4907 5.33478 13.4667 5.15089 14.4626 4.94042C15.7925 4.67116 15.7925 4.67116 16.7842 3.81614C17.0746 2.96022 16.7329 2.17237 16.3447 1.40623C16.2897 1.29868 16.2897 1.29868 16.2336 1.18895C15.7999 1.17548 15.3664 1.16571 14.9325 1.15923C14.7853 1.15653 14.638 1.15285 14.4908 1.14814C13.2883 1.10524 13.2883 1.10524 12.3007 1.72984ZM17.5707 1.18895C17.6064 1.30529 17.6421 1.42163 17.6789 1.54149C17.7218 1.68145 17.7644 1.82151 17.8067 1.96165C17.8347 2.04632 17.8627 2.13098 17.8915 2.21821C18.0711 2.92246 18.0754 3.76842 17.748 4.42857C17.1727 5.36345 16.2384 5.63784 15.211 5.90245C15.0013 5.95095 14.7912 5.99729 14.5809 6.04337C13.2524 6.32345 13.2524 6.32345 12.2303 7.15689C11.6409 8.08171 11.6973 9.30972 11.6241 10.3683C11.4807 12.4151 11.4807 12.4151 11.0471 13.2093C11.0091 13.2812 10.9711 13.353 10.9319 13.427C10.6263 13.9195 10.2788 14.1863 9.78369 14.4795C9.73512 14.5083 9.68655 14.5371 9.63651 14.5667C7.49892 15.7183 4.58001 15.4179 2.23263 15.4067C2.23263 16.1972 2.23263 16.9877 2.23263 17.8021C3.94577 17.8021 5.65892 17.8021 7.42398 17.8021C7.52781 17.4706 7.63164 17.1391 7.73861 16.7976C8.40301 15.5773 8.40301 15.5773 8.92829 15.4019C9.29553 15.4097 9.29553 15.4097 9.46906 15.5613C9.56132 15.8937 9.58029 16.044 9.40884 16.3503C9.34522 16.4329 9.28003 16.5144 9.21343 16.5948C8.87745 17.0184 8.79081 17.2511 8.60383 17.8021C9.40849 17.8021 10.2132 17.8021 11.0422 17.8021C11.0941 17.5216 11.146 17.2411 11.1995 16.9521C11.4467 16.3169 11.8584 15.9122 12.4826 15.6144C13.6379 15.1666 14.9422 15.2695 16.0753 15.7351C16.5546 15.9553 16.9584 16.2152 17.3627 16.5489C17.6041 16.7479 17.8518 16.9374 18.1017 17.126C18.1643 17.1738 18.1643 17.1738 18.2282 17.2225C18.349 17.3139 18.4711 17.4035 18.5933 17.493C18.6651 17.5468 18.737 17.6005 18.811 17.6559C19.2517 17.9094 19.7166 17.8497 20.2156 17.8456C20.3206 17.8473 20.4257 17.8492 20.5308 17.8512C20.6306 17.851 20.7303 17.8509 20.8331 17.8507C20.924 17.8508 21.015 17.8508 21.1086 17.8509C21.3614 17.8213 21.3614 17.8213 21.5356 17.6156C21.6746 17.4329 21.6746 17.4329 21.6609 17.2612C21.7062 17.239 21.7515 17.2168 21.7982 17.1939C21.9108 17.1385 22.0233 17.0828 22.1356 17.0267C22.1882 17.0005 22.2408 16.9743 22.295 16.9473C22.3479 16.9209 22.4007 16.8945 22.4551 16.8673C22.979 16.6232 23.6196 16.6499 24.1681 16.8121C24.4916 16.9325 24.7147 17.1057 24.9645 17.3385C25.2495 17.2016 25.5227 17.048 25.7971 16.8918C25.987 16.7976 25.987 16.7976 26.4589 16.6431C26.4589 15.6741 26.4589 14.7051 26.4589 13.7068C26.1864 13.6876 25.9139 13.6685 25.6331 13.6488C24.1513 13.5271 22.5025 13.1864 21.4249 12.0841C20.7683 11.2514 20.5503 10.5056 20.6383 9.45689C20.7414 8.88935 21.0061 8.36553 21.2436 7.84206C21.4234 7.42228 21.526 7.02258 21.3593 6.57725C21.1087 6.05961 20.795 5.70856 20.368 5.32292C19.5873 4.61432 19.0508 3.86348 18.9672 2.79623C18.9558 2.24222 19.0263 1.73006 19.1439 1.18895C18.6247 1.18895 18.1056 1.18895 17.5707 1.18895ZM20.4024 1.18895C20.3502 1.34775 20.2987 1.50676 20.2475 1.66585C20.2188 1.75438 20.19 1.8429 20.1604 1.93411C20.0039 2.49261 20.0274 2.96602 20.2936 3.48533C20.6032 3.98702 20.9791 4.39926 21.4298 4.78203C22.0774 5.33484 22.5382 5.98263 22.6063 6.83573C22.6008 7.64544 22.301 8.34757 21.938 9.05666C21.6994 9.54589 21.6374 10.0593 21.8025 10.5846C22.1676 11.3833 22.8001 11.8038 23.6 12.142C23.9959 12.2873 24.3931 12.3893 24.8072 12.4704C24.9386 12.4967 24.9386 12.4967 25.0726 12.5236C25.3591 12.5478 25.6387 12.55 25.9262 12.5492C26.0756 12.5489 26.0756 12.5489 26.2281 12.5486C26.3424 12.5481 26.3424 12.5481 26.4589 12.5477C26.4663 11.4568 26.4718 10.366 26.4752 9.27507C26.4769 8.76845 26.4791 8.26184 26.4827 7.75522C26.4861 7.26573 26.488 6.77625 26.4888 6.28675C26.4894 6.10059 26.4905 5.91443 26.4922 5.72828C26.5093 3.92148 26.5093 3.92148 25.6724 2.348C25.6329 2.29969 25.5935 2.25139 25.5529 2.20161C25.0131 1.6095 24.1759 1.23644 23.3712 1.17551C23.1803 1.17122 22.9899 1.17153 22.7989 1.17385C22.73 1.17407 22.6611 1.17429 22.59 1.17452C22.3721 1.17537 22.1541 1.17731 21.9362 1.17929C21.7875 1.18006 21.6388 1.18077 21.49 1.1814C21.1275 1.18309 20.7649 1.18576 20.4024 1.18895ZM12.458 16.9521C12.2392 17.2745 12.2221 17.4043 12.2221 17.8021C13.8054 17.8021 15.3888 17.8021 17.0201 17.8021C16.1483 16.9456 15.3126 16.4515 14.049 16.4061C13.4403 16.4184 12.9286 16.5571 12.458 16.9521ZM22.3835 18.2706C22.2185 18.5351 22.2012 18.7535 22.1991 19.0565C22.1979 19.1803 22.1979 19.1803 22.1966 19.3066C22.1961 19.3957 22.1955 19.4848 22.1949 19.5766C22.1927 19.7646 22.1904 19.9526 22.1881 20.1406C22.1849 20.4375 22.182 20.7344 22.1799 21.0314C22.1777 21.3176 22.1741 21.6037 22.1703 21.8899C22.17 21.9789 22.1698 22.0678 22.1695 22.1594C22.1676 22.2836 22.1676 22.2836 22.1656 22.4103C22.1649 22.483 22.1643 22.5557 22.1637 22.6307C22.127 22.8615 22.0633 22.9683 21.8968 23.1338C21.5491 23.1912 21.3911 23.1611 21.0903 22.9777C21.0025 22.9071 20.9158 22.835 20.8301 22.7619C20.7332 22.6833 20.6363 22.6047 20.5394 22.5262C20.4905 22.4858 20.4416 22.4454 20.3912 22.4037C19.9843 22.0698 19.5627 21.7531 19.1439 21.4338C19.095 21.3963 19.0462 21.3588 18.996 21.3201C18.1546 20.6765 17.3981 20.1494 16.2879 20.1613C15.9615 20.2171 15.7505 20.3493 15.5404 20.5983C15.3938 20.9394 15.3862 21.2403 15.4958 21.5893C15.8158 22.3003 16.4262 22.707 17.0762 23.1068C18.2681 23.8407 18.9746 24.7014 19.4405 26.0085C19.9163 27.342 20.4838 28.3893 21.6363 29.2864C22.5737 30.0247 22.8276 30.8975 22.9695 32.0513C23.0213 32.6097 23.0313 33.1722 23.043 33.7326C23.0452 33.8163 23.0474 33.9001 23.0497 33.9864C23.0519 34.0991 23.0519 34.0991 23.0541 34.2142C23.0774 34.4218 23.1195 34.5495 23.234 34.7244C23.4149 34.8132 23.518 34.8119 23.7192 34.813C23.7879 34.8136 23.8566 34.8141 23.9274 34.8147C24.003 34.8149 24.0785 34.8151 24.1564 34.8153C24.2755 34.8161 24.2755 34.8161 24.3971 34.8168C24.6607 34.8184 24.9242 34.8193 25.1878 34.82C25.2777 34.8204 25.3675 34.8207 25.46 34.821C25.9351 34.8226 26.4102 34.8237 26.8852 34.8244C27.3771 34.8253 27.8689 34.828 28.3607 34.831C28.7379 34.833 29.1152 34.8337 29.4925 34.834C29.6738 34.8343 29.8552 34.8352 30.0365 34.8367C30.2899 34.8385 30.5431 34.8385 30.7964 34.8379C30.8718 34.8389 30.9472 34.8399 31.0249 34.8409C31.4142 34.8484 31.4142 34.8484 31.7362 34.6625C31.8455 34.4024 31.8407 34.1464 31.8396 33.8696C31.8408 33.7783 31.8409 33.7783 31.8422 33.6852C31.8448 33.4907 31.8461 33.2962 31.8469 33.1017C31.8526 31.8584 31.8675 30.8337 32.7515 29.8563C32.9062 29.7164 33.0659 29.5852 33.2277 29.4534C34.5809 28.2335 34.7092 25.9837 34.7966 24.2928C34.8253 23.4557 34.8227 22.6176 34.8214 21.7801C34.8209 21.4562 34.8223 21.1323 34.8241 20.8085C34.8253 20.5564 34.8253 20.3044 34.8251 20.0524C34.8251 19.9328 34.8255 19.8133 34.8263 19.6938C34.8273 19.5277 34.8268 19.3616 34.8259 19.1955C34.8259 19.1015 34.826 19.0074 34.826 18.9105C34.782 18.5238 34.6537 18.2731 34.364 18.0098C34.0343 17.7912 33.7724 17.77 33.3808 17.8021C32.9739 17.9647 32.7723 18.1194 32.5792 18.5195C32.4363 18.9902 32.4709 19.5021 32.4713 19.9898C32.471 20.1597 32.4703 20.3295 32.4681 20.4993C32.4662 20.6524 32.466 20.8055 32.4659 20.9585C32.4369 21.202 32.4369 21.202 32.3343 21.3497C32.1056 21.4939 31.9124 21.466 31.6503 21.4338C31.4463 21.2489 31.4156 21.136 31.3853 20.8629C31.3842 20.7597 31.3842 20.6563 31.3851 20.5531C31.3838 20.44 31.3824 20.3269 31.381 20.2138C31.3802 20.0366 31.3799 19.8594 31.3801 19.6823C31.3798 19.5105 31.3776 19.3388 31.3753 19.167C31.376 19.1146 31.3766 19.0622 31.3773 19.0082C31.3712 18.6235 31.2638 18.4087 31.021 18.1112C30.7119 17.8489 30.4747 17.7513 30.0738 17.7716C29.7276 17.8402 29.4336 18.0795 29.2119 18.343C29.1194 18.6157 29.1193 18.8398 29.1139 19.1275C29.1113 19.238 29.1087 19.3485 29.1061 19.4591C29.1024 19.6329 29.0989 19.8066 29.0958 19.9805C29.0926 20.1485 29.0886 20.3165 29.0844 20.4845C29.0815 20.6353 29.0815 20.6353 29.0785 20.7891C29.0566 21.0266 29.033 21.162 28.8973 21.3566C28.6794 21.4636 28.5093 21.4483 28.2681 21.4338C28.1902 21.3828 28.1123 21.3318 28.0321 21.2793C28.0006 21.0504 28.0006 21.0504 27.9974 20.7592C27.9958 20.6817 27.9958 20.6817 27.9942 20.6027C27.991 20.437 27.9893 20.2714 27.9878 20.1057C27.986 19.9415 27.9837 19.7772 27.9806 19.613C27.9778 19.4629 27.9763 19.3128 27.9748 19.1627C27.9476 18.8078 27.9046 18.4692 27.6658 18.1915C27.618 18.1554 27.5701 18.1194 27.5208 18.0822C27.473 18.045 27.4251 18.0077 27.3758 17.9693C27.085 17.7685 26.8048 17.7571 26.4589 17.8021C26.0757 17.9904 25.8797 18.2101 25.6724 18.5748C25.6434 18.7829 25.6302 18.9599 25.6327 19.167C25.632 19.2222 25.6313 19.2774 25.6305 19.3343C25.6283 19.5094 25.628 19.6844 25.6281 19.8594C25.6279 20.0351 25.6271 20.2106 25.6249 20.3862C25.6236 20.4951 25.6234 20.604 25.6244 20.7128C25.6218 20.9454 25.6037 21.1064 25.4911 21.3129C25.3578 21.4338 25.3578 21.4338 25.0825 21.4676C24.8072 21.4338 24.8072 21.4338 24.6738 21.3497C24.5172 21.1244 24.5422 20.9304 24.542 20.6602C24.5406 20.5511 24.5392 20.442 24.5378 20.3329C24.5371 20.1618 24.5368 19.9908 24.5369 19.8197C24.5455 18.9196 24.5455 18.9196 24.1779 18.1112C23.9097 17.8885 23.6597 17.7846 23.3078 17.7635C22.8905 17.8155 22.6589 17.9627 22.3835 18.2706ZM1.28874 18.9612C1.28874 21.4346 1.28874 23.908 1.28874 26.4564C1.80788 26.4564 2.32701 26.4564 2.86188 26.4564C2.86262 26.3031 2.86335 26.1499 2.86411 25.9919C2.8669 25.4858 2.87113 24.9797 2.87635 24.4736C2.87946 24.1667 2.88199 23.8598 2.8832 23.5529C2.88439 23.2568 2.88709 22.9607 2.89085 22.6646C2.89202 22.5516 2.89264 22.4386 2.89271 22.3255C2.89289 22.1673 2.89502 22.0092 2.8976 21.851C2.8983 21.7609 2.899 21.6709 2.89972 21.578C2.94054 21.3566 2.94054 21.3566 3.08271 21.2094C3.34692 21.0797 3.52735 21.126 3.80576 21.202C3.98996 21.4547 3.98451 21.6965 3.98816 22.0001C3.98972 22.0991 3.99128 22.1981 3.99289 22.3001C3.99383 22.4078 3.99474 22.5154 3.99565 22.6231C3.99712 22.7335 3.99866 22.8439 4.00026 22.9544C4.0043 23.2445 4.00741 23.5346 4.01034 23.8248C4.01349 24.1211 4.01751 24.4173 4.02146 24.7136C4.02906 25.2945 4.03562 25.8755 4.04173 26.4564C4.40513 26.4564 4.76852 26.4564 5.14293 26.4564C5.14587 26.2964 5.14881 26.1365 5.15184 25.9717C5.15567 25.8169 5.15951 25.6622 5.16357 25.5075C5.16619 25.3999 5.1684 25.2923 5.17018 25.1846C5.17281 25.03 5.17705 24.8754 5.18134 24.7208C5.1834 24.6278 5.18546 24.5347 5.18758 24.4388C5.20441 24.3283 5.20441 24.3283 5.22159 24.2156C5.5138 24.0242 5.66278 24.0186 6.00816 24.061C6.23472 24.3436 6.2755 24.5705 6.28438 24.9246C6.28717 25.014 6.28995 25.1034 6.29283 25.1955C6.29549 25.3344 6.29549 25.3344 6.2982 25.476C6.30089 25.5701 6.30358 25.6642 6.30635 25.7611C6.31282 25.9929 6.31794 26.2246 6.32278 26.4564C6.68618 26.4564 7.04957 26.4564 7.42398 26.4564C7.42692 26.3029 7.42986 26.1494 7.43289 25.9913C7.43672 25.8424 7.44056 25.6936 7.44462 25.5448C7.44852 25.3906 7.45124 25.2365 7.45394 25.0823C7.45812 24.937 7.45812 24.937 7.46239 24.7888C7.46445 24.6993 7.46651 24.6099 7.46863 24.5178C7.50264 24.2928 7.50264 24.2928 7.60593 24.148C7.83297 23.9991 8.02639 24.0288 8.28921 24.061C8.54501 24.3044 8.55726 24.5163 8.56543 24.8567C8.56822 24.9498 8.571 25.0429 8.57388 25.1389C8.57565 25.2358 8.57743 25.3327 8.57925 25.4326C8.58194 25.5307 8.58463 25.6288 8.5874 25.7299C8.59388 25.972 8.59899 26.2142 8.60383 26.4564C8.96723 26.4564 9.33062 26.4564 9.70503 26.4564C9.70797 26.3029 9.71091 26.1494 9.71394 25.9913C9.71777 25.8424 9.72161 25.6936 9.72567 25.5448C9.72957 25.3906 9.73229 25.2365 9.73499 25.0823C9.73917 24.937 9.73917 24.937 9.74344 24.7888C9.7455 24.6993 9.74756 24.6099 9.74968 24.5178C9.78369 24.2928 9.78369 24.2928 9.88698 24.148C10.114 23.9991 10.3074 24.0288 10.5703 24.061C10.8261 24.3044 10.8383 24.5163 10.8465 24.8567C10.8493 24.9498 10.8521 25.0429 10.8549 25.1389C10.8567 25.2358 10.8585 25.3327 10.8603 25.4326C10.863 25.5307 10.8657 25.6288 10.8684 25.7299C10.8749 25.972 10.88 26.2142 10.8849 26.4564C11.2483 26.4564 11.6117 26.4564 11.9861 26.4564C11.9872 26.2265 11.9872 26.2265 11.9883 25.9919C11.9911 25.4858 11.9953 24.9797 12.0005 24.4736C12.0037 24.1667 12.0062 23.8598 12.0074 23.5529C12.0086 23.2568 12.0113 22.9607 12.0151 22.6646C12.0162 22.5516 12.0168 22.4386 12.0169 22.3255C12.0171 22.1673 12.0192 22.0092 12.0218 21.851C12.0225 21.7609 12.0232 21.6709 12.0239 21.578C12.0647 21.3566 12.0647 21.3566 12.2069 21.2094C12.4711 21.0797 12.6515 21.126 12.93 21.202C13.1142 21.4547 13.1087 21.6965 13.1124 22.0001C13.1147 22.1486 13.1147 22.1486 13.1171 22.3001C13.118 22.4078 13.1189 22.5154 13.1198 22.6231C13.1213 22.7335 13.1229 22.8439 13.1245 22.9544C13.1285 23.2445 13.1316 23.5346 13.1345 23.8248C13.1377 24.1211 13.1417 24.4173 13.1457 24.7136C13.1533 25.2945 13.1598 25.8755 13.1659 26.4564C13.5293 26.4564 13.8927 26.4564 14.2671 26.4564C14.2701 26.3029 14.273 26.1494 14.276 25.9913C14.2799 25.8424 14.2837 25.6936 14.2878 25.5448C14.2917 25.3906 14.2944 25.2365 14.2971 25.0823C14.2999 24.9854 14.3027 24.8886 14.3055 24.7888C14.3076 24.6993 14.3097 24.6099 14.3118 24.5178C14.3458 24.2928 14.3458 24.2928 14.4491 24.148C14.6761 23.9991 14.8695 24.0288 15.1324 24.061C15.3882 24.3044 15.4004 24.5163 15.4086 24.8567C15.4114 24.9498 15.4142 25.0429 15.417 25.1389C15.4188 25.2358 15.4206 25.3327 15.4224 25.4326C15.4251 25.5307 15.4278 25.6288 15.4305 25.7299C15.437 25.972 15.4421 26.2142 15.447 26.4564C15.8104 26.4564 16.1738 26.4564 16.5482 26.4564C16.5813 26.1369 16.6112 25.82 16.6336 25.5C16.6421 25.3916 16.6524 25.2834 16.6644 25.1753C16.7037 24.817 16.7182 24.4918 16.6268 24.1383C16.3483 23.8542 16.0372 23.6983 15.683 23.5201C15.0203 23.0329 14.49 22.4099 14.3458 21.5884C14.2886 20.9716 14.3238 20.4253 14.6604 19.8884C15.0906 19.3928 15.5504 19.1468 16.2053 19.0916C17.8169 19.0226 18.9689 19.8562 20.1664 20.8157C20.3187 20.9365 20.4711 21.0573 20.6236 21.1779C20.6857 21.2276 20.7479 21.2773 20.8119 21.3285C20.9339 21.4416 20.9339 21.4416 21.0316 21.4338C21.0316 20.6178 21.0316 19.8019 21.0316 18.9612C14.5165 18.9612 8.00132 18.9612 1.28874 18.9612ZM17.728 25.2201C17.728 25.6281 17.728 26.0361 17.728 26.4564C17.9357 26.4564 18.1433 26.4564 18.3573 26.4564C18.2339 25.9916 18.112 25.5999 17.8067 25.2201C17.7807 25.2201 17.7548 25.2201 17.728 25.2201ZM2.23263 27.6155C2.22534 28.0153 2.2191 28.4149 2.21534 28.8148C2.21378 28.9504 2.21164 29.0859 2.20889 29.2215C2.1847 30.4459 2.28719 31.4636 3.17651 32.4062C4.22134 33.3428 5.31937 33.3779 6.66076 33.3637C6.82166 33.3631 6.98255 33.3627 7.14344 33.3623C7.56397 33.3612 7.98446 33.3581 8.40496 33.3547C8.83524 33.3515 9.26553 33.3501 9.69581 33.3486C10.5379 33.3453 11.38 33.34 12.2221 33.3335C12.1896 33.2967 12.1572 33.2599 12.1238 33.222C12.0812 33.1736 12.0387 33.1251 11.9949 33.0752C11.9527 33.0273 11.9106 32.9793 11.8671 32.9299C11.1432 32.0802 10.9546 31.1581 11.0263 30.0793C11.1204 29.2185 11.9122 28.4709 12.4384 27.8225C12.5445 27.7094 12.5445 27.7094 12.5367 27.6155C10.4601 27.6155 8.38359 27.6155 6.24413 27.6155C6.42402 28.1456 6.59547 28.5367 6.89719 28.9878C7.12547 29.3527 7.15734 29.5952 7.10935 30.0109C7.01441 30.1669 7.01441 30.1669 6.87338 30.2427C6.69548 30.2484 6.69548 30.2484 6.50468 30.2185C6.4411 30.2093 6.37753 30.2 6.31203 30.1904C6.26367 30.1822 6.2153 30.1739 6.16547 30.1654C6.1458 30.1128 6.12613 30.0602 6.10586 30.006C5.97025 29.691 5.79718 29.3969 5.62255 29.1014C5.34482 28.6087 5.24365 28.1882 5.06427 27.6155C4.12983 27.6155 3.19539 27.6155 2.23263 27.6155ZM13.8738 27.6155C13.6662 27.9725 13.4585 28.3294 13.2446 28.6973C13.0941 28.8875 12.9536 29.0601 12.7874 29.2333C12.3134 29.7339 12.0922 30.1881 12.117 30.8741C12.2065 31.6148 12.6059 32.1519 13.1659 32.6381C13.6699 32.9972 14.164 33.3436 14.7969 33.3423C14.8913 33.3423 14.9858 33.3423 15.0832 33.3422C15.1856 33.3418 15.288 33.3414 15.3935 33.341C15.4991 33.3409 15.6047 33.3408 15.7103 33.3407C15.9883 33.3404 16.2663 33.3396 16.5443 33.3388C16.828 33.338 17.1116 33.3377 17.3953 33.3373C17.9519 33.3364 18.5086 33.3351 19.0652 33.3335C18.9901 33.247 18.915 33.1606 18.8398 33.0742C18.798 33.026 18.7562 32.9779 18.7131 32.9283C18.5712 32.7676 18.4225 32.6139 18.2737 32.4594C17.652 31.7761 17.4605 31.1105 17.4709 30.2116C17.5234 29.5229 17.8661 29.0438 18.2863 28.5074C18.5993 28.1049 18.5993 28.1049 18.6719 27.6155C17.0886 27.6155 15.5052 27.6155 13.8738 27.6155ZM19.4585 28.8518C19.3388 28.9981 19.2234 29.1455 19.1094 29.2961C19.0774 29.3377 19.0453 29.3794 19.0122 29.4223C18.6352 29.9176 18.5199 30.2429 18.5933 30.8608C18.8581 31.7899 19.7652 32.4194 20.5767 32.873C21.2057 33.2108 21.2057 33.2108 21.8968 33.3335C21.9229 32.8131 21.8729 32.3209 21.7936 31.8074C21.7844 31.7444 21.7751 31.6813 21.7656 31.6164C21.6195 30.7186 21.1336 30.289 20.4368 29.7404C20.0915 29.4684 19.8147 29.1891 19.5371 28.8518C19.5112 28.8518 19.4852 28.8518 19.4585 28.8518Z" fill="#20376D"/>
</svg>
