<svg width="32" height="32" viewBox="0 0 32 32" fill="none" xmlns="http://www.w3.org/2000/svg">
<g clip-path="url(#clip0_880_103)">
<path d="M16.0075 31.9863C11.0065 31.9863 6.00559 31.9863 1.00465 31.9863C0.214436 31.9863 -0.00757697 31.8409 -5.10983e-05 31.2522C0.0413412 28.0595 0.0300524 24.8633 -5.10983e-05 21.6705C-0.0138867 21.465 0.0480664 21.2613 0.175777 21.0922C0.303487 20.9231 0.489476 20.7987 0.703619 20.739C5.56533 18.6106 10.4145 16.4648 15.2511 14.3016C15.4557 14.1985 15.6861 14.1468 15.9193 14.1517C16.1525 14.1565 16.3802 14.2178 16.5794 14.3293C21.4687 16.4763 26.3606 18.6129 31.2549 20.739C31.7855 20.9676 31.9774 21.2169 31.9736 21.6602C31.9473 24.8563 31.9397 28.0525 31.9736 31.2453C31.9736 31.8201 31.7892 31.9898 30.9802 31.9863C26.0094 31.9725 21.0084 31.9863 16.0075 31.9863Z" fill="#21386D"/>
<path d="M0.0263672 15.4135C0.0263672 10.4166 0.0263672 5.45439 0.0263672 0.495622C0.0263672 0.0454543 0.255906 0.00390625 0.778954 0.00390625C10.9615 0.00390625 21.1415 0.00390625 31.3189 0.00390625C31.8759 0.00390625 32.0301 0.111251 32.0264 0.519864C32.0076 5.50634 32.0264 10.4928 32.0264 15.5693C29.4939 14.9772 27.0292 14.4058 24.5682 13.8379C21.9342 13.2181 19.2775 12.6017 16.6397 11.9645C16.1717 11.8469 15.6779 11.8469 15.2098 11.9645C10.4836 13.0588 5.7523 14.1449 1.01602 15.223L0.0263672 15.4135Z" fill="#2C95D2"/>
</g>
<defs>
<clipPath id="clip0_880_103">
<rect width="32" height="32" fill="white"/>
</clipPath>
</defs>
</svg>
