<svg width="37" height="37" viewBox="0 0 37 37" fill="none" xmlns="http://www.w3.org/2000/svg">
<g clip-path="url(#clip0_503_119)">
<path d="M17.0603 -0.0463533C17.167 -0.0480617 17.167 -0.0480617 17.2758 -0.0498047C17.3519 -0.0490733 17.4279 -0.0483419 17.5063 -0.0475883C17.6245 -0.0481068 17.6245 -0.0481068 17.7452 -0.0486358C17.9116 -0.0488814 18.078 -0.048217 18.2444 -0.0467061C18.4991 -0.044772 18.7534 -0.0466884 19.008 -0.0489997C19.1699 -0.048761 19.3317 -0.048298 19.4936 -0.0475883C19.5696 -0.0483197 19.6456 -0.0490511 19.724 -0.0498047C19.7951 -0.0486657 19.8663 -0.0475268 19.9396 -0.0463533C20.033 -0.0459221 20.033 -0.0459221 20.1284 -0.0454822C20.3958 0.0233821 20.5025 0.143623 20.6679 0.361729C20.7019 0.557041 20.714 0.705971 20.7089 0.900281C20.709 0.953197 20.709 1.00611 20.7091 1.06063C20.7088 1.23469 20.706 1.4086 20.7032 1.58262C20.7025 1.70362 20.702 1.82462 20.7016 1.94562C20.7002 2.26345 20.6967 2.58121 20.6927 2.89901C20.689 3.22356 20.6874 3.54812 20.6855 3.87268C20.6817 4.50903 20.6755 5.14533 20.6679 5.78165C20.7151 5.78085 20.7622 5.78005 20.8109 5.77922C21.302 5.77122 21.7932 5.76577 22.2844 5.7618C22.4677 5.75999 22.651 5.75752 22.8343 5.75439C23.0978 5.75001 23.3613 5.74796 23.6249 5.74636C23.7068 5.7445 23.7887 5.74263 23.8731 5.74071C24.4434 5.74051 24.4434 5.74051 24.7287 5.95549C24.9382 6.25627 24.9412 6.466 24.9386 6.82329C24.9385 6.90238 24.9385 6.90238 24.9383 6.98307C24.9379 7.15169 24.937 7.32031 24.9361 7.48893C24.9357 7.60316 24.9354 7.71739 24.9351 7.83162C24.9343 8.11184 24.933 8.39206 24.9316 8.67228C25.0085 8.67038 25.0854 8.66849 25.1646 8.66654C25.4508 8.65999 25.737 8.65585 26.0232 8.65243C26.1469 8.65061 26.2707 8.64815 26.3944 8.64502C26.5725 8.64062 26.7506 8.63858 26.9287 8.63699C26.9838 8.63512 27.0388 8.63326 27.0955 8.63134C27.3705 8.63119 27.5199 8.66336 27.7494 8.81836C27.9327 9.09037 27.9408 9.3055 27.9297 9.62217C27.9292 9.6778 27.9287 9.73343 27.9282 9.79075C27.9262 9.96752 27.9216 10.1441 27.917 10.3208C27.9152 10.441 27.9136 10.5612 27.9121 10.6815C27.9081 10.9753 27.9019 11.2691 27.8945 11.5629C27.9473 11.561 28.0001 11.5591 28.0546 11.5572C28.2948 11.5496 28.5349 11.545 28.7752 11.5403C28.8999 11.5358 28.8999 11.5358 29.0271 11.5311C29.1476 11.5294 29.1476 11.5294 29.2706 11.5276C29.3813 11.5248 29.3813 11.5248 29.4942 11.5219C29.7867 11.5799 29.8797 11.6903 30.0624 11.9242C30.113 12.1375 30.1082 12.344 30.1034 12.5623C30.1035 12.6258 30.1035 12.6893 30.1036 12.7547C30.1033 12.9639 30.1005 13.173 30.0977 13.3822C30.097 13.5275 30.0965 13.6728 30.0962 13.8182C30.0948 14.2001 30.0912 14.582 30.0872 14.964C30.0835 15.3539 30.0819 15.7439 30.0801 16.1338C30.0762 16.8986 30.07 17.6634 30.0624 18.4281C30.1177 18.4496 30.1731 18.471 30.2301 18.493C30.4556 18.5858 30.6528 18.703 30.861 18.8301C30.9023 18.8552 30.9436 18.8804 30.9862 18.9063C31.1196 18.9875 31.2527 19.0691 31.3858 19.1508C31.4773 19.2068 31.5689 19.2627 31.6604 19.3187C31.8407 19.4289 32.0209 19.5394 32.2009 19.65C32.4095 19.778 32.6184 19.9056 32.8274 20.0329C32.9296 20.0956 33.0316 20.1584 33.1337 20.2212C33.1785 20.2485 33.2234 20.2757 33.2696 20.3038C33.3828 20.3741 33.4933 20.4488 33.6034 20.5238C33.6608 20.5629 33.7182 20.6019 33.7773 20.6421C33.9666 20.9228 33.9253 21.2063 33.8925 21.5356C33.8146 21.8922 33.7083 22.2394 33.6006 22.5879C33.5692 22.6922 33.5379 22.7964 33.5067 22.9007C33.4396 23.1241 33.3719 23.3473 33.3038 23.5703C33.1955 23.9245 33.0886 24.279 32.982 24.6336C32.8514 25.0674 32.7205 25.5011 32.5892 25.9347C32.236 27.1011 31.8891 28.2694 31.5425 29.4377C31.4425 29.7745 31.3423 30.1112 31.2421 30.4479C30.8934 31.6193 30.5473 32.7914 30.207 33.9652C30.2991 34.012 30.3914 34.0586 30.4837 34.1052C30.535 34.1312 30.5864 34.1572 30.6393 34.1839C31.5503 34.6238 32.5819 34.6219 33.5312 34.3266C34.301 34.0365 34.9107 33.5202 35.5312 32.9956C35.8622 32.7165 36.0446 32.6287 36.4749 32.6357C36.6386 32.6645 36.6386 32.6645 36.8599 32.8406C37.0169 33.0769 37.0706 33.2959 37.0521 33.5785C36.9395 33.9452 36.6364 34.1622 36.3495 34.3988C36.2422 34.4885 36.2422 34.4885 36.1327 34.5801C34.8185 35.6479 33.348 36.2592 31.6276 36.1095C30.7373 36.0038 29.9418 35.6815 29.1382 35.2965C28.0632 34.8205 26.8785 34.6267 25.7508 35.0207C25.272 35.2209 24.8139 35.461 24.3534 35.6996C22.9107 36.4471 21.3755 36.7709 19.7759 36.3209C19.1267 36.1131 18.514 35.7981 17.9008 35.5038C16.6518 34.9089 15.5648 34.587 14.2043 35.0255C13.6235 35.2423 13.0614 35.4978 12.5022 35.7648C10.8048 36.5748 9.28984 36.5676 7.50453 35.95C7.15327 35.82 6.81085 35.6691 6.47067 35.5125C5.55339 35.0939 4.51777 35.0348 3.56126 35.3778C2.81892 35.7066 2.15211 36.1065 1.54149 36.643C1.20502 36.9237 0.955507 37.0518 0.517352 37.0343C0.30471 36.9881 0.180175 36.8845 0.0597635 36.7043C-0.0591025 36.4312 -0.0818701 36.2042 -8.14393e-05 35.9164C0.154658 35.6772 0.356422 35.5149 0.578044 35.3383C0.615655 35.3079 0.653266 35.2775 0.692017 35.2462C2.2167 34.0283 3.78566 33.3912 5.75922 33.6083C6.09195 33.6498 6.40055 33.7208 6.72062 33.8207C6.58279 33.2505 6.42975 32.6874 6.25908 32.1261C6.22328 32.0074 6.22328 32.0074 6.18676 31.8863C6.13477 31.7139 6.08269 31.5415 6.03054 31.3691C5.88613 30.8917 5.74246 30.4141 5.59881 29.9364C5.57573 29.8597 5.57573 29.8597 5.55218 29.7814C5.14245 28.4192 4.73856 27.0553 4.33476 25.6913C4.27753 25.4979 4.22029 25.3046 4.16304 25.1113C4.05453 24.7449 3.94606 24.3785 3.83762 24.0121C3.8214 23.9573 3.80518 23.9025 3.78847 23.846C3.77274 23.7928 3.75701 23.7397 3.74081 23.685C3.72538 23.6328 3.70995 23.5807 3.69405 23.527C3.66385 23.4248 3.63369 23.3226 3.60357 23.2204C3.52563 22.956 3.44699 22.6918 3.36734 22.4279C3.35076 22.3726 3.33418 22.3173 3.3171 22.2603C3.28559 22.1551 3.25383 22.05 3.22179 21.9449C2.99544 21.1864 2.99544 21.1864 3.10734 20.8129C3.53357 20.3793 4.06508 20.0915 4.58427 19.7831C4.72047 19.7016 4.85657 19.6199 4.99266 19.5382C5.08225 19.4844 5.17187 19.4306 5.26153 19.3769C5.66929 19.1323 6.07214 18.8803 6.47177 18.6227C6.77753 18.4281 6.77753 18.4281 6.93742 18.4281C6.93662 18.3475 6.93581 18.2668 6.93499 18.1837C6.92766 17.4234 6.92225 16.6631 6.9187 15.9028C6.91681 15.512 6.91425 15.1211 6.91016 14.7303C6.90623 14.3531 6.90407 13.9759 6.90314 13.5987C6.90247 13.4548 6.90116 13.3108 6.89922 13.1669C6.89659 12.9653 6.89623 12.7639 6.8964 12.5623C6.8951 12.5028 6.8938 12.4433 6.89246 12.3819C6.89524 12.0732 6.91092 11.9581 7.10772 11.7062C7.33615 11.5348 7.4466 11.5204 7.72924 11.5276C7.80958 11.5288 7.88993 11.5299 7.97271 11.5311C8.05585 11.5342 8.13899 11.5372 8.22465 11.5403C8.30919 11.5419 8.39373 11.5436 8.48083 11.5453C8.68911 11.5495 8.8972 11.5554 9.10539 11.5629C9.10255 11.4508 9.10255 11.4508 9.09965 11.3365C9.0931 11.0584 9.08896 10.7803 9.08554 10.5021C9.08373 10.3819 9.08126 10.2617 9.07813 10.1415C9.07373 9.96837 9.07169 9.79535 9.0701 9.62217C9.06824 9.56871 9.06637 9.51525 9.06445 9.46017C9.0643 9.18945 9.09819 9.04429 9.25048 8.81836C9.52699 8.63156 9.74905 8.62608 10.0711 8.63699C10.1569 8.63776 10.1569 8.63776 10.2445 8.63854C10.4264 8.64055 10.6082 8.64509 10.7901 8.64969C10.9138 8.65151 11.0375 8.65315 11.1611 8.65463C11.4636 8.65861 11.7659 8.66484 12.0683 8.67228C12.0668 8.6023 12.0653 8.53233 12.0637 8.46024C12.0584 8.19924 12.0551 7.93825 12.0524 7.67721C12.051 7.5645 12.049 7.45179 12.0465 7.3391C12.0429 7.17656 12.0413 7.01409 12.04 6.85152C12.0386 6.80159 12.0371 6.75167 12.0355 6.70023C12.0354 6.33697 12.1294 6.13328 12.3573 5.85392C12.54 5.76259 12.6655 5.77296 12.8699 5.77345C12.9849 5.77345 12.9849 5.77345 13.1022 5.77346C13.1852 5.77384 13.2683 5.77421 13.3538 5.77459C13.4386 5.7747 13.5234 5.7748 13.6108 5.7749C13.8825 5.77531 14.1542 5.77622 14.4259 5.77713C14.6098 5.7775 14.7937 5.77783 14.9775 5.77812C15.429 5.77892 15.8805 5.78013 16.332 5.78165C16.3311 5.71455 16.3303 5.64745 16.3295 5.57832C16.3223 4.94567 16.3168 4.31304 16.3132 3.68036C16.3113 3.3551 16.3088 3.02987 16.3047 2.70463C16.3008 2.39069 16.2986 2.07678 16.2977 1.76282C16.297 1.6431 16.2957 1.52338 16.2937 1.40368C16.2911 1.23584 16.2908 1.06814 16.2909 0.900281C16.289 0.826209 16.289 0.826209 16.287 0.750641C16.2899 0.483135 16.3289 0.365728 16.4922 0.150327C16.7082 -0.0106984 16.796 -0.0451339 17.0603 -0.0463533ZM17.7773 1.51798C17.7773 2.92499 17.7773 4.332 17.7773 5.78165C18.2542 5.78165 18.7312 5.78165 19.2226 5.78165C19.2226 4.37464 19.2226 2.96763 19.2226 1.51798C18.7456 1.51798 18.2687 1.51798 17.7773 1.51798ZM13.5859 7.29923C13.5859 7.75233 13.5859 8.20544 13.5859 8.67228C16.8291 8.67228 20.0724 8.67228 23.414 8.67228C23.414 8.21917 23.414 7.76606 23.414 7.29923C20.1707 7.29923 16.9274 7.29923 13.5859 7.29923ZM10.5507 10.1899C10.5507 10.643 10.5507 11.0961 10.5507 11.5629C15.7972 11.5629 21.0437 11.5629 26.4491 11.5629C26.4491 11.1098 26.4491 10.6567 26.4491 10.1899C21.2027 10.1899 15.9562 10.1899 10.5507 10.1899ZM8.38273 13.0805C8.38273 14.5352 8.38273 15.9899 8.38273 17.4887C8.66732 17.3748 8.89265 17.2627 9.15084 17.1045C9.23053 17.0559 9.31022 17.0072 9.39233 16.9571C9.47886 16.904 9.56538 16.8508 9.6519 16.7976C9.74245 16.7423 9.83301 16.687 9.9236 16.6317C10.1117 16.5168 10.2998 16.4018 10.4878 16.2867C10.8761 16.049 11.2654 15.813 11.6547 15.5769C11.8634 15.4503 12.072 15.3237 12.2806 15.1971C12.3221 15.1719 12.3636 15.1467 12.4063 15.1207C12.6709 14.9601 12.9355 14.7992 13.1999 14.6383C13.3813 14.5279 13.5627 14.4176 13.7441 14.3072C13.87 14.2307 13.9958 14.154 14.1216 14.0774C14.5859 13.7951 15.0527 13.5192 15.5249 13.2505C15.5766 13.2182 15.6283 13.186 15.6816 13.1527C15.6816 13.1289 15.6816 13.105 15.6816 13.0805C13.2729 13.0805 10.8643 13.0805 8.38273 13.0805ZM21.3183 13.0805C21.5729 13.2842 21.7937 13.4458 22.0706 13.6075C22.1852 13.6749 22.1852 13.6749 22.3022 13.7436C22.3844 13.7915 22.4666 13.8395 22.5513 13.889C22.7285 13.993 22.9056 14.0974 23.0826 14.2017C23.1507 14.2419 23.1507 14.2419 23.2202 14.2828C23.6952 14.563 24.1669 14.8487 24.638 15.1355C24.6793 15.1607 24.7206 15.1858 24.7631 15.2117C24.9313 15.3141 25.0994 15.4164 25.2674 15.5188C25.5792 15.7088 25.8913 15.8981 26.2035 16.0871C26.3395 16.1695 26.4755 16.2519 26.6115 16.3343C26.6972 16.3862 26.783 16.4381 26.8688 16.4899C27.3568 16.7851 27.8406 17.0849 28.3174 17.398C28.4634 17.5008 28.4634 17.5008 28.6171 17.4887C28.6171 16.034 28.6171 14.5793 28.6171 13.0805C26.2085 13.0805 23.7999 13.0805 21.3183 13.0805ZM17.3502 13.826C17.2915 13.8628 17.2329 13.8995 17.1724 13.9374C17.1082 13.9781 17.044 14.0187 16.9778 14.0606C16.4032 14.4204 15.8255 14.7743 15.2434 15.122C14.5977 15.5082 13.9533 15.8965 13.3103 16.2873C13.2683 16.3128 13.2262 16.3384 13.1829 16.3647C12.9691 16.4947 12.7553 16.6247 12.5415 16.7547C12.1189 17.0116 11.6961 17.2682 11.2734 17.5248C11.1055 17.6267 10.9376 17.7286 10.7698 17.8305C10.7281 17.8558 10.6865 17.8811 10.6436 17.9071C10.3849 18.0642 10.1261 18.2214 9.86741 18.3787C9.02928 18.8882 8.19088 19.3971 7.34921 19.9007C6.48673 20.4173 5.62843 20.9409 4.76945 21.4633C4.8103 21.8563 4.88119 22.221 4.99717 22.5993C5.02089 22.6787 5.02089 22.6787 5.04509 22.7597C5.09759 22.935 5.15074 23.1101 5.20389 23.2852C5.24164 23.4108 5.27934 23.5364 5.317 23.662C5.39758 23.9304 5.47845 24.1988 5.55953 24.4671C5.68714 24.8894 5.81412 25.3118 5.94098 25.7343C6.07123 26.168 6.20151 26.6017 6.33199 27.0353C6.728 28.3515 7.12073 29.6686 7.51213 30.9862C7.59669 31.2708 7.68134 31.5554 7.76603 31.84C7.82943 32.0531 7.89279 32.2662 7.95612 32.4793C7.98495 32.5763 8.0138 32.6733 8.04267 32.7702C8.08234 32.9035 8.12193 33.0369 8.16152 33.1702C8.18634 33.2533 8.21115 33.3364 8.23672 33.422C8.28867 33.601 8.33838 33.7798 8.38575 33.96C8.41021 34.0514 8.43467 34.1428 8.45987 34.2369C8.49188 34.3606 8.49188 34.3606 8.52453 34.4868C8.5874 34.7117 8.5874 34.7117 8.83157 34.8576C9.13563 34.9099 9.42043 34.9406 9.72868 34.9363C9.81453 34.9353 9.81453 34.9353 9.90211 34.9343C10.8203 34.9076 11.5656 34.5225 12.3638 34.1089C13.3686 33.5896 14.2743 33.292 15.406 33.2742C15.4758 33.2723 15.5456 33.2703 15.6176 33.2683C16.4 33.2723 16.9678 33.4738 17.7773 33.6762C17.7773 27.0704 17.7773 20.4646 17.7773 13.6586C17.588 13.6586 17.51 13.7249 17.3502 13.826ZM19.2226 13.6586C19.2226 20.5029 19.2226 27.3472 19.2226 34.3988C20.2608 34.918 21.3377 35.1514 22.4745 34.8324C22.9065 34.6835 23.3144 34.4855 23.7234 34.2834C25.4421 33.4351 26.8268 33.129 28.7616 33.3871C29.4075 31.2894 30.0355 29.1865 30.6586 27.0819C30.677 27.0198 30.6954 26.9576 30.7144 26.8936C30.9565 26.0758 30.9565 26.0758 31.1981 25.2578C31.2327 25.1406 31.2672 25.0234 31.3018 24.9062C31.3187 24.8488 31.3357 24.7913 31.3531 24.7321C31.4576 24.3781 31.5628 24.0243 31.6686 23.6707C31.7371 23.4413 31.8053 23.2119 31.8735 22.9825C31.9056 22.8748 31.9378 22.7672 31.9702 22.6597C32.0145 22.5122 32.0584 22.3647 32.1022 22.2171C32.127 22.1339 32.1519 22.0508 32.1775 21.9651C32.242 21.7421 32.242 21.7421 32.2304 21.4633C32.0586 21.3201 32.0586 21.3201 31.8273 21.1937C31.7847 21.1686 31.7421 21.1435 31.6982 21.1176C31.557 21.0346 31.4149 20.9532 31.2729 20.8716C31.1737 20.8136 31.0747 20.7555 30.9757 20.6973C30.7714 20.5773 30.5668 20.4577 30.3621 20.3383C29.9603 20.1034 29.5627 19.8617 29.1654 19.6192C28.9988 19.5176 28.8321 19.4162 28.6653 19.3149C28.54 19.2388 28.4148 19.1626 28.2896 19.0864C27.869 18.8306 27.4481 18.5752 27.0273 18.3197C26.8594 18.2178 26.6915 18.1159 26.5237 18.014C26.482 17.9888 26.4404 17.9635 26.3976 17.9375C26.1388 17.7803 25.88 17.6231 25.6213 17.4659C24.447 16.7519 24.447 16.7519 23.2695 16.0434C22.6842 15.6929 22.1003 15.3402 21.517 14.9865C21.4517 14.9469 21.4517 14.9469 21.3851 14.9065C20.8157 14.5613 20.2478 14.2138 19.688 13.8531C19.4725 13.7048 19.4725 13.7048 19.2226 13.6586Z" fill="#20376D"/>
<path d="M13.6583 18.2828C14.0707 18.5085 14.0707 18.5085 14.1641 18.7887C14.1915 19.1584 14.174 19.3612 13.9473 19.6559C13.7525 19.8064 13.5441 19.9314 13.3331 20.0579C13.2081 20.1347 13.0831 20.2116 12.9582 20.2885C12.8943 20.3274 12.8304 20.3664 12.7645 20.4065C12.4703 20.5868 12.1791 20.7718 11.8877 20.9567C11.7742 21.0284 11.6606 21.1001 11.547 21.1718C11.2488 21.3601 10.951 21.5488 10.6531 21.7377C10.4794 21.8476 10.3053 21.9569 10.1311 22.0661C9.95336 22.1776 9.77841 22.291 9.60432 22.4082C9.26951 22.6286 9.00651 22.7579 8.59825 22.7297C8.35875 22.665 8.24021 22.5219 8.0938 22.3297C7.99024 22.1226 7.99939 21.9819 8.02154 21.7516C8.25225 21.2725 8.66544 21.0682 9.11004 20.8031C9.26776 20.7069 9.42547 20.6106 9.58315 20.5143C9.66145 20.4669 9.73974 20.4195 9.82041 20.3707C10.134 20.1798 10.4442 19.9837 10.7541 19.7869C10.864 19.7174 10.9739 19.648 11.0838 19.5785C11.3204 19.4288 11.5567 19.2785 11.7929 19.128C11.8549 19.0886 11.9168 19.0492 11.9807 19.0087C12.0988 18.9336 12.2168 18.8583 12.3347 18.7829C13.2222 18.2193 13.2222 18.2193 13.6583 18.2828Z" fill="#20376D"/>
<path d="M24.2813 18.3553C24.8502 18.5874 25.3667 18.9685 25.8837 19.298C26.3529 19.5971 26.8269 19.8874 27.3029 20.1755C27.7734 20.4609 28.2435 20.7467 28.7075 21.0427C28.7839 21.0914 28.8603 21.1401 28.939 21.1903C29.3152 21.4517 29.3152 21.4517 29.3845 21.6858C29.4153 21.9598 29.4313 22.138 29.3263 22.3977C29.1227 22.6294 28.9885 22.6778 28.685 22.7274C28.0072 22.6413 27.3748 22.1213 26.8061 21.7608C26.326 21.4583 25.8454 21.1568 25.361 20.8612C25.319 20.8355 25.2769 20.8098 25.2335 20.7833C25.0303 20.6591 24.8268 20.5352 24.6231 20.4117C23.5145 19.7344 23.5145 19.7344 23.2696 19.367C23.2261 19.1437 23.2257 18.94 23.2696 18.7167C23.5512 18.3716 23.8339 18.2494 24.2813 18.3553Z" fill="#20376D"/>
<path d="M16.1874 16.7654C16.3865 16.9231 16.508 17.0452 16.621 17.2713C16.6485 17.5632 16.6516 17.726 16.499 17.9804C16.2552 18.211 16.0903 18.2855 15.7538 18.2785C15.4813 18.1933 15.3592 18.0644 15.1757 17.8494C15.0738 17.6456 15.0857 17.4974 15.1034 17.2713C15.3389 16.7779 15.6701 16.6737 16.1874 16.7654Z" fill="#20376D"/>
<path d="M21.9688 16.9097C22.1471 17.0652 22.2391 17.1759 22.2852 17.4105C22.3015 17.689 22.2755 17.8214 22.1223 18.0614C21.91 18.2674 21.8523 18.2804 21.5487 18.3053C21.325 18.3012 21.2425 18.2807 21.0383 18.1698C20.8427 17.9454 20.7858 17.7815 20.7402 17.4878C20.7888 17.2351 20.8351 17.1023 21.0203 16.9232C21.3733 16.7259 21.5871 16.7597 21.9688 16.9097Z" fill="#20376D"/>
</g>
<defs>
<clipPath id="clip0_503_119">
<rect width="37" height="37" fill="white"/>
</clipPath>
</defs>
</svg>
