<svg width="87" height="88" viewBox="0 0 87 88" fill="none" xmlns="http://www.w3.org/2000/svg">
<path d="M68.9224 10.9707C69.1579 10.9712 69.3934 10.9717 69.629 10.972C70.2386 10.9731 70.8483 10.976 71.4579 10.9794C72.0841 10.9825 72.7104 10.9839 73.3366 10.9854C74.5577 10.9886 75.7789 10.9937 77 11C77.0106 12.2463 77.0186 13.4925 77.0234 14.7388C77.0257 15.3179 77.0288 15.8971 77.034 16.4762C77.08 21.7266 76.4967 26.7306 74.8945 31.7539C74.8334 31.9461 74.8334 31.9461 74.7709 32.1421C73.0128 37.5413 70.1082 42.7107 66.3223 46.9434C66.2067 47.0737 66.0912 47.204 65.9721 47.3382C65.7518 47.5847 65.5303 47.8303 65.3077 48.0749C65.066 48.3405 64.8261 48.6078 64.5875 48.8762C64.459 49.02 64.3304 49.1638 64.198 49.3121C64.0828 49.4416 63.9677 49.5711 63.849 49.7045C63.4648 50.1016 63.4648 50.1016 63.1861 50.3004C62.6146 50.7065 62.6146 50.7065 62.3354 51.3254C62.3244 51.7084 62.3442 52.0789 62.3745 52.4609C62.385 52.7449 62.3938 53.0291 62.4009 53.3133C62.4046 53.4558 62.4082 53.5984 62.4119 53.7453C62.414 57.6577 60.6357 61.669 58.0508 64.5391C57.948 64.6632 57.8453 64.7873 57.7394 64.9151C55.9494 67.0288 53.5806 68.3507 51.2312 69.7473C50.3003 70.3008 49.3746 70.8627 48.4495 71.4257C48.1839 71.5871 47.9182 71.7482 47.6524 71.9091C46.8703 72.383 46.0898 72.8589 45.3146 73.344C45.1875 73.4231 45.0605 73.5023 44.9296 73.5838C44.6982 73.7282 44.4674 73.8736 44.2374 74.0201C43.9847 74.1775 43.7245 74.3227 43.4629 74.4649C43.3636 74.4153 43.2644 74.3656 43.1621 74.3145C43.0526 73.957 42.962 73.6079 42.8795 73.244C42.8398 73.076 42.8398 73.076 42.7993 72.9046C42.7118 72.5326 42.6262 72.1602 42.5406 71.7878C42.4804 71.5298 42.4201 71.2719 42.3598 71.0139C42.2334 70.4723 42.1078 69.9306 41.9828 69.3887C41.8227 68.694 41.6608 67.9997 41.4984 67.3056C41.3737 66.7725 41.2498 66.2392 41.126 65.7059C41.0666 65.4499 41.007 65.1939 40.9472 64.938C40.8637 64.5799 40.7811 64.2217 40.6988 63.8633C40.674 63.7575 40.6491 63.6516 40.6235 63.5425C40.512 63.053 40.4551 62.639 40.4551 62.1329C39.63 62.8377 38.8459 63.571 38.0817 64.3411C37.9766 64.4465 37.8715 64.5518 37.7632 64.6603C37.4319 64.9924 37.1012 65.325 36.7705 65.6576C36.5442 65.8847 36.3178 66.1118 36.0914 66.3388C35.5403 66.8915 34.9898 67.4447 34.4395 67.9981C34.013 67.804 33.7036 67.6006 33.373 67.2696C33.2851 67.1823 33.1972 67.0951 33.1067 67.0052C33.012 66.9097 32.9174 66.8142 32.8199 66.7159C32.7189 66.6151 32.6178 66.5143 32.5136 66.4105C32.1795 66.0768 31.8464 65.7421 31.5133 65.4074C31.2807 65.1746 31.0481 64.9419 30.8154 64.7092C30.3273 64.2209 29.8397 63.7321 29.3526 63.2429C28.7304 62.6182 28.1072 61.9944 27.4836 61.371C27.0027 60.89 26.5222 60.4087 26.0418 59.9272C25.8123 59.6973 25.5828 59.4674 25.3531 59.2376C25.0306 58.9148 24.7087 58.5916 24.3869 58.2682C24.2932 58.1745 24.1995 58.0809 24.1029 57.9844C23.5402 57.4177 23.0059 56.833 22.4848 56.2277C22.2012 55.9017 21.9024 55.5944 21.5957 55.2901C21.4838 55.1786 21.3718 55.0671 21.2565 54.9523C21.0868 54.7845 21.0868 54.7845 20.9137 54.6133C20.7379 54.4386 20.7379 54.4386 20.5586 54.2603C20.2731 53.9766 19.9873 53.6932 19.7012 53.4102C20.3584 52.6237 21.05 51.8908 21.7773 51.169C21.8861 51.0604 21.995 50.9517 22.1072 50.8397C22.4516 50.4962 22.7965 50.1532 23.1414 49.8102C23.3764 49.576 23.6114 49.3417 23.8463 49.1073C24.4193 48.536 24.9927 47.9651 25.5664 47.3946C24.4445 47.1132 23.3225 46.8321 22.2005 46.5512C21.6791 46.4206 21.1578 46.29 20.6365 46.1592C18.2226 45.5538 15.8077 44.9549 13.3848 44.3868C13.5512 43.8518 13.719 43.3785 14.0251 42.9087C14.1271 42.75 14.1271 42.75 14.2312 42.5881C14.3426 42.4176 14.3426 42.4176 14.4563 42.2437C14.6204 41.9883 14.7843 41.7327 14.948 41.4771C15.0358 41.3402 15.1235 41.2033 15.2139 41.0622C15.7064 40.2865 16.1851 39.5023 16.6652 38.7189C16.8697 38.3862 17.0744 38.0535 17.2791 37.7208C17.5879 37.2188 17.8966 36.7167 18.2045 36.2142C18.5019 35.7294 18.8006 35.2455 19.0996 34.7618C19.1878 34.6174 19.276 34.473 19.3668 34.3243C19.9654 33.3591 20.628 32.4751 21.3555 31.6036C21.5139 31.4122 21.5139 31.4122 21.6755 31.2169C24.6496 27.675 29.0559 25.8012 33.5765 25.3312C34.0613 25.2906 34.5215 25.2939 35.0064 25.3324C36.3118 25.458 36.3118 25.458 37.4702 24.9447C37.8338 24.567 38.1444 24.1518 38.4554 23.7307C38.7729 23.3265 39.1427 22.9882 39.5245 22.6459C39.5992 22.5784 39.6738 22.5109 39.7507 22.4413C40.6505 21.6388 41.6009 20.9027 42.5605 20.1739C42.6904 20.0739 42.6904 20.0739 42.8228 19.9719C45.0838 18.235 47.5058 16.7127 50.0877 15.5003C50.391 15.3566 50.6914 15.2079 50.9918 15.0582C52.5983 14.2668 54.2409 13.6518 55.9453 13.1055C56.1532 13.0383 56.1532 13.0383 56.3653 12.9697C60.4433 11.6686 64.6413 10.9398 68.9224 10.9707Z" fill="#20376D"/>
<path d="M55.3437 13.4062C55.3749 13.5794 55.4061 13.7525 55.4383 13.9309C56.3321 18.6435 58.4637 22.507 61.6601 26.0391C61.4678 26.5935 61.2584 26.9477 60.842 27.3596C60.684 27.5176 60.684 27.5176 60.5227 27.6787C60.4091 27.79 60.2956 27.9012 60.1785 28.0159C60.0621 28.1316 59.9457 28.2474 59.8258 28.3667C59.4545 28.7355 59.0816 29.1027 58.7087 29.4698C58.4564 29.7199 58.2042 29.9701 57.952 30.2203C57.3344 30.833 56.7155 31.4443 56.0957 32.0547C55.6347 31.8334 55.2889 31.5907 54.9019 31.2557C53.1246 29.8439 50.915 29.6212 48.7265 29.7988C46.7077 30.1854 44.8784 31.209 43.6397 32.8748C42.3198 34.9893 41.9332 37.235 42.3572 39.687C42.7516 41.0893 43.4569 42.3287 44.5156 43.334C44.3206 43.7626 44.1148 44.0734 43.783 44.4065C43.6949 44.4957 43.6068 44.5849 43.516 44.6768C43.3714 44.8209 43.3714 44.8209 43.2238 44.9678C43.1221 45.0704 43.0203 45.1729 42.9155 45.2785C42.579 45.6171 42.2414 45.9545 41.9037 46.2919C41.6695 46.5266 41.4354 46.7614 41.2013 46.9963C40.7105 47.4882 40.2191 47.9795 39.7274 48.4704C39.0966 49.1003 38.4676 49.7319 37.8391 50.3639C37.356 50.8492 36.872 51.3333 36.3876 51.8172C36.1552 52.0497 35.9232 52.2826 35.6915 52.5158C35.3678 52.8413 35.0428 53.1653 34.7173 53.489C34.6215 53.5859 34.5257 53.6829 34.427 53.7828C34.3381 53.8707 34.2491 53.9586 34.1574 54.0492C34.0807 54.1259 34.0041 54.2026 33.925 54.2817C33.6392 54.4997 33.4444 54.5815 33.0859 54.6133C32.7289 54.3256 32.4263 54.0445 32.1101 53.7162C32.0167 53.6221 31.9232 53.5279 31.8269 53.4309C31.5273 53.128 31.2304 52.8227 30.9334 52.5172C30.7351 52.3164 30.5367 52.1158 30.338 51.9154C29.4942 51.0605 28.6635 50.2027 27.8856 49.2868C27.6705 49.0473 27.4453 48.8379 27.2019 48.6276C27.0592 48.503 26.9165 48.3783 26.7695 48.2499C26.6237 48.1264 26.4779 48.0029 26.3277 47.8757C25.7918 47.0444 26.0605 46.2382 26.2602 45.3127C26.3695 44.8658 26.4914 44.4245 26.6191 43.9825C26.6891 43.7384 26.6891 43.7384 26.7606 43.4893C28.5526 37.3913 31.5274 31.7852 35.6425 26.9414C35.7805 26.7774 35.9183 26.6133 36.0561 26.4491C36.341 26.1103 36.6271 25.7725 36.9144 25.4357C37.132 25.18 37.3486 24.9233 37.5618 24.6638C38.9271 23.0302 40.6011 21.6529 42.2948 20.3744C42.4709 20.2415 42.6465 20.1077 42.8215 19.9732C45.0814 18.2368 47.5025 16.7142 50.083 15.5016C50.3994 15.3526 50.7141 15.2003 51.0288 15.0476C54.4343 13.4062 54.4343 13.4062 55.3437 13.4062Z" fill="#20376D"/>
<path d="M68.9224 10.9707C69.1579 10.9713 69.3934 10.9717 69.629 10.972C70.2386 10.9732 70.8483 10.9761 71.4579 10.9795C72.0842 10.9826 72.7104 10.9839 73.3366 10.9854C74.5577 10.9886 75.7789 10.9937 77 11.0001C77.0106 12.2464 77.0186 13.4926 77.0234 14.7388C77.0257 15.318 77.0288 15.8971 77.034 16.4763C77.0786 21.567 77.0241 27.7395 74.5938 32.3556C68.7536 31.6621 63.4979 28.7521 59.7991 24.1552C57.5095 21.1939 55.3245 17.0701 55.3438 13.256C57.439 12.6152 59.5226 12.0174 61.679 11.6205C61.8333 11.5918 61.9877 11.5632 62.1468 11.5337C64.4032 11.1385 66.6338 10.9542 68.9224 10.9707Z" fill="#20376D"/>
<path d="M62.1113 51.0039C62.5012 51.3938 62.4549 51.6696 62.4617 52.2017C62.4297 56.7625 61.1476 61.1005 58.0507 64.5391C57.948 64.6631 57.8452 64.7872 57.7394 64.915C55.9493 67.0288 53.5806 68.3506 51.2312 69.7473C50.3003 70.3007 49.3746 70.8626 48.4494 71.4256C48.1839 71.5871 47.9182 71.7481 47.6523 71.9091C46.8703 72.383 46.0898 72.8589 45.3145 73.344C45.124 73.4626 45.124 73.4626 44.9295 73.5837C44.6982 73.7281 44.4674 73.8735 44.2373 74.0201C43.9846 74.1775 43.7244 74.3227 43.4629 74.4648C43.3636 74.4152 43.2643 74.3656 43.1621 74.3145C43.0472 73.9372 42.9512 73.5676 42.8632 73.1839C42.8351 73.0656 42.8069 72.9472 42.7779 72.8253C42.6848 72.4323 42.5935 72.039 42.5024 71.6456C42.4384 71.3734 42.3744 71.1012 42.3104 70.8291C42.1762 70.2579 42.0429 69.6866 41.9103 69.1151C41.7399 68.3812 41.5675 67.6478 41.3944 66.9146C41.2619 66.3524 41.1304 65.79 40.9993 65.2275C40.9361 64.9569 40.8725 64.6864 40.8087 64.416C40.7198 64.0385 40.6323 63.6607 40.5451 63.2828C40.5049 63.1139 40.5049 63.1139 40.4639 62.9416C40.2875 62.1672 40.2875 62.1672 40.455 61.832C40.7918 61.7251 40.7918 61.7251 41.2428 61.6252C41.4107 61.5865 41.5786 61.5477 41.7516 61.5078C41.9348 61.4659 42.118 61.424 42.3067 61.3809C49.751 59.5954 56.3537 56.0005 62.1113 51.0039Z" fill="#2C95D2"/>
<path d="M36.9961 25.4372C36.8239 25.6326 36.8239 25.6326 36.6483 25.8319C35.8817 26.7293 35.1566 27.6584 34.4395 28.5954C34.3628 28.6952 34.2861 28.7951 34.2071 28.898C30.1347 34.2453 27.2125 40.6175 26.0176 47.2438C24.6155 47.1553 23.2903 46.8234 21.9324 46.4866C21.685 46.426 21.4377 46.3655 21.1903 46.3051C20.5438 46.1471 19.8976 45.9878 19.2515 45.8282C18.5903 45.6652 17.9288 45.5033 17.2673 45.3413C15.9728 45.0241 14.6787 44.7057 13.3848 44.3864C13.5579 43.853 13.7184 43.3789 14.0251 42.9083C14.0931 42.8025 14.1611 42.6967 14.2312 42.5877C14.3055 42.4741 14.3798 42.3604 14.4563 42.2433C14.6204 41.9879 14.7843 41.7324 14.948 41.4767C15.0358 41.3398 15.1235 41.2029 15.2139 41.0618C15.7064 40.2861 16.1851 39.5019 16.6652 38.7185C16.8697 38.3858 17.0744 38.0531 17.2791 37.7204C17.5879 37.2184 17.8966 36.7163 18.2045 36.2138C18.5019 35.7291 18.8006 35.2451 19.0996 34.7614C19.1878 34.617 19.276 34.4726 19.3668 34.3239C19.9654 33.3587 20.628 32.4747 21.3555 31.6032C21.4611 31.4756 21.5667 31.348 21.6755 31.2166C24.6678 27.6529 29.1032 25.7751 33.6546 25.3385C34.7923 25.2398 35.8671 25.2699 36.9961 25.4372Z" fill="#2C95D2"/>
<path d="M77 11C77.0106 12.2462 77.0186 13.4924 77.0234 14.7387C77.0257 15.3179 77.0288 15.897 77.034 16.4762C77.0786 21.5669 77.0241 27.7394 74.5938 32.3555C69.6502 31.7684 65.4736 29.6819 61.8105 26.3398C62.0313 25.8303 62.3144 25.4977 62.706 25.1064C62.8302 24.9816 62.9544 24.8567 63.0824 24.7281C63.2189 24.5925 63.3554 24.4568 63.496 24.3171C63.6411 24.1718 63.7861 24.0265 63.931 23.8812C64.3243 23.4872 64.7185 23.0941 65.113 22.7012C65.5253 22.2902 65.9367 21.8785 66.3484 21.4668C67.0393 20.776 67.7308 20.0858 68.4226 19.396C69.2236 18.5974 70.0238 17.798 70.8235 16.9982C71.5921 16.2295 72.3611 15.4613 73.1303 14.6933C73.4581 14.366 73.7858 14.0386 74.1134 13.7111C74.4986 13.3261 74.8841 12.9415 75.2699 12.5572C75.4798 12.3479 75.6894 12.1383 75.8989 11.9286C76.0227 11.8055 76.1465 11.6823 76.274 11.5555C76.3822 11.4476 76.4903 11.3397 76.6018 11.2285C76.8496 11 76.8496 11 77 11Z" fill="#2C95D2"/>
<path d="M16.7108 68.1739C17.413 68.4827 17.9364 69.1639 18.4699 69.699C18.6721 69.8948 18.6721 69.8948 18.8784 70.0946C19.0051 70.2209 19.1318 70.3472 19.2623 70.4774C19.379 70.593 19.4957 70.7086 19.6159 70.8277C19.8516 71.1559 19.8516 71.1559 19.8169 71.4481C19.6878 71.7932 19.5494 71.9647 19.289 72.2232C19.2026 72.3101 19.1162 72.397 19.0271 72.4865C18.933 72.5788 18.8388 72.6711 18.7418 72.7661C18.6448 72.8629 18.5477 72.9597 18.4477 73.0594C18.2417 73.2644 18.0353 73.4687 17.8283 73.6726C17.5149 73.9814 17.2031 74.2916 16.8916 74.6022C16.6907 74.8018 16.4897 75.0012 16.2886 75.2006C16.1966 75.2919 16.1046 75.3833 16.0098 75.4775C15.5667 75.9134 15.1181 76.3338 14.6445 76.7363C13.8058 77.4628 13.0392 78.2623 12.2621 79.0532C11.8786 79.4431 11.4937 79.8315 11.1089 80.22C10.3946 80.9411 9.68094 81.6629 8.96968 82.387C8.4726 82.893 7.97373 83.3972 7.4736 83.9001C7.28367 84.0918 7.09444 84.2842 6.9059 84.4772C6.64349 84.7458 6.37887 85.0119 6.11358 85.2776C6.03607 85.3581 5.95856 85.4385 5.87871 85.5214C5.65906 85.7386 5.65906 85.7386 5.26367 86.0446C4.66701 86.027 4.38306 85.6674 3.9783 85.2544C3.85132 85.126 3.72434 84.9976 3.59351 84.8652C3.46227 84.7302 3.33102 84.5952 3.1958 84.4561C3.06223 84.3205 2.92866 84.1849 2.79104 84.0451C2.46122 83.71 2.1325 83.3739 1.80469 83.0368C2.02294 82.5367 2.29657 82.2054 2.67999 81.8194C2.85962 81.6376 2.85962 81.6376 3.04289 81.452C3.17446 81.3203 3.30603 81.1887 3.44158 81.053C3.58001 80.9133 3.71844 80.7736 3.86106 80.6297C4.24034 80.2472 4.62059 79.8656 5.00114 79.4843C5.23876 79.2461 5.47618 79.0077 5.71353 78.7693C6.54129 77.9379 7.3699 77.1073 8.19923 76.2774C8.97294 75.5032 9.74465 74.727 10.5155 73.9498C11.1772 73.2829 11.8403 72.6175 12.5045 71.9532C12.9013 71.5562 13.2975 71.1587 13.6923 70.7597C14.132 70.3154 14.5746 69.8741 15.0175 69.433C15.214 69.2332 15.214 69.2332 15.4144 69.0294C15.535 68.9102 15.6556 68.7911 15.7799 68.6683C15.8843 68.5636 15.9887 68.4589 16.0963 68.351C16.3926 68.1481 16.3926 68.1481 16.7108 68.1739Z" fill="#20376D"/>
<path d="M55.7949 32.2051C56.7728 32.6512 57.2288 33.6541 57.6454 34.6107C58.4867 36.8735 58.3743 39.0125 57.401 41.2297C56.3304 43.3299 54.6408 44.7345 52.407 45.4859C50.2623 46.0856 48.1384 45.8039 46.1793 44.7721C45.6252 44.4429 45.1452 44.0648 44.666 43.6348C44.8636 43.1982 45.0752 42.8875 45.414 42.5498C45.5056 42.4578 45.5971 42.3659 45.6914 42.2712C45.8416 42.1226 45.8416 42.1226 45.9949 41.9709C46.1006 41.8652 46.2062 41.7595 46.3151 41.6506C46.6643 41.3016 47.0146 40.9537 47.3648 40.6058C47.6072 40.364 47.8496 40.1221 48.0918 39.8801C48.7296 39.2435 49.3682 38.6079 50.007 37.9724C50.6587 37.3237 51.3096 36.6742 51.9605 36.0248C53.2378 34.7507 54.5161 33.4776 55.7949 32.2051Z" fill="#E7E7E7"/>
<path d="M45.0552 43.7275C44.0773 43.2814 43.6213 42.2785 43.2047 41.3219C42.3634 39.0591 42.4758 36.9201 43.4491 34.7029C44.5197 32.6027 46.2093 31.1981 48.4431 30.4468C50.5878 29.847 52.7117 30.1287 54.6708 31.1605C55.2249 31.4897 55.7049 31.8678 56.1841 32.2979C55.9865 32.7344 55.7749 33.0452 55.4361 33.3828C55.3445 33.4748 55.253 33.5667 55.1587 33.6614C55.0085 33.8101 55.0085 33.8101 54.8552 33.9617C54.7495 34.0674 54.6439 34.1731 54.535 34.282C54.1858 34.631 53.8355 34.9789 53.4853 35.3268C53.2429 35.5687 53.0005 35.8106 52.7583 36.0525C52.1205 36.6891 51.4819 37.3248 50.8431 37.9602C50.1914 38.6089 49.5405 39.2584 48.8895 39.9079C47.6123 41.1819 46.334 42.455 45.0552 43.7275Z" fill="#E7E7E7"/>
<path d="M33.2363 54.7637C34.1206 55.4972 34.9311 56.2885 35.7407 57.103C35.8761 57.2385 36.0114 57.3741 36.1509 57.5138C36.5074 57.871 36.8636 58.2286 37.2197 58.5863C37.5844 58.9526 37.9495 59.3184 38.3147 59.6843C39.0285 60.3998 39.742 61.1157 40.4551 61.832C39.7882 62.6307 39.0842 63.3733 38.3461 64.1061C38.2339 64.2181 38.1216 64.3301 38.006 64.4455C37.6509 64.7998 37.2953 65.1535 36.9397 65.5072C36.6974 65.7487 36.4552 65.9903 36.213 66.2318C35.6222 66.821 35.031 67.4097 34.4395 67.998C33.9018 67.7697 33.5584 67.4543 33.1484 67.0419C33.0129 66.9064 32.8775 66.7709 32.7379 66.6314C32.5915 66.4834 32.4451 66.3355 32.2987 66.1875C32.1479 66.0361 31.9971 65.8848 31.8461 65.7336C31.4499 65.3362 31.0545 64.9379 30.6594 64.5394C30.2557 64.1326 29.8511 63.7267 29.4466 63.3207C28.6537 62.5245 27.8617 61.7274 27.0703 60.9297C29.1257 58.8743 31.181 56.819 33.2363 54.7637Z" fill="#2C95D2"/>
<path d="M27.6967 70.1221C28.391 70.4548 28.9117 71.1166 29.4484 71.6548C29.6506 71.8507 29.6506 71.8507 29.8569 72.0505C29.9836 72.1768 30.1103 72.3031 30.2409 72.4332C30.3575 72.5488 30.4742 72.6644 30.5944 72.7835C30.8301 73.1117 30.8301 73.1117 30.8057 73.3936C30.6427 73.8071 30.417 74.0312 30.1019 74.3447C29.9793 74.4677 29.8568 74.5907 29.7305 74.7175C29.5301 74.9151 29.5301 74.9151 29.3256 75.1167C29.1885 75.2536 29.0513 75.3904 28.91 75.5314C28.6193 75.8215 28.3278 76.1108 28.0358 76.3995C27.6645 76.7666 27.2945 77.1349 26.925 77.5037C26.5695 77.8584 26.2134 78.2124 25.8572 78.5663C25.7257 78.6972 25.5942 78.828 25.4588 78.9628C24.7931 79.6208 24.1189 80.2593 23.4075 80.8678C23.1099 81.126 22.8314 81.3998 22.5586 81.684C22.0221 81.4563 21.6808 81.1418 21.2732 80.7288C21.1462 80.6008 21.0193 80.4729 20.8884 80.3411C20.7572 80.2073 20.6259 80.0735 20.4907 79.9357C20.2904 79.7333 20.2904 79.7333 20.086 79.5268C19.7565 79.1938 19.4277 78.8601 19.0996 78.5258C19.9068 77.5493 20.7901 76.6522 21.6809 75.753C21.7606 75.6724 21.8404 75.5919 21.9225 75.509C22.343 75.0845 22.764 74.6605 23.1854 74.2369C23.5336 73.8867 23.8807 73.5354 24.2268 73.1832C24.6465 72.7561 25.068 72.3309 25.4908 71.907C25.6513 71.7455 25.8111 71.5834 25.9703 71.4206C26.1921 71.1941 26.416 70.9701 26.6407 70.7466C26.8309 70.5545 26.8309 70.5545 27.0251 70.3585C27.3711 70.1039 27.3711 70.1039 27.6967 70.1221Z" fill="#20376D"/>
<path d="M8.27148 63.4863C8.80138 63.7358 9.1436 64.0227 9.55685 64.4415C9.68383 64.5695 9.81081 64.6974 9.94164 64.8293C10.0729 64.963 10.2041 65.0968 10.3394 65.2346C10.4729 65.3695 10.6065 65.5045 10.7441 65.6435C11.0736 65.9765 11.4023 66.3102 11.7305 66.6445C11.5007 67.209 11.1693 67.5096 10.713 67.907C9.27374 69.1898 7.93256 70.5761 6.57304 71.942C6.20423 72.3124 5.83497 72.6823 5.46576 73.0523C4.74628 73.7734 4.02728 74.4949 3.30859 75.2168C2.70135 74.9375 2.28556 74.5343 1.82349 74.0607C1.74376 73.98 1.66403 73.8993 1.58189 73.8161C1.02784 73.2512 0.501271 72.6713 0 72.0586C0.236901 71.4791 0.628253 71.089 1.06661 70.6571C1.1444 70.5792 1.22219 70.5014 1.30233 70.4212C1.55876 70.165 1.81624 69.9098 2.07375 69.6547C2.25209 69.4769 2.43036 69.2991 2.60857 69.1212C3.07717 68.6537 3.54666 68.1872 4.01635 67.7208C4.49572 67.2445 4.97424 66.7674 5.45284 66.2903C6.39155 65.3548 7.33122 64.4203 8.27148 63.4863Z" fill="#2C95D2"/>
<path d="M14.9003 57.1782C15.238 57.3441 15.4303 57.5228 15.6824 57.802C15.772 57.8999 15.8617 57.9978 15.9541 58.0987C16.0461 58.2016 16.1381 58.3046 16.2328 58.4106C16.4158 58.6121 16.5989 58.8134 16.7821 59.0146C16.9124 59.1584 16.9124 59.1584 17.0452 59.3051C17.3693 59.6568 17.7052 59.9935 18.0469 60.3281C17.6915 61.1461 17.031 61.7063 16.4114 62.3302C16.2274 62.5217 16.2274 62.5217 16.0396 62.717C15.8613 62.8969 15.8613 62.8969 15.6794 63.0804C15.5711 63.1908 15.4628 63.3011 15.3511 63.4148C15.0391 63.6367 15.0391 63.6367 14.7414 63.635C14.0346 63.2892 13.5109 62.6365 12.9618 62.0858C12.827 61.9552 12.6922 61.8247 12.5533 61.6902C12.4266 61.5639 12.2999 61.4376 12.1694 61.3074C12.0527 61.1918 11.936 61.0762 11.8158 60.9571C11.5801 60.6289 11.5801 60.6289 11.5798 60.3288C11.9318 59.6247 12.5798 59.1012 13.131 58.5516C13.2616 58.4168 13.3922 58.282 13.5267 58.1431C13.653 58.0164 13.7793 57.8897 13.9094 57.7591C14.025 57.6425 14.1406 57.5258 14.2597 57.4056C14.5879 57.1699 14.5879 57.1699 14.9003 57.1782Z" fill="#20376D"/>
<path d="M15.9414 81.5332C16.7312 82.1926 17.4652 82.888 18.1879 83.6199C18.2907 83.7234 18.3936 83.8269 18.4995 83.9336C18.75 84.1858 19.0002 84.4385 19.25 84.6914C18.8946 85.5094 18.234 86.0696 17.6145 86.6935C17.4304 86.885 17.4304 86.885 17.2426 87.0803C17.0644 87.2602 17.0644 87.2602 16.8825 87.4437C16.7742 87.554 16.6658 87.6644 16.5542 87.7781C16.2422 88 16.2422 88 15.9441 87.9996C15.5362 87.798 15.2753 87.5348 14.9568 87.2099C14.8298 87.0814 14.7029 86.953 14.572 86.8207C14.4408 86.6856 14.3095 86.5506 14.1743 86.4115C14.0407 86.2759 13.9072 86.1403 13.7696 86.0006C13.4397 85.6654 13.111 85.3293 12.7832 84.9922C13.0109 84.4556 13.3254 84.1143 13.7384 83.7068C13.8664 83.5798 13.9943 83.4529 14.1261 83.322C14.2599 83.1908 14.3937 83.0595 14.5315 82.9243C14.6664 82.7907 14.8014 82.6572 14.9404 82.5196C15.2734 82.1901 15.6071 81.8613 15.9414 81.5332Z" fill="#2C95D2"/>
<path d="M44.086 83.1697C55.4589 78.951 78.8465 64.7773 81.4139 41.8311" stroke="#20376D" stroke-width="5" stroke-linecap="round"/>
<path d="M44.3419 5.00017C32.7824 8.67681 8.75134 21.7299 5.10279 44.5292" stroke="#20376D" stroke-width="5" stroke-linecap="round"/>
<circle cx="50.5" cy="38.5" r="8.5" fill="#E7E7E7"/>
<circle cx="50.5" cy="38.5" r="6.5" fill="#2C95D2"/>
</svg>
