<svg width="29" height="29" viewBox="0 0 29 29" fill="none" xmlns="http://www.w3.org/2000/svg">
<path d="M20.735 0.47879C19.5186 0.0292055 18.1815 0.0292055 16.965 0.47879L10.7199 2.78719C10.2337 2.96701 9.81416 3.29145 9.51786 3.71685C9.22155 4.14226 9.06265 4.64821 9.06255 5.16664V9.21649C10.2311 9.02959 11.4282 9.14694 12.5382 9.55724L18.7819 11.8656C19.5465 12.1481 20.2062 12.6582 20.6721 13.327C21.138 13.9959 21.3877 14.7915 21.3875 15.6066V23.8281C21.3875 24.295 21.3063 24.7474 21.1555 25.1708L26.9802 23.019C27.4667 22.8391 27.8863 22.5145 28.1827 22.0888C28.479 21.6631 28.6377 21.1568 28.6375 20.6381V5.16664C28.6374 4.64821 28.4785 4.14226 28.1822 3.71685C27.8859 3.29145 27.4664 2.96701 26.9802 2.78719L20.735 0.47879ZM14.1665 7.55189C14.0315 7.50524 13.907 7.43245 13.8002 7.33769C13.6933 7.24292 13.6061 7.12803 13.5437 6.99958C13.4812 6.87113 13.4446 6.73163 13.4361 6.58905C13.4275 6.44647 13.4471 6.3036 13.4937 6.16859C13.5404 6.03358 13.6132 5.90909 13.708 5.80221C13.8027 5.69534 13.9176 5.60817 14.0461 5.5457C14.1745 5.48322 14.314 5.44666 14.4566 5.4381C14.5992 5.42953 14.742 5.44914 14.877 5.49579L18.7311 6.82979C18.8077 6.85619 18.8909 6.85619 18.9675 6.82979L22.81 5.49579C23.0827 5.40119 23.3817 5.41877 23.6414 5.54467C23.9011 5.67058 24.1001 5.89448 24.1947 6.16714C24.2894 6.4398 24.2718 6.73886 24.1459 6.99856C24.02 7.25825 23.7961 7.45729 23.5234 7.55189L19.6809 8.88444C19.1431 9.07061 18.5584 9.07061 18.0206 8.88444L14.1665 7.55189ZM8.26505 10.9188C9.4815 10.4692 10.8186 10.4692 12.035 10.9188L18.2802 13.2272C18.7664 13.407 19.1859 13.7315 19.4822 14.1569C19.7785 14.5823 19.9374 15.0882 19.9375 15.6066V23.8281C19.9377 24.3468 19.779 24.8531 19.4827 25.2788C19.1863 25.7045 18.7667 26.0291 18.2802 26.209L12.035 28.516C10.8186 28.9656 9.4815 28.9656 8.26505 28.516L2.0199 26.2076C1.53343 26.0277 1.11377 25.703 0.817442 25.2773C0.521116 24.8516 0.362358 24.3454 0.362549 23.8267V15.6052C0.362655 15.0868 0.52155 14.5808 0.817856 14.1554C1.11416 13.73 1.53366 13.4056 2.0199 13.2257L8.26505 10.9188ZM4.7923 16.9856C4.74562 17.1206 4.72599 17.2635 4.73455 17.4061C4.7431 17.5487 4.77965 17.6882 4.84213 17.8166C4.90461 17.9451 4.99179 18.06 5.09868 18.1547C5.20557 18.2495 5.33008 18.3223 5.4651 18.3689L9.0611 19.6115V23.5265C9.0611 23.815 9.17567 24.0916 9.37962 24.2955C9.58357 24.4995 9.86017 24.614 10.1486 24.614C10.437 24.614 10.7136 24.4995 10.9176 24.2955C11.1215 24.0916 11.2361 23.815 11.2361 23.5265V19.6115L14.8234 18.3689C15.0901 18.2701 15.3074 18.0707 15.4288 17.8135C15.5503 17.5563 15.5661 17.2618 15.473 16.9931C15.3799 16.7244 15.1852 16.5029 14.9307 16.376C14.6762 16.2491 14.3821 16.2269 14.1114 16.3142L10.15 17.6859L6.17705 16.3113C6.04196 16.2644 5.89894 16.2446 5.75619 16.2531C5.61344 16.2615 5.47375 16.298 5.34513 16.3605C5.21651 16.423 5.10147 16.5103 5.00661 16.6173C4.91175 16.7243 4.83892 16.8504 4.7923 16.9856Z" fill="#20376D"/>
</svg>
