<svg width="214" height="65" viewBox="0 0 214 65" fill="none" xmlns="http://www.w3.org/2000/svg">
<rect width="214" height="65" fill="#D9D9D9"/>
<path d="M92 43C93.3261 43 94.5979 43.5268 95.5355 44.4645C96.4732 45.4021 97 46.6739 97 48C97 49.3261 96.4732 50.5979 95.5355 51.5355C94.5979 52.4732 93.3261 53 92 53C90.6739 53 89.4021 52.4732 88.4645 51.5355C87.5268 50.5979 87 49.3261 87 48C87 46.6739 87.5268 45.4021 88.4645 44.4645C89.4021 43.5268 90.6739 43 92 43ZM122 43C123.326 43 124.598 43.5268 125.536 44.4645C126.473 45.4021 127 46.6739 127 48C127 49.3261 126.473 50.5979 125.536 51.5355C124.598 52.4732 123.326 53 122 53C120.674 53 119.402 52.4732 118.464 51.5355C117.527 50.5979 117 49.3261 117 48C117 46.6739 117.527 45.4021 118.464 44.4645C119.402 43.5268 120.674 43 122 43ZM92 45.5C91.337 45.5 90.7011 45.7634 90.2322 46.2322C89.7634 46.7011 89.5 47.337 89.5 48C89.5 48.663 89.7634 49.2989 90.2322 49.7678C90.7011 50.2366 91.337 50.5 92 50.5C92.663 50.5 93.2989 50.2366 93.7678 49.7678C94.2366 49.2989 94.5 48.663 94.5 48C94.5 47.337 94.2366 46.7011 93.7678 46.2322C93.2989 45.7634 92.663 45.5 92 45.5ZM122 45.5C121.337 45.5 120.701 45.7634 120.232 46.2322C119.763 46.7011 119.5 47.337 119.5 48C119.5 48.663 119.763 49.2989 120.232 49.7678C120.701 50.2366 121.337 50.5 122 50.5C122.663 50.5 123.299 50.2366 123.768 49.7678C124.237 49.2989 124.5 48.663 124.5 48C124.5 47.337 124.237 46.7011 123.768 46.2322C123.299 45.7634 122.663 45.5 122 45.5ZM108.25 24.25V31.75H115.75V34.25H108.25V41.75H105.75V34.25H98.25V31.75H105.75V24.25H108.25ZM92 13C93.3261 13 94.5979 13.5268 95.5355 14.4645C96.4732 15.4021 97 16.6739 97 18C97 19.3261 96.4732 20.5979 95.5355 21.5355C94.5979 22.4732 93.3261 23 92 23C90.6739 23 89.4021 22.4732 88.4645 21.5355C87.5268 20.5979 87 19.3261 87 18C87 16.6739 87.5268 15.4021 88.4645 14.4645C89.4021 13.5268 90.6739 13 92 13ZM122 13C123.326 13 124.598 13.5268 125.536 14.4645C126.473 15.4021 127 16.6739 127 18C127 19.3261 126.473 20.5979 125.536 21.5355C124.598 22.4732 123.326 23 122 23C120.674 23 119.402 22.4732 118.464 21.5355C117.527 20.5979 117 19.3261 117 18C117 16.6739 117.527 15.4021 118.464 14.4645C119.402 13.5268 120.674 13 122 13ZM122 15.5C121.337 15.5 120.701 15.7634 120.232 16.2322C119.763 16.7011 119.5 17.337 119.5 18C119.5 18.663 119.763 19.2989 120.232 19.7678C120.701 20.2366 121.337 20.5 122 20.5C122.663 20.5 123.299 20.2366 123.768 19.7678C124.237 19.2989 124.5 18.663 124.5 18C124.5 17.337 124.237 16.7011 123.768 16.2322C123.299 15.7634 122.663 15.5 122 15.5ZM92 15.5C91.337 15.5 90.7011 15.7634 90.2322 16.2322C89.7634 16.7011 89.5 17.337 89.5 18C89.5 18.663 89.7634 19.2989 90.2322 19.7678C90.7011 20.2366 91.337 20.5 92 20.5C92.663 20.5 93.2989 20.2366 93.7678 19.7678C94.2366 19.2989 94.5 18.663 94.5 18C94.5 17.337 94.2366 16.7011 93.7678 16.2322C93.2989 15.7634 92.663 15.5 92 15.5Z" fill="#20376D" stroke="#20376D" stroke-width="2"/>
<path d="M113.348 49.3125C113.475 50.1588 113.723 50.965 114.075 51.7125C111.814 52.5656 109.417 53.0018 107 53C104.509 53 102.125 52.545 99.925 51.7125C100.276 50.965 100.525 50.1588 100.653 49.3125C102.62 50.08 104.761 50.5 107 50.5C109.239 50.5 111.38 50.08 113.348 49.3125ZM125.713 25.925C126.566 28.1862 127.002 30.5833 127 33C127 35.4913 126.545 37.875 125.713 40.075C124.952 39.7185 124.143 39.4735 123.313 39.3475C124.08 37.38 124.5 35.2388 124.5 33C124.5 30.7613 124.08 28.62 123.313 26.6525C124.143 26.5265 124.952 26.2815 125.713 25.925ZM88.2875 25.925C89.035 26.2763 89.8413 26.525 90.6875 26.6525C89.9013 28.6764 89.4987 30.8288 89.5 33C89.5 35.2388 89.92 37.38 90.6875 39.3475C89.8567 39.4735 89.0484 39.7185 88.2875 40.075C87.4344 37.8138 86.9982 35.4168 87 33C87 30.5088 87.455 28.125 88.2875 25.925ZM107 13C109.491 13 111.875 13.455 114.075 14.2875C113.719 15.0484 113.474 15.8567 113.348 16.6875C111.324 15.9013 109.171 15.4987 107 15.5C104.761 15.5 102.62 15.92 100.653 16.6875C100.527 15.8567 100.281 15.0484 99.925 14.2875C102.186 13.4344 104.583 12.9982 107 13Z" fill="#2C95D2" stroke="#2C95D2" stroke-width="2"/>
</svg>
