<svg width="53" height="53" viewBox="0 0 53 53" fill="none" xmlns="http://www.w3.org/2000/svg">
<path fill-rule="evenodd" clip-rule="evenodd" d="M5.67857 0C4.17252 0 2.72815 0.598276 1.66322 1.66322C0.598276 2.72815 0 4.17252 0 5.67857L0 28.3929C0 29.8989 0.598276 31.3433 1.66322 32.4082C2.72815 33.4732 4.17252 34.0714 5.67857 34.0714H47.3214C48.8275 34.0714 50.2718 33.4732 51.3368 32.4082C52.4017 31.3433 53 29.8989 53 28.3929V5.67857C53 4.17252 52.4017 2.72815 51.3368 1.66322C50.2718 0.598276 48.8275 0 47.3214 0L5.67857 0ZM28.8661 5.50443C28.8661 4.87691 28.6168 4.27509 28.1731 3.83136C27.7293 3.38764 27.1275 3.13836 26.5 3.13836C25.8725 3.13836 25.2707 3.38764 24.8269 3.83136C24.3832 4.27509 24.1339 4.87691 24.1339 5.50443V7.01871C22.7715 7.17836 21.5098 7.81573 20.5729 8.81763C19.6359 9.81952 19.0844 11.1211 19.0163 12.4911C18.9483 13.8612 19.368 15.211 20.2009 16.3008C21.0339 17.3907 22.2262 18.15 23.5661 18.444L28.0976 19.4321C28.4624 19.5013 28.7877 19.7054 29.0088 20.0038C29.2298 20.3022 29.3302 20.673 29.2901 21.0421C29.25 21.4113 29.0723 21.7518 28.7923 21.9957C28.5124 22.2397 28.1508 22.3692 27.7796 22.3584H25.2204C24.9143 22.3595 24.6154 22.2653 24.3651 22.0889C24.1148 21.9126 23.9256 21.6628 23.8235 21.3741C23.5998 20.8026 23.1628 20.3403 22.6047 20.0849C22.0465 19.8295 21.411 19.801 20.8323 20.0054C20.2535 20.2098 19.7769 20.6311 19.5029 21.1803C19.2289 21.7295 19.1791 22.3637 19.3639 22.949C20.0984 25.0311 21.9117 26.6022 24.1339 26.9959V28.567C24.1339 29.1945 24.3832 29.7963 24.8269 30.2401C25.2707 30.6838 25.8725 30.9331 26.5 30.9331C27.1275 30.9331 27.7293 30.6838 28.1731 30.2401C28.6168 29.7963 28.8661 29.1945 28.8661 28.567V26.9921C30.2824 26.7412 31.5678 26.0065 32.5029 24.9134C33.4379 23.8204 33.9647 22.4367 33.9933 20.9986C34.0219 19.5604 33.5505 18.1569 32.6597 17.0276C31.7688 15.8982 30.5136 15.113 29.1084 14.8059L24.5769 13.8179C24.3186 13.7637 24.0897 13.6154 23.9347 13.4019C23.7796 13.1885 23.7094 12.925 23.7377 12.6626C23.766 12.4003 23.8908 12.1578 24.0879 11.9823C24.2849 11.8068 24.5401 11.7109 24.804 11.713H27.7796C28.086 11.7109 28.3854 11.8046 28.6359 11.9811C28.8864 12.1576 29.0754 12.408 29.1765 12.6973C29.2721 13 29.4276 13.2803 29.6338 13.5216C29.8399 13.7629 30.0925 13.9603 30.3766 14.102C30.6606 14.2437 30.9702 14.3268 31.287 14.3463C31.6038 14.3659 31.9213 14.3215 32.2206 14.2158C32.5199 14.1101 32.7949 13.9453 33.0291 13.7311C33.2634 13.517 33.4522 13.2579 33.5843 12.9692C33.7163 12.6806 33.789 12.3684 33.7979 12.0511C33.8068 11.7338 33.7517 11.418 33.6361 11.1224C33.2703 10.0861 32.636 9.16533 31.798 8.45432C30.9599 7.74332 29.9482 7.26751 28.8661 7.0755V5.50443ZM10.4107 14.1964C11.1637 14.1964 11.8859 14.4956 12.4184 15.028C12.9509 15.5605 13.25 16.2827 13.25 17.0357C13.25 17.7887 12.9509 18.5109 12.4184 19.0434C11.8859 19.5759 11.1637 19.875 10.4107 19.875C9.65769 19.875 8.93551 19.5759 8.40304 19.0434C7.87057 18.5109 7.57143 17.7887 7.57143 17.0357C7.57143 16.2827 7.87057 15.5605 8.40304 15.028C8.93551 14.4956 9.65769 14.1964 10.4107 14.1964ZM42.5893 14.1964C43.3423 14.1964 44.0645 14.4956 44.597 15.028C45.1294 15.5605 45.4286 16.2827 45.4286 17.0357C45.4286 17.7887 45.1294 18.5109 44.597 19.0434C44.0645 19.5759 43.3423 19.875 42.5893 19.875C41.8363 19.875 41.1141 19.5759 40.5816 19.0434C40.0491 18.5109 39.75 17.7887 39.75 17.0357C39.75 16.2827 40.0491 15.5605 40.5816 15.028C41.1141 14.4956 41.8363 14.1964 42.5893 14.1964ZM17.0357 37.3839C18.3418 37.3839 19.4018 38.4439 19.4018 39.75V47.3214C19.4018 47.949 19.1525 48.5508 18.7088 48.9945C18.2651 49.4382 17.6632 49.6875 17.0357 49.6875C16.4082 49.6875 15.8064 49.4382 15.3626 48.9945C14.9189 48.5508 14.6696 47.949 14.6696 47.3214V39.75C14.6696 38.4439 15.7296 37.3839 17.0357 37.3839ZM38.3304 39.75C38.3304 39.4393 38.2692 39.1316 38.1503 38.8445C38.0313 38.5575 37.8571 38.2966 37.6374 38.0769C37.4176 37.8572 37.1568 37.6829 36.8697 37.564C36.5827 37.4451 36.275 37.3839 35.9643 37.3839C35.6536 37.3839 35.3459 37.4451 35.0588 37.564C34.7718 37.6829 34.5109 37.8572 34.2912 38.0769C34.0715 38.2966 33.8972 38.5575 33.7783 38.8445C33.6594 39.1316 33.5982 39.4393 33.5982 39.75V47.3214C33.5982 47.6321 33.6594 47.9398 33.7783 48.2269C33.8972 48.5139 34.0715 48.7748 34.2912 48.9945C34.5109 49.2142 34.7718 49.3885 35.0588 49.5074C35.3459 49.6263 35.6536 49.6875 35.9643 49.6875C36.275 49.6875 36.5827 49.6263 36.8697 49.5074C37.1568 49.3885 37.4176 49.2142 37.6374 48.9945C37.8571 48.7748 38.0313 48.5139 38.1503 48.2269C38.2692 47.9398 38.3304 47.6321 38.3304 47.3214V39.75ZM28.8661 42.5893C28.8661 41.9618 28.6168 41.3599 28.1731 40.9162C27.7293 40.4725 27.1275 40.2232 26.5 40.2232C25.8725 40.2232 25.2707 40.4725 24.8269 40.9162C24.3832 41.3599 24.1339 41.9618 24.1339 42.5893V50.1607C24.1339 50.7882 24.3832 51.3901 24.8269 51.8338C25.2707 52.2775 25.8725 52.5268 26.5 52.5268C27.1275 52.5268 27.7293 52.2775 28.1731 51.8338C28.6168 51.3901 28.8661 50.7882 28.8661 50.1607V42.5893Z" fill="url(#paint0_linear_263_20)"/>
<defs>
<linearGradient id="paint0_linear_263_20" x1="0" y1="26.2634" x2="53" y2="26.2634" gradientUnits="userSpaceOnUse">
<stop stop-color="#72AA15"/>
<stop offset="1" stop-color="#5A8514"/>
</linearGradient>
</defs>
</svg>
