<svg width="214" height="65" viewBox="0 0 214 65" fill="none" xmlns="http://www.w3.org/2000/svg">
<rect width="214" height="65" fill="#D9D9D9"/>
<path d="M101.125 28.25C103.472 28.25 105.375 26.3472 105.375 24C105.375 21.6528 103.472 19.75 101.125 19.75C98.7778 19.75 96.875 21.6528 96.875 24C96.875 26.3472 98.7778 28.25 101.125 28.25Z" fill="#E7E7E7"/>
<path d="M101.125 38.875C95.3875 38.875 88.8 41.6163 88.375 43.1463V45.25H113.875V43.125C113.45 41.6163 106.863 38.875 101.125 38.875Z" fill="#E7E7E7"/>
<path d="M117.424 34.9013C120.335 36.8775 122.375 39.555 122.375 43.125V49.5H130.875V43.125C130.875 38.4925 123.289 35.7513 117.424 34.9013ZM113.875 32.5C118.571 32.5 122.375 28.6963 122.375 24C122.375 19.3037 118.571 15.5 113.875 15.5C112.876 15.5 111.941 15.7125 111.049 16.01C112.877 18.2715 113.875 21.0917 113.875 24C113.875 26.9083 112.877 29.7285 111.049 31.99C111.941 32.2875 112.876 32.5 113.875 32.5ZM101.125 32.5C105.821 32.5 109.625 28.6963 109.625 24C109.625 19.3037 105.821 15.5 101.125 15.5C96.4287 15.5 92.625 19.3037 92.625 24C92.625 28.6963 96.4287 32.5 101.125 32.5ZM101.125 19.75C103.463 19.75 105.375 21.6625 105.375 24C105.375 26.3375 103.463 28.25 101.125 28.25C98.7875 28.25 96.875 26.3375 96.875 24C96.875 21.6625 98.7875 19.75 101.125 19.75ZM101.125 34.625C95.4512 34.625 84.125 37.4725 84.125 43.125V49.5H118.125V43.125C118.125 37.4725 106.799 34.625 101.125 34.625ZM113.875 45.25H88.375V43.1463C88.8 41.6163 95.3875 38.875 101.125 38.875C106.863 38.875 113.45 41.6163 113.875 43.125V45.25Z" fill="#20376D"/>
</svg>
