<svg width="48" height="48" viewBox="0 0 48 48" fill="none" xmlns="http://www.w3.org/2000/svg">
<rect width="48" height="48" rx="12" fill="#93E7FE"/>
<path d="M16 14.4948H22V16.4948H16V14.4948ZM13 18.4948H18V20.4948H13V18.4948ZM15 30.4948H20V32.4948H15V30.4948ZM25.73 22.1048C26.5 22.3348 27.03 22.8848 27.3 23.5648L31.57 16.4548C32.22 15.3748 31.87 13.9948 30.79 13.3248C29.92 12.8048 28.8 12.9148 28.06 13.6148L24.63 16.8248C24.23 17.1948 24 17.7248 24 18.2748V22.2048C24.36 22.0548 25 21.8748 25.73 22.1048ZM22.61 23.7648C22.77 23.2448 23.09 22.8048 23.5 22.4948H15.28C14 22.4948 13 23.4948 13 24.7748C13 25.7948 13.67 26.6848 14.65 26.9648L19.16 28.2548C19.69 28.4048 20.26 28.3348 20.74 28.0448L23.43 26.4348C23.042 26.1227 22.7566 25.7015 22.6104 25.2256C22.4642 24.7496 22.4641 24.2408 22.61 23.7648ZM34.21 30.1048L31.93 25.9948C31.6539 25.5204 31.2007 25.1751 30.67 25.0348L27.5 24.2348C27.5 24.5548 27.5 24.8948 27.39 25.2248C27.2365 25.7385 26.9206 26.1887 26.4898 26.5078C26.0589 26.8269 25.5362 26.9978 25 26.9948C24.39 26.9948 24 26.7748 24 26.7748V32.4948C22.9 32.4948 22 33.3948 22 34.4948H28C28 33.3948 27.1 32.4948 26 32.4948V28.2148L30.61 32.8248C31.5 33.7148 32.94 33.7148 33.83 32.8248C34.55 32.1048 34.71 30.9948 34.21 30.1048ZM24.56 25.9248C25.35 26.1648 26.19 25.7248 26.43 24.9248C26.67 24.1348 26.23 23.2948 25.43 23.0548C24.64 22.8148 23.8 23.2548 23.56 24.0548C23.32 24.8448 23.77 25.6848 24.56 25.9248Z" fill="black"/>
</svg>
