<svg width="12" height="17" viewBox="0 0 12 17" fill="none" xmlns="http://www.w3.org/2000/svg">
<path d="M5.52726 8.24581C6.81486 8.24581 7.85866 7.20201 7.85866 5.91441C7.85866 4.62681 6.81486 3.58301 5.52726 3.58301C4.23966 3.58301 3.19586 4.62681 3.19586 5.91441C3.19586 7.20201 4.23966 8.24581 5.52726 8.24581Z" fill="white"/>
<path d="M10.7312 5.99279C10.7312 2.98698 8.42951 0.541992 5.59956 0.541992C2.76961 0.541992 0.467896 2.98698 0.467896 5.99408C0.468541 6.14413 0.539854 9.74013 4.6499 16.0764C4.73446 16.2502 4.86272 16.3991 5.02212 16.5085C5.18152 16.6179 5.36659 16.6841 5.55922 16.7005C6.15296 16.7005 6.55761 16.0467 6.59698 15.9802C10.7335 9.64043 10.7335 6.13574 10.7312 5.99279ZM5.59956 8.18834C5.14751 8.18834 4.70562 8.05429 4.32976 7.80315C3.9539 7.55201 3.66095 7.19505 3.48796 6.77741C3.31497 6.35978 3.26971 5.90023 3.3579 5.45687C3.44609 5.01351 3.66377 4.60626 3.98341 4.28661C4.30305 3.96697 4.7103 3.74929 5.15366 3.6611C5.59702 3.57291 6.05658 3.61817 6.47421 3.79116C6.89185 3.96415 7.2488 4.2571 7.49995 4.63296C7.75109 5.00882 7.88514 5.45072 7.88514 5.90276C7.88454 6.50875 7.64355 7.08975 7.21505 7.51825C6.78655 7.94675 6.20555 8.18774 5.59956 8.18834Z" fill="#2C95D2"/>
<path d="M10.7312 5.99279C10.7312 2.98698 8.42948 0.541992 5.59953 0.541992C5.17821 0.54394 4.75894 0.600891 4.35236 0.711402C7.0613 0.85661 9.2249 3.23577 9.2249 6.14865C9.22684 6.2916 9.22684 9.79596 5.09034 16.1358C5.03449 16.2265 4.97125 16.3126 4.90124 16.3929C5.06904 16.5814 5.30686 16.6924 5.55952 16.7008C6.15294 16.7008 6.55759 16.0467 6.59695 15.9802C10.7335 9.64042 10.7335 6.13574 10.7312 5.99279Z" fill="#2C95D2"/>
<path d="M5.55918 16.7008C5.36657 16.6843 5.18155 16.6181 5.02221 16.5086C4.86287 16.3992 4.73467 16.2502 4.65017 16.0764C0.539811 9.74013 0.468497 6.14445 0.467529 5.99408C0.467529 2.98665 2.76956 0.541992 5.59951 0.541992C8.42946 0.541992 10.7312 2.98698 10.7312 5.99279C10.7334 6.13606 10.7334 9.64042 6.59694 15.9799C6.55757 16.0467 6.1526 16.7008 5.55918 16.7008Z" stroke="black" stroke-width="0.5" stroke-linecap="round" stroke-linejoin="round"/>
<path d="M5.59954 8.18835C5.1475 8.18835 4.70561 8.0543 4.32975 7.80316C3.95388 7.55201 3.66094 7.19506 3.48795 6.77742C3.31496 6.35979 3.26969 5.90023 3.35788 5.45687C3.44607 5.01351 3.66375 4.60626 3.9834 4.28662C4.30304 3.96698 4.71029 3.74929 5.15365 3.66111C5.59701 3.57292 6.05656 3.61818 6.4742 3.79117C6.89183 3.96416 7.24879 4.25711 7.49993 4.63297C7.75108 5.00883 7.88512 5.45072 7.88512 5.90277C7.88453 6.50876 7.64353 7.08976 7.21503 7.51826C6.78653 7.94675 6.20553 8.18775 5.59954 8.18835Z" stroke="black" stroke-width="0.5" stroke-linecap="round" stroke-linejoin="round"/>
</svg>
