<svg width="45" height="49" viewBox="0 0 45 49" fill="none" xmlns="http://www.w3.org/2000/svg">
<path d="M33.75 17.8182H13.5V13.3636H33.75V17.8182ZM11.25 13.3636H6.75V17.8182H11.25V13.3636ZM11.25 6.68182H6.75V11.1364H11.25V6.68182ZM18 6.68182H13.5V11.1364H18V6.68182ZM24.75 35.6364V40.0909H27C28.2375 40.0909 29.25 41.0932 29.25 42.3182H45V46.7727H29.25C29.25 47.9977 28.2375 49 27 49H18C16.7625 49 15.75 47.9977 15.75 46.7727H0V42.3182H15.75C15.75 41.0932 16.7625 40.0909 18 40.0909H20.25V35.6364H4.5C2.0025 35.6364 0 33.6541 0 31.1818V4.45455C0 3.27313 0.474106 2.1401 1.31802 1.30471C2.16193 0.469317 3.30653 0 4.5 0H40.5C42.9975 0 45 1.98227 45 4.45455V31.1818C45 33.6541 42.9975 35.6364 40.5 35.6364H24.75ZM40.5 31.1818V4.45455H4.5V31.1818H40.5ZM20.25 11.1364H38.25V6.68182H20.25V11.1364ZM6.75 24.5H20.25V20.0455H6.75V24.5ZM24.75 28.9545H38.25V24.5H24.75V28.9545Z" fill="url(#paint0_linear_263_24)"/>
<defs>
<linearGradient id="paint0_linear_263_24" x1="0" y1="24.5" x2="45" y2="24.5" gradientUnits="userSpaceOnUse">
<stop stop-color="#72AA15"/>
<stop offset="1" stop-color="#5A8514"/>
</linearGradient>
</defs>
</svg>
