<svg width="23" height="30" viewBox="0 0 23 30" fill="none" xmlns="http://www.w3.org/2000/svg">
<path fill-rule="evenodd" clip-rule="evenodd" d="M7.42613 26.9798C7.34728 26.9937 7.26746 27.0007 7.1875 27.0008H1.4375C1.05625 27.0008 0.690618 26.8427 0.421034 26.5614C0.151451 26.2801 0 25.8986 0 25.5008C0 25.1029 0.151451 24.7214 0.421034 24.4401C0.690618 24.1588 1.05625 24.0008 1.4375 24.0008H7.1875C7.26896 24.0008 7.3485 24.0078 7.42613 24.0218C7.7207 23.1393 8.27116 22.3744 9.00115 21.8331C9.73114 21.2918 10.6045 21.001 11.5 21.001C12.3955 21.001 13.2689 21.2918 13.9989 21.8331C14.7288 22.3744 15.2793 23.1393 15.5739 24.0218C15.6527 24.0079 15.7325 24.0008 15.8125 24.0008H21.5625C21.9437 24.0008 22.3094 24.1588 22.579 24.4401C22.8486 24.7214 23 25.1029 23 25.5008C23 25.8986 22.8486 26.2801 22.579 26.5614C22.3094 26.8427 21.9437 27.0008 21.5625 27.0008H15.8125C15.732 27.0008 15.6525 26.9938 15.5739 26.9798C15.2793 27.8622 14.7288 28.6272 13.9989 29.1685C13.2689 29.7097 12.3955 30.0006 11.5 30.0006C10.6045 30.0006 9.73114 29.7097 9.00115 29.1685C8.27116 28.6272 7.7207 27.8622 7.42613 26.9798ZM10.0625 25.5008C10.0625 25.1029 10.214 24.7214 10.4835 24.4401C10.7531 24.1588 11.1188 24.0008 11.5 24.0008C11.8812 24.0008 12.2469 24.1588 12.5165 24.4401C12.786 24.7214 12.9375 25.1029 12.9375 25.5008C12.9375 25.8986 12.786 26.2801 12.5165 26.5614C12.2469 26.8427 11.8812 27.0008 11.5 27.0008C11.1188 27.0008 10.7531 26.8427 10.4835 26.5614C10.214 26.2801 10.0625 25.8986 10.0625 25.5008Z" fill="#20376D"/>
<path d="M10.7813 0.197056C10.9999 0.0654033 11.2477 -0.00390625 11.5001 -0.00390625C11.7524 -0.00390625 12.0003 0.0654033 12.2188 0.197056L18.8328 4.18256C18.7465 4.21056 18.6607 4.24806 18.5754 4.29506L11.6151 8.21306L4.23495 4.14056L10.7813 0.197056ZM2.82764 6.75806V14.5731C2.82764 14.8364 2.89407 15.095 3.02023 15.323C3.1464 15.5511 3.32786 15.7404 3.54639 15.8721L10.1158 19.8291V10.7796L2.82764 6.75806ZM12.9908 19.7646L19.4538 15.8721C19.6723 15.7404 19.8537 15.5511 19.9799 15.323C20.1061 15.095 20.1725 14.8364 20.1725 14.5731V6.77306C20.1006 6.83475 20.0231 6.889 19.9411 6.93506L12.9908 10.8471V19.7646Z" fill="#20376D"/>
</svg>
