<svg width="447" height="74" viewBox="0 0 447 74" fill="none" xmlns="http://www.w3.org/2000/svg">
<path d="M34.7216 1.50505C34.893 1.56141 34.893 1.56141 35.068 1.61891C35.449 1.74465 35.8293 1.87283 36.2095 2.00103C36.4841 2.09218 36.7587 2.18317 37.0333 2.27402C37.7812 2.52195 38.5285 2.77201 39.2756 3.02244C40.0694 3.28808 40.8639 3.55171 41.6583 3.81558C43.8689 4.55039 46.0782 5.28898 48.2876 6.02756C49.3196 6.37253 50.3517 6.71734 51.3838 7.06188C51.7206 7.1743 52.0573 7.28676 52.3941 7.39926C54.1367 7.98123 55.8803 8.55954 57.6284 9.12484C57.7731 9.17167 57.9177 9.2185 58.0668 9.26674C58.7402 9.48454 59.4139 9.70144 60.0881 9.91682C63.1021 10.8836 63.1021 10.8836 63.5912 11.4763C63.7459 11.8713 63.8471 12.2377 63.9234 12.6551C63.9524 12.8128 63.9815 12.9706 64.0114 13.133C64.0405 13.3034 64.0696 13.4738 64.0996 13.6493C64.1304 13.8296 64.1613 14.0099 64.1931 14.1956C65.1052 19.7104 65.2624 25.3886 64.4609 30.9299C64.4369 31.0964 64.4128 31.263 64.3881 31.4346C63.8178 35.2279 63.0107 39.4671 61.2812 42.926C61.2866 43.2033 61.3033 43.4805 61.3264 43.757C61.3377 43.9053 61.3491 44.0536 61.3608 44.2064C61.4307 44.6953 61.4992 45.0813 61.7148 45.5275C62.128 45.799 62.128 45.799 62.6271 45.9611C62.7905 46.0237 62.9539 46.0863 63.1223 46.1508C63.6604 46.2642 63.8435 46.2257 64.3164 45.9611C64.5335 45.8154 64.7473 45.6647 64.9577 45.5095C65.3433 45.2518 65.6081 45.0963 66.0598 44.9765C67.2124 45.2953 68.1824 46.6254 69.0046 47.4516C69.1222 47.5687 69.2399 47.6858 69.3611 47.8064C69.4728 47.9183 69.5845 48.0302 69.6996 48.1455C69.8005 48.2465 69.9013 48.3475 70.0053 48.4516C70.3112 48.7818 70.3806 48.9447 70.4335 49.3954C70.3738 49.9924 70.153 50.2386 69.7814 50.7036C69.3506 51.2814 69.3506 51.2814 69.2349 51.9637C69.3504 52.3007 69.492 52.5867 69.664 52.8986C69.7182 53.0715 69.7724 53.2444 69.8283 53.4225C70.0569 53.9603 70.0569 53.9603 70.6306 54.1153C70.8375 54.1567 71.0454 54.1937 71.2539 54.2265C72.317 54.4109 72.317 54.4109 72.6901 54.7216C73.1392 55.7303 73.0147 56.9664 73.0153 58.0475C73.0171 58.2074 73.0189 58.3673 73.0207 58.532C73.024 60.3545 73.024 60.3545 72.4541 60.9664C72.0148 61.1913 71.617 61.2118 71.1274 61.2634C70.4642 61.3899 70.1864 61.4562 69.7673 61.9956C69.3523 62.8354 69.3523 62.8354 69.2519 63.7492C69.4857 64.2779 69.8401 64.7333 70.1704 65.2052C70.435 65.7096 70.5029 65.9236 70.3867 66.4846C70.0927 66.9121 69.7374 67.2711 69.3749 67.6408C69.2723 67.7509 69.1696 67.861 69.0639 67.9744C68.7383 68.3223 68.407 68.6639 68.0742 69.0048C67.9631 69.1225 67.8521 69.2401 67.7377 69.3614C67.2429 69.8658 66.9115 70.1993 66.2286 70.4123C65.742 70.3858 65.4938 70.3176 65.0842 70.0617C64.9793 69.9984 64.8744 69.935 64.7663 69.8698C64.4609 69.6642 64.4609 69.6642 64.1718 69.4124C63.8958 69.1965 63.8958 69.1965 63.5773 69.2679C63.3568 69.3549 63.1366 69.4428 62.9168 69.5316C62.582 69.6642 62.582 69.6642 62.0219 69.7817C61.4437 70.1864 61.4588 70.4123 61.3264 71.0915C61.302 71.267 61.2775 71.4425 61.2524 71.6233C61.1173 72.2048 60.9954 72.4376 60.5585 72.8439C60.1356 72.9498 59.7236 72.9418 59.2894 72.9348C59.1665 72.9352 59.0435 72.9355 58.9169 72.9359C58.6574 72.9357 58.3979 72.9338 58.1384 72.9302C57.7415 72.9252 57.345 72.9272 56.9481 72.93C56.6957 72.929 56.4434 72.9276 56.191 72.9258C56.0725 72.9265 55.954 72.9272 55.8319 72.928C55.2887 72.9168 55.0083 72.9065 54.5591 72.5813C54.2527 72.1325 54.2503 71.7279 54.1992 71.1909C54.1426 70.7857 54.0561 70.4901 53.9101 70.0978C53.3702 69.6937 52.8267 69.5289 52.1757 69.3752C52.0326 69.3275 51.8896 69.2798 51.7421 69.2307C51.3765 69.4347 51.3765 69.4347 50.9924 69.7184C49.8408 70.47 49.8408 70.47 48.996 70.3869C48.7373 70.2057 48.7373 70.2057 48.4687 69.9584C48.368 69.8663 48.2673 69.7741 48.1636 69.6792C48.0568 69.5789 47.9499 69.4786 47.8398 69.3752C47.7293 69.2734 47.6188 69.1715 47.505 69.0666C47.1577 68.7431 46.8164 68.414 46.4758 68.0834C46.3581 67.9736 46.2405 67.8638 46.1192 67.7506C45.1786 66.8319 45.1786 66.8319 45.0525 66.1769C45.1034 65.4851 45.2829 65.1713 45.6718 64.6057C45.5384 64.7178 45.405 64.83 45.2676 64.9455C43.0786 66.766 40.7708 68.3929 38.3007 69.8088C38.1317 69.9071 37.9627 70.0055 37.7937 70.104C36.9084 70.6177 36.0138 71.1132 35.112 71.5974C35.0225 71.6456 34.933 71.6939 34.8407 71.7436C34.5985 71.8725 34.354 71.9971 34.1093 72.1213C33.9933 72.1828 33.8772 72.2442 33.7576 72.3076C32.6658 72.61 31.7233 72.0787 30.7761 71.5883C30.5696 71.4829 30.5696 71.4829 30.3589 71.3754C26.9335 69.5966 23.7324 67.4348 20.7746 64.9591C20.5392 64.7633 20.3017 64.5706 20.0627 64.3793C19.3947 63.8428 18.761 63.3007 18.1674 62.6827C17.7987 62.3148 17.3984 61.9857 16.9971 61.6541C16.7656 61.426 16.7656 61.426 16.621 60.9924C16.43 60.8928 16.237 60.7968 16.0429 60.7033C15.816 60.478 15.816 60.478 15.5913 60.2065C15.1942 59.7354 14.7845 59.2826 14.3627 58.8334C13.4881 57.8738 12.7112 56.845 11.9351 55.8051C11.7251 55.5244 11.5129 55.2456 11.2999 54.9672C3.18179 44.2561 -0.165268 30.2119 1.61481 15.4356C1.73287 14.5868 1.86434 13.7417 2.02339 12.8996C2.05408 12.7295 2.05408 12.7295 2.08538 12.5559C2.22371 11.8832 2.41578 11.4776 2.89057 10.9846C3.32127 10.7764 3.32127 10.7764 3.84696 10.6035C3.94684 10.5699 4.04671 10.5362 4.14961 10.5016C4.49403 10.3863 4.83949 10.2745 5.18501 10.1625C5.43879 10.0784 5.69249 9.99394 5.94613 9.90932C6.54283 9.71069 7.14001 9.51356 7.73745 9.31715C8.87372 8.94301 10.0081 8.56339 11.1425 8.18347C19.8963 5.25186 19.8963 5.25186 24.2299 3.85503C25.485 3.45004 26.736 3.03524 27.9842 2.60964C28.2667 2.51379 28.5491 2.41795 28.8315 2.32213C29.3658 2.14084 29.8993 1.95735 30.4324 1.77252C30.6724 1.6909 30.9125 1.60936 31.1526 1.52792C31.3132 1.47119 31.3132 1.47119 31.477 1.41331C31.5787 1.37924 31.6803 1.34517 31.7851 1.31006C31.8716 1.28022 31.9581 1.25038 32.0473 1.21963C33.0171 1.03257 33.8079 1.19232 34.7216 1.50505Z" fill="#22396E"/>
<path d="M33.9649 9.8286C34.1884 9.89705 34.412 9.96502 34.6357 10.0326C34.8773 10.1116 35.1186 10.1913 35.3598 10.2715C35.56 10.3373 35.56 10.3373 35.7642 10.4043C36.2054 10.5493 36.6462 10.6951 37.087 10.8409C37.7287 11.0521 38.3706 11.263 39.0124 11.4738C39.1787 11.5285 39.345 11.5833 39.5164 11.6396C40.8565 12.0799 42.1988 12.5132 43.5418 12.9446C44.8762 13.3734 46.2092 13.8065 47.5414 14.2421C48.3918 14.5199 49.2429 14.7957 50.0953 15.0673C50.9418 15.3372 51.7866 15.6121 52.6303 15.8906C52.9472 15.9943 53.2648 16.0961 53.5829 16.196C54.0213 16.334 54.4571 16.4783 54.8928 16.6244C55.022 16.6633 55.1513 16.7023 55.2844 16.7425C56.1285 17.0357 56.1285 17.0357 56.3959 17.5008C56.511 17.8334 56.5918 18.1547 56.6563 18.5005C56.6855 18.6266 56.7147 18.7527 56.7448 18.8827C56.7984 19.2368 56.8508 19.5907 56.898 19.9458C56.9163 20.0825 56.9346 20.2192 56.9534 20.36C57.1354 21.8505 57.1454 23.3349 57.1306 24.8347C57.126 25.2972 57.1247 25.7596 57.1238 26.2222C57.1156 28.4649 57.0108 30.6314 56.6202 32.8452C56.5879 33.0288 56.5557 33.2123 56.5224 33.4014C56.2645 34.8259 55.94 36.2005 55.5001 37.5786C55.4593 37.7102 55.4185 37.8417 55.3765 37.9773C54.4543 40.9412 53.232 43.6762 51.7423 46.395C51.1654 46.1847 50.7748 45.9304 50.3167 45.5312C49.8377 45.3017 49.3668 45.299 48.8517 45.3833C48.5019 45.6167 48.2653 45.8065 47.98 46.1014C47.9046 46.1757 47.8292 46.2499 47.7516 46.3264C47.5938 46.4835 47.4374 46.642 47.2824 46.8018C47.0456 47.0449 46.8031 47.2811 46.5595 47.5174C46.4063 47.6713 46.2535 47.8256 46.1011 47.9803C46.0288 48.0502 45.9566 48.1202 45.8821 48.1922C45.4948 48.601 45.3357 48.9064 45.3203 49.4586C45.395 50.1144 45.5798 50.3282 46.0152 50.8122C46.5456 51.5482 46.5456 51.5482 46.5298 52.0255C46.365 52.8207 46.0351 53.6497 45.3609 54.1342C45.0266 54.2493 44.7221 54.3045 44.3712 54.3442C43.4516 54.4941 43.4516 54.4941 42.7813 55.0669C42.7691 55.3486 42.7589 55.6307 42.7658 55.9125C42.7804 56.6464 42.7868 57.2901 42.3833 57.9191C42.0053 58.2604 41.6145 58.5409 41.1915 58.8247C41.0268 58.9486 40.8629 59.0736 40.6998 59.1996C38.6621 60.7596 36.4865 62.0936 34.2261 63.3035C33.9374 63.4601 33.9374 63.4601 33.5743 63.7162C33.2423 63.8833 33.2423 63.8833 32.9047 63.8726C32.3828 63.6912 31.9027 63.4491 31.4176 63.1877C31.2581 63.1024 31.2581 63.1024 31.0954 63.0153C29.1606 61.9621 27.3102 60.7692 25.5821 59.4028C25.4649 59.3117 25.3478 59.2206 25.227 59.1267C24.8597 58.8378 24.4976 58.5436 24.1368 58.2466C24.0627 58.1857 23.9887 58.1249 23.9123 58.0622C22.1248 56.5866 20.4025 54.9861 18.9337 53.188C18.8748 53.1174 18.816 53.0469 18.7554 52.9742C15.3047 48.8312 12.7924 44.2404 10.9845 39.1684C10.9399 39.0438 10.8954 38.9192 10.8495 38.7908C9.84418 35.9271 9.32341 32.925 8.96104 29.9184C8.9472 29.8121 8.93337 29.7057 8.91912 29.5961C8.78049 28.4154 8.78157 27.2303 8.78037 26.0432C8.78018 25.9297 8.77998 25.8163 8.77979 25.6994C8.78037 24.1122 8.84198 22.5457 9.0062 20.9665C9.0232 20.8027 9.0402 20.6389 9.05772 20.4701C9.09287 20.1682 9.13286 19.8668 9.17922 19.5664C9.25556 19.0831 9.25556 19.0831 9.28318 18.6104C9.3494 18.0787 9.44279 17.6801 9.68369 17.1997C10.3364 16.7251 11.06 16.5136 11.8218 16.2786C12.0464 16.2031 12.2707 16.1268 12.4949 16.05C13.1028 15.8438 13.7135 15.6474 14.3252 15.4529C14.9658 15.2475 15.6036 15.0338 16.2418 14.8211C17.3139 14.4652 18.3879 14.1153 19.4633 13.7693C20.7051 13.3697 21.9442 12.9625 23.1821 12.5507C24.5017 12.1118 25.823 11.6778 27.1448 11.2457C27.5248 11.1211 27.9044 10.9957 28.284 10.8702C28.8816 10.6728 29.4802 10.4789 30.0798 10.2875C30.2992 10.217 30.5182 10.1453 30.7368 10.0725C32.8091 9.38377 32.8091 9.38377 33.9649 9.8286Z" fill="#E7E7E7"/>
<path d="M36.6714 16.4591C38.0146 17.0739 38.6317 17.9593 39.1533 19.317C39.8094 21.3111 40.2684 23.7553 39.3386 25.7233C38.7355 26.8817 38.7355 26.8817 38.4453 27.1719C38.4116 27.415 38.3856 27.6592 38.364 27.9036C38.3519 28.0365 38.3398 28.1693 38.3273 28.3062C38.3185 28.4088 38.3098 28.5115 38.3007 28.6172C38.3978 28.616 38.4948 28.6147 38.5947 28.6133C39.6077 28.6005 40.6205 28.5918 41.6335 28.5855C42.0112 28.5826 42.3888 28.5786 42.7665 28.5736C43.3104 28.5666 43.8542 28.5633 44.3982 28.5608C44.5661 28.5578 44.734 28.5548 44.907 28.5517C46.0345 28.5514 46.8203 28.6897 47.6987 29.4477C47.7631 29.5284 47.8276 29.6091 47.894 29.6922C47.9941 29.8126 47.9941 29.8126 48.0961 29.9355C48.479 30.5221 48.5976 31.0225 48.5754 31.7184C48.5726 31.8674 48.5697 32.0164 48.5667 32.1698C48.5579 32.4796 48.5485 32.7894 48.5385 33.0991C48.5214 34.0457 48.6317 34.6851 48.9961 35.5547C49.1559 36.7617 48.9896 37.8044 48.4179 38.879C48.3702 38.9266 48.3225 38.9743 48.2734 39.0235C48.2679 39.2237 48.2717 39.4241 48.2796 39.6242C48.2842 39.8103 48.2842 39.8103 48.2889 40.0002C48.2965 40.26 48.3059 40.5197 48.3172 40.7793C48.3385 41.8428 48.1249 42.7064 47.4277 43.5316C47.3431 43.597 47.2585 43.6624 47.1713 43.7298C47.086 43.7985 47.0007 43.8673 46.9128 43.9381C46.6836 44.0821 46.6836 44.0821 46.3945 44.0821C46.4034 44.2252 46.4124 44.3682 46.4216 44.5157C46.418 45.4126 46.0807 46.2642 45.4709 46.9289C44.4356 47.7668 43.0675 47.8152 41.7966 47.876C41.6497 47.8839 41.6497 47.8839 41.4998 47.8919C39.3604 48.0053 37.2178 48.0192 35.0759 48.0296C34.9133 48.031 34.7508 48.0324 34.5833 48.0338C29.4031 48.0718 29.4031 48.0718 27.1995 47.0698C26.7957 46.946 26.5623 46.9974 26.1601 47.1172C26.0712 47.1662 25.9823 47.2152 25.8907 47.2656C25.5397 47.4256 25.2955 47.4455 24.9111 47.4506C24.7789 47.4529 24.6467 47.4552 24.5105 47.4576C24.2975 47.4587 24.2975 47.4587 24.0802 47.4599C23.933 47.4612 23.7858 47.4625 23.6341 47.4639C23.3226 47.466 23.0111 47.4673 22.6996 47.4678C22.2253 47.4695 21.7513 47.4766 21.2771 47.4839C20.9739 47.4853 20.6708 47.4863 20.3676 47.487C20.2268 47.4899 20.086 47.4927 19.9409 47.4956C18.9901 47.4894 18.3711 47.292 17.6328 46.6836C17.157 46.1618 17.0371 45.7023 17.0324 45.0066C17.0312 44.87 17.0299 44.7335 17.0286 44.5928C17.028 44.4432 17.0274 44.2936 17.0268 44.1395C17.0256 43.9818 17.0244 43.8241 17.0232 43.6615C17.0196 43.1385 17.0172 42.6155 17.0151 42.0925C17.0144 41.914 17.0136 41.7355 17.0128 41.5515C17.0093 40.7041 17.0066 39.8567 17.0047 39.0093C17.0025 38.0325 16.9975 37.0557 16.99 36.0789C16.9837 35.2318 16.9814 34.3848 16.9805 33.5376C16.9795 33.1778 16.9773 32.818 16.9738 32.4582C16.9693 31.9545 16.9692 31.4509 16.9703 30.9471C16.9679 30.7987 16.9656 30.6503 16.9631 30.4974C16.9715 29.533 17.128 29.0497 17.7773 28.3282C18.6122 27.6878 19.313 27.6682 20.3433 27.6834C20.4906 27.6836 20.6379 27.6837 20.7896 27.6838C21.0998 27.6847 21.4099 27.687 21.72 27.6906C22.1935 27.6958 22.6669 27.6965 23.1405 27.6964C23.4426 27.6978 23.7448 27.6995 24.0469 27.7015C24.1879 27.7018 24.3288 27.7021 24.474 27.7025C24.6067 27.7043 24.7393 27.7062 24.876 27.7081C24.9917 27.7092 25.1074 27.7103 25.2266 27.7114C25.6611 27.7587 26.0397 27.8899 26.4492 28.0391C27.2763 27.2154 28.103 26.3912 28.9292 25.5666C29.3128 25.1837 29.6966 24.801 30.0806 24.4186C30.4511 24.0497 30.8212 23.6804 31.1911 23.3109C31.3325 23.1698 31.4739 23.0289 31.6155 22.888C31.8135 22.6911 32.0109 22.4937 32.2084 22.2963C32.321 22.184 32.4337 22.0717 32.5498 21.9559C33.0409 21.4318 32.982 20.918 33.0073 20.2344C33.0658 19.0187 33.1841 17.7566 33.9648 16.7657C34.7012 16.0983 35.7735 16.1697 36.6714 16.4591Z" fill="#22396E"/>
<path d="M35.0634 4.14036C35.239 4.19895 35.239 4.19895 35.4182 4.25873C35.804 4.38777 36.1891 4.51863 36.5743 4.6495C36.8491 4.74178 37.124 4.83393 37.399 4.92597C38.1255 5.16951 38.8514 5.41456 39.5773 5.65999C40.7163 6.04479 41.8561 6.42719 42.9958 6.80995C43.2804 6.90556 43.5649 7.00123 43.8495 7.09695C46.5555 8.00708 49.269 8.89298 51.9846 9.7736C53.6638 10.3184 55.3404 10.8709 57.0157 11.4274C57.4626 11.5757 57.9098 11.7232 58.3571 11.8705C58.7948 12.0148 59.232 12.1603 59.6694 12.3057C59.9082 12.384 59.9082 12.384 60.1518 12.464C60.2967 12.5124 60.4416 12.5608 60.5908 12.6107C60.7178 12.6528 60.8447 12.6948 60.9755 12.7381C61.2812 12.8635 61.2812 12.8635 61.5703 13.1526C61.6649 13.5352 61.6649 13.5352 61.7464 14.0226C61.7767 14.2015 61.8069 14.3805 61.8381 14.5648C61.8695 14.7595 61.9006 14.9542 61.9316 15.1489C61.9475 15.2478 61.9635 15.3467 61.9799 15.4487C62.0887 16.128 62.1922 16.808 62.293 17.4885C62.3132 17.6242 62.3334 17.7599 62.3543 17.8997C62.9154 21.8726 62.7476 26.1106 62.1484 30.0627C62.1221 30.2414 62.0957 30.42 62.0686 30.6041C61.513 34.3177 60.5353 37.7313 59.3368 41.278C59.3019 41.3816 59.267 41.4852 59.2311 41.5919C58.9861 42.3132 58.9861 42.3132 58.8242 42.6369C57.918 42.6369 57.0118 42.6369 56.0781 42.6369C56.2212 42.2077 56.3643 41.7784 56.5117 41.3362C56.9545 39.9901 57.3876 38.6411 57.8125 37.2893C57.8478 37.1769 57.8832 37.0645 57.9196 36.9488C58.4648 35.1804 58.7201 33.3376 58.9687 31.508C58.995 31.3205 59.0213 31.1329 59.0483 30.9397C59.2727 29.2264 59.3069 27.5238 59.3034 25.7974C59.303 25.3319 59.3064 24.8666 59.31 24.4012C59.3177 21.8664 59.0015 19.4451 58.5532 16.9555C58.5238 16.7837 58.5238 16.7837 58.4939 16.6085C58.3668 15.9694 58.3668 15.9694 57.9228 15.5217C57.5296 15.3237 57.1514 15.1751 56.7328 15.0396C56.4955 14.9619 56.4955 14.9619 56.2534 14.8827C56.0798 14.8269 55.9063 14.7711 55.7275 14.7136C55.5396 14.6524 55.3517 14.5911 55.1639 14.5297C54.7549 14.3963 54.3458 14.2634 53.9366 14.1309C52.8072 13.7652 51.6788 13.3969 50.5504 13.0284C50.4291 12.9888 50.3078 12.9492 50.1828 12.9084C48.1735 12.2525 46.169 11.5832 44.166 10.9083C43.6902 10.748 43.2143 10.588 42.7383 10.428C42.4223 10.3218 42.1063 10.2156 41.7903 10.1093C41.6344 10.0569 41.4785 10.0045 41.3179 9.95054C40.5357 9.68747 39.7537 9.4237 38.9721 9.15857C38.2292 8.90653 37.4857 8.6561 36.7417 8.40681C36.466 8.31404 36.1904 8.22066 35.915 8.12663C35.5357 7.99718 35.1558 7.86991 34.7756 7.74312C34.6659 7.70509 34.5562 7.66706 34.4432 7.62788C33.4366 7.29681 32.5675 7.25645 31.5463 7.60455C31.3157 7.68169 31.3157 7.68169 31.0805 7.76038C30.8345 7.84558 30.8345 7.84558 30.5836 7.9325C30.3172 8.02235 30.0507 8.1122 29.7843 8.20204C29.5019 8.2976 29.2199 8.39401 28.9379 8.49069C28.3476 8.69304 27.7565 8.89299 27.1653 9.09246C26.9659 9.15973 26.7666 9.227 26.5673 9.29428C26.4195 9.34415 26.4195 9.34415 26.2688 9.39502C25.9703 9.49587 25.6718 9.59695 25.3734 9.6981C23.9116 10.1934 22.4461 10.6765 20.9771 11.1502C20.2468 11.386 19.5172 11.6242 18.7876 11.8621C18.075 12.0943 17.3623 12.3263 16.6495 12.5576C15.6101 12.8949 14.5714 13.2339 13.5334 13.5754C13.0135 13.7463 12.4934 13.9165 11.9727 14.0848C11.482 14.2434 10.992 14.4041 10.5025 14.5664C10.2336 14.6549 9.96394 14.7413 9.69429 14.8276C8.52493 15.2124 8.52493 15.2124 7.66014 16.0432C7.04286 17.6305 7.02137 19.5824 6.83837 21.2632C6.81035 21.5203 6.78117 21.7772 6.75008 22.034C6.62384 23.136 6.6071 24.239 6.60326 25.3474C6.60288 25.4527 6.6025 25.558 6.60211 25.6665C6.59875 34.5567 9.25614 43.3966 14.3086 50.7307C14.3693 50.8198 14.43 50.9089 14.4925 51.0008C15.3668 52.2801 16.3251 53.4664 17.3437 54.633C17.4821 54.7932 17.4821 54.7932 17.6232 54.9565C17.7839 55.1418 17.9456 55.3262 18.1082 55.5098C18.2837 55.7082 18.4574 55.9083 18.6298 56.1094C20.059 57.7484 21.6928 59.2321 23.414 60.5588C23.5086 60.6318 23.6031 60.7047 23.7004 60.7798C26.0034 62.546 28.4247 64.0709 30.9748 65.4548C31.1119 65.5315 31.249 65.6082 31.3902 65.6872C32.0518 66.0366 32.6027 66.3268 33.3719 66.159C34.0453 65.9197 34.6663 65.588 35.2927 65.247C35.4406 65.168 35.5884 65.0889 35.7408 65.0074C38.1796 63.6925 40.4816 62.158 42.6367 60.4143C42.7649 60.5007 42.8931 60.5872 43.0251 60.6762C43.7943 61.1228 44.6641 61.2547 45.5273 61.426C42.877 64.0952 39.8142 66.1983 36.5664 68.0744C36.3739 68.1872 36.3739 68.1872 36.1775 68.3022C35.7548 68.5486 35.3299 68.7907 34.9043 69.032C34.7696 69.1108 34.6349 69.1897 34.4961 69.271C33.913 69.5963 33.525 69.8075 32.8492 69.8139C32.3289 69.6497 31.8464 69.4543 31.3633 69.2036C31.2659 69.1538 31.1685 69.104 31.0682 69.0527C28.0876 67.4931 25.2734 65.6046 22.6914 63.4494C22.5451 63.3282 22.3989 63.2069 22.2482 63.0819C20.0014 61.2074 17.7591 59.2122 15.8984 56.9455C15.8349 56.8695 15.7714 56.7936 15.7059 56.7153C11.4033 51.5663 8.21731 45.8205 6.02513 39.4844C5.98824 39.3783 5.95135 39.2722 5.91334 39.1629C5.20292 37.1098 4.64959 35.0587 4.31786 32.9082C4.27243 32.6227 4.22689 32.3372 4.18123 32.0517C4.15936 31.9129 4.13749 31.7741 4.11496 31.6311C4.04854 31.2291 3.97286 30.8298 3.89556 30.4297C2.977 25.4125 3.29289 20.0123 4.10544 15.0103C4.15751 14.6729 4.20112 14.3338 4.2288 13.9935C4.2686 13.6133 4.31362 13.3509 4.48046 13.008C4.76036 12.8425 4.76036 12.8425 5.1152 12.716C5.24607 12.6683 5.37694 12.6207 5.51178 12.5716C5.6484 12.5248 5.78501 12.4781 5.92577 12.4299C6.05279 12.3853 6.1798 12.3406 6.31067 12.2946C6.72058 12.1528 7.13179 12.0154 7.54352 11.879C7.77627 11.8012 7.77627 11.8012 8.01371 11.7219C8.52484 11.5514 9.03617 11.3815 9.54752 11.2116C9.9097 11.0909 10.2719 10.9702 10.634 10.8494C11.3953 10.5957 12.1567 10.3423 12.9182 10.0892C13.6861 9.83387 14.454 9.57828 15.2217 9.32235C19.1792 8.00305 23.1373 6.68567 27.1071 5.40386C28.8 4.85658 30.4817 4.2842 32.1521 3.67112C33.148 3.51495 34.1289 3.81913 35.0634 4.14036Z" fill="#E4E4E5"/>
<path d="M56.5117 44.9492C57.3225 44.9492 58.1334 44.9492 58.9688 44.9492C59.1005 45.4573 59.2322 45.9655 59.364 46.4736C59.5591 47.0059 59.6707 47.2199 60.125 47.5508C60.5227 47.7277 60.9298 47.862 61.3445 47.9934C62.5042 48.3687 62.5042 48.3687 62.9665 48.6613C63.4091 48.9103 63.6703 48.9199 64.1719 48.8516C64.6048 48.6084 64.9874 48.3258 65.388 48.0329C65.7617 47.8398 65.7617 47.8398 66.0564 47.9121C66.4102 48.1827 66.716 48.4779 67.0264 48.7974C67.1419 48.9155 67.2574 49.0336 67.3764 49.1553C67.4636 49.2459 67.5508 49.3364 67.6406 49.4297C67.4218 50.0196 67.1392 50.4863 66.7768 50.9964C66.5738 51.425 66.576 51.7045 66.6289 52.1758C66.8311 52.6634 66.8311 52.6634 67.1077 53.1514C67.4918 53.871 67.7826 54.5582 67.9585 55.3572C68.117 55.7507 68.2845 55.8681 68.6523 56.0781C69.1234 56.223 69.1234 56.223 69.6279 56.322C69.926 56.3846 70.2241 56.4472 70.5312 56.5117C70.5312 57.3702 70.5312 58.2288 70.5312 59.1133C70.2361 59.1461 69.941 59.1789 69.637 59.2126C69.0681 59.3046 68.7036 59.371 68.2097 59.6733C67.8655 60.2285 67.6901 60.7823 67.5029 61.406C67.3167 61.9637 67.0573 62.4553 66.7667 62.9648C66.5884 63.4047 66.5723 63.7002 66.6289 64.1719C66.8721 64.6048 67.1547 64.9874 67.4475 65.388C67.6406 65.7617 67.6406 65.7617 67.5684 66.0564C67.2978 66.4102 67.0026 66.716 66.6831 67.0264C66.5059 67.1996 66.5059 67.1996 66.3252 67.3764C66.2346 67.4636 66.1441 67.5508 66.0508 67.6406C65.4608 67.4218 64.9941 67.1392 64.4841 66.7768C64.0604 66.5761 63.7697 66.5808 63.3047 66.6289C62.8932 66.7931 62.8932 66.7931 62.4917 67.0264C61.7392 67.4252 60.9975 67.7062 60.1826 67.95C59.8152 68.0538 59.8152 68.0538 59.5469 68.3633C59.4613 68.7011 59.3875 69.042 59.321 69.384C59.1273 70.3727 59.1273 70.3727 58.9688 70.5312C58.555 70.5418 58.1448 70.5446 57.7312 70.5403C57.6147 70.5396 57.4981 70.539 57.3781 70.5383C57.0893 70.5366 56.8005 70.534 56.5117 70.5312C56.4767 70.3798 56.4417 70.2283 56.4056 70.0723C56.3568 69.8729 56.3078 69.6736 56.2588 69.4744C56.2361 69.3746 56.2133 69.2748 56.1899 69.172C56.0792 68.7313 55.9864 68.4172 55.6649 68.0889C55.3441 67.9238 55.0552 67.8258 54.7051 67.74C53.939 67.5292 53.2818 67.1881 52.5891 66.8034C52.1103 66.6013 51.8233 66.5597 51.3086 66.6289C50.8757 66.8721 50.4931 67.1547 50.0925 67.4475C49.7188 67.6406 49.7188 67.6406 49.424 67.5684C49.0703 67.2978 48.7645 67.0026 48.4541 66.6831C48.2808 66.5059 48.2808 66.5059 48.1041 66.3252C48.0169 66.2346 47.9297 66.1441 47.8398 66.0508C48.0586 65.4608 48.3413 64.9941 48.7036 64.4841C48.9073 64.0543 48.9041 63.7779 48.8516 63.3047C48.704 62.9371 48.5522 62.5985 48.3728 62.2478C48.0689 61.632 47.7893 61.0393 47.5959 60.3779C47.393 59.7982 47.3355 59.6996 46.8281 59.4023C46.3571 59.2575 46.3571 59.2575 45.8525 59.1584C45.5544 59.0958 45.2563 59.0332 44.9492 58.9688C44.9492 58.1579 44.9492 57.3471 44.9492 56.5117C46.0061 56.2678 46.0061 56.2678 46.3371 56.1963C46.8134 56.0776 47.0763 55.9846 47.3865 55.5982C47.5461 55.222 47.6924 54.8489 47.8218 54.4612C48.0605 53.7746 48.3572 53.1534 48.7138 52.5207C48.8904 52.0785 48.9084 51.7819 48.8516 51.3086C48.6084 50.8757 48.3258 50.4931 48.0329 50.0925C47.8398 49.7188 47.8398 49.7188 47.9121 49.424C48.1827 49.0703 48.4779 48.7645 48.7974 48.4541C48.9155 48.3386 49.0336 48.2231 49.1553 48.1041C49.2459 48.0169 49.3364 47.9297 49.4297 47.8398C50.0196 48.0586 50.4863 48.3413 50.9964 48.7036C51.42 48.9044 51.7108 48.8996 52.1758 48.8516C52.5873 48.6873 52.5873 48.6873 52.9888 48.4541C53.7373 48.056 54.4683 47.7861 55.2838 47.5587C55.7185 47.375 55.8518 47.2403 56.0781 46.8281C56.223 46.3571 56.223 46.3571 56.322 45.8525C56.3846 45.5544 56.4472 45.2563 56.5117 44.9492Z" fill="#2B93D0"/>
<path d="M35.5547 18.6445C36.0473 18.8176 36.382 18.9584 36.7109 19.3672C36.8747 19.7901 36.8747 19.7901 37.0181 20.2795C37.0902 20.5202 37.0902 20.5202 37.1637 20.7656C37.5132 22.1052 37.843 23.7498 37.1434 25.0197C37.0258 25.2147 36.9057 25.4082 36.7832 25.6001C36.0313 26.7798 35.9281 27.7335 36.2039 29.1191C36.4285 29.8607 36.8233 30.2121 37.4336 30.6406C37.8093 30.8285 38.0864 30.8052 38.5071 30.808C38.6711 30.8094 38.8351 30.8109 39.004 30.8124C39.1818 30.8135 39.3596 30.8146 39.5428 30.8156C39.916 30.8197 40.2892 30.8238 40.6624 30.8281C41.2533 30.8342 41.8443 30.8395 42.4352 30.8432C43.0038 30.8468 43.5722 30.8538 44.1407 30.8608C44.3185 30.8613 44.4963 30.8617 44.6795 30.8622C44.8435 30.8646 45.0075 30.867 45.1765 30.8695C45.3937 30.8712 45.3937 30.8712 45.6154 30.873C45.7294 30.8917 45.8434 30.9104 45.9609 30.9297C46.2934 31.4284 46.289 31.6338 46.2861 32.2214C46.2872 32.447 46.2872 32.447 46.2884 32.677C46.2501 33.0961 46.158 33.3128 45.9609 33.6758C45.8942 34.262 45.8942 34.262 45.9609 34.832C46.0802 34.9721 46.1994 35.1122 46.3223 35.2566C46.751 35.7818 46.7751 36.0309 46.7355 36.6861C46.63 37.3238 46.3573 37.7509 45.9248 38.2195C45.6179 38.5886 45.6179 38.5886 45.699 39.1228C45.7925 39.5804 45.7925 39.5804 45.9609 39.8906C45.9786 40.1763 45.9863 40.4626 45.988 40.7488C45.9901 40.9021 45.9921 41.0554 45.9942 41.2134C45.9609 41.625 45.9609 41.625 45.6719 42.0586C45.3061 42.1921 44.9389 42.2779 44.5608 42.3702C44.1779 42.4726 44.1779 42.4726 43.9375 42.9258C43.9639 43.4485 44.0307 43.9603 44.0967 44.4795C44.082 44.9492 44.082 44.9492 43.8308 45.1888C43.2701 45.5216 42.6903 45.51 42.0496 45.5544C41.8926 45.5659 41.7356 45.5773 41.5738 45.589C39.72 45.7024 37.8631 45.7034 36.0063 45.708C35.7703 45.7091 35.7703 45.7091 35.5295 45.7103C33.9381 45.7162 32.3571 45.6984 30.7722 45.5437C30.6576 45.5326 30.543 45.5215 30.4249 45.51C28.0486 45.2478 28.0486 45.2478 27.4609 44.6602C27.4071 44.2518 27.3629 43.8463 27.3253 43.4363C27.3133 43.3072 27.3014 43.1782 27.2891 43.0452C27.1379 41.3307 27.0455 39.6141 26.9822 37.8943C26.976 37.7291 26.9698 37.5639 26.9634 37.3937C26.8337 33.4786 26.8358 30.0516 29.6215 27.0657C30.8816 25.7777 32.3132 24.6031 33.798 23.5828C34.6942 23.0195 34.6942 23.0195 35.2222 22.1492C35.2365 21.9942 35.2509 21.8393 35.2656 21.6797C35.2801 21.5652 35.2945 21.4508 35.3094 21.3329C35.3148 21.1815 35.3148 21.1815 35.3204 21.027C35.3253 20.9149 35.3303 20.8027 35.3353 20.6872C35.3392 20.5735 35.343 20.4599 35.3469 20.3428C35.3927 19.1304 35.3927 19.1304 35.5547 18.6445Z" fill="#E6E6E6"/>
<path d="M57.6318 50.2522C57.7675 50.2498 57.9031 50.2475 58.0429 50.2451C60.1312 50.2437 61.7403 51.1124 63.2477 52.5201C64.6234 54.026 65.2629 55.6491 65.2378 57.6594C65.2395 57.7931 65.2412 57.9268 65.2429 58.0645C65.2341 60.1549 64.3511 61.7552 62.94 63.2583C61.2899 64.8069 59.4634 65.2786 57.2566 65.2623C55.1497 65.1916 53.5033 64.2729 52.0584 62.7541C50.8007 61.288 50.2103 59.5443 50.2246 57.6233C50.2255 57.4909 50.2265 57.3586 50.2274 57.2222C50.2844 55.0996 51.2738 53.4369 52.79 51.9866C53.5187 51.3715 54.3363 50.9571 55.2109 50.5864C55.3393 50.5318 55.4677 50.4772 55.5999 50.421C56.2797 50.2452 56.9325 50.2498 57.6318 50.2522Z" fill="#223A6E"/>
<path d="M19.3672 30.0625C21.275 30.0625 23.1828 30.0625 25.1484 30.0625C25.1484 35.0228 25.1484 39.9831 25.1484 45.0938C23.2406 45.0938 21.3328 45.0938 19.3672 45.0938C19.3672 40.1334 19.3672 35.1731 19.3672 30.0625Z" fill="#E5E5E5"/>
<path d="M61.0283 53.5755C61.9498 54.3127 62.7359 55.4972 62.9193 56.6771C62.9448 57.0177 62.9533 57.3531 62.9523 57.6946C62.9522 57.8151 62.9521 57.9356 62.9519 58.0597C62.9124 59.4597 62.3473 60.5303 61.4257 61.5699C61.0469 61.8516 61.0469 61.8516 60.6398 62.1028C60.5059 62.1868 60.3719 62.2709 60.2339 62.3574C59.0232 63.0392 57.7298 63.036 56.3671 62.8706C54.8514 62.4273 53.7701 61.4124 52.9706 60.0794C52.367 58.771 52.3552 57.2167 52.7651 55.8456C53.4628 54.3333 54.5397 53.363 56.0781 52.7534C57.7614 52.1899 59.6058 52.6156 61.0283 53.5755Z" fill="#E4E4E5"/>
<path d="M60.9922 54.7771C61.4258 55.0752 61.4258 55.0752 61.7148 55.4997C61.7539 56.0268 61.7016 56.3421 61.3733 56.7655C60.9475 57.2021 60.4793 57.5916 60.0177 57.9895C59.6057 58.3492 59.2085 58.7188 58.8191 59.1029C58.675 59.2437 58.675 59.2437 58.5281 59.3874C58.3321 59.5798 58.1375 59.7737 57.9443 59.9689C57.4851 60.4134 57.1736 60.6757 56.5574 60.8756C55.9435 60.8395 55.7753 60.7158 55.3554 60.2693C55.0761 59.9092 54.8297 59.535 54.5876 59.1492C54.5219 59.0512 54.4563 58.9532 54.3886 58.8522C53.9341 58.1331 53.8181 57.6501 53.9101 56.8005C54.145 56.4392 54.145 56.4392 54.4883 56.2224C55.0275 56.1306 55.2684 56.1685 55.7348 56.4573C56.1082 56.8306 56.3806 57.2185 56.6562 57.6677C57.3851 57.0548 58.089 56.4189 58.7859 55.7703C60.0084 54.639 60.0084 54.639 60.9922 54.7771Z" fill="#243B6F"/>
<path d="M224.867 1.15617C225.282 1.41023 225.651 1.71135 226.023 2.02336C226.11 2.09423 226.196 2.1651 226.286 2.23811C226.458 2.37968 226.629 2.52191 226.8 2.66475C233.145 7.94862 240.997 11.8828 249.383 11.8786C249.527 11.8787 249.527 11.8787 249.673 11.8789C250.951 11.8787 252.191 11.8343 253.452 11.6257C254.774 11.4464 255.776 11.6649 256.854 12.4657C257.844 13.479 257.978 14.6176 258.044 15.987C258.051 16.1078 258.057 16.2285 258.063 16.3529C258.124 17.6557 258.138 18.9574 258.136 20.2614C258.136 20.4471 258.136 20.4471 258.136 20.6366C258.12 31.6655 256.056 42.8974 250.099 52.3388C250.004 52.49 250.004 52.49 249.907 52.6443C249.823 52.7759 249.823 52.7759 249.738 52.9101C249.557 53.2329 249.428 53.5657 249.293 53.9101C249.42 54.0353 249.42 54.0353 249.549 54.1631C250.345 54.9509 251.141 55.7397 251.935 56.5297C252.343 56.9358 252.752 57.3415 253.162 57.7463C253.557 58.137 253.952 58.5289 254.345 58.9214C254.496 59.0709 254.646 59.2199 254.797 59.3686C255.009 59.5772 255.219 59.7871 255.43 59.9974C255.61 60.176 255.61 60.176 255.793 60.3583C256.164 60.7956 256.359 61.1813 256.397 61.7554C256.387 61.8612 256.377 61.9671 256.366 62.0761C256.358 62.1819 256.351 62.2877 256.343 62.3968C256.175 62.8904 255.909 63.1226 255.508 63.4491C255.079 63.5942 255.079 63.5942 254.568 63.675C254.426 63.6987 254.426 63.6987 254.28 63.7229C253.009 63.927 251.73 64.0886 250.453 64.252C250.279 64.2749 250.104 64.2978 249.924 64.3214C249.69 64.3513 249.69 64.3513 249.45 64.3819C248.981 64.465 248.573 64.5537 248.137 64.7499C247.471 65.8804 247.497 67.7024 247.333 68.9955C247.288 69.3486 247.242 69.7017 247.196 70.0546C247.167 70.2724 247.139 70.4904 247.112 70.7085C247.01 71.4834 246.922 72.0582 246.33 72.5907C245.738 73.005 245.397 73.048 244.668 72.9882C243.958 72.6577 243.452 72.2848 242.934 71.6874C242.934 71.592 242.934 71.4966 242.934 71.3984C242.849 71.3609 242.765 71.3235 242.678 71.2849C242.331 71.096 242.103 70.8919 241.825 70.6121C241.724 70.5109 241.623 70.4096 241.519 70.3053C241.411 70.1961 241.303 70.087 241.192 69.9745C241.081 69.8626 240.97 69.7508 240.855 69.6355C240.499 69.2783 240.145 68.9201 239.79 68.5619C239.549 68.3195 239.308 68.0771 239.067 67.8348C238.476 67.2408 237.886 66.6461 237.297 66.0507C236.245 66.7091 236.245 66.7091 235.215 67.4012C232.742 69.1245 230.043 70.5054 227.333 71.8139C227.242 71.858 227.151 71.902 227.057 71.9474C225.593 72.6538 224.378 73.1533 222.729 72.7432C222.225 72.5595 221.74 72.3459 221.254 72.121C221.128 72.0635 221.002 72.0061 220.871 71.9468C217.862 70.5677 214.982 69.0139 212.255 67.1336C212.137 67.0529 212.02 66.9722 211.899 66.8891C211.797 66.8178 211.694 66.7465 211.589 66.673C211.257 66.4693 210.921 66.336 210.559 66.1952C210.494 66.2604 210.43 66.3256 210.363 66.3928C209.693 67.0688 209.023 67.7438 208.351 68.4183C208.101 68.6704 207.85 68.9227 207.6 69.1753C207.242 69.5376 206.882 69.899 206.522 70.2602C206.41 70.374 206.297 70.4878 206.182 70.6051C206.077 70.7092 205.973 70.8134 205.866 70.9207C205.774 71.0132 205.682 71.1056 205.588 71.2008C205.355 71.3984 205.355 71.3984 205.066 71.3984C205.029 71.4843 204.992 71.5701 204.953 71.6586C204.765 71.9995 204.578 72.1885 204.281 72.4372C204.194 72.5108 204.108 72.5844 204.019 72.6602C203.482 73.0493 202.962 73.0426 202.32 72.9882C201.872 72.7346 201.527 72.484 201.164 72.121C201.085 71.8024 201.085 71.8024 201.025 71.404C201.002 71.2566 200.979 71.1092 200.955 70.9573C200.92 70.7196 200.92 70.7196 200.884 70.477C200.859 70.3154 200.834 70.1538 200.808 69.9873C200.689 69.2107 200.575 68.4334 200.462 67.6558C200.434 67.4613 200.434 67.4613 200.405 67.2628C200.37 67.0213 200.336 66.7797 200.303 66.538C200.272 66.3247 200.238 66.1119 200.201 65.8997C200.157 65.6452 200.129 65.388 200.104 65.131C199.808 64.6616 199.67 64.6457 199.145 64.5015C197.812 64.2294 196.457 64.0768 195.108 63.9113C194.763 63.8686 194.418 63.8238 194.074 63.7789C193.969 63.7666 193.864 63.7544 193.756 63.7419C192.952 63.6353 192.281 63.3784 191.77 62.7265C191.68 62.4301 191.68 62.4301 191.643 62.1032C191.621 61.9431 191.621 61.9431 191.599 61.7797C191.659 60.9674 192.162 60.4018 192.718 59.8498C192.918 59.6502 192.918 59.6502 193.121 59.4466C193.266 59.3042 193.411 59.1618 193.555 59.0195C193.704 58.8718 193.852 58.7239 194.001 58.576C194.39 58.1887 194.78 57.8027 195.17 57.417C195.569 57.0225 195.967 56.6267 196.365 56.231C197.144 55.4562 197.925 54.6827 198.707 53.9101C198.593 53.7035 198.479 53.497 198.364 53.2906C198.301 53.1756 198.237 53.0606 198.172 52.9421C197.922 52.4987 197.655 52.0667 197.388 51.6337C192.846 44.106 190.583 35.3293 190.035 26.5937C190.026 26.4556 190.026 26.4556 190.017 26.3148C189.904 24.5467 189.868 22.784 189.872 21.0125C189.873 20.5959 189.872 20.1794 189.871 19.7629C189.87 18.4576 189.884 17.1529 189.937 15.8487C189.94 15.7411 189.943 15.6336 189.947 15.5228C190.005 14.3264 190.336 13.2651 191.173 12.3912C192.059 11.669 192.98 11.5171 194.1 11.5895C194.525 11.6351 194.949 11.687 195.373 11.7456C203.843 12.823 212.504 9.34617 219.141 4.26173C219.964 3.61889 220.772 2.95771 221.579 2.29436C221.702 2.19431 221.825 2.09426 221.952 1.99118C222.202 1.78651 222.447 1.57615 222.69 1.36394C223.392 1.03445 224.112 0.9845 224.867 1.15617Z" fill="#E7E7E7"/>
<path d="M224.996 1.0966C225.411 1.35066 225.78 1.65178 226.153 1.96379C226.239 2.03466 226.326 2.10553 226.415 2.17854C226.587 2.32011 226.758 2.46234 226.929 2.60518C233.274 7.88905 241.126 11.8232 249.512 11.819C249.656 11.8192 249.656 11.8192 249.802 11.8193C251.08 11.8192 252.32 11.7747 253.581 11.5661C254.903 11.3868 255.905 11.6053 256.983 12.4062C257.973 13.4194 258.107 14.558 258.174 15.9274C258.18 16.0482 258.186 16.1689 258.192 16.2934C258.253 17.5961 258.267 18.8978 258.266 20.2018C258.266 20.3876 258.266 20.3876 258.266 20.577C258.25 31.6059 256.185 42.8378 250.228 52.2792C250.133 52.4304 250.133 52.4304 250.036 52.5847C249.953 52.7163 249.953 52.7163 249.867 52.8506C249.686 53.1733 249.557 53.5062 249.422 53.8505C249.549 53.9758 249.549 53.9758 249.678 54.1035C250.475 54.8913 251.27 55.6801 252.064 56.4701C252.473 56.8762 252.881 57.2819 253.291 57.6867C253.687 58.0775 254.081 58.4693 254.475 58.8619C254.625 59.0113 254.775 59.1604 254.927 59.309C255.138 59.5176 255.349 59.7276 255.559 59.9379C255.739 60.1165 255.739 60.1165 255.922 60.2987C256.294 60.736 256.488 61.1218 256.526 61.6958C256.516 61.8017 256.506 61.9075 256.495 62.0165C256.487 62.1223 256.48 62.2282 256.472 62.3372C256.304 62.8308 256.038 63.063 255.637 63.3896C255.208 63.5347 255.208 63.5347 254.698 63.6154C254.555 63.6391 254.555 63.6391 254.409 63.6634C253.138 63.8674 251.859 64.029 250.583 64.1924C250.408 64.2153 250.233 64.2382 250.053 64.2618C249.819 64.2918 249.819 64.2918 249.58 64.3223C249.11 64.4054 248.702 64.4941 248.266 64.6904C247.6 65.8209 247.626 67.6428 247.462 68.936C247.417 69.2891 247.372 69.6421 247.325 69.995C247.296 70.2129 247.268 70.4308 247.241 70.6489C247.139 71.4238 247.051 71.9986 246.459 72.5312C245.867 72.9455 245.527 72.9884 244.797 72.9286C244.087 72.5981 243.582 72.2253 243.063 71.6279C243.063 71.5325 243.063 71.4371 243.063 71.3388C242.978 71.3014 242.894 71.2639 242.807 71.2253C242.46 71.0364 242.232 70.8323 241.955 70.5526C241.853 70.4513 241.752 70.35 241.648 70.2457C241.54 70.1366 241.433 70.0274 241.322 69.9149C241.21 69.8031 241.099 69.6912 240.984 69.5759C240.628 69.2187 240.274 68.8606 239.919 68.5024C239.678 68.2599 239.437 68.0175 239.196 67.7752C238.605 67.1813 238.015 66.5865 237.426 65.9911C236.374 66.6495 236.374 66.6495 235.344 67.3416C232.871 69.0649 230.172 70.4459 227.462 71.7543C227.371 71.7984 227.28 71.8425 227.186 71.8879C225.722 72.5942 224.508 73.0937 222.858 72.6836C222.354 72.4999 221.869 72.2863 221.383 72.0614C221.257 72.004 221.131 71.9465 221.001 71.8873C217.991 70.5081 215.111 68.9544 212.384 67.0741C212.266 66.9934 212.149 66.9127 212.028 66.8295C211.926 66.7582 211.824 66.6869 211.718 66.6135C211.386 66.4097 211.051 66.2765 210.688 66.1357C210.623 66.2009 210.559 66.266 210.492 66.3332C209.823 67.0092 209.152 67.6842 208.481 68.3587C208.23 68.6108 207.98 68.8632 207.729 69.1158C207.371 69.4781 207.011 69.8394 206.651 70.2006C206.539 70.3144 206.426 70.4282 206.311 70.5455C206.207 70.6497 206.102 70.7538 205.995 70.8612C205.903 70.9536 205.811 71.046 205.717 71.1413C205.485 71.3388 205.485 71.3388 205.196 71.3388C205.158 71.4247 205.121 71.5106 205.082 71.5991C204.894 71.94 204.707 72.1289 204.41 72.3776C204.323 72.4512 204.237 72.5248 204.148 72.6006C203.611 72.9898 203.091 72.983 202.449 72.9286C202.001 72.675 201.656 72.4245 201.293 72.0614C201.214 71.7428 201.214 71.7428 201.154 71.3444C201.131 71.197 201.108 71.0496 201.084 70.8978C201.049 70.66 201.049 70.66 201.013 70.4174C200.988 70.2558 200.963 70.0942 200.938 69.9277C200.818 69.1511 200.704 68.3738 200.591 67.5962C200.563 67.4017 200.563 67.4017 200.534 67.2032C200.499 66.9617 200.465 66.7201 200.432 66.4784C200.401 66.2652 200.367 66.0523 200.33 65.8402C200.286 65.5856 200.259 65.3284 200.233 65.0714C199.937 64.602 199.799 64.5861 199.274 64.4419C197.942 64.1698 196.586 64.0172 195.237 63.8517C194.892 63.809 194.547 63.7643 194.203 63.7193C194.098 63.7071 193.993 63.6949 193.886 63.6823C193.081 63.5758 192.411 63.3188 191.899 62.6669C191.809 62.3705 191.809 62.3705 191.772 62.0436C191.75 61.8835 191.75 61.8835 191.728 61.7201C191.788 60.9079 192.291 60.3422 192.847 59.7902C193.047 59.5906 193.047 59.5906 193.251 59.387C193.395 59.2446 193.54 59.1023 193.684 58.9599C193.833 58.8122 193.981 58.6644 194.13 58.5165C194.519 58.1291 194.909 57.7432 195.299 57.3574C195.698 56.9629 196.096 56.5671 196.494 56.1715C197.274 55.3966 198.054 54.6231 198.836 53.8505C198.722 53.644 198.608 53.4375 198.494 53.231C198.43 53.116 198.366 53.001 198.301 52.8826C198.051 52.4391 197.785 52.0071 197.517 51.5741C192.975 44.0464 190.713 35.2697 190.164 26.5341C190.155 26.3961 190.155 26.3961 190.146 26.2552C190.033 24.4871 189.997 22.7245 190.001 20.9529C190.002 20.5364 190.001 20.1199 190 19.7033C189.999 18.3981 190.013 17.0934 190.066 15.7891C190.069 15.6816 190.072 15.574 190.076 15.4632C190.134 14.2668 190.465 13.2055 191.302 12.3317C192.188 11.6094 193.11 11.4575 194.229 11.53C194.655 11.5755 195.078 11.6274 195.502 11.686C203.972 12.7634 212.633 9.2866 219.27 4.20216C220.094 3.55932 220.902 2.89814 221.708 2.23479C221.831 2.13474 221.955 2.03469 222.081 1.93161C222.331 1.72694 222.576 1.51658 222.819 1.30437C223.521 0.97488 224.241 0.92493 224.996 1.0966ZM223.343 8.38414C223.248 8.46001 223.153 8.53589 223.055 8.61406C222.954 8.69692 222.852 8.77979 222.747 8.86516C220.076 10.9722 217.077 12.6411 214.012 14.1044C213.843 14.1856 213.674 14.2669 213.5 14.3506C210.579 15.7113 207.481 16.6937 204.304 17.2159C203.924 17.2792 203.546 17.3501 203.168 17.423C200.782 17.8527 198.36 17.7589 195.946 17.7177C195.779 31.8391 198.222 45.6714 208.407 56.2229C209.501 57.3387 210.61 58.383 211.844 59.3427C212.091 59.5503 212.338 59.758 212.585 59.966C215.778 62.5629 219.414 64.6487 223.117 66.4247C223.234 66.4829 223.35 66.5411 223.47 66.601C224.216 66.8285 224.832 66.5435 225.502 66.2102C225.653 66.1356 225.803 66.0609 225.958 65.984C226.197 65.8623 226.197 65.8623 226.442 65.7382C226.608 65.6543 226.774 65.5704 226.945 65.4839C231.636 63.0849 235.771 60.0611 239.594 56.4521C239.692 56.3602 239.79 56.2684 239.891 56.1737C240.502 55.5839 241.032 54.9362 241.563 54.2745C241.902 53.8556 242.252 53.447 242.602 53.0375C250.839 43.0893 252.415 30.1589 252.313 17.7177C252.115 17.7222 252.115 17.7222 251.913 17.7269C241.994 17.9229 232.444 14.6478 224.764 8.26897C224.201 7.88675 223.834 7.98072 223.343 8.38414Z" stroke="#20376D" stroke-width="2"/>
<mask id="path-13-inside-1_650_102" fill="white">
<path d="M222.871 18.014C222.98 18.0132 223.089 18.0124 223.201 18.0117C223.431 18.0107 223.66 18.0109 223.889 18.0122C224.239 18.0134 224.588 18.0092 224.937 18.0046C225.161 18.0044 225.384 18.0045 225.608 18.0049C225.712 18.0033 225.815 18.0017 225.922 18C226.655 18.0101 227.072 18.1932 227.636 18.6547C227.965 19.2144 227.956 19.7222 227.943 20.362C227.941 20.5299 227.938 20.6978 227.935 20.8707C227.932 20.998 227.929 21.1252 227.925 21.2563C228.069 21.272 228.212 21.2876 228.36 21.3037C228.965 21.3907 229.507 21.5792 230.075 21.7983C230.227 21.8555 230.227 21.8555 230.382 21.9138C231.058 22.1754 231.681 22.4789 232.291 22.8772C232.547 23.0125 232.547 23.0125 232.835 22.9737C233.339 22.7546 233.665 22.3313 234.038 21.9378C234.597 21.5839 235.084 21.5768 235.73 21.6899C236.11 21.902 236.38 22.1835 236.674 22.5018C236.755 22.5845 236.836 22.6672 236.92 22.7524C237.177 23.0156 237.429 23.283 237.681 23.5507C237.855 23.7296 238.029 23.9082 238.203 24.0865C239.597 25.5236 239.597 25.5236 239.705 26.1794C239.614 26.8946 239.332 27.2089 238.87 27.7438C238.522 28.1457 238.522 28.1457 238.331 28.6274C238.489 29.0135 238.653 29.3502 238.855 29.7114C239.484 30.8953 239.965 32.0723 240.21 33.3969C240.358 33.399 240.507 33.401 240.659 33.4031C240.856 33.4099 241.053 33.4169 241.249 33.424C241.347 33.4249 241.444 33.4257 241.544 33.4266C242.118 33.4518 242.358 33.5244 242.801 33.9011C242.9 34.0209 242.999 34.1407 243.101 34.2641C243.149 34.3118 243.196 34.3595 243.246 34.4087C243.288 35.1808 243.291 35.9532 243.296 36.7264C243.299 36.9869 243.302 37.2473 243.308 37.5077C243.316 37.8832 243.319 38.2584 243.321 38.6339C243.324 38.7499 243.328 38.8658 243.331 38.9853C243.329 39.6005 243.3 39.8315 242.907 40.3323C242.323 40.775 241.838 40.7998 241.123 40.8493C240.952 40.8614 240.782 40.8735 240.606 40.886C240.476 40.8948 240.345 40.9035 240.21 40.9126C240.181 41.0445 240.181 41.0445 240.151 41.179C239.8 42.6074 239.228 44.0034 238.499 45.2818C238.292 45.661 238.292 45.661 238.416 45.9864C238.648 46.2965 238.892 46.5906 239.144 46.8835C239.463 47.296 239.629 47.5513 239.777 48.0578C239.565 48.8118 239.119 49.2324 238.57 49.7767C238.288 50.0624 238.016 50.3571 237.744 50.6521C237.53 50.8775 237.317 51.1028 237.103 51.3278C237.002 51.4381 236.901 51.5484 236.797 51.662C236.196 52.2799 235.747 52.6345 234.865 52.6575C234.426 52.6004 234.186 52.4346 233.86 52.1408C233.754 52.049 233.649 51.9571 233.54 51.8625C233.352 51.6836 233.167 51.5021 232.984 51.3188C232.412 51.3759 231.896 51.6943 231.385 51.9421C228.947 53.0986 228.947 53.0986 227.925 53.0532C227.93 53.1788 227.935 53.3043 227.94 53.4337C227.981 55.1581 227.981 55.1581 227.492 55.7993C226.891 56.2598 226.354 56.2966 225.622 56.2905C225.513 56.2909 225.404 56.2913 225.291 56.2917C225.061 56.292 224.831 56.2912 224.601 56.2894C224.25 56.2871 223.9 56.2894 223.549 56.2922C223.325 56.2919 223.101 56.2913 222.876 56.2905C222.772 56.2913 222.668 56.2922 222.561 56.2931C221.884 56.2838 221.418 56.1579 220.843 55.7993C220.276 55.0364 220.308 54.1148 220.265 53.1977C220.099 53.1469 219.933 53.096 219.762 53.0436C218.473 52.6373 217.32 52.201 216.161 51.4955C215.808 51.2944 215.808 51.2944 215.482 51.3318C215.135 51.4975 214.892 51.7078 214.61 51.9692C214.162 52.3821 213.923 52.5936 213.31 52.6919C212.722 52.6161 212.633 52.5695 212.221 52.1928C212.12 52.1009 212.02 52.0091 211.916 51.9144C211.348 51.3751 210.791 50.8262 210.238 50.271C210.122 50.1551 210.005 50.0392 209.885 49.9198C209.774 49.8084 209.663 49.697 209.548 49.5822C209.448 49.4819 209.348 49.3816 209.245 49.2783C208.891 48.8987 208.714 48.6359 208.621 48.1211C208.723 47.4176 209.009 47.094 209.465 46.5657C209.707 46.2688 209.87 46.0405 210.003 45.6821C209.934 45.3855 209.934 45.3855 209.767 45.0961C209.711 44.9842 209.654 44.8724 209.595 44.7572C209.502 44.5801 209.502 44.5801 209.407 44.3994C208.832 43.2547 208.416 42.1643 208.124 40.9126C207.999 40.9072 207.873 40.9018 207.744 40.8962C206.039 40.799 206.039 40.799 205.378 40.3344C205.01 39.782 205.04 39.3236 205.036 38.6825C205.034 38.5629 205.033 38.4433 205.032 38.3201C205.03 38.0672 205.028 37.8143 205.028 37.5613C205.026 37.1752 205.019 36.7894 205.012 36.4033C205.01 36.1573 205.009 35.9114 205.009 35.6654C205.004 35.4928 205.004 35.4928 205 35.3168C205.005 34.6924 205.032 34.4776 205.447 33.9778C205.567 33.8815 205.688 33.7852 205.812 33.686C205.883 33.6145 205.883 33.6145 205.956 33.5415C206.322 33.5309 206.684 33.5281 207.049 33.5324C207.152 33.5331 207.255 33.5337 207.361 33.5344C207.615 33.5361 207.87 33.5387 208.124 33.5415C208.151 33.3537 208.178 33.1659 208.206 32.9724C208.354 32.2237 208.611 31.5434 208.901 30.8405C208.965 30.6862 208.965 30.6862 209.029 30.5286C209.243 30.0225 209.471 29.5586 209.765 29.0943C210.048 28.6645 210.048 28.6645 209.928 28.3141C209.686 28.0141 209.442 27.7176 209.19 27.426C208.859 26.9994 208.707 26.7669 208.576 26.2336C208.704 25.7301 208.792 25.5927 209.127 25.2225C209.219 25.1213 209.31 25.0201 209.404 24.9159C209.507 24.8052 209.609 24.6946 209.714 24.5805C209.824 24.4603 209.934 24.34 210.047 24.2161C210.407 23.827 210.774 23.4447 211.142 23.0629C211.325 22.864 211.325 22.864 211.512 22.661C212.539 21.6045 212.539 21.6045 213.299 21.5629C213.92 21.6356 214.246 21.8911 214.674 22.3493C215.007 22.7174 215.007 22.7174 215.351 22.9907C215.756 22.9322 216.094 22.7812 216.457 22.5994C216.557 22.5506 216.656 22.5018 216.759 22.4515C216.916 22.3741 216.916 22.3741 217.076 22.2951C218.119 21.7914 219.144 21.4083 220.265 21.1118C220.27 20.9966 220.276 20.8815 220.281 20.7629C220.383 19.1294 220.383 19.1294 220.843 18.5102C221.515 18.0921 222.097 18.0108 222.871 18.014Z"/>
</mask>
<path d="M222.871 18.014C222.98 18.0132 223.089 18.0124 223.201 18.0117C223.431 18.0107 223.66 18.0109 223.889 18.0122C224.239 18.0134 224.588 18.0092 224.937 18.0046C225.161 18.0044 225.384 18.0045 225.608 18.0049C225.712 18.0033 225.815 18.0017 225.922 18C226.655 18.0101 227.072 18.1932 227.636 18.6547C227.965 19.2144 227.956 19.7222 227.943 20.362C227.941 20.5299 227.938 20.6978 227.935 20.8707C227.932 20.998 227.929 21.1252 227.925 21.2563C228.069 21.272 228.212 21.2876 228.36 21.3037C228.965 21.3907 229.507 21.5792 230.075 21.7983C230.227 21.8555 230.227 21.8555 230.382 21.9138C231.058 22.1754 231.681 22.4789 232.291 22.8772C232.547 23.0125 232.547 23.0125 232.835 22.9737C233.339 22.7546 233.665 22.3313 234.038 21.9378C234.597 21.5839 235.084 21.5768 235.73 21.6899C236.11 21.902 236.38 22.1835 236.674 22.5018C236.755 22.5845 236.836 22.6672 236.92 22.7524C237.177 23.0156 237.429 23.283 237.681 23.5507C237.855 23.7296 238.029 23.9082 238.203 24.0865C239.597 25.5236 239.597 25.5236 239.705 26.1794C239.614 26.8946 239.332 27.2089 238.87 27.7438C238.522 28.1457 238.522 28.1457 238.331 28.6274C238.489 29.0135 238.653 29.3502 238.855 29.7114C239.484 30.8953 239.965 32.0723 240.21 33.3969C240.358 33.399 240.507 33.401 240.659 33.4031C240.856 33.4099 241.053 33.4169 241.249 33.424C241.347 33.4249 241.444 33.4257 241.544 33.4266C242.118 33.4518 242.358 33.5244 242.801 33.9011C242.9 34.0209 242.999 34.1407 243.101 34.2641C243.149 34.3118 243.196 34.3595 243.246 34.4087C243.288 35.1808 243.291 35.9532 243.296 36.7264C243.299 36.9869 243.302 37.2473 243.308 37.5077C243.316 37.8832 243.319 38.2584 243.321 38.6339C243.324 38.7499 243.328 38.8658 243.331 38.9853C243.329 39.6005 243.3 39.8315 242.907 40.3323C242.323 40.775 241.838 40.7998 241.123 40.8493C240.952 40.8614 240.782 40.8735 240.606 40.886C240.476 40.8948 240.345 40.9035 240.21 40.9126C240.181 41.0445 240.181 41.0445 240.151 41.179C239.8 42.6074 239.228 44.0034 238.499 45.2818C238.292 45.661 238.292 45.661 238.416 45.9864C238.648 46.2965 238.892 46.5906 239.144 46.8835C239.463 47.296 239.629 47.5513 239.777 48.0578C239.565 48.8118 239.119 49.2324 238.57 49.7767C238.288 50.0624 238.016 50.3571 237.744 50.6521C237.53 50.8775 237.317 51.1028 237.103 51.3278C237.002 51.4381 236.901 51.5484 236.797 51.662C236.196 52.2799 235.747 52.6345 234.865 52.6575C234.426 52.6004 234.186 52.4346 233.86 52.1408C233.754 52.049 233.649 51.9571 233.54 51.8625C233.352 51.6836 233.167 51.5021 232.984 51.3188C232.412 51.3759 231.896 51.6943 231.385 51.9421C228.947 53.0986 228.947 53.0986 227.925 53.0532C227.93 53.1788 227.935 53.3043 227.94 53.4337C227.981 55.1581 227.981 55.1581 227.492 55.7993C226.891 56.2598 226.354 56.2966 225.622 56.2905C225.513 56.2909 225.404 56.2913 225.291 56.2917C225.061 56.292 224.831 56.2912 224.601 56.2894C224.25 56.2871 223.9 56.2894 223.549 56.2922C223.325 56.2919 223.101 56.2913 222.876 56.2905C222.772 56.2913 222.668 56.2922 222.561 56.2931C221.884 56.2838 221.418 56.1579 220.843 55.7993C220.276 55.0364 220.308 54.1148 220.265 53.1977C220.099 53.1469 219.933 53.096 219.762 53.0436C218.473 52.6373 217.32 52.201 216.161 51.4955C215.808 51.2944 215.808 51.2944 215.482 51.3318C215.135 51.4975 214.892 51.7078 214.61 51.9692C214.162 52.3821 213.923 52.5936 213.31 52.6919C212.722 52.6161 212.633 52.5695 212.221 52.1928C212.12 52.1009 212.02 52.0091 211.916 51.9144C211.348 51.3751 210.791 50.8262 210.238 50.271C210.122 50.1551 210.005 50.0392 209.885 49.9198C209.774 49.8084 209.663 49.697 209.548 49.5822C209.448 49.4819 209.348 49.3816 209.245 49.2783C208.891 48.8987 208.714 48.6359 208.621 48.1211C208.723 47.4176 209.009 47.094 209.465 46.5657C209.707 46.2688 209.87 46.0405 210.003 45.6821C209.934 45.3855 209.934 45.3855 209.767 45.0961C209.711 44.9842 209.654 44.8724 209.595 44.7572C209.502 44.5801 209.502 44.5801 209.407 44.3994C208.832 43.2547 208.416 42.1643 208.124 40.9126C207.999 40.9072 207.873 40.9018 207.744 40.8962C206.039 40.799 206.039 40.799 205.378 40.3344C205.01 39.782 205.04 39.3236 205.036 38.6825C205.034 38.5629 205.033 38.4433 205.032 38.3201C205.03 38.0672 205.028 37.8143 205.028 37.5613C205.026 37.1752 205.019 36.7894 205.012 36.4033C205.01 36.1573 205.009 35.9114 205.009 35.6654C205.004 35.4928 205.004 35.4928 205 35.3168C205.005 34.6924 205.032 34.4776 205.447 33.9778C205.567 33.8815 205.688 33.7852 205.812 33.686C205.883 33.6145 205.883 33.6145 205.956 33.5415C206.322 33.5309 206.684 33.5281 207.049 33.5324C207.152 33.5331 207.255 33.5337 207.361 33.5344C207.615 33.5361 207.87 33.5387 208.124 33.5415C208.151 33.3537 208.178 33.1659 208.206 32.9724C208.354 32.2237 208.611 31.5434 208.901 30.8405C208.965 30.6862 208.965 30.6862 209.029 30.5286C209.243 30.0225 209.471 29.5586 209.765 29.0943C210.048 28.6645 210.048 28.6645 209.928 28.3141C209.686 28.0141 209.442 27.7176 209.19 27.426C208.859 26.9994 208.707 26.7669 208.576 26.2336C208.704 25.7301 208.792 25.5927 209.127 25.2225C209.219 25.1213 209.31 25.0201 209.404 24.9159C209.507 24.8052 209.609 24.6946 209.714 24.5805C209.824 24.4603 209.934 24.34 210.047 24.2161C210.407 23.827 210.774 23.4447 211.142 23.0629C211.325 22.864 211.325 22.864 211.512 22.661C212.539 21.6045 212.539 21.6045 213.299 21.5629C213.92 21.6356 214.246 21.8911 214.674 22.3493C215.007 22.7174 215.007 22.7174 215.351 22.9907C215.756 22.9322 216.094 22.7812 216.457 22.5994C216.557 22.5506 216.656 22.5018 216.759 22.4515C216.916 22.3741 216.916 22.3741 217.076 22.2951C218.119 21.7914 219.144 21.4083 220.265 21.1118C220.27 20.9966 220.276 20.8815 220.281 20.7629C220.383 19.1294 220.383 19.1294 220.843 18.5102C221.515 18.0921 222.097 18.0108 222.871 18.014Z" stroke="#20376D" stroke-width="4" mask="url(#path-13-inside-1_650_102)"/>
<path d="M226.891 25.4376C227.142 25.5091 227.142 25.5091 227.398 25.5821C230.645 26.5555 233.082 28.6925 234.695 31.6524C236.096 34.6058 236.267 37.8489 235.259 40.96C234.161 43.9998 231.995 46.4214 229.077 47.8255C226.447 49.0171 223.243 49.3636 220.46 48.4734C217.181 47.1808 214.609 45.1456 213.087 41.8814C211.815 38.7598 211.718 35.3572 213.025 32.2306C214.468 28.9789 217.098 26.8307 220.377 25.5629C222.335 24.9346 224.919 24.8478 226.891 25.4376Z" fill="#E5E6E6"/>
<path d="M249.004 53.7656C249.857 54.4751 250.646 55.2374 251.432 56.02C251.631 56.2177 251.631 56.2177 251.834 56.4194C252.113 56.6966 252.391 56.9743 252.67 57.2521C253.025 57.6071 253.383 57.9609 253.74 58.3143C254.083 58.6536 254.424 58.9945 254.765 59.3352C254.894 59.4615 255.022 59.5878 255.154 59.718C255.272 59.8367 255.39 59.9553 255.512 60.0776C255.616 60.1812 255.72 60.2848 255.828 60.3916C256.177 60.8134 256.36 61.2074 256.397 61.7555C256.382 61.9142 256.382 61.9142 256.366 62.0762C256.358 62.182 256.351 62.2878 256.343 62.3968C256.175 62.8905 255.909 63.1226 255.508 63.4492C255.079 63.5943 255.079 63.5943 254.568 63.675C254.473 63.6909 254.378 63.7067 254.28 63.723C253.009 63.9271 251.73 64.0886 250.453 64.2521C250.191 64.2864 250.191 64.2864 249.924 64.3215C249.768 64.3414 249.611 64.3614 249.45 64.3819C248.981 64.4651 248.573 64.5538 248.137 64.75C247.471 65.8805 247.497 67.7025 247.333 68.9956C247.288 69.3487 247.242 69.7018 247.196 70.0547C247.167 70.2725 247.139 70.4905 247.112 70.7086C247.01 71.4835 246.922 72.0582 246.33 72.5908C245.738 73.0051 245.397 73.0481 244.668 72.9883C243.958 72.6578 243.452 72.2849 242.934 71.6875C242.934 71.5921 242.934 71.4967 242.934 71.3984C242.849 71.361 242.765 71.3236 242.678 71.285C242.331 71.096 242.103 70.8919 241.825 70.6122C241.724 70.5109 241.623 70.4097 241.519 70.3054C241.357 70.1416 241.357 70.1416 241.192 69.9746C241.081 69.8627 240.97 69.7508 240.855 69.6356C240.499 69.2784 240.145 68.9202 239.79 68.562C239.549 68.3196 239.308 68.0772 239.067 67.8348C238.476 67.2409 237.886 66.6462 237.297 66.0508C237.554 65.4841 237.843 65.2477 238.354 64.8855C240.924 63.0186 243.326 60.8031 245.391 58.3906C245.507 58.2587 245.622 58.1268 245.742 57.9909C246.81 56.7645 247.759 55.4644 248.696 54.1356C248.859 53.9102 248.859 53.9102 249.004 53.7656Z" fill="#2D95D2"/>
<path d="M198.707 53.9102C199.32 54.1807 199.598 54.5862 199.963 55.1296C200.952 56.5555 202.054 57.8591 203.235 59.1285C203.576 59.4974 203.906 59.8729 204.235 60.2515C205.717 61.9006 207.419 63.3794 209.195 64.7014C209.282 64.7667 209.369 64.832 209.459 64.8992C209.629 65.0261 209.8 65.1518 209.972 65.276C210.175 65.4278 210.368 65.5939 210.559 65.7617C210.559 66.1953 210.559 66.1953 210.363 66.445C210.272 66.5365 210.18 66.6279 210.086 66.7222C209.931 66.8784 209.931 66.8784 209.773 67.0377C209.66 67.1493 209.547 67.2609 209.431 67.3758C209.258 67.5482 209.258 67.5482 209.083 67.7239C208.84 67.9668 208.596 68.2092 208.352 68.451C207.976 68.8227 207.603 69.1962 207.231 69.5701C206.994 69.8053 206.758 70.0405 206.522 70.2755C206.41 70.3879 206.297 70.5004 206.182 70.6163C206.077 70.719 205.973 70.8218 205.866 70.9277C205.728 71.0644 205.728 71.0644 205.588 71.2038C205.356 71.3984 205.356 71.3984 205.066 71.3984C205.029 71.4843 204.992 71.5702 204.953 71.6587C204.765 71.9996 204.578 72.1886 204.281 72.4373C204.151 72.5476 204.151 72.5476 204.019 72.6603C203.482 73.0494 202.962 73.0427 202.32 72.9883C201.872 72.7346 201.527 72.4841 201.164 72.1211C201.085 71.8025 201.085 71.8025 201.025 71.4041C201.002 71.2567 200.979 71.1093 200.955 70.9574C200.92 70.7196 200.92 70.7196 200.884 70.4771C200.859 70.3155 200.834 70.1539 200.809 69.9874C200.689 69.2108 200.575 68.4335 200.462 67.6559C200.443 67.5262 200.425 67.3965 200.405 67.2629C200.37 67.0214 200.336 66.7798 200.303 66.5381C200.272 66.3248 200.238 66.112 200.201 65.8998C200.157 65.6453 200.13 65.3881 200.104 65.1311C199.808 64.6616 199.67 64.6458 199.145 64.5016C197.813 64.2295 196.457 64.0769 195.108 63.9114C194.763 63.8687 194.418 63.8239 194.074 63.7789C193.917 63.7606 193.917 63.7606 193.757 63.7419C192.952 63.6354 192.281 63.3785 191.77 62.7266C191.68 62.4302 191.68 62.4302 191.643 62.1033C191.629 61.9965 191.614 61.8898 191.599 61.7798C191.659 60.9675 192.162 60.4019 192.718 59.8498C192.851 59.7168 192.984 59.5838 193.121 59.4467C193.266 59.3043 193.411 59.1619 193.555 59.0196C193.704 58.8718 193.852 58.724 194.001 58.5761C194.39 58.1888 194.78 57.8028 195.17 57.4171C195.569 57.0226 195.967 56.6268 196.365 56.2311C197.144 55.4563 197.925 54.6828 198.707 53.9102Z" fill="#2D95D2"/>
<path d="M227.984 33.057C228.432 33.3049 228.751 33.6335 228.978 34.117C229.032 34.6667 229.003 35.0942 228.707 35.5625C228.409 35.9227 228.076 36.2376 227.735 36.5502C227.427 36.8328 227.139 37.1333 226.854 37.4416C226.578 37.7399 226.3 38.0313 226 38.3029C225.681 38.5935 225.386 38.9059 225.091 39.2244C224.684 39.6626 224.27 40.0824 223.825 40.4771C223.699 40.5904 223.699 40.5904 223.571 40.706C223.253 40.9579 222.969 40.976 222.58 41C222.027 40.8873 221.599 40.3503 221.216 39.9415C221.131 39.851 221.131 39.851 221.044 39.7586C220.924 39.6316 220.804 39.5044 220.685 39.3769C220.503 39.1823 220.32 38.989 220.136 38.7958C220.02 38.6719 219.903 38.5478 219.787 38.4237C219.732 38.3663 219.677 38.3089 219.621 38.2497C219.234 37.8322 219.01 37.4745 219 36.8694C219.011 36.4303 219.118 36.186 219.396 35.8516C219.712 35.5465 219.96 35.4372 220.379 35.4119C221.41 35.4707 222.071 36.4579 222.74 37.2007C223.111 37.0455 223.352 36.7595 223.622 36.4599C223.922 36.1327 224.22 35.8104 224.548 35.5143C224.862 35.2309 225.148 34.9233 225.435 34.6109C227.004 32.9142 227.004 32.9142 227.984 33.057Z" fill="#2D95D2"/>
<circle cx="224" cy="37" r="10.25" stroke="#20376D" stroke-width="1.5"/>
<g clip-path="url(#clip0_650_102)">
<path d="M406.71 0.958988C406.896 0.957169 407.081 0.955349 407.272 0.953475C407.475 0.953039 407.677 0.952721 407.879 0.952513C408.087 0.951597 408.295 0.950637 408.503 0.949637C408.939 0.947931 409.375 0.947401 409.811 0.94757C410.369 0.947599 410.926 0.943707 411.484 0.938796C411.913 0.935617 412.343 0.935047 412.773 0.935197C412.979 0.934862 413.184 0.933606 413.389 0.931396C413.677 0.928587 413.965 0.929786 414.253 0.931141C414.417 0.930734 414.58 0.930328 414.749 0.929909C415.466 1.04071 415.906 1.4081 416.397 1.92383C416.747 2.6744 416.692 3.37421 416.667 4.1906C416.664 4.34994 416.661 4.50929 416.659 4.67347C416.652 5.06513 416.643 5.45653 416.631 5.84807C416.788 5.85854 416.944 5.86902 417.105 5.87981C417.898 5.97917 418.581 6.29825 419.304 6.62334C419.437 6.68151 419.57 6.73968 419.707 6.79961C420.256 7.04121 420.801 7.28706 421.336 7.559C421.448 7.44211 421.56 7.32522 421.675 7.20479C421.826 7.04953 421.978 6.89433 422.129 6.73918C422.202 6.66236 422.276 6.58553 422.351 6.50638C422.939 5.90779 423.547 5.37895 424.393 5.20702C424.493 5.20978 424.593 5.21254 424.696 5.21538C424.796 5.21556 424.896 5.21574 424.999 5.21593C426.091 5.42109 426.738 6.21394 427.476 6.97978C427.7 7.21012 427.924 7.44015 428.149 7.66984C428.253 7.77623 428.357 7.88262 428.464 7.99224C428.764 8.29539 428.764 8.29539 429.186 8.61999C429.278 8.69332 429.369 8.76665 429.463 8.84221C429.463 8.93631 429.463 9.03041 429.463 9.12736C429.586 9.17589 429.586 9.17589 429.712 9.22539C430.118 9.46203 430.309 9.75766 430.604 10.1254C430.788 10.2885 430.976 10.4487 431.165 10.6066C431.97 11.2948 432.553 11.9935 432.644 13.0839C432.687 13.8078 432.278 14.3996 431.822 14.9283C431.599 15.1599 431.371 15.3839 431.138 15.6058C431.059 15.6829 430.98 15.76 430.899 15.8394C430.706 16.0269 430.513 16.213 430.318 16.3989C430.592 17.2778 430.962 18.111 431.328 18.9544C431.611 19.6166 431.849 20.2638 432.029 20.9614C432.156 20.9633 432.156 20.9633 432.286 20.9654C432.676 20.9731 433.065 20.985 433.455 20.997C433.588 20.999 433.722 21.001 433.859 21.0031C434.844 21.0376 435.653 21.2091 436.399 21.8877C436.939 22.4876 436.921 23.1969 436.913 23.9644C436.914 24.0652 436.915 24.166 436.916 24.2699C436.912 25.2974 436.912 25.2974 436.592 25.6664C436.31 25.7135 436.027 25.7605 435.736 25.809C435.736 26.75 435.736 27.691 435.736 28.6606C435.972 28.7076 436.207 28.7547 436.449 28.8031C436.855 29.1547 436.878 29.3803 436.939 29.9193C436.942 30.1294 436.942 30.3396 436.939 30.5497C436.938 30.7129 436.938 30.7129 436.936 30.8793C436.912 31.7063 436.812 32.2601 436.307 32.9379C435.515 33.6658 434.721 33.5755 433.687 33.5439C433.527 33.5413 433.368 33.5387 433.204 33.5361C432.812 33.5294 432.421 33.52 432.029 33.5082C432.004 33.6075 431.979 33.7067 431.954 33.809C431.729 34.6691 431.464 35.4723 431.094 36.2796C431.029 36.425 431.029 36.425 430.963 36.5734C430.794 36.9486 430.627 37.3179 430.421 37.6747C430.285 38.0098 430.345 38.16 430.461 38.4985C430.806 38.8635 431.163 39.203 431.533 39.5413C432.162 40.1388 432.519 40.6877 432.655 41.5667C432.609 42.324 432.419 42.7437 431.898 43.2977C431.725 43.483 431.725 43.483 431.548 43.6722C430.928 44.3131 430.301 44.9464 429.668 45.5739C429.538 45.7035 429.407 45.833 429.273 45.9665C428.957 46.2816 428.64 46.5962 428.322 46.9106C429.142 48.6851 430.006 50.4372 430.88 52.186C430.933 52.2924 430.986 52.3988 431.041 52.5084C431.627 53.6855 432.224 54.8564 432.841 56.0183C433.745 57.7246 434.603 59.4547 435.464 61.1832C435.683 61.6242 435.903 62.065 436.123 62.5059C436.508 63.2764 436.892 64.0471 437.276 64.8179C437.385 65.0354 437.497 65.2511 437.614 65.464C437.796 65.8743 437.707 66.1629 437.59 66.5864C437.317 66.9467 437.174 67.0101 436.734 67.1567C436.478 67.1533 436.222 67.1401 435.967 67.1213C435.086 67.0614 434.206 67.015 433.324 66.9734C432.944 66.9544 432.565 66.9287 432.185 66.9C430.157 66.6647 430.157 66.6647 428.276 67.2349C427.723 67.7919 427.369 68.4374 427.039 69.1437C426.856 69.5214 426.624 69.8436 426.369 70.1759C426.298 70.2752 426.226 70.3745 426.152 70.4769C426.083 70.5722 426.014 70.6675 425.943 70.7657C425.867 70.8711 425.791 70.9765 425.712 71.0851C423.925 73.5497 423.925 73.5497 423.475 74.0004C422.469 74.0977 422.469 74.0977 422.058 73.8016C421.619 73.2472 421.338 72.6309 421.033 71.9954C420.893 71.71 420.753 71.4246 420.613 71.1394C420.543 70.9966 420.473 70.8537 420.401 70.7066C420.105 70.1117 419.795 69.5252 419.482 68.9389C419.308 68.6074 419.133 68.2757 418.959 67.9439C418.824 67.6883 418.689 67.4331 418.553 67.1781C418.328 66.7564 418.108 66.333 417.887 65.9091C417.817 65.7783 417.746 65.6476 417.674 65.5128C417.291 64.7668 417.093 64.2918 417.344 63.4496C417.436 63.3118 417.436 63.3118 417.53 63.1712C417.679 62.8369 417.679 62.8369 417.407 62.3558C417.299 62.1607 417.189 61.9669 417.076 61.7743C417.021 61.6749 416.965 61.5755 416.908 61.473C416.77 61.2278 416.629 60.984 416.488 60.7407C416.359 60.7524 416.23 60.7642 416.096 60.7763C415.633 60.7407 415.633 60.7407 415.347 60.5044C415.035 60.1381 414.829 59.7812 414.61 59.3527C414.528 59.1924 414.445 59.032 414.36 58.8668C414.274 58.6954 414.187 58.5239 414.1 58.3525C414.011 58.1781 413.922 58.0038 413.833 57.8295C413.657 57.4854 413.482 57.141 413.307 56.7962C413.1 56.3867 412.891 55.9779 412.682 55.5694C412.578 55.3654 412.475 55.1614 412.371 54.9573C412.325 54.8659 412.278 54.7745 412.23 54.6804C411.926 54.0729 411.926 54.0729 411.926 53.7543C410.985 53.7543 410.044 53.7543 409.074 53.7543C408.98 54.0366 408.886 54.3189 408.789 54.6098C408.656 54.8994 408.518 55.1866 408.375 55.4714C408.292 55.6365 408.209 55.8017 408.124 55.9718C408.081 56.0574 408.038 56.143 407.993 56.2312C407.866 56.4826 407.74 56.7346 407.614 56.9866C407.19 57.8308 406.758 58.6704 406.315 59.5049C405.65 60.7577 405.007 62.0201 404.374 63.2892C404.308 63.42 404.308 63.42 404.242 63.5533C403.928 64.1839 403.614 64.8148 403.3 65.4457C402.942 66.1647 402.585 66.8836 402.226 67.6022C402.183 67.6886 402.14 67.7749 402.096 67.8639C401.443 69.1712 400.774 70.4687 400.087 71.7578C399.788 72.3207 399.509 72.8921 399.241 73.4708C399.094 73.7153 399.094 73.7153 398.666 74.0004C398.206 74.0771 397.963 74.1123 397.525 74.0004C397.101 73.6952 396.829 73.2825 396.527 72.8598C396.468 72.7771 396.408 72.6944 396.347 72.6092C395.988 72.1099 395.634 71.6073 395.283 71.1026C394.728 70.3056 394.157 69.5199 393.585 68.7343C393.512 68.6336 393.439 68.533 393.364 68.4293C393.293 68.3344 393.222 68.2395 393.148 68.1417C392.963 67.8696 392.963 67.8696 392.749 67.3678C392.306 66.9281 392.166 66.9599 391.556 66.9551C391.277 66.9671 390.998 66.9795 390.719 66.9963C390.108 67.03 389.497 67.0398 388.886 67.0553C388.616 67.063 388.346 67.0708 388.077 67.0787C387.941 67.0826 387.805 67.0866 387.666 67.0907C387.387 67.0991 387.108 67.108 386.829 67.1173C386.422 67.1307 386.014 67.1422 385.606 67.1533C385.42 67.1602 385.42 67.1602 385.23 67.1672C384.607 67.1827 384.114 67.1824 383.553 66.8715C383.261 66.5136 383.267 66.3196 383.295 65.8568C383.434 65.1895 383.695 64.6906 384.025 64.1001C384.155 63.8627 384.284 63.6251 384.412 63.3873C384.481 63.2606 384.549 63.134 384.62 63.0035C384.852 62.5648 385.072 62.1217 385.291 61.6763C385.367 61.5224 385.442 61.3684 385.52 61.2098C385.668 60.9076 385.815 60.6049 385.961 60.3018C386.063 60.0937 386.063 60.0937 386.167 59.8813C386.227 59.7582 386.286 59.635 386.348 59.5082C386.567 59.138 386.787 58.8774 387.117 58.602C387.364 58.5791 387.364 58.5791 387.616 58.5558C388.153 58.5104 388.153 58.5104 388.436 58.0289C388.523 57.8505 388.606 57.6701 388.686 57.4881C388.752 57.3534 388.752 57.3534 388.82 57.216C388.998 56.8349 389.122 56.5469 389.078 56.123C388.987 55.8924 388.987 55.8924 388.828 55.7504C388.757 54.9477 388.936 54.4081 389.313 53.7164C389.364 53.6189 389.415 53.5214 389.468 53.4209C389.577 53.2118 389.687 53.0031 389.798 52.7947C390.087 52.2482 390.366 51.6967 390.647 51.1456C390.703 51.0349 390.759 50.9242 390.817 50.8102C390.931 50.586 391.045 50.3617 391.159 50.1374C391.276 49.9076 391.394 49.6782 391.512 49.449C391.686 49.1123 391.857 48.7746 392.028 48.4366C392.081 48.3344 392.134 48.2323 392.189 48.127C392.463 47.6119 392.463 47.6119 392.498 47.0457C392.324 46.5874 391.961 46.2903 391.614 45.9576C391.536 45.881 391.458 45.8044 391.378 45.7255C391.129 45.4808 390.879 45.2376 390.628 44.9947C390.379 44.7521 390.13 44.5092 389.882 44.2654C389.727 44.1139 389.572 43.9631 389.416 43.8131C388.83 43.2379 388.375 42.6993 388.276 41.8669C388.254 41.7152 388.254 41.7152 388.232 41.5606C388.311 40.4793 388.964 39.8563 389.71 39.149C389.804 39.0583 389.897 38.9676 389.993 38.8741C390.221 38.6525 390.451 38.4323 390.682 38.2133C390.646 38.1359 390.61 38.0585 390.573 37.9787C389.916 36.5554 389.279 35.1545 388.828 33.6508C388.733 33.6495 388.638 33.6481 388.541 33.6468C388.108 33.6391 387.675 33.6272 387.242 33.6152C387.093 33.6131 386.944 33.6111 386.79 33.609C385.91 33.5812 385.36 33.531 384.693 32.9379C384.081 32.1598 383.964 31.5325 383.958 30.563C383.956 30.4044 383.955 30.2459 383.953 30.0826C383.953 29.9126 383.952 29.7425 383.952 29.5673C383.951 29.3909 383.95 29.2146 383.949 29.0329C383.948 28.66 383.947 28.287 383.946 27.9141C383.945 27.3458 383.94 26.7777 383.936 26.2095C383.935 25.8465 383.934 25.4836 383.934 25.1206C383.932 24.9517 383.93 24.7828 383.928 24.6088C383.931 23.5182 383.998 22.5111 384.667 21.6119C385.524 20.9997 386.448 21.0692 387.456 21.0861C387.602 21.0874 387.747 21.0887 387.898 21.09C388.255 21.0933 388.613 21.098 388.971 21.1039C388.986 20.9606 389.002 20.8172 389.018 20.6695C389.099 20.1 389.286 19.6048 389.505 19.0722C389.543 18.9803 389.581 18.8884 389.62 18.7937C389.954 17.9864 390.31 17.1895 390.682 16.3989C390.593 16.3126 390.593 16.3126 390.503 16.2247C390.235 15.9627 389.968 15.6996 389.701 15.4364C389.562 15.3008 389.562 15.3008 389.42 15.1624C389.331 15.0742 389.242 14.986 389.15 14.8951C389.068 14.8145 388.986 14.7338 388.901 14.6507C388.358 14.0257 388.288 13.397 388.32 12.5874C388.411 12.0613 388.519 11.896 388.885 11.5167C389.001 11.3946 389.118 11.2724 389.238 11.1466C389.386 10.9962 389.535 10.8459 389.684 10.6957C389.876 10.4988 390.069 10.3019 390.261 10.105C390.818 9.5372 391.38 8.97337 391.942 8.41085C392.297 8.05564 392.651 7.6993 393.004 7.34291C393.231 7.11635 393.457 6.88985 393.683 6.66344C393.788 6.55711 393.894 6.45078 394.002 6.34123C394.101 6.24309 394.199 6.14495 394.301 6.04383C394.43 5.91446 394.43 5.91446 394.562 5.78247C395.068 5.3458 395.49 5.23357 396.153 5.22429C396.349 5.21822 396.349 5.21822 396.549 5.21204C397.472 5.36133 398.095 6.09431 398.72 6.73918C398.797 6.81821 398.875 6.89724 398.955 6.97867C399.145 7.17146 399.333 7.36514 399.522 7.559C399.613 7.51731 399.705 7.47561 399.8 7.43265C400.223 7.24154 400.648 7.05273 401.072 6.86394C401.217 6.79832 401.361 6.73271 401.51 6.66511C402.407 6.26825 403.255 5.99006 404.227 5.84807C404.223 5.71226 404.223 5.71226 404.22 5.5737C404.211 5.16021 404.205 4.74673 404.2 4.33317C404.196 4.19074 404.193 4.0483 404.189 3.90154C404.179 2.9304 404.278 2.29327 404.931 1.53508C405.514 1.04018 405.947 0.964068 406.71 0.958988Z" fill="#E5E5E6"/>
<path d="M406.71 0.958988C406.896 0.957169 407.081 0.955349 407.272 0.953475C407.475 0.953039 407.677 0.952721 407.879 0.952513C408.087 0.951597 408.295 0.950637 408.503 0.949637C408.939 0.947931 409.375 0.947401 409.811 0.94757C410.369 0.947599 410.926 0.943707 411.484 0.938796C411.913 0.935617 412.343 0.935047 412.773 0.935197C412.979 0.934862 413.184 0.933606 413.389 0.931396C413.677 0.928587 413.965 0.929786 414.253 0.931141C414.417 0.930734 414.58 0.930328 414.749 0.929909C415.466 1.04071 415.906 1.4081 416.397 1.92383C416.747 2.6744 416.692 3.37421 416.667 4.1906C416.664 4.34994 416.661 4.50929 416.659 4.67347C416.652 5.06513 416.643 5.45653 416.631 5.84807C416.788 5.85854 416.944 5.86902 417.105 5.87981C417.898 5.97917 418.581 6.29825 419.304 6.62334C419.437 6.68151 419.57 6.73968 419.707 6.79961C420.256 7.04121 420.801 7.28706 421.336 7.559C421.448 7.44211 421.56 7.32522 421.675 7.20479C421.826 7.04953 421.978 6.89433 422.129 6.73918C422.202 6.66236 422.276 6.58553 422.351 6.50638C422.939 5.90779 423.547 5.37895 424.393 5.20702C424.493 5.20978 424.593 5.21254 424.696 5.21538C424.796 5.21556 424.896 5.21574 424.999 5.21593C426.091 5.42109 426.738 6.21394 427.476 6.97978C427.7 7.21012 427.924 7.44015 428.149 7.66984C428.253 7.77623 428.357 7.88262 428.464 7.99224C428.764 8.29539 428.764 8.29539 429.186 8.61999C429.278 8.69332 429.369 8.76665 429.463 8.84221C429.463 8.93631 429.463 9.03041 429.463 9.12736C429.586 9.17589 429.586 9.17589 429.712 9.22539C430.118 9.46203 430.309 9.75766 430.604 10.1254C430.788 10.2885 430.976 10.4487 431.165 10.6066C431.97 11.2948 432.553 11.9935 432.644 13.0839C432.687 13.8078 432.278 14.3996 431.822 14.9283C431.599 15.1599 431.371 15.3839 431.138 15.6058C431.059 15.6829 430.98 15.76 430.899 15.8394C430.706 16.0269 430.513 16.213 430.318 16.3989C430.592 17.2778 430.962 18.111 431.328 18.9544C431.611 19.6166 431.849 20.2638 432.029 20.9614C432.156 20.9633 432.156 20.9633 432.286 20.9654C432.676 20.9731 433.065 20.985 433.455 20.997C433.588 20.999 433.722 21.001 433.859 21.0031C434.844 21.0376 435.653 21.2091 436.399 21.8877C436.939 22.4876 436.921 23.1969 436.913 23.9644C436.914 24.0652 436.915 24.166 436.916 24.2699C436.914 24.8007 436.904 25.225 436.592 25.6664C436.151 25.8868 435.794 25.8509 435.309 25.809C434.971 25.5428 434.787 25.3356 434.596 24.9535C434.586 24.6864 434.584 24.4189 434.587 24.1515C434.588 24.0085 434.589 23.8656 434.591 23.7182C434.593 23.5534 434.593 23.5534 434.596 23.3852C434.482 23.3882 434.369 23.3912 434.251 23.3942C433.737 23.4061 433.222 23.4135 432.707 23.4208C432.528 23.4256 432.349 23.4304 432.165 23.4353C431.907 23.4381 431.907 23.4381 431.644 23.4409C431.486 23.4439 431.327 23.4468 431.164 23.4499C430.642 23.3691 430.49 23.2331 430.176 22.8149C430.029 22.479 430.029 22.479 429.921 22.1059C429.878 21.9671 429.836 21.8283 429.792 21.6853C429.748 21.5376 429.704 21.3898 429.659 21.2376C429.251 19.9239 428.756 18.7408 428.046 17.5614C427.766 17.0788 427.615 16.7499 427.564 16.1872C427.849 15.4263 428.389 14.9865 428.982 14.4473C429.211 14.2375 429.439 14.0262 429.665 13.813C429.766 13.7207 429.867 13.6285 429.972 13.5335C430.209 13.2824 430.209 13.2824 430.148 12.9935C430.007 12.6236 429.827 12.434 429.546 12.1559C429.392 12.0018 429.392 12.0018 429.235 11.8446C429.123 11.7353 429.011 11.626 428.897 11.5133C428.783 11.4002 428.669 11.2871 428.552 11.1705C428.188 10.8093 427.823 10.4495 427.458 10.0898C427.211 9.84518 426.965 9.6005 426.718 9.35571C426.113 8.75568 425.507 8.15688 424.9 7.559C424.444 7.77575 424.152 7.99536 423.806 8.36602C423.708 8.46738 423.611 8.56874 423.511 8.67317C423.309 8.8866 423.108 9.10084 422.907 9.31589C422.496 9.74167 422.171 10.0737 421.622 10.3064C420.991 10.2498 420.555 9.96535 420.017 9.64421C418.727 8.91174 417.398 8.43226 415.983 7.99321C415.754 7.91998 415.754 7.91998 415.521 7.84527C415.384 7.80358 415.248 7.76188 415.107 7.71892C414.777 7.559 414.777 7.559 414.492 6.98869C414.492 5.71832 414.492 4.44795 414.492 3.13908C411.857 3.13908 409.223 3.13908 406.508 3.13908C406.508 4.40945 406.508 5.67982 406.508 6.98869C406.072 7.56949 406.011 7.63395 405.37 7.82411C405.158 7.88983 405.158 7.88983 404.941 7.95687C404.791 8.00202 404.64 8.04716 404.485 8.09367C402.881 8.59889 401.355 9.18833 399.949 10.1254C399.46 10.2117 399.117 10.2315 398.688 9.95721C398.38 9.69326 398.096 9.41547 397.811 9.12736C397.67 8.98876 397.53 8.85027 397.39 8.71188C397.004 8.33047 396.623 7.94555 396.242 7.559C395.508 8.17299 394.823 8.81699 394.149 9.49606C393.999 9.64615 393.999 9.64615 393.846 9.79927C393.531 10.1156 393.216 10.4324 392.901 10.7492C392.685 10.9651 392.47 11.181 392.255 11.3969C391.73 11.9232 391.206 12.4499 390.682 12.977C390.815 13.1345 390.949 13.2918 391.083 13.4491C391.158 13.5367 391.232 13.6244 391.309 13.7147C391.708 14.1702 392.143 14.587 392.577 15.0095C393.015 15.4398 393.228 15.6501 393.297 16.2696C393.234 16.9858 392.966 17.4278 392.607 18.0385C391.936 19.233 391.467 20.4446 391.053 21.7486C391.01 21.8814 390.967 22.0142 390.923 22.151C390.868 22.3278 390.868 22.3278 390.812 22.5083C390.67 22.8425 390.536 23.0159 390.254 23.2426C388.991 23.6637 387.593 23.3852 386.262 23.3852C386.262 26.02 386.262 28.6549 386.262 31.3696C387.579 31.3696 388.897 31.3696 390.254 31.3696C390.894 32.1698 390.894 32.1698 391.058 32.7268C391.096 32.8481 391.133 32.9693 391.171 33.0942C391.21 33.222 391.248 33.3498 391.288 33.4815C391.72 34.8536 392.282 36.0941 392.963 37.3578C393.239 37.8801 393.352 38.182 393.248 38.7836C392.965 39.2109 392.611 39.5616 392.25 39.9242C392.184 39.9916 392.117 40.059 392.049 40.1284C391.597 40.587 391.141 41.0411 390.682 41.4926C390.879 41.9358 391.109 42.2426 391.448 42.588C391.546 42.6883 391.644 42.7887 391.745 42.892C391.904 43.052 391.904 43.052 392.066 43.2152C392.175 43.3255 392.284 43.4358 392.397 43.5495C392.627 43.782 392.858 44.0141 393.089 44.2458C393.444 44.602 393.795 44.9608 394.147 45.3197C394.371 45.5451 394.595 45.7704 394.82 45.9955C394.925 46.1036 395.03 46.2117 395.139 46.3231C395.238 46.4212 395.337 46.5192 395.439 46.6203C395.525 46.7075 395.612 46.7948 395.701 46.8847C395.948 47.0858 395.948 47.0858 396.258 47.0238C396.621 46.8712 396.816 46.6557 397.083 46.3664C397.187 46.2575 397.291 46.1486 397.397 46.0364C397.613 45.8056 397.828 45.5739 398.042 45.3414C398.146 45.2327 398.25 45.124 398.358 45.0119C398.451 44.9113 398.544 44.8107 398.641 44.707C399.053 44.4145 399.311 44.4319 399.807 44.4867C400.237 44.7012 400.237 44.7012 400.698 44.9947C402.18 45.8964 403.836 46.531 405.518 46.9529C405.879 47.0836 406.089 47.209 406.365 47.4809C406.43 47.909 406.43 47.909 406.421 48.4271C406.42 48.594 406.418 48.7608 406.417 48.9327C406.411 49.1446 406.406 49.3566 406.401 49.575C406.389 50.2484 406.377 50.9218 406.365 51.6157C409.047 51.6157 411.729 51.6157 414.492 51.6157C414.475 50.2741 414.475 50.2741 414.454 48.9327C414.453 48.7658 414.452 48.599 414.45 48.4271C414.447 48.1707 414.447 48.1707 414.444 47.909C414.492 47.4809 414.492 47.4809 414.665 47.2229C414.975 47.0166 415.258 46.9171 415.615 46.812C415.824 46.7478 415.824 46.7478 416.037 46.6822C416.186 46.637 416.335 46.5918 416.488 46.5452C417.803 46.1314 418.996 45.6319 420.186 44.9359C420.288 44.8774 420.39 44.8188 420.495 44.7585C420.626 44.6798 420.626 44.6798 420.759 44.5995C421.17 44.4405 421.469 44.4338 421.906 44.4867C422.23 44.7246 422.23 44.7246 422.531 45.0532C422.642 45.1696 422.752 45.286 422.866 45.406C422.979 45.529 423.091 45.6521 423.207 45.7789C423.432 46.0227 423.658 46.2651 423.886 46.5057C423.985 46.6139 424.084 46.7222 424.186 46.8337C424.449 47.0866 424.449 47.0866 424.742 47.026C425.111 46.8845 425.301 46.7037 425.579 46.4232C425.682 46.3205 425.784 46.2177 425.89 46.1118C426 46.0003 426.109 45.8888 426.222 45.7738C426.335 45.6601 426.448 45.5464 426.564 45.4292C426.926 45.0656 427.285 44.7004 427.645 44.3353C427.89 44.0885 428.134 43.8419 428.379 43.5954C428.979 42.9906 429.578 42.3846 430.176 41.7778C429.966 41.3359 429.761 41.0516 429.4 40.719C429.258 40.5838 429.258 40.5838 429.112 40.4458C428.913 40.259 428.712 40.0733 428.511 39.8889C428.077 39.4739 427.789 39.1634 427.569 38.5993C427.63 37.8047 427.974 37.2011 428.34 36.5024C428.902 35.3849 429.39 34.3007 429.748 33.1028C430.155 31.818 430.155 31.818 430.604 31.3696C431.002 31.3372 431.002 31.3372 431.505 31.3417C431.774 31.3431 431.774 31.3431 432.048 31.3445C432.33 31.3481 432.33 31.3481 432.618 31.3517C432.809 31.3532 433 31.3545 433.191 31.3556C433.659 31.359 434.127 31.3637 434.596 31.3696C434.592 31.231 434.589 31.0925 434.585 30.9498C434.581 30.6784 434.581 30.6784 434.577 30.4016C434.574 30.2219 434.571 30.0422 434.567 29.8571C434.596 29.3735 434.596 29.3735 434.89 28.8923C435.419 28.5993 435.711 28.5522 436.307 28.6606C436.757 29.0774 436.87 29.3195 436.953 29.9332C436.955 30.1417 436.954 30.3502 436.948 30.5586C436.947 30.6667 436.945 30.7749 436.943 30.8862C436.914 31.7077 436.808 32.2652 436.307 32.9379C435.515 33.6658 434.721 33.5755 433.687 33.5439C433.527 33.5413 433.368 33.5387 433.204 33.5361C432.812 33.5294 432.421 33.52 432.029 33.5082C432.004 33.6075 431.979 33.7067 431.954 33.809C431.729 34.6691 431.464 35.4723 431.094 36.2796C431.029 36.425 431.029 36.425 430.963 36.5734C430.794 36.9486 430.627 37.3179 430.421 37.6747C430.285 38.0098 430.345 38.16 430.461 38.4985C430.806 38.8635 431.163 39.203 431.533 39.5413C432.162 40.1388 432.519 40.6877 432.655 41.5667C432.609 42.324 432.419 42.7437 431.898 43.2977C431.725 43.483 431.725 43.483 431.548 43.6722C430.928 44.3131 430.301 44.9464 429.668 45.5739C429.538 45.7035 429.407 45.833 429.273 45.9665C428.957 46.2816 428.64 46.5962 428.322 46.9106C429.142 48.6851 430.006 50.4372 430.88 52.186C430.933 52.2924 430.986 52.3988 431.041 52.5084C431.627 53.6855 432.224 54.8564 432.841 56.0183C433.745 57.7246 434.603 59.4547 435.464 61.1832C435.683 61.6242 435.903 62.065 436.123 62.5059C436.508 63.2764 436.892 64.0471 437.276 64.8179C437.385 65.0354 437.497 65.2511 437.614 65.464C437.796 65.8743 437.707 66.1629 437.59 66.5864C437.317 66.9467 437.174 67.0101 436.734 67.1567C436.478 67.1533 436.222 67.1401 435.967 67.1213C435.086 67.0614 434.206 67.015 433.324 66.9734C432.944 66.9544 432.565 66.9287 432.185 66.9C430.157 66.6647 430.157 66.6647 428.276 67.2349C427.723 67.7919 427.369 68.4374 427.039 69.1437C426.856 69.5214 426.624 69.8436 426.369 70.1759C426.298 70.2752 426.226 70.3745 426.152 70.4769C426.083 70.5722 426.014 70.6675 425.943 70.7657C425.867 70.8711 425.791 70.9765 425.712 71.0851C423.925 73.5497 423.925 73.5497 423.475 74.0004C422.469 74.0977 422.469 74.0977 422.058 73.8016C421.619 73.2472 421.338 72.6309 421.033 71.9954C420.893 71.71 420.753 71.4246 420.613 71.1394C420.543 70.9966 420.473 70.8537 420.401 70.7066C420.105 70.1117 419.795 69.5252 419.482 68.9389C419.308 68.6074 419.133 68.2757 418.959 67.9439C418.824 67.6883 418.689 67.4331 418.553 67.1781C418.328 66.7564 418.108 66.333 417.887 65.9091C417.817 65.7783 417.746 65.6476 417.674 65.5128C417.291 64.7668 417.093 64.2918 417.344 63.4496C417.436 63.3118 417.436 63.3118 417.53 63.1712C417.679 62.8369 417.679 62.8369 417.407 62.3558C417.299 62.1607 417.189 61.9669 417.076 61.7743C417.021 61.6749 416.965 61.5755 416.908 61.473C416.77 61.2278 416.629 60.984 416.488 60.7407C416.359 60.7524 416.23 60.7642 416.096 60.7763C415.633 60.7407 415.633 60.7407 415.347 60.5044C415.035 60.1381 414.829 59.7812 414.61 59.3527C414.528 59.1924 414.445 59.032 414.36 58.8668C414.274 58.6954 414.187 58.5239 414.1 58.3525C414.011 58.1781 413.922 58.0038 413.833 57.8295C413.657 57.4854 413.482 57.141 413.307 56.7962C413.1 56.3867 412.891 55.9779 412.682 55.5694C412.578 55.3654 412.475 55.1614 412.371 54.9573C412.325 54.8659 412.278 54.7745 412.23 54.6804C411.926 54.0729 411.926 54.0729 411.926 53.7543C410.985 53.7543 410.044 53.7543 409.074 53.7543C408.98 54.0366 408.886 54.3189 408.789 54.6098C408.656 54.8994 408.518 55.1866 408.375 55.4714C408.292 55.6365 408.209 55.8017 408.124 55.9718C408.081 56.0574 408.038 56.143 407.993 56.2312C407.866 56.4826 407.74 56.7346 407.614 56.9866C407.19 57.8308 406.758 58.6704 406.315 59.5049C405.65 60.7577 405.007 62.0201 404.374 63.2892C404.308 63.42 404.308 63.42 404.242 63.5533C403.928 64.1839 403.614 64.8148 403.3 65.4457C402.942 66.1647 402.585 66.8836 402.226 67.6022C402.183 67.6886 402.14 67.7749 402.096 67.8639C401.443 69.1712 400.774 70.4687 400.087 71.7578C399.788 72.3207 399.509 72.8921 399.241 73.4708C399.094 73.7153 399.094 73.7153 398.666 74.0004C398.206 74.0771 397.963 74.1123 397.525 74.0004C397.101 73.6952 396.829 73.2825 396.527 72.8598C396.468 72.7771 396.408 72.6944 396.347 72.6092C395.988 72.1099 395.634 71.6073 395.283 71.1026C394.728 70.3056 394.157 69.5199 393.585 68.7343C393.512 68.6336 393.439 68.533 393.364 68.4293C393.293 68.3344 393.222 68.2395 393.148 68.1417C392.963 67.8696 392.963 67.8696 392.749 67.3678C392.306 66.9281 392.166 66.9599 391.556 66.9551C391.277 66.9671 390.998 66.9795 390.719 66.9963C390.108 67.03 389.497 67.0398 388.886 67.0553C388.616 67.063 388.346 67.0708 388.077 67.0787C387.941 67.0826 387.805 67.0866 387.666 67.0907C387.387 67.0991 387.108 67.108 386.829 67.1173C386.422 67.1307 386.014 67.1422 385.606 67.1533C385.42 67.1602 385.42 67.1602 385.23 67.1672C384.607 67.1827 384.114 67.1824 383.553 66.8715C383.261 66.5136 383.267 66.3196 383.295 65.8568C383.434 65.1895 383.695 64.6906 384.025 64.1001C384.155 63.8627 384.284 63.6251 384.412 63.3873C384.481 63.2606 384.549 63.134 384.62 63.0035C384.852 62.5648 385.072 62.1217 385.291 61.6763C385.367 61.5224 385.442 61.3684 385.52 61.2098C385.668 60.9076 385.815 60.6049 385.961 60.3018C386.063 60.0937 386.063 60.0937 386.167 59.8813C386.227 59.7582 386.286 59.635 386.348 59.5082C386.567 59.138 386.787 58.8774 387.117 58.602C387.364 58.5791 387.364 58.5791 387.616 58.5558C388.153 58.5104 388.153 58.5104 388.436 58.0289C388.523 57.8505 388.606 57.6701 388.686 57.4881C388.752 57.3534 388.752 57.3534 388.82 57.216C388.998 56.8349 389.122 56.5469 389.078 56.123C388.987 55.8924 388.987 55.8924 388.828 55.7504C388.757 54.9477 388.936 54.4081 389.313 53.7164C389.364 53.6189 389.415 53.5214 389.468 53.4209C389.577 53.2118 389.687 53.0031 389.798 52.7947C390.087 52.2482 390.366 51.6967 390.647 51.1456C390.703 51.0349 390.759 50.9242 390.817 50.8102C390.931 50.586 391.045 50.3617 391.159 50.1374C391.276 49.9076 391.394 49.6782 391.512 49.449C391.686 49.1123 391.857 48.7746 392.028 48.4366C392.081 48.3344 392.134 48.2323 392.189 48.127C392.463 47.6119 392.463 47.6119 392.498 47.0457C392.324 46.5874 391.961 46.2903 391.614 45.9576C391.536 45.881 391.458 45.8044 391.378 45.7255C391.129 45.4808 390.879 45.2376 390.628 44.9947C390.379 44.7521 390.13 44.5092 389.882 44.2654C389.727 44.1139 389.572 43.9631 389.416 43.8131C388.83 43.2379 388.375 42.6993 388.276 41.8669C388.254 41.7152 388.254 41.7152 388.232 41.5606C388.311 40.4793 388.964 39.8563 389.71 39.149C389.804 39.0583 389.897 38.9676 389.993 38.8741C390.221 38.6525 390.451 38.4323 390.682 38.2133C390.646 38.1359 390.61 38.0585 390.573 37.9787C389.916 36.5554 389.279 35.1545 388.828 33.6508C388.733 33.6495 388.638 33.6481 388.541 33.6468C388.108 33.6391 387.675 33.6272 387.242 33.6152C387.093 33.6131 386.944 33.6111 386.79 33.609C385.91 33.5812 385.36 33.531 384.693 32.9379C384.081 32.1598 383.964 31.5325 383.958 30.563C383.956 30.4044 383.955 30.2459 383.953 30.0826C383.953 29.9126 383.952 29.7425 383.952 29.5673C383.951 29.3909 383.95 29.2146 383.949 29.0329C383.948 28.66 383.947 28.287 383.946 27.9141C383.945 27.3458 383.94 26.7777 383.936 26.2095C383.935 25.8465 383.934 25.4836 383.934 25.1206C383.932 24.9517 383.93 24.7828 383.928 24.6088C383.931 23.5182 383.998 22.5111 384.667 21.6119C385.524 20.9997 386.448 21.0692 387.456 21.0861C387.602 21.0874 387.747 21.0887 387.898 21.09C388.255 21.0933 388.613 21.098 388.971 21.1039C388.986 20.9606 389.002 20.8172 389.018 20.6695C389.099 20.1 389.286 19.6048 389.505 19.0722C389.543 18.9803 389.581 18.8884 389.62 18.7937C389.954 17.9864 390.31 17.1895 390.682 16.3989C390.593 16.3126 390.593 16.3126 390.503 16.2247C390.235 15.9627 389.968 15.6996 389.701 15.4364C389.562 15.3008 389.562 15.3008 389.42 15.1624C389.331 15.0742 389.242 14.986 389.15 14.8951C389.068 14.8145 388.986 14.7338 388.901 14.6507C388.358 14.0257 388.288 13.397 388.32 12.5874C388.411 12.0613 388.519 11.896 388.885 11.5167C389.001 11.3946 389.118 11.2724 389.238 11.1466C389.386 10.9962 389.535 10.8459 389.684 10.6957C389.876 10.4988 390.069 10.3019 390.261 10.105C390.818 9.5372 391.38 8.97337 391.942 8.41085C392.297 8.05564 392.651 7.6993 393.004 7.34291C393.231 7.11635 393.457 6.88985 393.683 6.66344C393.788 6.55711 393.894 6.45078 394.002 6.34123C394.101 6.24309 394.199 6.14495 394.301 6.04383C394.43 5.91446 394.43 5.91446 394.562 5.78247C395.068 5.3458 395.49 5.23357 396.153 5.22429C396.349 5.21822 396.349 5.21822 396.549 5.21204C397.472 5.36133 398.095 6.09431 398.72 6.73918C398.797 6.81821 398.875 6.89724 398.955 6.97867C399.145 7.17146 399.333 7.36514 399.522 7.559C399.613 7.51731 399.705 7.47561 399.8 7.43265C400.223 7.24154 400.648 7.05273 401.072 6.86394C401.217 6.79832 401.361 6.73271 401.51 6.66511C402.407 6.26825 403.255 5.99006 404.227 5.84807C404.223 5.71226 404.223 5.71226 404.22 5.5737C404.211 5.16021 404.205 4.74673 404.2 4.33317C404.196 4.19074 404.193 4.0483 404.189 3.90154C404.179 2.9304 404.278 2.29327 404.931 1.53508C405.514 1.04018 405.947 0.964068 406.71 0.958988Z" fill="#21386D"/>
<path d="M421.193 46.9102C421.81 47.4264 422.392 47.9543 422.951 48.5337C423.55 49.1108 423.987 49.2974 424.814 49.3646C425.348 49.3206 425.677 49.0995 426.099 48.7821C426.326 48.6211 426.326 48.6211 426.611 48.6211C426.71 48.8201 426.71 48.8201 426.811 49.0231C427.063 49.53 427.316 50.0368 427.569 50.5434C427.677 50.76 427.784 50.9766 427.892 51.1932C428.486 52.3885 429.089 53.5779 429.715 54.757C430.604 56.4328 431.444 58.1328 432.288 59.8313C432.6 60.4601 432.913 61.0887 433.226 61.7171C433.331 61.9283 433.331 61.9283 433.438 62.1438C433.808 62.8878 434.193 63.6184 434.61 64.3372C434.738 64.5898 434.738 64.5898 434.738 64.875C434.651 64.8734 434.563 64.8718 434.472 64.8702C433.559 64.8544 432.645 64.8437 431.732 64.8358C431.391 64.8323 431.05 64.8274 430.709 64.8212C430.219 64.8126 429.729 64.8085 429.238 64.8054C429.086 64.8017 428.934 64.798 428.777 64.7942C427.909 64.7874 427.909 64.7874 427.171 65.2098C427.08 65.3346 426.99 65.4593 426.896 65.5879C426.792 65.7252 426.688 65.8625 426.58 66.0039C426.473 66.1578 426.365 66.3116 426.255 66.4701C426.132 66.6456 426.008 66.821 425.885 66.9964C425.819 67.0902 425.753 67.1839 425.685 67.2805C425.288 67.8423 424.885 68.399 424.482 68.9563C424.402 69.0661 424.323 69.1758 424.242 69.2889C423.815 69.8798 423.815 69.8798 423.617 70.1504C423.544 70.2558 423.471 70.3612 423.396 70.4697C423.328 70.5526 423.26 70.6354 423.189 70.7207C423.095 70.7207 423.001 70.7207 422.904 70.7207C422.864 70.6425 422.825 70.5644 422.784 70.4838C422.368 69.6672 421.951 68.8507 421.535 68.0343C421.379 67.73 421.224 67.4256 421.069 67.1212C420.846 66.6826 420.622 66.2441 420.398 65.8057C420.295 65.6029 420.295 65.6029 420.19 65.396C419.651 64.3351 419.651 64.3351 419.055 63.3066C418.76 63.2056 418.76 63.2056 418.449 63.2354C418.065 63.1831 417.848 63.1147 417.599 62.8117C417.421 62.5373 417.264 62.2595 417.112 61.97C417.061 61.8739 417.011 61.7779 416.959 61.679C416.617 60.9769 416.617 60.9769 416.672 60.5923C416.773 60.3125 416.773 60.3125 417.059 59.8848C417.023 59.1135 416.689 58.5045 416.341 57.833C416.284 57.7209 416.227 57.6089 416.169 57.4935C415.988 57.1375 415.806 56.7823 415.624 56.4272C415.441 56.07 415.259 55.7126 415.078 55.3549C414.965 55.1328 414.851 54.9109 414.737 54.6894C414.35 53.9283 414.35 53.9283 414.35 53.6113C414.523 53.579 414.697 53.5466 414.875 53.5133C415.489 53.3591 415.805 53.1166 416.203 52.6133C416.441 52.1119 416.528 51.6972 416.547 51.1446C416.556 50.9358 416.556 50.9358 416.564 50.7227C416.568 50.5791 416.573 50.4355 416.577 50.2875C416.583 50.1411 416.588 49.9947 416.594 49.8439C416.607 49.4838 416.62 49.1238 416.631 48.7637C416.708 48.7379 416.786 48.7122 416.865 48.6856C418.362 48.1842 419.809 47.6783 421.193 46.9102Z" fill="#2B94D1"/>
<path d="M399.521 46.9102C399.613 46.9511 399.705 46.9921 399.8 47.0343C400.224 47.2225 400.648 47.4094 401.072 47.5963C401.216 47.6607 401.361 47.7252 401.51 47.7915C402.401 48.183 403.286 48.5106 404.227 48.7637C404.228 48.8527 404.229 48.9418 404.231 49.0335C404.238 49.4427 404.25 49.8517 404.262 50.2607C404.264 50.4008 404.266 50.5408 404.268 50.6851C404.3 51.6207 404.446 52.2408 404.939 53.041C405.467 53.4828 405.975 53.5451 406.65 53.6113C406.452 54.2567 406.193 54.852 405.888 55.4531C405.818 55.5936 405.818 55.5936 405.747 55.7369C405.647 55.9353 405.547 56.1337 405.447 56.3318C405.3 56.6246 405.153 56.9178 405.006 57.2111C404.482 58.2564 403.946 59.2944 403.398 60.3275C402.575 61.8832 401.792 63.4589 401.01 65.0354C400.062 66.9437 399.105 68.8439 398.096 70.7207C397.622 70.5627 397.562 70.4852 397.286 70.093C397.213 69.9908 397.14 69.8885 397.065 69.7832C396.988 69.672 396.91 69.5609 396.83 69.4464C396.665 69.213 396.499 68.9797 396.333 68.7463C396.248 68.6256 396.163 68.5048 396.075 68.3803C395.655 67.7861 395.232 67.1947 394.807 66.6038C394.731 66.4963 394.655 66.3887 394.576 66.278C394.504 66.1771 394.431 66.0762 394.357 65.9722C394.294 65.884 394.231 65.7958 394.166 65.7049C393.715 65.1014 393.715 65.1014 393.051 64.8064C392.926 64.8077 392.801 64.809 392.671 64.8103C392.457 64.8103 392.457 64.8103 392.239 64.8104C392.01 64.8148 392.01 64.8148 391.775 64.8193C391.539 64.8205 391.539 64.8205 391.298 64.8218C390.796 64.8249 390.293 64.8321 389.791 64.8394C389.45 64.8422 389.109 64.8448 388.768 64.8472C387.933 64.8534 387.097 64.863 386.262 64.875C386.452 64.25 386.698 63.7021 387.011 63.129C387.101 62.9609 387.192 62.7928 387.281 62.6247C387.422 62.3636 387.563 62.1029 387.706 61.843C387.845 61.5894 387.981 61.3346 388.116 61.0794C388.198 60.9288 388.28 60.7782 388.364 60.623C388.569 60.1043 388.591 59.725 388.543 59.1719C388.35 58.8947 388.35 58.8947 388.115 58.7441C388.308 58.1225 388.55 57.5588 388.846 56.9797C388.923 56.8287 389 56.6776 389.079 56.5219C389.137 56.4083 389.196 56.2948 389.256 56.1777C389.409 56.1895 389.562 56.2013 389.719 56.2134C390.249 56.2303 390.249 56.2303 390.549 55.9347C390.83 55.6001 391.014 55.2914 391.204 54.8984C391.306 54.6903 391.306 54.6903 391.41 54.4779C391.482 54.3301 391.553 54.1824 391.626 54.0302C391.778 53.7213 391.929 53.4126 392.081 53.104C392.157 52.9498 392.233 52.7956 392.311 52.6367C392.695 51.8645 393.098 51.103 393.503 50.3415C393.806 49.7716 394.103 49.1999 394.389 48.6211C394.524 48.7152 394.659 48.8093 394.799 48.9062C395.444 49.2719 396.088 49.338 396.812 49.1914C397.59 48.8175 398.137 48.3504 398.728 47.73C398.805 47.6509 398.883 47.5719 398.962 47.4905C399.15 47.298 399.336 47.1042 399.521 46.9102Z" fill="#2B94D1"/>
<path d="M418.057 13.2618C418.212 13.3465 418.368 13.4312 418.528 13.5185C422.404 15.7633 424.856 19.3422 426.075 23.6059C426.649 26.2037 426.686 29.5689 425.756 32.0821C425.707 32.2185 425.707 32.2185 425.656 32.3576C425.426 32.9891 425.171 33.6054 424.9 34.2208C424.846 34.3463 424.793 34.4718 424.737 34.6012C423.038 38.2823 419.624 41.0331 415.883 42.4446C415.377 42.6226 414.866 42.7754 414.35 42.918C414.23 42.9511 414.111 42.9842 413.988 43.0183C409.827 44.0474 405.553 43.0919 401.924 40.9455C398.234 38.6203 395.795 35.0127 394.816 30.7989C394.56 29.5895 394.481 28.4156 394.487 27.181C394.487 27.0117 394.488 26.8424 394.488 26.6679C394.504 25.4663 394.608 24.3962 394.959 23.2422C394.997 23.0937 395.035 22.9452 395.074 22.7922C395.606 20.8435 396.563 19.1183 397.81 17.5391C397.875 17.4448 397.939 17.3505 398.005 17.2534C398.323 16.8057 398.481 16.691 399.031 16.5945C399.521 16.6836 399.521 16.6836 399.869 16.9153C400.168 17.3704 400.164 17.5672 400.092 18.1094C399.863 18.5439 399.577 18.9331 399.29 19.3303C398.572 20.3622 397.986 21.355 397.525 22.5294C397.481 22.6427 397.436 22.7561 397.39 22.873C396.88 24.2835 396.76 25.7176 396.768 27.2077C396.769 27.453 396.769 27.453 396.77 27.7033C396.817 30.9305 398 33.9086 400.092 36.3594C400.176 36.4664 400.261 36.5734 400.348 36.6836C401.948 38.6324 404.498 40.0517 406.935 40.6368C407.064 40.6761 407.192 40.7154 407.324 40.756C410.777 41.7273 414.252 40.8603 417.354 39.2717C420.743 37.3301 422.89 34.0909 423.902 30.3711C424.671 26.52 423.895 22.7108 421.746 19.4717C421.275 18.831 420.744 18.2558 420.195 17.6817C420.108 17.5835 420.02 17.4854 419.93 17.3843C417.92 15.2106 414.678 13.8624 411.758 13.6578C409.848 13.5917 408.028 13.5686 406.223 14.2598C406.07 14.3181 405.917 14.3763 405.76 14.4364C405.215 14.6559 404.681 14.8883 404.156 15.1498C403.461 15.4898 403.006 15.6487 402.23 15.4004C401.907 15.1087 401.823 14.9089 401.714 14.4915C401.861 13.8704 402.285 13.6077 402.801 13.2618C407.353 10.5403 413.484 10.7269 418.057 13.2618Z" fill="#243A6F"/>
<path d="M419.666 18.9755C420.379 19.4806 420.778 20.1409 421.051 20.9605C421.08 21.2741 421.08 21.2741 421.086 21.6288C421.092 21.8017 421.092 21.8017 421.098 21.978C420.968 23.1074 420.42 23.8657 419.723 24.721C419.542 24.9478 419.362 25.1747 419.181 25.4016C419.089 25.5164 418.997 25.6312 418.902 25.7495C418.472 26.2875 418.051 26.8321 417.629 27.3765C417.463 27.5904 417.296 27.8043 417.13 28.0181C417.047 28.124 416.965 28.2298 416.88 28.3389C416.631 28.6597 416.381 28.9805 416.132 29.3013C416.049 29.4073 415.967 29.5132 415.882 29.6224C415.716 29.8353 415.551 30.0483 415.385 30.2612C414.958 30.8098 414.532 31.3587 414.106 31.9078C413.617 32.5367 413.129 33.165 412.639 33.7925C412.577 33.8713 412.516 33.9501 412.452 34.0312C410.626 36.366 410.626 36.366 409.172 36.5667C408.202 36.6116 407.466 36.5644 406.69 35.9551C405.971 35.2712 405.308 34.5394 404.654 33.7925C404.56 33.6857 404.466 33.579 404.369 33.4689C404.212 33.2902 404.055 33.1108 403.9 32.9309C403.608 32.5969 403.312 32.268 403.015 31.939C401.869 30.6673 401.869 30.6673 401.375 30.0855C401.242 29.9292 401.242 29.9292 401.107 29.7697C400.285 28.7644 399.852 27.9044 399.9 26.5851C400.048 25.5308 400.703 24.7456 401.518 24.0972C402.273 23.6248 402.987 23.5737 403.853 23.7313C405.472 24.1298 406.418 25.436 407.499 26.6202C407.87 27.0266 408.254 27.418 408.646 27.8042C409.573 26.6806 410.489 25.5531 411.355 24.3824C412.01 23.4978 412.69 22.6375 413.391 21.7893C413.758 21.3451 414.114 20.8993 414.448 20.4303C415.858 18.4577 417.441 17.7731 419.666 18.9755Z" fill="#223A6E"/>
<path d="M417.843 20.5424C418.391 20.6894 418.601 20.7737 418.912 21.2464C418.975 21.8275 418.969 22.148 418.67 22.6572C418.556 22.7945 418.442 22.9317 418.324 23.0732C418.193 23.2346 418.061 23.3962 417.93 23.5577C417.859 23.6441 417.787 23.7304 417.714 23.8194C417.298 24.3287 416.899 24.8518 416.497 25.3723C415.84 26.2172 415.181 27.0599 414.518 27.9008C413.984 28.5797 413.454 29.2615 412.924 29.9437C412.671 30.2684 412.419 30.593 412.166 30.9176C412.011 31.1174 411.856 31.3173 411.7 31.5172C411.368 31.9442 411.035 32.3701 410.698 32.793C410.488 33.0586 410.281 33.327 410.079 33.5995C409.525 34.3132 409.525 34.3132 409.07 34.4516C408.576 34.4829 408.266 34.3964 407.863 34.1147C407.512 33.7985 407.234 33.4801 406.944 33.1071C406.393 32.4186 405.812 31.7706 405.207 31.1289C404.533 30.4128 403.863 29.6976 403.229 28.9456C403.125 28.8286 403.022 28.7115 402.916 28.5909C402.81 28.4668 402.705 28.3427 402.596 28.2149C402.499 28.1028 402.402 27.9907 402.302 27.8752C402.037 27.4351 402.031 27.1705 402.088 26.6644C402.369 26.1773 402.542 25.991 403.077 25.8089C403.679 25.8089 404.007 26.0279 404.441 26.4407C404.678 26.6865 404.907 26.9369 405.136 27.1901C405.218 27.2799 405.3 27.3696 405.384 27.462C405.804 27.9232 406.221 28.3877 406.633 28.8565C406.745 28.9839 406.745 28.9839 406.859 29.1138C407.019 29.3028 407.171 29.4975 407.319 29.6953C407.845 30.3795 407.845 30.3795 408.62 30.6922C409.229 30.6211 409.5 30.2616 409.885 29.81C410.074 29.5682 410.259 29.3235 410.441 29.0764C410.652 28.7899 410.868 28.5072 411.085 28.2249C411.4 27.8155 411.713 27.4049 412.026 26.9935C412.536 26.3232 413.063 25.666 413.591 25.0097C414.054 24.4351 414.508 23.8549 414.956 23.2692C415.837 22.12 415.837 22.12 416.257 21.585C416.343 21.4744 416.429 21.3638 416.518 21.2498C416.952 20.7596 417.172 20.5305 417.843 20.5424Z" fill="#2B93D0"/>
</g>
<defs>
<clipPath id="clip0_650_102">
<rect width="73" height="73" fill="white" transform="translate(374 1)"/>
</clipPath>
</defs>
</svg>
