<svg width="23" height="29" viewBox="0 0 23 29" fill="none" xmlns="http://www.w3.org/2000/svg">
<path d="M1.0005 2.407L11.5 0L21.9995 2.407C22.2832 2.47207 22.537 2.635 22.7189 2.8689C22.9008 3.1028 23 3.39368 23 3.69355V16.8582C22.9999 18.1602 22.6882 19.4421 22.0926 20.59C21.497 21.7379 20.6359 22.7164 19.5858 23.4386L11.5 29L3.41422 23.4386C2.36424 22.7165 1.50326 21.7383 0.907667 20.5906C0.312079 19.4429 0.000302011 18.1613 0 16.8595V3.69355C4.98816e-05 3.39368 0.099204 3.1028 0.281098 2.8689C0.462991 2.635 0.716753 2.47207 1.0005 2.407ZM11.5 16.4773L15.2554 18.5139L14.5386 14.2008L17.5758 11.1452L13.3783 10.5151L11.5 6.59091L9.62167 10.5151L5.42417 11.1452L8.46144 14.2008L7.74589 18.5139L11.5 16.4773Z" fill="#20376D"/>
</svg>
