<svg width="23" height="26" viewBox="0 0 23 26" fill="none" xmlns="http://www.w3.org/2000/svg">
<path d="M2.13635 22.3189L9.05033 15.4246M17.7569 12.3588L15.6873 18.5511C15.6541 18.6501 15.5975 18.7397 15.5222 18.8123C15.4469 18.8849 15.3552 18.9384 15.2549 18.9682L2.56766 22.7295C2.45336 22.7634 2.33194 22.7653 2.21661 22.7351C2.10128 22.7049 1.99646 22.6438 1.91356 22.5583C1.83066 22.4729 1.77285 22.3664 1.74643 22.2504C1.72001 22.1345 1.72599 22.0135 1.76371 21.9008L5.88341 9.57892C5.91294 9.49045 5.96121 9.40934 6.02494 9.34112C6.08868 9.27289 6.16639 9.21914 6.2528 9.1835L12.1053 6.78067C12.2243 6.73167 12.3552 6.71889 12.4814 6.74396C12.6077 6.76902 12.7237 6.8308 12.8148 6.9215L17.5994 11.6936C17.685 11.7789 17.7451 11.8864 17.7729 12.0039C17.8007 12.1213 17.7952 12.2442 17.7569 12.3588Z" stroke="#20376D" stroke-width="2.5" stroke-linecap="round" stroke-linejoin="round"/>
<path d="M18.5488 3.44739L21.1171 6.00839C21.3101 6.19252 21.4643 6.41323 21.5706 6.65757C21.6769 6.90192 21.7331 7.16497 21.7361 7.4313C21.739 7.69763 21.6886 7.96186 21.5878 8.20849C21.4869 8.45512 21.3377 8.67917 21.1488 8.86751C20.9599 9.05584 20.7352 9.20466 20.4879 9.30522C20.2406 9.40578 19.9756 9.45607 19.7085 9.45312C19.4414 9.45018 19.1776 9.39406 18.9326 9.28807C18.6875 9.18208 18.4662 9.02835 18.2815 8.8359L15.7122 6.27489C15.3498 5.89719 15.1501 5.393 15.1559 4.8703C15.1617 4.3476 15.3725 3.84794 15.7432 3.47832C16.1138 3.10869 16.6149 2.89848 17.1391 2.8927C17.6633 2.88692 18.17 3.08603 18.5488 3.44739Z" fill="#2C95D2" stroke="#20376D" stroke-width="2.5" stroke-linecap="round" stroke-linejoin="round"/>
<path d="M12.6504 11.9951C12.4625 11.8011 12.2378 11.6464 11.9892 11.5399C11.7407 11.4335 11.4734 11.3774 11.2029 11.3751C10.9325 11.3727 10.6642 11.4241 10.4139 11.5263C10.1635 11.6284 9.93609 11.7792 9.74483 11.9699C9.55357 12.1607 9.40231 12.3875 9.29988 12.6371C9.19746 12.8867 9.14592 13.1542 9.14827 13.4239C9.15062 13.6936 9.20681 13.9601 9.31357 14.208C9.42033 14.4558 9.57552 14.6799 9.77008 14.8673C10.1543 15.2373 10.6688 15.4421 11.2029 15.4374C11.737 15.4328 12.2479 15.2192 12.6256 14.8426C13.0033 14.466 13.2175 13.9565 13.2222 13.4239C13.2268 12.8913 13.0215 12.3782 12.6504 11.9951Z" stroke="#2C95D2" stroke-width="1.5" stroke-linecap="round" stroke-linejoin="round"/>
</svg>
