<svg width="24" height="24" viewBox="0 0 24 24" fill="none" xmlns="http://www.w3.org/2000/svg">
<path d="M10.5039 22C6.60066 22 4.64803 22 3.43461 20.828C2.22217 19.657 2.22217 17.771 2.22217 14V10C2.22217 6.229 2.22217 4.343 3.43461 3.172C4.64803 2 6.60066 2 10.5039 2H11.5404C15.4447 2 17.3963 2 18.6097 3.172C19.8222 4.343 19.8222 6.229 19.8222 10M7.11106 7H14.9333M7.11106 12H12.9777" stroke="#20376D" stroke-width="2.5" stroke-linecap="round" stroke-linejoin="round"/>
<path d="M13.9556 22C15.7527 19.252 19.9386 19.102 21.7778 22M19.8222 14.929C19.8222 15.994 18.9471 16.857 17.8667 16.857C16.7862 16.857 15.9111 15.994 15.9111 14.929C15.9111 13.864 16.7862 13 17.8667 13C18.9471 13 19.8222 13.864 19.8222 14.929Z" stroke="#2C95D2" stroke-width="2.5" stroke-linecap="round" stroke-linejoin="round"/>
</svg>
