<svg width="29" height="29" viewBox="0 0 29 29" fill="none" xmlns="http://www.w3.org/2000/svg">
<path d="M14.5177 28.9937C6.5334 28.9937 0.0311825 22.5049 0.0177182 14.5185C0.00931476 12.6136 0.379044 10.726 1.10548 8.96499C1.83192 7.20401 2.90062 5.60471 4.24965 4.25977L5.71725 5.72219C4.56107 6.87514 3.64508 8.24598 3.02231 9.75535C2.39954 11.2647 2.08237 12.8826 2.08915 14.5154C2.08754 16.1482 2.40985 17.7652 3.03742 19.2726C3.66499 20.78 4.58535 22.1479 5.74522 23.2972C6.89596 24.4504 8.26355 25.3644 9.76916 25.9865C11.2748 26.6087 12.8886 26.9267 14.5177 26.9222H14.5384C15.9063 26.9236 17.2647 26.6953 18.557 26.2469L19.2426 28.2024C17.7313 28.7273 16.1425 28.9948 14.5426 28.9937H14.5177Z" fill="#20376D"/>
<path d="M13.4644 14.4999H15.5358V18.6427H17.6072C18.1566 18.6427 18.6835 18.861 19.0719 19.2494C19.4604 19.6379 19.6786 20.1648 19.6786 20.7141V23.8213H17.6072V20.7141H15.5358V23.8213H13.4644V20.7141H11.3929V23.8213H9.3215V20.7141C9.3215 20.1648 9.53974 19.6379 9.92821 19.2494C10.3167 18.861 10.8435 18.6427 11.3929 18.6427H13.4644V14.4999ZM21.7501 24.857C22.0248 24.857 22.2882 24.9661 22.4824 25.1604C22.6767 25.3546 22.7858 25.618 22.7858 25.8927C22.7858 26.1674 22.6767 26.4308 22.4824 26.6251C22.2882 26.8193 22.0248 26.9284 21.7501 26.9284C21.4754 26.9284 21.2119 26.8193 21.0177 26.6251C20.8235 26.4308 20.7144 26.1674 20.7144 25.8927C20.7144 25.618 20.8235 25.3546 21.0177 25.1604C21.2119 24.9661 21.4754 24.857 21.7501 24.857ZM7.25007 2.07129C7.52476 2.07129 7.7882 2.18041 7.98243 2.37464C8.17666 2.56888 8.28578 2.83231 8.28578 3.107C8.28578 3.38169 8.17666 3.64513 7.98243 3.83936C7.7882 4.0336 7.52476 4.14272 7.25007 4.14272C6.97538 4.14272 6.71194 4.0336 6.51771 3.83936C6.32348 3.64513 6.21436 3.38169 6.21436 3.107C6.21436 2.83231 6.32348 2.56888 6.51771 2.37464C6.71194 2.18041 6.97538 2.07129 7.25007 2.07129Z" fill="#20376D"/>
<path d="M19.5958 8.39522C19.1587 5.97994 17.0396 4.14258 14.5001 4.14258C11.9605 4.14258 9.84143 5.97994 9.40436 8.39522C8.49696 8.61156 7.68882 9.12707 7.11013 9.8587C6.53145 10.5903 6.21591 11.4955 6.21436 12.4283C6.21436 14.7131 8.07243 16.5711 10.3572 16.5711H11.3929V14.4997H10.3572C9.21482 14.4997 8.28578 13.5707 8.28578 12.4283C8.28578 11.2859 9.21482 10.3569 10.3572 10.3569H11.3929V9.32115C11.3929 7.60808 12.787 6.21401 14.5001 6.21401C16.2131 6.21401 17.6072 7.60808 17.6072 9.32115V10.3569H18.6429C19.7853 10.3569 20.7144 11.2869 20.7144 12.4283C20.7144 13.5696 19.7853 14.4997 18.6429 14.4997H17.6072V16.5711H18.6429C20.9277 16.5711 22.7858 14.7131 22.7858 12.4283C22.7842 11.4955 22.4687 10.5903 21.89 9.8587C21.3113 9.12707 20.5032 8.61156 19.5958 8.39522Z" fill="#20376D"/>
<path d="M24.7533 24.7418L23.2888 23.2762C24.4468 22.1254 25.3649 20.7562 25.9902 19.2481C26.6154 17.74 26.9354 16.1229 26.9314 14.4903C26.9314 7.63799 21.3562 2.06171 14.5029 2.06171C13.1047 2.06171 11.753 2.28646 10.4833 2.72871L9.80176 0.773278C11.3139 0.251016 12.9031 -0.0136622 14.5029 -0.00972228C22.4986 -0.00972228 29.0029 6.49456 29.0029 14.4903C29.0029 18.3607 27.4938 22.0013 24.7533 24.7418Z" fill="#20376D"/>
</svg>
