<svg width="50" height="50" viewBox="0 0 50 50" fill="none" xmlns="http://www.w3.org/2000/svg">
<path d="M26.5278 7.08333C26 7.61111 25.1389 7.66667 24.5278 7.19444C21.3889 4.69444 17.6389 3.33333 13.8889 3.33333C10.1389 3.33333 6.38889 4.69444 3.22223 7.19444C2.63889 7.66667 1.77778 7.61111 1.22223 7.08333L1.11111 6.94444C0.964996 6.79603 0.850773 6.61932 0.775452 6.42515C0.700127 6.23098 0.665295 6.02347 0.6731 5.81535C0.680904 5.60723 0.731174 5.4029 0.820827 5.21492C0.910484 5.02694 1.03763 4.85927 1.19445 4.72222C4.88889 1.58333 9.38889 0 13.8889 0C18.3889 0 22.8889 1.58333 26.5833 4.72222C27.25 5.30555 27.3056 6.30556 26.6667 6.94444L26.5278 7.08333ZM21.8056 9.19444C22.5 9.75 22.5278 10.8056 21.9167 11.4167L21.8056 11.5278C21.25 12.0833 20.4167 12.0833 19.8056 11.6389C18.0556 10.3056 15.9722 9.72222 13.8889 9.72222C11.8056 9.72222 9.72223 10.3056 7.97223 11.6111C7.36111 12.0833 6.5 12.0556 5.97222 11.5L5.86111 11.3889C5.22223 10.75 5.27778 9.72222 5.97222 9.16667C8.27778 7.38889 11.0833 6.38889 13.8889 6.38889C16.6944 6.38889 19.5 7.38889 21.8056 9.19444ZM5.55556 27.7778H11.1111V19.4444C11.1111 17.9167 12.3611 16.6667 13.8889 16.6667C15.4167 16.6667 16.6667 17.9167 16.6667 19.4444V27.7778H44.4444C47.5 27.7778 50 30.2778 50 33.3333V44.4444C50 47.5 47.5 50 44.4444 50H5.55556C2.5 50 0 47.5 0 44.4444V33.3333C0 30.2778 2.5 27.7778 5.55556 27.7778ZM36.1111 41.6667H41.6667V36.1111H36.1111V41.6667ZM26.3889 41.6667H31.9444V36.1111H26.3889V41.6667ZM16.6667 41.6667H22.2222V36.1111H16.6667V41.6667Z" fill="url(#paint0_linear_50_133)"/>
<defs>
<linearGradient id="paint0_linear_50_133" x1="50" y1="25" x2="0" y2="25" gradientUnits="userSpaceOnUse">
<stop stop-color="#72AA15"/>
<stop offset="1" stop-color="#5A8514"/>
</linearGradient>
</defs>
</svg>
