<svg width="24" height="27" viewBox="0 0 24 27" fill="none" xmlns="http://www.w3.org/2000/svg">
<path d="M22.2437 15.7703L18.5816 13.6328L22.2437 11.4953C22.778 11.1803 22.956 10.4941 22.6555 9.95406L20.4293 6.06156C20.2804 5.80346 20.0368 5.61506 19.7514 5.53715C19.466 5.45924 19.1617 5.4981 18.9044 5.64531L15.2423 7.78281V3.50781C15.2423 2.88906 14.7414 2.38281 14.1292 2.38281H9.67682C9.06462 2.38281 8.56373 2.88906 8.56373 3.50781V7.78281L4.90165 5.64531C4.64437 5.4981 4.34008 5.45924 4.05466 5.53715C3.76924 5.61506 3.52568 5.80346 3.37671 6.06156L1.15051 9.95406C0.838848 10.4941 1.02807 11.1803 1.56236 11.4953L5.22444 13.6328L1.56236 15.7703C1.02807 16.0853 0.849979 16.7716 1.15051 17.3116L3.37671 21.2041C3.68837 21.7441 4.36736 21.9241 4.90165 21.6203L8.56373 19.4828V23.7578C8.56373 24.3766 9.06462 24.8828 9.67682 24.8828H14.1292C14.7414 24.8828 15.2423 24.3766 15.2423 23.7578V19.4828L18.9044 21.6203C19.4387 21.9353 20.1177 21.7441 20.4293 21.2041L22.6555 17.3116C22.9672 16.7716 22.778 16.0853 22.2437 15.7703ZM19.0602 19.1116L13.8509 16.0741C13.4836 15.8491 13.0161 16.1191 13.0161 16.5578V22.6328H10.7899V16.5578C10.7899 16.1303 10.3224 15.8491 9.9551 16.0741L4.74581 19.1116L3.63272 17.1653L8.842 14.1278C9.20932 13.9141 9.20932 13.3741 8.842 13.1491L3.63272 10.1116L4.74581 8.16531L9.9551 11.2028C10.3224 11.4166 10.7899 11.1466 10.7899 10.7078V4.63281H13.0161V10.7078C13.0161 11.1353 13.4836 11.4166 13.8509 11.1916L19.0602 8.15406L20.1733 10.1003L14.964 13.1378C14.5967 13.3516 14.5967 13.8916 14.964 14.1166L20.1733 17.1541L19.0602 19.1116Z" fill="#20376D" stroke="#E7E7E7" stroke-width="0.9"/>
<ellipse cx="12" cy="13.4995" rx="2.35714" ry="2.38235" fill="#2C95D2"/>
</svg>
