<svg width="37" height="36" viewBox="0 0 37 36" fill="none" xmlns="http://www.w3.org/2000/svg">
<g clip-path="url(#clip0_503_83)">
<path d="M29.5567 3.09372C29.7655 3.17937 29.7655 3.17937 29.9827 3.29971C30.1031 3.36565 30.1031 3.36565 30.226 3.43292C30.3116 3.48096 30.3971 3.52902 30.4826 3.57711C30.5713 3.62616 30.6601 3.67514 30.7489 3.72406C31.3056 4.03153 31.8589 4.34481 32.4089 4.66339C32.9223 4.95987 33.4411 5.24724 33.959 5.53611C34.1102 5.62067 34.2611 5.70563 34.4118 5.79103C34.5388 5.86294 34.6664 5.93394 34.7948 6.00355C34.8465 6.03261 34.8982 6.06167 34.9515 6.09161C34.9954 6.1156 35.0392 6.13959 35.0844 6.16431C35.3135 6.36077 35.3371 6.59726 35.3568 6.88415C35.3579 6.99332 35.3582 7.10249 35.3578 7.21167C35.3584 7.30142 35.3584 7.30142 35.3589 7.39299C35.3599 7.59027 35.3599 7.78754 35.3597 7.98483C35.36 8.12221 35.3603 8.25959 35.3606 8.39697C35.3612 8.68469 35.3611 8.97241 35.3608 9.26014C35.3603 9.62874 35.3616 9.99733 35.3633 10.3659C35.3643 10.6496 35.3644 10.9332 35.3642 11.2168C35.3642 11.3527 35.3646 11.4886 35.3653 11.6245C35.3662 11.8145 35.3657 12.0045 35.3649 12.1945C35.3654 12.2506 35.366 12.3066 35.3665 12.3643C35.3634 12.6857 35.3244 12.8921 35.1212 13.1484C34.6651 13.5269 34.0855 13.787 33.5629 14.0669C33.0626 14.3356 32.5672 14.606 32.086 14.9062C32.1254 15.277 32.1737 15.6449 32.2305 16.0136C32.7556 19.5668 31.8379 23.1498 29.6606 26.042C29.4028 26.3684 29.1292 26.6765 28.8422 26.9788C28.7043 27.125 28.5725 27.2745 28.4411 27.4262C26.4135 29.6789 22.994 31.2166 19.9454 31.4297C19.8813 31.4343 19.8172 31.4389 19.7511 31.4436C18.1438 31.5508 16.5984 31.4439 15.0313 31.0781C14.981 31.0666 14.9306 31.0552 14.8787 31.0433C13.3774 30.6911 11.7247 30.0216 10.5342 29.0478C10.4115 28.955 10.4115 28.955 10.2643 28.9764C10.0844 29.053 9.94411 29.1521 9.78754 29.2675C8.52267 30.1461 6.94154 30.3844 5.42253 30.1995C3.86768 29.8983 2.41797 29.0863 1.50794 27.798C0.579014 26.3889 0.235868 24.7398 0.580222 23.0872C0.805906 22.1963 1.26168 21.3617 1.87897 20.6718C1.92718 20.61 1.92718 20.61 1.97636 20.5469C2.56728 19.8077 3.72439 19.0454 4.69733 18.914C4.69128 18.8585 4.68522 18.8029 4.67898 18.7457C4.37352 15.4537 5.59026 12.0016 7.74487 9.46882C7.86035 9.33525 7.97672 9.20251 8.09382 9.07028C8.12778 9.03189 8.16175 8.99351 8.19675 8.95396C8.5693 8.53661 8.95503 8.15432 9.3946 7.80465C9.43078 7.77487 9.46696 7.74508 9.50423 7.71439C12.2991 5.41345 15.8989 4.28332 19.5528 4.52264C21.0735 4.65105 22.6295 4.96992 24.0058 5.62469C24.243 5.70708 24.3309 5.68927 24.5704 5.62497C24.7539 5.54293 24.7539 5.54293 24.9399 5.43737C25.0114 5.39823 25.0828 5.35909 25.1565 5.31876C25.2328 5.27624 25.3092 5.23372 25.3879 5.18991C25.5071 5.12422 25.5071 5.12422 25.6288 5.05721C26.1861 4.74927 26.7404 4.43642 27.2939 4.12204C27.366 4.08113 27.438 4.04022 27.5123 3.99808C27.8192 3.82361 28.1254 3.64847 28.4295 3.46945C28.4759 3.44256 28.5223 3.41568 28.5701 3.38798C28.6872 3.32 28.8039 3.25113 28.9204 3.18216C29.1589 3.0781 29.2969 3.07299 29.5567 3.09372ZM29.0012 4.57028C28.8827 4.63989 28.8827 4.63989 28.7618 4.7109C28.9757 4.93735 29.1905 5.0836 29.4658 5.23358C29.5893 5.30143 29.5893 5.30143 29.7152 5.37065C29.8039 5.41882 29.8926 5.46697 29.9813 5.5151C30.1642 5.61503 30.347 5.71525 30.5298 5.81558C30.5756 5.84071 30.6215 5.86585 30.6687 5.89175C30.9654 6.05505 31.258 6.22371 31.5488 6.39675C31.6208 6.43941 31.6928 6.48206 31.7669 6.526C31.9017 6.60633 32.036 6.68745 32.1697 6.76945C32.2299 6.80517 32.2901 6.84088 32.3522 6.87768C32.404 6.90918 32.4559 6.94069 32.5093 6.97314C32.7103 7.04854 32.8217 7.0214 33.0255 6.9609C33.2239 6.85685 33.2239 6.85685 33.3868 6.74997C33.1729 6.52351 32.9581 6.37727 32.6828 6.22729C32.6005 6.18206 32.5181 6.13683 32.4333 6.09024C32.3447 6.04207 32.256 5.99392 32.1673 5.94577C31.9845 5.84574 31.8019 5.7454 31.6194 5.64502C31.5736 5.61986 31.5277 5.59471 31.4805 5.5688C30.97 5.28785 30.467 4.99463 29.9662 4.6976C29.9055 4.66211 29.8448 4.62662 29.7823 4.59005C29.7297 4.55892 29.6771 4.52779 29.6229 4.49571C29.3714 4.37573 29.2251 4.43873 29.0012 4.57028ZM27.2442 5.55465C27.335 5.81974 27.4101 5.8364 27.6578 5.96691C27.7302 6.00563 27.8026 6.04435 27.8773 6.08425C27.956 6.12556 28.0348 6.16687 28.1159 6.20944C28.2807 6.29737 28.4453 6.38545 28.6099 6.47366C28.6522 6.49623 28.6944 6.51881 28.7379 6.54207C29.2627 6.8232 29.7783 7.11953 30.2942 7.41569C30.6219 7.60319 30.9477 7.78635 31.2911 7.94528C31.3626 7.87567 31.4342 7.80606 31.5079 7.73434C30.8668 7.34514 30.2184 6.97206 29.5612 6.60934C29.4342 6.53901 29.3072 6.46864 29.1802 6.39827C29.0543 6.32861 28.9284 6.25914 28.8025 6.18966C28.6215 6.08959 28.4412 5.98835 28.2613 5.88644C28.215 5.86034 28.1687 5.83423 28.1209 5.80734C28.0318 5.75705 27.9428 5.70652 27.854 5.65573C27.5592 5.47588 27.5592 5.47588 27.2442 5.55465ZM15.5236 7.93649C15.0749 8.37485 14.6894 8.85713 14.3087 9.35153C14.2493 9.42716 14.1899 9.50279 14.1305 9.5784C13.8322 9.92161 13.8322 9.92161 13.7305 10.3359C15.1237 10.5966 16.5001 10.8281 17.9219 10.8281C17.9219 9.25028 17.9219 7.67247 17.9219 6.04684C17.2633 6.04684 15.9823 7.4978 15.5236 7.93649ZM21.2462 6.04684C21.4371 6.28491 21.6266 6.4904 21.8649 6.68405C22.2586 7.00952 22.5968 7.3857 22.9413 7.75896C23.0948 7.91868 23.2552 8.07193 23.4141 8.22653C23.4141 7.71606 23.4141 7.20559 23.4141 6.67965C22.3558 6.27096 22.3558 6.27096 21.2462 6.04684ZM10.7676 8.29684C10.697 8.34959 10.6264 8.40234 10.5537 8.45669C10.2933 8.65106 10.2933 8.65106 10.045 8.85934C10.045 8.90575 10.045 8.95215 10.045 8.99997C11.161 9.63892 11.161 9.63892 12.3557 9.89516C12.5354 9.83198 12.581 9.77012 12.6838 9.61547C12.7158 9.56854 12.7477 9.5216 12.7807 9.47324C12.8139 9.42292 12.8472 9.37261 12.8814 9.32077C12.9522 9.21727 13.0231 9.11391 13.0943 9.01068C13.1288 8.96036 13.1634 8.91005 13.1991 8.85821C13.5456 8.36435 13.9557 7.92036 14.3696 7.47973C14.5107 7.32828 14.6471 7.17393 14.7829 7.01803C14.9982 6.77627 15.2335 6.56997 15.4866 6.36627C15.6263 6.25175 15.6263 6.25175 15.754 6.04684C14.066 6.04684 12.0422 7.30822 10.7676 8.29684ZM19.1505 6.11715C19.1505 7.67176 19.1505 9.22637 19.1505 10.8281C20.412 10.7668 20.412 10.7668 21.6572 10.6215C21.7417 10.6096 21.8262 10.5977 21.9133 10.5854C22.3707 10.5195 22.8198 10.4398 23.2696 10.3359C22.9523 8.91457 21.0001 7.38342 19.8731 6.53903C19.8162 6.49543 19.7593 6.45183 19.7006 6.40692C19.4523 6.19408 19.4523 6.19408 19.1505 6.11715ZM25.5776 6.50387C25.4981 6.55282 25.4981 6.55282 25.417 6.60275C25.3761 6.62813 25.3352 6.65351 25.293 6.67965C25.5319 6.87354 25.7692 7.03325 26.0417 7.17898C26.1158 7.21891 26.1899 7.25884 26.2662 7.29999C26.3837 7.36272 26.3837 7.36272 26.5035 7.42672C27.0542 7.7234 27.6022 8.02292 28.143 8.33639C28.2399 8.39157 28.3368 8.44669 28.4338 8.50174C28.5932 8.59229 28.7489 8.68523 28.9046 8.78189C29.1462 8.92203 29.1462 8.92203 29.4122 8.99997C29.6427 8.92261 29.8107 8.80708 29.9903 8.6484C29.7786 8.48756 29.561 8.35311 29.3281 8.22323C29.2538 8.18168 29.1795 8.14013 29.1029 8.09732C29.0231 8.05295 28.9433 8.00857 28.8611 7.96286C28.7356 7.89277 28.6101 7.82268 28.4846 7.75257C28.3976 7.704 28.3106 7.65546 28.2236 7.60694C27.9095 7.43174 27.596 7.25548 27.2829 7.07873C27.196 7.02977 27.1092 6.98081 27.0224 6.93186C26.8557 6.83791 26.6892 6.74382 26.5226 6.64965C26.4477 6.60743 26.3727 6.56522 26.2954 6.52172C26.2291 6.48425 26.1627 6.44678 26.0943 6.40817C25.8531 6.28015 25.8037 6.36419 25.5776 6.50387ZM24.6426 7.80465C24.6426 9.31286 24.6426 10.8211 24.6426 12.375C25.5727 12.897 25.5727 12.897 26.5215 13.4297C26.7135 13.5381 26.9055 13.6466 27.1033 13.7584C27.1804 13.802 27.2575 13.8455 27.3369 13.8904C27.4889 13.9763 27.6408 14.0624 27.7925 14.1486C27.8677 14.1909 27.9428 14.2333 28.0202 14.277C28.0851 14.3137 28.1499 14.3504 28.2168 14.3883C28.395 14.4815 28.5736 14.5534 28.7618 14.625C28.7904 14.0413 28.8121 13.4579 28.8254 12.8737C28.8318 12.6023 28.8405 12.3314 28.8545 12.0603C28.9624 10.9342 28.9624 10.9342 28.6527 9.89389C28.3737 9.64225 28.052 9.5193 27.6941 9.40635C27.4514 9.32363 27.2518 9.20072 27.0328 9.06945C26.879 8.98325 26.7251 8.8971 26.5712 8.811C26.4164 8.72432 26.2616 8.63762 26.1069 8.5509C26.0326 8.50935 25.9583 8.46781 25.8817 8.425C25.7237 8.33593 25.5662 8.24593 25.4092 8.15522C25.3311 8.11014 25.253 8.06506 25.1725 8.01861C25.102 7.97757 25.0314 7.93653 24.9588 7.89424C24.7984 7.79357 24.7984 7.79357 24.6426 7.80465ZM33.5339 7.9345C33.2112 8.2667 33.3047 8.82336 33.3145 9.25485C33.3151 9.41583 33.3148 9.57679 33.3144 9.73777C33.3145 9.83771 33.3153 9.93765 33.317 10.0376C33.3202 10.2523 33.3128 10.4113 33.2423 10.6172C33.0776 10.6891 33.0776 10.6891 32.8809 10.7578C32.7702 10.8175 32.6607 10.8794 32.5523 10.9432C32.4912 10.9779 32.4301 11.0127 32.3672 11.0485C32.2404 11.121 32.1143 11.1946 31.9889 11.2693C31.5454 11.5181 31.2879 11.5663 30.7852 11.4609C30.7149 11.2556 30.699 11.1055 30.6901 10.891C30.6855 10.7873 30.6855 10.7873 30.6809 10.6816C30.6781 10.6095 30.6752 10.5375 30.6723 10.4633C30.6676 10.3541 30.6676 10.3541 30.6628 10.2427C30.6552 10.0628 30.6478 9.88296 30.6407 9.70309C30.3907 9.79094 30.1814 9.87242 29.9903 10.0547C29.9482 10.2601 29.9482 10.2601 29.9575 10.4981C29.9575 10.5896 29.9575 10.6811 29.9575 10.7754C29.959 10.8752 29.9605 10.9751 29.9621 11.075C29.9626 11.1772 29.963 11.2793 29.9633 11.3815C29.9644 11.6503 29.9673 11.919 29.9705 12.1878C29.9734 12.4621 29.9747 12.7364 29.9762 13.0107C29.9793 13.5488 29.9842 14.0869 29.9903 14.625C30.5549 14.3542 30.5549 14.3542 31.1045 14.0559C31.1729 14.0167 31.2413 13.9776 31.3118 13.9372C31.381 13.8973 31.4502 13.8575 31.5214 13.8164C32.3774 13.3239 33.2433 12.8513 34.1094 12.375C34.1094 10.8436 34.1094 9.31215 34.1094 7.73434C33.8982 7.73434 33.713 7.83652 33.5339 7.9345ZM32.0137 8.85934C31.8455 8.99212 31.8455 8.99212 31.8551 9.21365C31.8568 9.29685 31.8584 9.38006 31.8602 9.46579C31.8615 9.54935 31.8628 9.63292 31.8641 9.71902C31.8658 9.78337 31.8675 9.84773 31.8692 9.91403C31.9646 9.86762 32.06 9.82122 32.1583 9.7734C32.1583 9.47176 32.1583 9.17012 32.1583 8.85934C32.1106 8.85934 32.0629 8.85934 32.0137 8.85934ZM9.03327 9.84372C7.22231 11.9876 5.92585 14.6188 5.92585 17.4375C7.30901 17.4375 8.69218 17.4375 10.1173 17.4375C10.1978 17.2807 10.2044 17.1807 10.2155 17.0065C10.3575 15.0554 10.7841 13.0862 11.7074 11.3335C11.7943 11.1758 11.7943 11.1758 11.7794 10.9687C11.7398 10.9546 11.7003 10.9405 11.6596 10.926C10.7623 10.6044 9.89102 10.255 9.03327 9.84372ZM13.0079 11.3906C11.9767 13.26 11.418 15.3158 11.418 17.4375C13.5643 17.4375 15.7106 17.4375 17.9219 17.4375C17.9219 15.6508 17.9219 13.8642 17.9219 12.0234C16.7773 11.919 16.7773 11.919 15.6094 11.8125C15.2183 11.7567 14.8355 11.7004 14.4487 11.6279C14.2792 11.5976 14.1098 11.5674 13.9403 11.5373C13.8286 11.517 13.8286 11.517 13.7147 11.4963C13.4796 11.4549 13.2447 11.4207 13.0079 11.3906ZM22.7962 11.5853C21.5739 11.8006 20.3998 11.9058 19.1505 12.0234C19.1505 13.81 19.1505 15.5967 19.1505 17.4375C21.2967 17.4375 23.443 17.4375 25.6544 17.4375C25.5559 16.1649 25.5559 16.1649 25.3292 14.9282C25.3138 14.8607 25.2984 14.7932 25.2826 14.7237C25.185 14.2117 25.185 14.2117 24.8638 13.8223C24.78 13.7779 24.78 13.7779 24.6946 13.7326C24.6338 13.6996 24.5729 13.6665 24.5103 13.6325C24.4466 13.5989 24.383 13.5653 24.3174 13.5307C24.1915 13.4637 24.0658 13.3962 23.9403 13.3283C23.8565 13.284 23.8565 13.284 23.7711 13.2389C23.6309 13.1484 23.6309 13.1484 23.4864 12.9375C23.4634 12.7844 23.4634 12.7844 23.4565 12.6092C23.4523 12.5151 23.4523 12.5151 23.448 12.419C23.4458 12.3537 23.4435 12.2884 23.4412 12.2212C23.437 12.122 23.437 12.122 23.4328 12.0208C23.4259 11.8576 23.4198 11.6944 23.4141 11.5312C23.1887 11.5312 23.0139 11.5454 22.7962 11.5853ZM26.5938 14.8359C26.6683 15.7051 26.7761 16.5714 26.8829 17.4375C28.266 17.4375 29.6492 17.4375 31.0743 17.4375C31.078 16.7908 31.078 16.7908 31.0065 16.1674C30.994 16.0912 30.9814 16.015 30.9684 15.9365C30.939 15.7526 30.939 15.7526 30.8575 15.6093C30.5586 15.6859 30.3254 15.8053 30.0671 15.9653C29.5533 16.2666 29.5533 16.2666 29.1954 16.2422C29.0284 16.1664 29.0284 16.1664 28.8388 16.0625C28.7685 16.0241 28.6982 15.9858 28.6258 15.9462C28.1654 15.6889 27.7075 15.4276 27.2501 15.1652C27.1757 15.1227 27.1013 15.0802 27.0246 15.0364C26.9574 14.9978 26.8901 14.9593 26.8209 14.9196C26.6851 14.8302 26.6851 14.8302 26.5938 14.8359ZM5.92585 18.5625C5.92585 18.5857 5.92585 18.6089 5.92585 18.6328C5.96871 18.6356 6.01157 18.6384 6.05574 18.6412C7.66066 18.7506 8.9066 19.1226 10.2618 19.9687C10.2518 19.7475 10.2411 19.5263 10.2302 19.3051C10.2273 19.242 10.2245 19.1789 10.2216 19.1138C10.2185 19.0538 10.2155 18.9937 10.2124 18.9319C10.2084 18.8485 10.2084 18.8485 10.2044 18.7634C10.2036 18.6318 10.2036 18.6318 10.1173 18.5625C9.98641 18.5559 9.85531 18.5542 9.72429 18.5545C9.64038 18.5545 9.55647 18.5545 9.47002 18.5545C9.37871 18.5549 9.2874 18.5552 9.19333 18.5556C9.05393 18.5557 9.05393 18.5557 8.91172 18.5559C8.66425 18.5562 8.41678 18.5569 8.16932 18.5576C7.91696 18.5584 7.6646 18.5587 7.41223 18.559C6.91677 18.5598 6.42131 18.561 5.92585 18.5625ZM11.418 18.5625C11.418 19.1687 11.4295 19.6988 11.5355 20.2851C11.5482 20.3573 11.561 20.4294 11.5742 20.5037C11.8398 21.9324 12.3042 23.3275 13.0079 24.6093C13.3006 24.5776 13.5876 24.5419 13.8753 24.4805C15.2096 24.1984 16.5644 24.1036 17.9219 23.9765C17.9219 22.1899 17.9219 20.4032 17.9219 18.5625C15.7757 18.5625 13.6294 18.5625 11.418 18.5625ZM19.1505 18.5625C19.1505 20.3491 19.1505 22.1357 19.1505 23.9765C20.0567 24.0693 20.9629 24.1622 21.8966 24.2578C23.111 24.4775 23.111 24.4775 23.6137 24.5895C23.7928 24.6115 23.8986 24.6085 24.0645 24.539C24.1568 24.4224 24.1568 24.4224 24.2198 24.2715C24.246 24.2152 24.2722 24.1588 24.2992 24.1008C24.3261 24.0395 24.353 23.9782 24.3807 23.915C24.409 23.8518 24.4374 23.7886 24.4665 23.7235C25.1922 22.0681 25.5317 20.3534 25.6544 18.5625C23.5081 18.5625 21.3618 18.5625 19.1505 18.5625ZM26.8829 18.5625C26.8441 18.8859 26.8054 19.2093 26.7654 19.5424C26.5436 21.2724 26.1271 22.9541 25.3786 24.5428C25.2604 24.7772 25.2604 24.7772 25.2208 25.0312C25.2603 25.0453 25.2998 25.0594 25.3406 25.0739C26.2378 25.3955 27.1091 25.7449 27.9669 26.1562C29.5869 24.3116 30.5847 22.2131 31.002 19.8281C31.0165 19.7493 31.0309 19.6706 31.0458 19.5894C31.0841 19.249 31.0743 18.9049 31.0743 18.5625C29.6911 18.5625 28.308 18.5625 26.8829 18.5625ZM2.87404 21.3645C1.92056 22.4909 1.61976 23.7464 1.73444 25.1718C1.82622 25.7765 2.07896 26.33 2.38483 26.8593C2.57767 26.6897 2.69583 26.5052 2.82746 26.2881C3.27503 25.5975 3.83218 25.1575 4.5528 24.75C4.51712 24.6887 4.48145 24.6274 4.44469 24.5643C4.01143 23.793 3.85449 23.1472 4.11413 22.2767C4.3595 21.6467 4.77028 21.2317 5.3864 20.9352C6.09624 20.65 6.76718 20.65 7.47702 20.9352C8.09314 21.2317 8.50391 21.6467 8.74929 22.2767C8.95894 22.9796 8.93727 23.5715 8.59516 24.227C8.53577 24.3294 8.53577 24.3294 8.47519 24.4338C8.36642 24.6078 8.36642 24.6078 8.38288 24.8203C8.5389 24.9338 8.5389 24.9338 8.73969 25.04C9.37236 25.4174 9.81452 25.8616 10.1686 26.4962C10.2581 26.6423 10.3497 26.7457 10.4786 26.8593C10.5607 26.6971 10.6419 26.5345 10.7225 26.3715C10.7454 26.3265 10.7683 26.2815 10.7919 26.2352C11.2796 25.2417 11.2972 23.9715 10.9348 22.9356C10.4014 21.6722 9.55293 20.776 8.28013 20.184C6.38676 19.4248 4.26605 19.9217 2.87404 21.3645ZM5.46967 22.3022C5.26279 22.5603 5.1391 22.8019 5.13093 23.1328C5.20148 23.5158 5.34732 23.8436 5.63679 24.1172C6.00043 24.3615 6.36464 24.3956 6.79304 24.3281C7.12013 24.2055 7.36002 24.0286 7.54731 23.7392C7.70705 23.3786 7.78092 23.0918 7.66474 22.7109C7.51107 22.3654 7.26994 22.127 6.93757 21.9375C6.36783 21.7686 5.88368 21.878 5.46967 22.3022ZM19.1505 25.1718C19.1505 26.7264 19.1505 28.2811 19.1505 29.8828C19.4875 29.7516 19.7021 29.6047 19.968 29.3774C20.0097 29.3423 20.0514 29.3071 20.0944 29.2709C20.1771 29.2013 20.2596 29.1314 20.3419 29.0613C20.4289 28.9876 20.517 28.9151 20.6054 28.8429C21.5189 28.0926 22.2866 27.2416 22.9805 26.2968C23.0104 26.2568 23.0403 26.2167 23.0711 26.1754C23.2069 25.9873 23.2696 25.8996 23.2696 25.664C21.9052 25.4068 20.5442 25.1718 19.1505 25.1718ZM14.8416 25.4531C14.7719 25.4648 14.7022 25.4764 14.6303 25.4885C14.3154 25.544 14.0222 25.6002 13.7305 25.7343C13.8467 26.0931 14.0704 26.3598 14.3041 26.6528C14.3461 26.7057 14.388 26.7586 14.4313 26.8131C14.8009 27.2739 15.1922 27.7044 15.6094 28.125C15.667 28.1846 15.7246 28.2442 15.7839 28.3057C16.404 28.9327 17.1161 29.458 17.8497 29.9531C17.8735 29.9531 17.8974 29.9531 17.9219 29.9531C17.9219 28.3753 17.9219 26.7975 17.9219 25.1718C16.8873 25.1718 15.8606 25.2815 14.8416 25.4531ZM4.04694 26.5781C3.75386 26.9362 3.37363 27.4349 3.40615 27.9151C3.59486 28.3353 4.28885 28.569 4.69733 28.7446C5.76594 29.1509 7.02856 29.1977 8.10042 28.7674C8.59157 28.5523 9.05595 28.3274 9.46686 27.9843C9.4102 27.286 8.97403 26.6865 8.45515 26.2265C7.03278 25.2188 5.27235 25.3229 4.04694 26.5781ZM12.213 26.0859C12.0242 26.3803 11.8648 26.6849 11.7071 26.9956C11.6823 27.0441 11.6575 27.0926 11.632 27.1427C11.5835 27.2377 11.535 27.3328 11.4866 27.4278C11.392 27.6136 11.2966 27.799 11.2012 27.9843C12.4258 28.9156 14.0005 29.6734 15.5372 29.9531C15.6087 29.9299 15.6803 29.9067 15.754 29.8828C15.5025 29.6312 15.2488 29.3881 14.9726 29.1621C14.0292 28.364 13.2772 27.3401 12.6262 26.3081C12.5155 26.1457 12.5155 26.1457 12.3417 26.0988C12.2992 26.0946 12.2567 26.0903 12.213 26.0859ZM24.5704 26.0859C24.4404 26.2504 24.3243 26.413 24.2091 26.5869C23.3692 27.8107 22.4011 28.9274 21.2462 29.8828C21.4794 29.9584 21.529 29.9512 21.7546 29.8874C21.8124 29.8711 21.8702 29.8548 21.9298 29.8379C22.0229 29.8101 22.0229 29.8101 22.1179 29.7817C22.1823 29.7626 22.2467 29.7434 22.313 29.7237C23.8709 29.2451 25.2484 28.4795 26.5215 27.4922C26.5857 27.4434 26.5857 27.4434 26.651 27.3937C26.7552 27.3127 26.8556 27.227 26.9551 27.1406C26.9551 27.0942 26.9551 27.0478 26.9551 27C26.4192 26.7246 25.8832 26.4736 25.3156 26.2661C25.2663 26.2479 25.217 26.2297 25.1661 26.211C24.9573 26.1365 24.7947 26.0859 24.5704 26.0859Z" fill="#20376D"/>
<path d="M11.6348 31.4301C11.801 31.6565 11.8193 31.8609 11.7793 32.1333C11.6258 32.3354 11.6258 32.3354 11.418 32.4848C11.1786 32.5068 11.1786 32.5068 10.9844 32.4848C10.9844 32.5312 10.9844 32.5776 10.9844 32.6255C11.0434 32.6433 11.1023 32.6612 11.1631 32.6796C11.4019 32.7606 11.6287 32.8538 11.8597 32.9535C14.9769 34.2871 18.5617 34.6394 21.8965 33.9614C21.962 33.9482 22.0274 33.9351 22.0948 33.9215C24.1695 33.4897 26.1313 32.6442 27.8946 31.5005C28.2098 31.4607 28.3497 31.4658 28.6127 31.6455C28.7618 31.852 28.7618 31.852 28.8069 32.0981C28.7402 32.4615 28.5145 32.6165 28.213 32.826C27.9643 32.9736 27.7142 33.118 27.461 33.2583C27.4077 33.2879 27.3543 33.3175 27.2994 33.3479C24.9163 34.6532 22.1418 35.5086 19.3892 35.5226C19.3241 35.523 19.2589 35.5235 19.1917 35.5241C16.4509 35.5402 16.4509 35.5402 15.2481 35.2973C15.1404 35.2758 15.1404 35.2758 15.0305 35.2539C13.5523 34.9497 12.1373 34.5112 10.7676 33.8911C10.7699 33.9457 10.7721 34.0004 10.7744 34.0567C10.7676 34.2426 10.7676 34.2426 10.6592 34.4052C10.4549 34.5394 10.2967 34.5601 10.052 34.5681C9.69085 34.4628 9.4608 34.0815 9.25597 33.7917C9.20562 33.7208 9.15527 33.6499 9.10339 33.5769C9.05192 33.5036 9.00045 33.4304 8.94743 33.355C8.89512 33.2812 8.84281 33.2074 8.78892 33.1314C8.19958 32.2993 8.19958 32.2993 8.23832 31.9223C8.30155 31.729 8.30155 31.729 8.45512 31.5708C8.95752 31.4186 9.50072 31.3917 10.0224 31.351C10.0942 31.345 10.1659 31.3389 10.2399 31.3326C11.3716 31.2405 11.3716 31.2405 11.6348 31.4301Z" fill="#20376D"/>
<path d="M24.209 1.33569C24.2031 1.26173 24.1971 1.18777 24.191 1.11157C24.209 0.843502 24.209 0.843502 24.3129 0.636959C24.544 0.456035 24.6858 0.422304 24.9791 0.442227C25.3358 0.546907 25.5123 0.844804 25.7266 1.12475C25.8056 1.22268 25.8847 1.32045 25.964 1.41809C26.8829 2.55965 26.8829 2.55965 26.8829 2.96167C26.7902 3.221 26.6821 3.29299 26.4493 3.44506C26.234 3.50281 26.234 3.50281 25.9968 3.53405C25.8665 3.55173 25.8665 3.55173 25.7335 3.56976C25.6433 3.58082 25.5531 3.59187 25.4601 3.60327C25.3269 3.62149 25.3269 3.62149 25.191 3.64007C23.8433 3.8163 23.8433 3.8163 23.4774 3.5813C23.3056 3.31948 23.2858 3.18785 23.3419 2.88256C23.5253 2.6914 23.5253 2.6914 23.7032 2.531C19.6638 1.3028 15.2498 1.46094 11.4114 3.27007C11.1132 3.40694 10.8883 3.48545 10.5508 3.44506C10.328 3.31497 10.2156 3.2298 10.1218 2.99243C10.116 2.76148 10.1346 2.65867 10.2618 2.46069C11.7759 1.34105 14.0057 0.939499 15.8262 0.632565C15.8871 0.622232 15.948 0.6119 16.0107 0.601254C18.6771 0.176763 21.6674 0.486063 24.209 1.33569Z" fill="#20376D"/>
<path d="M4.26369 8.01577C4.48391 8.16209 4.60668 8.27931 4.66071 8.53858C4.6772 8.75015 4.68258 8.95936 4.68374 9.17153C4.6854 9.24687 4.68706 9.32221 4.68877 9.39984C4.69178 9.54971 4.694 9.6996 4.69538 9.84949C4.69701 10.0247 4.70071 10.1997 4.70576 10.3748C4.71947 11.0769 4.71947 11.0769 4.55276 11.3205C4.28267 11.4956 4.15 11.4933 3.8301 11.4611C3.58516 11.3108 3.48858 11.2377 3.39651 10.9689C2.25065 13.5213 1.74668 15.981 1.82201 18.7701C1.82766 18.9963 1.83111 19.2225 1.83433 19.4487C1.83687 19.5172 1.83942 19.5856 1.84204 19.6562C1.84577 19.9835 1.84511 20.13 1.63782 20.3988C1.44533 20.5314 1.44533 20.5314 1.22854 20.5709C0.964111 20.5227 0.841794 20.431 0.650412 20.2501C-0.393597 18.2186 0.772531 14.2427 1.44082 12.2609C1.66272 11.6199 1.92298 11.0084 2.24026 10.4064C2.19498 10.3987 2.14971 10.391 2.10306 10.383C2.01447 10.3663 2.01447 10.3663 1.92409 10.3493C1.86541 10.3387 1.80672 10.3281 1.74625 10.3171C1.58986 10.2658 1.58986 10.2658 1.44533 10.0548C1.40657 9.65884 1.40657 9.65884 1.44533 9.49233C1.66099 9.25095 1.90206 9.10092 2.18436 8.93999C2.22692 8.91559 2.26948 8.89118 2.31332 8.86603C2.44831 8.78875 2.58366 8.71207 2.71902 8.6354C2.8105 8.58311 2.90196 8.53079 2.9934 8.47843C3.87981 7.97182 3.87981 7.97182 4.26369 8.01577Z" fill="#20376D"/>
<path d="M35.8437 14.0629C36.1268 14.2369 36.1677 14.441 36.2418 14.7479C36.8211 17.3417 36.8675 21.141 35.6269 23.5551C35.6791 23.5391 35.7312 23.5232 35.785 23.5067C36.0473 23.4784 36.1422 23.543 36.3495 23.6957C36.5218 23.9471 36.5409 24.0322 36.4941 24.3285C36.1581 24.8189 35.6471 25.1504 35.17 25.5032C35.0059 25.6263 34.8473 25.7558 34.6874 25.8842C34.4503 26.0619 34.2751 26.1704 33.9648 26.1566C33.7706 26.0951 33.7706 26.0951 33.6035 25.9457C33.3753 25.4687 33.309 24.9358 33.2286 24.4208C33.2158 24.3434 33.203 24.2659 33.1898 24.1861C33.0233 23.15 33.0233 23.15 33.2421 22.852C33.4685 22.6741 33.6902 22.7056 33.9648 22.727C34.1777 22.8075 34.268 22.9562 34.3984 23.1332C34.8454 21.7282 35.199 20.2777 35.208 18.7994C35.2085 18.7435 35.209 18.6877 35.2095 18.6302C35.2107 18.451 35.2111 18.2719 35.2114 18.0927C35.2115 18.0316 35.2117 17.9705 35.2119 17.9075C35.2127 17.0704 35.176 16.2609 35.0239 15.4351C34.9525 15.0236 34.871 14.5281 35.0849 14.1552C35.3424 14.0236 35.5591 14.0082 35.8437 14.0629Z" fill="#20376D"/>
</g>
<defs>
<clipPath id="clip0_503_83">
<rect width="37" height="36" fill="white"/>
</clipPath>
</defs>
</svg>
