<svg width="23" height="24" viewBox="0 0 23 24" fill="none" xmlns="http://www.w3.org/2000/svg">
<path d="M14.5289 15H22.101V16.5H14.5289V15ZM14.5289 18H22.101V19.5H14.5289V18ZM14.5289 21H22.101V22.5H14.5289V21ZM11.5001 15C11.0998 15.0092 10.7017 14.938 10.33 14.7905C9.95833 14.643 9.62071 14.4223 9.33758 14.1419C9.05444 13.8615 8.83168 13.527 8.68277 13.1589C8.53386 12.7907 8.46189 12.3965 8.47121 12C8.46189 11.6035 8.53386 11.2093 8.68277 10.8411C8.83168 10.473 9.05444 10.1386 9.33758 9.85812C9.62071 9.57768 9.95833 9.35704 10.33 9.20954C10.7017 9.06205 11.0998 8.99077 11.5001 9C11.9004 8.99077 12.2984 9.06205 12.6701 9.20954C13.0418 9.35704 13.3794 9.57768 13.6625 9.85812C13.9457 10.1386 14.1684 10.473 14.3173 10.8411C14.4663 11.2093 14.5382 11.6035 14.5289 12H16.0433C16.0433 11.11 15.7769 10.24 15.2776 9.49994C14.7784 8.75991 14.0689 8.18314 13.2387 7.84254C12.4085 7.50195 11.495 7.41283 10.6137 7.58647C9.7324 7.7601 8.92287 8.18868 8.28748 8.81802C7.65209 9.44736 7.21939 10.2492 7.04409 11.1221C6.86878 11.995 6.95876 12.8998 7.30262 13.7221C7.64649 14.5443 8.22882 15.2471 8.97595 15.7416C9.72309 16.2361 10.6015 16.5 11.5001 16.5V15Z" fill="#2C95D2"/>
<path d="M21.5748 8.283L19.7878 5.217C19.6128 4.91646 19.338 4.68531 19.0102 4.56291C18.6824 4.44052 18.3219 4.43446 17.9902 4.54575L16.1471 5.16375C15.8295 4.95186 15.4976 4.76191 15.1536 4.59525L14.772 2.70525C14.7032 2.36535 14.5177 2.05953 14.247 1.8398C13.9763 1.62007 13.6371 1.5 13.2871 1.5H9.71308C9.36298 1.50004 9.02371 1.62022 8.75298 1.84009C8.48226 2.05997 8.29681 2.36596 8.22819 2.706L7.84656 4.59525C7.49882 4.76024 7.16307 4.94894 6.84174 5.16L5.00928 4.54575C4.6777 4.43485 4.31757 4.44111 3.99013 4.56349C3.66269 4.68586 3.38814 4.91679 3.21318 5.217L1.42616 8.283C1.2511 8.58322 1.18644 8.93423 1.24318 9.27634C1.29992 9.61845 1.47455 9.93053 1.73737 10.1595L3.19955 11.4323C3.18668 11.6213 3.17077 11.8088 3.17077 12C3.17077 12.1935 3.17784 12.385 3.19198 12.5745L1.73813 13.8405C1.47506 14.0693 1.30014 14.3813 1.24312 14.7234C1.18611 15.0655 1.25052 15.4166 1.4254 15.717L3.21242 18.783C3.38745 19.0835 3.66225 19.3147 3.99002 19.4371C4.31779 19.5595 4.67826 19.5655 5.01004 19.4543L6.85309 18.8363C7.17064 19.0484 7.50258 19.2386 7.84656 19.4055L8.22743 21.294C8.29608 21.6342 8.48164 21.9403 8.75252 22.1601C9.0234 22.38 9.36285 22.5001 9.71308 22.5H11.5001V21H9.71308L9.17546 18.3375C8.43178 18.0638 7.74141 17.6649 7.13478 17.1585L4.52467 18.033L2.73765 14.967L4.80105 13.1708C4.65947 12.3952 4.65767 11.6009 4.79575 10.8247L2.73765 9.03225L4.52467 5.967L7.11963 6.837C7.73028 6.32942 8.4261 5.93189 9.17546 5.6625L9.71308 3H13.2871L13.8247 5.6625C14.5684 5.93621 15.2588 6.33507 15.8654 6.8415L18.4755 5.967L20.2626 9.033L18.1439 10.872L19.1419 12L21.2621 10.1595C21.5251 9.93072 21.7001 9.61873 21.7571 9.27662C21.8141 8.9345 21.7497 8.58338 21.5748 8.283Z" fill="#20376D" stroke="#20376D" stroke-width="0.6"/>
</svg>
