<svg width="214" height="65" viewBox="0 0 214 65" fill="none" xmlns="http://www.w3.org/2000/svg">
<rect width="214" height="65" fill="#D9D9D9"/>
<path d="M121.792 26.3751C121.792 23.9146 121.158 21.4957 119.95 19.3523C118.742 17.2089 117.001 15.4137 114.896 14.1405C112.79 12.8673 110.392 12.1592 107.933 12.0847C105.473 12.0102 103.036 12.5719 100.858 13.7153C98.6793 14.8588 96.8329 16.5453 95.4973 18.6117C94.1617 20.678 93.3821 23.0542 93.2341 25.5101C93.0861 27.9661 93.5747 30.4186 94.6525 32.6304C95.7303 34.8422 97.3609 36.7382 99.3863 38.1351L93.2083 48.8334L97.8143 49.0233L100.281 52.9167L107.357 40.6586L107.5 40.6667C107.571 40.6708 107.594 40.6606 107.643 40.6586L114.719 52.9167L117.235 49.107L121.792 48.8334L115.614 38.1351C117.52 36.8227 119.078 35.0664 120.154 33.0177C121.231 30.969 121.792 28.6893 121.792 26.3751ZM97.2916 26.3751C97.2916 24.356 97.8903 22.3824 99.012 20.7036C100.134 19.0249 101.728 17.7164 103.593 16.9438C105.459 16.1711 107.511 15.969 109.491 16.3629C111.472 16.7568 113.291 17.729 114.718 19.1567C116.146 20.5843 117.118 22.4033 117.512 24.3835C117.906 26.3637 117.704 28.4163 116.931 30.2816C116.159 32.1469 114.85 33.7413 113.171 34.863C111.493 35.9847 109.519 36.5834 107.5 36.5834C104.793 36.5834 102.196 35.5079 100.282 33.5934C98.3671 31.679 97.2916 29.0825 97.2916 26.3751Z" fill="#20376D"/>
<path d="M107.5 32.5C110.883 32.5 113.625 29.7577 113.625 26.375C113.625 22.9923 110.883 20.25 107.5 20.25C104.117 20.25 101.375 22.9923 101.375 26.375C101.375 29.7577 104.117 32.5 107.5 32.5Z" fill="#2C95D2"/>
</svg>
