<svg width="77" height="77" viewBox="0 0 77 77" fill="none" xmlns="http://www.w3.org/2000/svg">
<g clip-path="url(#clip0_363_734)">
<path d="M39.1667 6.98544C39.7112 7.40217 39.8971 7.62033 40.0048 8.30631C40.0031 8.53058 40.0015 8.75484 39.9998 8.98591C39.9999 9.11006 40 9.23421 40.0001 9.36212C39.9996 9.77104 39.9938 10.1797 39.9879 10.5886C39.9865 10.8726 39.9854 11.1567 39.9847 11.4408C39.9818 12.1873 39.9745 12.9338 39.9662 13.6803C39.9585 14.4425 39.9551 15.2048 39.9514 15.967C39.9433 17.4618 39.9306 18.9565 39.9148 20.4512C40.0675 20.4628 40.2202 20.4744 40.3775 20.4863C40.6791 20.5102 40.6791 20.5102 40.9868 20.5345C41.1858 20.5499 41.3848 20.5654 41.5898 20.5813C42.3175 20.654 42.9921 20.8002 43.6904 21.0123C43.8229 21.0522 43.9554 21.0922 44.0919 21.1334C46.5291 21.9162 48.699 23.2027 50.5752 24.9398C50.7319 25.0794 50.8886 25.2189 51.0501 25.3628C54.0117 28.1364 55.6903 31.8309 56.373 35.7872C56.3775 36.0988 56.3784 36.4106 56.373 36.7223C56.5228 36.721 56.6726 36.7198 56.8269 36.7185C58.2412 36.7073 59.6555 36.6987 61.0699 36.6932C61.797 36.6903 62.524 36.6863 63.251 36.68C63.9532 36.6739 64.6553 36.6705 65.3574 36.6691C65.6248 36.668 65.8922 36.666 66.1595 36.663C66.5351 36.6589 66.9107 36.6587 67.2862 36.6586C67.4997 36.6574 67.7132 36.6561 67.9331 36.6548C68.6159 36.7321 69.0663 36.9287 69.6517 37.2834C69.9443 37.8686 69.9691 38.5198 69.8387 39.1536C69.422 39.6981 69.2038 39.8839 68.5178 39.9917C68.2936 39.99 68.0693 39.9883 67.8382 39.9866C67.7141 39.9867 67.5899 39.9869 67.462 39.987C67.0531 39.9864 66.6444 39.9806 66.2356 39.9748C65.9515 39.9734 65.6674 39.9723 65.3834 39.9716C64.6368 39.9687 63.8904 39.9614 63.1438 39.9531C62.3816 39.9454 61.6194 39.942 60.8572 39.9382C59.3624 39.9302 57.8677 39.9175 56.373 39.9017C56.3552 40.1126 56.3552 40.1126 56.3371 40.3278C56.321 40.5126 56.3049 40.6973 56.2884 40.8877C56.2648 41.1623 56.2648 41.1623 56.2408 41.4424C55.7764 45.8183 53.0466 49.8563 49.7168 52.6169C47.8567 54.0876 45.7677 55.1019 43.5034 55.7871C43.3806 55.8244 43.2578 55.8617 43.1313 55.9002C42.3872 56.1072 41.6639 56.2118 40.894 56.277C40.7102 56.2928 40.5264 56.3086 40.337 56.3249C40.1977 56.3364 40.0584 56.348 39.9148 56.3598C39.9165 56.5175 39.9182 56.6752 39.9199 56.8376C39.9349 58.3236 39.9462 59.8096 39.9536 61.2956C39.9575 62.0596 39.9628 62.8235 39.9713 63.5875C39.9794 64.3248 39.9839 65.062 39.9858 65.7993C39.9872 66.0806 39.9899 66.3619 39.9939 66.6431C39.9994 67.0372 40.0001 67.431 39.9998 67.8251C40.0014 68.0494 40.0031 68.2737 40.0048 68.5047C39.897 69.1908 39.7098 69.4074 39.1667 69.8256C38.6539 69.9618 38.1889 69.932 37.6705 69.8256C37.0643 69.3904 36.8658 69.0473 36.7354 68.3294C36.7191 67.9351 36.7134 67.5403 36.7142 67.1457C36.7142 66.9061 36.7142 66.6665 36.7142 66.4197C36.7152 66.1591 36.7162 65.8986 36.7172 65.638C36.7175 65.3707 36.7178 65.1034 36.718 64.8361C36.7187 64.1339 36.7205 63.4316 36.7226 62.7294C36.7245 62.0123 36.7253 61.2952 36.7263 60.5781C36.7283 59.172 36.7315 57.7659 36.7354 56.3598C36.5554 56.3351 36.3754 56.3104 36.19 56.2849C35.954 56.2519 35.718 56.219 35.4748 56.185C35.2408 56.1525 35.0068 56.1201 34.7658 56.0867C31.4489 55.5709 28.5782 53.8401 26.075 51.6842C25.9465 51.575 25.818 51.4658 25.6856 51.3533C22.9045 48.7805 20.9348 44.7509 20.4643 41.0239C20.4621 40.6498 20.4619 40.2757 20.4643 39.9017C20.3066 39.9034 20.149 39.905 19.9865 39.9067C18.5005 39.9217 17.0146 39.9331 15.5285 39.9405C14.7646 39.9444 14.0006 39.9497 13.2367 39.9581C12.4994 39.9663 11.7621 39.9707 11.0248 39.9727C10.7435 39.9741 10.4623 39.9768 10.181 39.9808C9.78695 39.9862 9.39313 39.987 8.99903 39.9866C8.77477 39.9883 8.5505 39.99 8.31944 39.9917C7.63347 39.8839 7.4164 39.6969 6.99857 39.1536C6.82601 38.4579 6.90768 37.8347 7.23235 37.2015C7.88822 36.6159 8.66423 36.6994 9.5086 36.7011C9.75193 36.7011 9.99525 36.7011 10.246 36.7011C10.5107 36.7021 10.7753 36.703 11.04 36.704C11.3115 36.7044 11.583 36.7046 11.8545 36.7048C12.5678 36.7055 13.2811 36.7074 13.9944 36.7095C14.7228 36.7114 15.4512 36.7122 16.1796 36.7132C17.6078 36.7152 19.0361 36.7184 20.4643 36.7223C20.4816 36.5126 20.4816 36.5126 20.4992 36.2986C20.5151 36.1145 20.5309 35.9303 20.5472 35.7406C20.5626 35.5583 20.578 35.3761 20.5938 35.1883C21.071 30.8479 23.991 26.698 27.271 24.012C29.0581 22.702 31.0127 21.6594 33.1352 21.0239C33.3204 20.968 33.3204 20.968 33.5093 20.911C34.2566 20.7045 34.9838 20.5995 35.7566 20.5341C36.0323 20.5103 36.0323 20.5103 36.3134 20.4861C36.4527 20.4746 36.5919 20.4631 36.7354 20.4512C36.7336 20.2306 36.7336 20.2306 36.7316 20.0056C36.7204 18.6161 36.7118 17.2266 36.7064 15.8371C36.7034 15.1228 36.6995 14.4086 36.6931 13.6943C36.687 13.0043 36.6836 12.3144 36.6822 11.6244C36.6812 11.3618 36.6791 11.0993 36.6761 10.8368C36.6472 8.2412 36.6472 8.2412 37.2965 7.17247C37.8818 6.87983 38.5329 6.85508 39.1667 6.98544ZM32.9949 33.1688C31.4205 35.1802 30.875 37.178 31.1247 39.7147C31.5751 41.8521 32.6947 43.5182 34.4911 44.7643C36.5397 45.7825 38.6994 46.0765 40.9201 45.3955C42.6434 44.741 44.1865 43.5221 45.0186 41.8479C45.8338 39.8537 46.0739 37.7325 45.3458 35.6571C44.4917 33.7625 43.1534 32.2749 41.224 31.4856C41.0504 31.4123 40.8768 31.339 40.698 31.2635C37.8767 30.5444 35.183 31.2078 32.9949 33.1688Z" fill="#20376D"/>
<path d="M58.8043 42.707C61.3965 42.707 63.9886 42.707 66.6593 42.707C65.7897 47.055 65.7897 47.055 65.2216 48.4463C65.1574 48.6079 65.0932 48.7695 65.0271 48.936C62.1171 56.0841 56.4935 61.824 49.3707 64.827C47.2095 65.7045 45.0739 66.4591 42.7202 66.4591C42.7202 63.9287 42.7202 61.3982 42.7202 58.7911C43.2757 58.606 43.8311 58.4208 44.4034 58.23C47.1153 57.2931 49.4762 56.1455 51.6974 54.3025C51.9357 54.1101 51.9357 54.1101 52.1788 53.9139C55.7177 50.9139 57.3922 47.0205 58.8043 42.707Z" fill="#20376D"/>
<path d="M42.7202 10.165C46.2732 10.8312 46.2732 10.8312 47.6179 11.2872C47.7807 11.3422 47.9434 11.3972 48.1111 11.4539C52.0702 12.856 55.4301 15.1245 58.4303 18.0201C58.5896 18.1676 58.749 18.3151 58.9132 18.4672C63.2065 22.5509 65.6156 28.1768 66.6593 33.9171C64.0672 33.9171 61.475 33.9171 58.8043 33.9171C58.6191 33.3617 58.434 32.8062 58.2432 32.2339C57.1222 29.1052 55.6365 26.4514 53.3806 24.0048C53.2719 23.8809 53.1631 23.757 53.0511 23.6293C50.3029 20.6527 46.4786 19.1991 42.7202 18.0201C42.7202 15.4279 42.7202 12.8357 42.7202 10.165Z" fill="#2C95D2"/>
<path d="M10 43C12.5922 43 15.1843 43 17.855 43C18.1733 43.9721 18.1733 43.9721 18.4979 44.9638C19.5389 48.0095 21.0085 50.4701 23.0917 52.9123C23.1983 53.0381 23.3048 53.164 23.4146 53.2936C26.1095 56.2096 29.9648 57.9503 33.7521 58.8971C33.7521 61.4892 33.7521 64.0814 33.7521 66.7521C32.5347 66.6303 31.5142 66.5183 30.374 66.1676C30.2391 66.1267 30.1042 66.0858 29.9653 66.0436C22.569 63.7313 16.5441 58.7408 12.8521 51.9187C12.2822 50.8236 11.7865 49.7047 11.3442 48.5523C11.2945 48.4265 11.2448 48.3007 11.1936 48.1711C10.5804 46.4828 10.3583 44.7915 10 43Z" fill="#2C95D2"/>
<path d="M33.9301 10.165C33.9301 12.7572 33.9301 15.3494 33.9301 18.0201C33.3746 18.2052 32.8191 18.3904 32.2468 18.5811C29.3391 19.623 26.6885 20.9748 24.3918 23.0697C24.177 23.2617 24.177 23.2617 23.9579 23.4576C21.3966 25.8717 19.6228 29.0353 18.5955 32.3756C18.4332 32.898 18.2361 33.4093 18.033 33.9171C15.4408 33.9171 12.8487 33.9171 10.178 33.9171C11.3896 27.8592 13.7394 22.8389 18.033 18.3941C18.1965 18.2188 18.3599 18.0436 18.5283 17.863C22.0838 14.1459 28.6145 10.165 33.9301 10.165Z" fill="#20376D"/>
<path d="M41.7851 35.0384C42.9234 36.3986 43.0577 37.7955 42.9072 39.5269C42.5836 40.8668 41.7939 41.759 40.663 42.5193C39.4587 43.1234 37.9434 43.1039 36.6522 42.7779C35.4955 42.2654 34.5605 41.2785 34.0857 40.1128C33.6756 38.5688 33.7476 37.0253 34.5511 35.6294C35.318 34.6431 36.4265 33.9959 37.6538 33.765C39.2692 33.617 40.5254 33.9997 41.7851 35.0384Z" fill="#2C95D2"/>
<circle cx="38.5" cy="38.5" r="36.5" stroke="#20376D" stroke-width="4"/>
<rect x="58.8037" y="16.1045" width="17.7949" height="4.96154" rx="2.48077" transform="rotate(-45 58.8037 16.1045)" fill="#20376D" stroke="#E7E7E7" stroke-width="2"/>
<rect x="-1.41421" width="17.7949" height="4.96154" rx="2.48077" transform="matrix(0.707107 0.707107 0.707107 -0.707107 59.8037 62.3242)" fill="#2C95D2" stroke="#E7E7E7" stroke-width="2"/>
<rect x="1.41421" width="17.7949" height="4.96154" rx="2.48077" transform="matrix(-0.707107 -0.707107 -0.707107 0.707107 19.6258 17.1045)" fill="#2C95D2" stroke="#E7E7E7" stroke-width="2"/>
<rect x="18.6258" y="61.3242" width="17.7949" height="4.96154" rx="2.48077" transform="rotate(135 18.6258 61.3242)" fill="#20376D" stroke="#E7E7E7" stroke-width="2"/>
</g>
<defs>
<clipPath id="clip0_363_734">
<rect width="77" height="77" fill="white"/>
</clipPath>
</defs>
</svg>
