<svg width="50" height="54" viewBox="0 0 50 54" fill="none" xmlns="http://www.w3.org/2000/svg">
<path d="M24.6807 24.55C23.2978 35.6609 16.2346 37.6374 16.2346 45.3624C16.2346 50.1308 20.2479 54 25 54C29.7521 54 33.7627 50.1281 33.7627 45.3624C33.7627 37.6374 26.6995 35.6609 25.3166 24.55C25.2733 24.2179 24.724 24.2179 24.6807 24.55ZM8.44609 0.249084C7.06322 11.36 0 13.3338 0 21.0615C0 25.8271 4.01061 29.6991 8.76272 29.6991C13.5148 29.6991 17.5254 25.8271 17.5254 21.0615C17.5254 13.3365 10.4622 11.36 9.07935 0.249084C9.03875 -0.0830281 8.48668 -0.0830281 8.44609 0.249084ZM40.9207 0.249084C39.5378 11.36 32.4746 13.3365 32.4746 21.0615C32.4746 25.8271 36.4852 29.6991 41.2373 29.6991C45.9894 29.6991 50 25.8271 50 21.0615C50 13.3365 42.9368 11.36 41.5539 0.249084C41.5106 -0.0830281 40.9612 -0.0830281 40.9207 0.249084Z" fill="url(#paint0_linear_50_112)"/>
<defs>
<linearGradient id="paint0_linear_50_112" x1="0" y1="27" x2="50" y2="27" gradientUnits="userSpaceOnUse">
<stop stop-color="#72AA15"/>
<stop offset="1" stop-color="#5A8514"/>
</linearGradient>
</defs>
</svg>
