<svg width="48" height="48" viewBox="0 0 48 48" fill="none" xmlns="http://www.w3.org/2000/svg">
<rect width="48" height="48" rx="12" fill="#FFD978"/>
<path d="M29.6 29.6V32H18C17.0452 32 16.1295 31.6207 15.4544 30.9456C14.7793 30.2705 14.4 29.3548 14.4 28.4C14.4 27.4452 14.7793 26.5295 15.4544 25.8544C16.1295 25.1793 17.0452 24.8 18 24.8H18.4V23.2H18C16.6209 23.2 15.2982 23.7479 14.323 24.723C13.3479 25.6982 12.8 27.0209 12.8 28.4C12.8 29.7791 13.3479 31.1018 14.323 32.077C15.2982 33.0521 16.6209 33.6 18 33.6H29.6V36H36V29.6H29.6ZM34.4 34.4H31.2V31.2H34.4V34.4Z" fill="black"/>
<path d="M28 28.8H26.4V26.4H21.6V28.8H20V26.4C20 25.9757 20.1686 25.5687 20.4686 25.2686C20.7687 24.9686 21.1757 24.8 21.6 24.8H26.4C26.8243 24.8 27.2313 24.9686 27.5314 25.2686C27.8314 25.5687 28 25.9757 28 26.4V28.8ZM24 24C23.5253 24 23.0613 23.8592 22.6666 23.5955C22.272 23.3318 21.9643 22.957 21.7827 22.5184C21.601 22.0799 21.5535 21.5973 21.6461 21.1318C21.7387 20.6662 21.9673 20.2386 22.3029 19.9029C22.6386 19.5673 23.0662 19.3387 23.5318 19.2461C23.9973 19.1535 24.4799 19.201 24.9184 19.3827C25.357 19.5643 25.7318 19.872 25.9955 20.2666C26.2592 20.6613 26.4 21.1253 26.4 21.6C26.3994 22.2363 26.1463 22.8464 25.6964 23.2964C25.2464 23.7463 24.6363 23.9994 24 24ZM24 20.8C23.8418 20.8 23.6871 20.8469 23.5555 20.9348C23.424 21.0227 23.3214 21.1477 23.2609 21.2939C23.2003 21.44 23.1845 21.6009 23.2154 21.7561C23.2462 21.9113 23.3224 22.0538 23.4343 22.1657C23.5462 22.2776 23.6887 22.3538 23.8439 22.3846C23.9991 22.4155 24.16 22.3997 24.3061 22.3391C24.4523 22.2786 24.5773 22.176 24.6652 22.0445C24.7531 21.9129 24.8 21.7582 24.8 21.6C24.8 21.3878 24.7157 21.1843 24.5657 21.0343C24.4157 20.8843 24.2122 20.8 24 20.8Z" fill="black"/>
<path d="M30 14.4H18.4V12H12V18.4H18.4V16H30C30.9548 16 31.8705 16.3793 32.5456 17.0544C33.2207 17.7295 33.6 18.6452 33.6 19.6C33.6 20.5548 33.2207 21.4705 32.5456 22.1456C31.8705 22.8207 30.9548 23.2 30 23.2H29.6V24.8H30C31.3791 24.8 32.7018 24.2521 33.677 23.277C34.6521 22.3018 35.2 20.9791 35.2 19.6C35.2 18.2209 34.6521 16.8982 33.677 15.923C32.7018 14.9479 31.3791 14.4 30 14.4ZM16.8 16.8H13.6V13.6H16.8V16.8Z" fill="black"/>
</svg>
